%TF.GenerationSoftware,KiCad,Pcbnew,8.0.1*%
%TF.CreationDate,2024-09-20T18:09:38-07:00*%
%TF.ProjectId,motor_control_design,6d6f746f-725f-4636-9f6e-74726f6c5f64,rev?*%
%TF.SameCoordinates,Original*%
%TF.FileFunction,Copper,L1,Top*%
%TF.FilePolarity,Positive*%
%FSLAX46Y46*%
G04 Gerber Fmt 4.6, Leading zero omitted, Abs format (unit mm)*
G04 Created by KiCad (PCBNEW 8.0.1) date 2024-09-20 18:09:38*
%MOMM*%
%LPD*%
G01*
G04 APERTURE LIST*
G04 Aperture macros list*
%AMRoundRect*
0 Rectangle with rounded corners*
0 $1 Rounding radius*
0 $2 $3 $4 $5 $6 $7 $8 $9 X,Y pos of 4 corners*
0 Add a 4 corners polygon primitive as box body*
4,1,4,$2,$3,$4,$5,$6,$7,$8,$9,$2,$3,0*
0 Add four circle primitives for the rounded corners*
1,1,$1+$1,$2,$3*
1,1,$1+$1,$4,$5*
1,1,$1+$1,$6,$7*
1,1,$1+$1,$8,$9*
0 Add four rect primitives between the rounded corners*
20,1,$1+$1,$2,$3,$4,$5,0*
20,1,$1+$1,$4,$5,$6,$7,0*
20,1,$1+$1,$6,$7,$8,$9,0*
20,1,$1+$1,$8,$9,$2,$3,0*%
%AMHorizOval*
0 Thick line with rounded ends*
0 $1 width*
0 $2 $3 position (X,Y) of the first rounded end (center of the circle)*
0 $4 $5 position (X,Y) of the second rounded end (center of the circle)*
0 Add line between two ends*
20,1,$1,$2,$3,$4,$5,0*
0 Add two circle primitives to create the rounded ends*
1,1,$1,$2,$3*
1,1,$1,$4,$5*%
%AMRotRect*
0 Rectangle, with rotation*
0 The origin of the aperture is its center*
0 $1 length*
0 $2 width*
0 $3 Rotation angle, in degrees counterclockwise*
0 Add horizontal line*
21,1,$1,$2,0,0,$3*%
G04 Aperture macros list end*
%TA.AperFunction,SMDPad,CuDef*%
%ADD10RoundRect,0.250000X-0.475000X0.250000X-0.475000X-0.250000X0.475000X-0.250000X0.475000X0.250000X0*%
%TD*%
%TA.AperFunction,SMDPad,CuDef*%
%ADD11RoundRect,0.140000X0.219203X0.021213X0.021213X0.219203X-0.219203X-0.021213X-0.021213X-0.219203X0*%
%TD*%
%TA.AperFunction,SMDPad,CuDef*%
%ADD12RoundRect,0.135000X0.185000X-0.135000X0.185000X0.135000X-0.185000X0.135000X-0.185000X-0.135000X0*%
%TD*%
%TA.AperFunction,SMDPad,CuDef*%
%ADD13RoundRect,0.150000X0.521491X-0.309359X-0.309359X0.521491X-0.521491X0.309359X0.309359X-0.521491X0*%
%TD*%
%TA.AperFunction,SMDPad,CuDef*%
%ADD14RoundRect,0.218750X0.256250X-0.218750X0.256250X0.218750X-0.256250X0.218750X-0.256250X-0.218750X0*%
%TD*%
%TA.AperFunction,SMDPad,CuDef*%
%ADD15RoundRect,0.135000X-0.185000X0.135000X-0.185000X-0.135000X0.185000X-0.135000X0.185000X0.135000X0*%
%TD*%
%TA.AperFunction,SMDPad,CuDef*%
%ADD16RoundRect,0.218750X-0.218750X-0.256250X0.218750X-0.256250X0.218750X0.256250X-0.218750X0.256250X0*%
%TD*%
%TA.AperFunction,SMDPad,CuDef*%
%ADD17RoundRect,0.135000X-0.035355X0.226274X-0.226274X0.035355X0.035355X-0.226274X0.226274X-0.035355X0*%
%TD*%
%TA.AperFunction,SMDPad,CuDef*%
%ADD18RoundRect,0.140000X-0.140000X-0.170000X0.140000X-0.170000X0.140000X0.170000X-0.140000X0.170000X0*%
%TD*%
%TA.AperFunction,HeatsinkPad*%
%ADD19R,5.600000X5.600000*%
%TD*%
%TA.AperFunction,SMDPad,CuDef*%
%ADD20RoundRect,0.062500X0.375000X-0.062500X0.375000X0.062500X-0.375000X0.062500X-0.375000X-0.062500X0*%
%TD*%
%TA.AperFunction,SMDPad,CuDef*%
%ADD21RoundRect,0.062500X0.062500X-0.375000X0.062500X0.375000X-0.062500X0.375000X-0.062500X-0.375000X0*%
%TD*%
%TA.AperFunction,SMDPad,CuDef*%
%ADD22RoundRect,0.250000X-1.166726X0.247487X0.247487X-1.166726X1.166726X-0.247487X-0.247487X1.166726X0*%
%TD*%
%TA.AperFunction,ComponentPad*%
%ADD23RotRect,4.000000X4.000000X227.000000*%
%TD*%
%TA.AperFunction,SMDPad,CuDef*%
%ADD24R,2.000000X1.300000*%
%TD*%
%TA.AperFunction,SMDPad,CuDef*%
%ADD25R,0.400000X1.000000*%
%TD*%
%TA.AperFunction,SMDPad,CuDef*%
%ADD26RoundRect,0.135000X0.135000X0.185000X-0.135000X0.185000X-0.135000X-0.185000X0.135000X-0.185000X0*%
%TD*%
%TA.AperFunction,SMDPad,CuDef*%
%ADD27RoundRect,0.140000X-0.170000X0.140000X-0.170000X-0.140000X0.170000X-0.140000X0.170000X0.140000X0*%
%TD*%
%TA.AperFunction,SMDPad,CuDef*%
%ADD28RoundRect,0.150000X-0.150000X0.587500X-0.150000X-0.587500X0.150000X-0.587500X0.150000X0.587500X0*%
%TD*%
%TA.AperFunction,SMDPad,CuDef*%
%ADD29RoundRect,0.150000X0.587500X0.150000X-0.587500X0.150000X-0.587500X-0.150000X0.587500X-0.150000X0*%
%TD*%
%TA.AperFunction,ComponentPad*%
%ADD30RotRect,1.700000X1.700000X45.000000*%
%TD*%
%TA.AperFunction,ComponentPad*%
%ADD31HorizOval,1.700000X0.000000X0.000000X0.000000X0.000000X0*%
%TD*%
%TA.AperFunction,ComponentPad*%
%ADD32RotRect,4.000000X4.000000X131.000000*%
%TD*%
%TA.AperFunction,SMDPad,CuDef*%
%ADD33R,5.400000X2.900000*%
%TD*%
%TA.AperFunction,SMDPad,CuDef*%
%ADD34RoundRect,0.150000X-0.587500X-0.150000X0.587500X-0.150000X0.587500X0.150000X-0.587500X0.150000X0*%
%TD*%
%TA.AperFunction,SMDPad,CuDef*%
%ADD35RoundRect,0.250000X0.300000X-2.050000X0.300000X2.050000X-0.300000X2.050000X-0.300000X-2.050000X0*%
%TD*%
%TA.AperFunction,SMDPad,CuDef*%
%ADD36RoundRect,0.250000X2.375000X-2.025000X2.375000X2.025000X-2.375000X2.025000X-2.375000X-2.025000X0*%
%TD*%
%TA.AperFunction,SMDPad,CuDef*%
%ADD37RoundRect,0.250002X5.149998X-4.449998X5.149998X4.449998X-5.149998X4.449998X-5.149998X-4.449998X0*%
%TD*%
%TA.AperFunction,ComponentPad*%
%ADD38RotRect,4.000000X4.000000X138.000000*%
%TD*%
%TA.AperFunction,SMDPad,CuDef*%
%ADD39RotRect,1.400000X1.200000X135.000000*%
%TD*%
%TA.AperFunction,SMDPad,CuDef*%
%ADD40RoundRect,0.140000X0.021213X-0.219203X0.219203X-0.021213X-0.021213X0.219203X-0.219203X0.021213X0*%
%TD*%
%TA.AperFunction,SMDPad,CuDef*%
%ADD41RoundRect,0.135000X-0.135000X-0.185000X0.135000X-0.185000X0.135000X0.185000X-0.135000X0.185000X0*%
%TD*%
%TA.AperFunction,SMDPad,CuDef*%
%ADD42RoundRect,0.140000X0.140000X0.170000X-0.140000X0.170000X-0.140000X-0.170000X0.140000X-0.170000X0*%
%TD*%
%TA.AperFunction,SMDPad,CuDef*%
%ADD43R,3.911600X1.803400*%
%TD*%
%TA.AperFunction,SMDPad,CuDef*%
%ADD44R,4.495800X1.295400*%
%TD*%
%TA.AperFunction,SMDPad,CuDef*%
%ADD45RoundRect,0.135000X0.035355X-0.226274X0.226274X-0.035355X-0.035355X0.226274X-0.226274X0.035355X0*%
%TD*%
%TA.AperFunction,ComponentPad*%
%ADD46RotRect,4.000000X4.000000X36.000000*%
%TD*%
%TA.AperFunction,ViaPad*%
%ADD47C,1.270000*%
%TD*%
%TA.AperFunction,ViaPad*%
%ADD48C,0.600000*%
%TD*%
%TA.AperFunction,Conductor*%
%ADD49C,0.200000*%
%TD*%
%TA.AperFunction,Conductor*%
%ADD50C,1.270000*%
%TD*%
G04 APERTURE END LIST*
D10*
%TO.P,C14,1*%
%TO.N,GND*%
X136017000Y-86045001D03*
%TO.P,C14,2*%
%TO.N,+BATT*%
X136017000Y-87944999D03*
%TD*%
D11*
%TO.P,C4,1*%
%TO.N,+3.3V*%
X144484411Y-104733411D03*
%TO.P,C4,2*%
%TO.N,GND*%
X143805589Y-104054589D03*
%TD*%
D12*
%TO.P,R21,1*%
%TO.N,GND*%
X157861000Y-106681999D03*
%TO.P,R21,2*%
%TO.N,/E2B*%
X157861000Y-105662001D03*
%TD*%
D13*
%TO.P,Q13,1,G*%
%TO.N,/M1Q1*%
X131337074Y-77816577D03*
%TO.P,Q13,2,S*%
%TO.N,GND*%
X132680577Y-76473074D03*
%TO.P,Q13,3,D*%
%TO.N,Net-(Q13-D)*%
X130683000Y-75819000D03*
%TD*%
D14*
%TO.P,D2,1,K*%
%TO.N,Net-(D2-K)*%
X158879000Y-114937000D03*
%TO.P,D2,2,A*%
%TO.N,/LED_G*%
X158879000Y-113361998D03*
%TD*%
D15*
%TO.P,R3,1*%
%TO.N,+3.3V*%
X157480000Y-110996001D03*
%TO.P,R3,2*%
%TO.N,/NRST*%
X157480000Y-112015999D03*
%TD*%
D16*
%TO.P,FB1,1*%
%TO.N,+3.3VA*%
X154279500Y-108458000D03*
%TO.P,FB1,2*%
%TO.N,+3.3V*%
X155854500Y-108458000D03*
%TD*%
D17*
%TO.P,R1,1*%
%TO.N,/SDA*%
X138028624Y-107843376D03*
%TO.P,R1,2*%
%TO.N,+3.3V*%
X137307376Y-108564624D03*
%TD*%
D18*
%TO.P,C7,1*%
%TO.N,Net-(U1-VCAP1)*%
X153952000Y-100711000D03*
%TO.P,C7,2*%
%TO.N,GND*%
X154912000Y-100711000D03*
%TD*%
D19*
%TO.P,U1,49,VSS*%
%TO.N,GND*%
X149333570Y-102427000D03*
D20*
%TO.P,U1,48,VDD*%
%TO.N,+3.3V*%
X145896070Y-105177000D03*
%TO.P,U1,47,VSS*%
%TO.N,GND*%
X145896070Y-104677000D03*
%TO.P,U1,46,PB9*%
%TO.N,unconnected-(U1-PB9-Pad46)*%
X145896070Y-104176999D03*
%TO.P,U1,45,PB8*%
%TO.N,/SCL*%
X145896070Y-103677000D03*
%TO.P,U1,44,BOOT0*%
%TO.N,unconnected-(U1-BOOT0-Pad44)*%
X145896070Y-103177001D03*
%TO.P,U1,43,PB7*%
%TO.N,/SDA*%
X145896070Y-102677000D03*
%TO.P,U1,42,PB6*%
%TO.N,unconnected-(U1-PB6-Pad42)*%
X145896070Y-102177000D03*
%TO.P,U1,41,PB5*%
%TO.N,/E1B*%
X145896070Y-101676999D03*
%TO.P,U1,40,PB4*%
%TO.N,unconnected-(U1-PB4-Pad40)*%
X145896070Y-101177000D03*
%TO.P,U1,39,PB3*%
%TO.N,/E1A*%
X145896070Y-100677001D03*
%TO.P,U1,38,PA15*%
%TO.N,unconnected-(U1-PA15-Pad38)*%
X145896070Y-100177000D03*
%TO.P,U1,37,PA14*%
%TO.N,/SWCLK*%
X145896070Y-99677000D03*
D21*
%TO.P,U1,36,VDD*%
%TO.N,+3.3V*%
X146583570Y-98989500D03*
%TO.P,U1,35,VSS*%
%TO.N,GND*%
X147083570Y-98989500D03*
%TO.P,U1,34,PA13*%
%TO.N,/SWDIO*%
X147583571Y-98989500D03*
%TO.P,U1,33,PA12*%
%TO.N,/M1Q2*%
X148083570Y-98989500D03*
%TO.P,U1,32,PA11*%
%TO.N,/M1Q1*%
X148583569Y-98989500D03*
%TO.P,U1,31,PA10*%
%TO.N,/M1Q3*%
X149083570Y-98989500D03*
%TO.P,U1,30,PA9*%
%TO.N,/M1Q4*%
X149583570Y-98989500D03*
%TO.P,U1,29,PA8*%
%TO.N,/M2Q4*%
X150083571Y-98989500D03*
%TO.P,U1,28,PB15*%
%TO.N,/M2Q2*%
X150583570Y-98989500D03*
%TO.P,U1,27,PB14*%
%TO.N,/M2Q1*%
X151083569Y-98989500D03*
%TO.P,U1,26,PB13*%
%TO.N,/M2Q3*%
X151583570Y-98989500D03*
%TO.P,U1,25,PB12*%
%TO.N,unconnected-(U1-PB12-Pad25)*%
X152083570Y-98989500D03*
D20*
%TO.P,U1,24,VDD*%
%TO.N,+3.3V*%
X152771070Y-99677000D03*
%TO.P,U1,23,VSS*%
%TO.N,GND*%
X152771070Y-100177000D03*
%TO.P,U1,22,VCAP1*%
%TO.N,Net-(U1-VCAP1)*%
X152771070Y-100677001D03*
%TO.P,U1,21,PB10*%
%TO.N,unconnected-(U1-PB10-Pad21)*%
X152771070Y-101177000D03*
%TO.P,U1,20,PB2*%
%TO.N,unconnected-(U1-PB2-Pad20)*%
X152771070Y-101676999D03*
%TO.P,U1,19,PB1*%
%TO.N,unconnected-(U1-PB1-Pad19)*%
X152771070Y-102177000D03*
%TO.P,U1,18,PB0*%
%TO.N,unconnected-(U1-PB0-Pad18)*%
X152771070Y-102677000D03*
%TO.P,U1,17,PA7*%
%TO.N,unconnected-(U1-PA7-Pad17)*%
X152771070Y-103177001D03*
%TO.P,U1,16,PA6*%
%TO.N,/E2A*%
X152771070Y-103677000D03*
%TO.P,U1,15,PA5*%
%TO.N,/E2B*%
X152771070Y-104176999D03*
%TO.P,U1,14,PA4*%
%TO.N,/VBatt_sense*%
X152771070Y-104677000D03*
%TO.P,U1,13,PA3*%
%TO.N,unconnected-(U1-PA3-Pad13)*%
X152771070Y-105177000D03*
D21*
%TO.P,U1,12,PA2*%
%TO.N,+3.3V*%
X152083570Y-105864500D03*
%TO.P,U1,11,PA1*%
%TO.N,unconnected-(U1-PA1-Pad11)*%
X151583570Y-105864500D03*
%TO.P,U1,10,PA0*%
%TO.N,unconnected-(U1-PA0-Pad10)*%
X151083569Y-105864500D03*
%TO.P,U1,9,VREF+*%
%TO.N,+3.3VA*%
X150583570Y-105864500D03*
%TO.P,U1,8,VSSA*%
%TO.N,GND*%
X150083571Y-105864500D03*
%TO.P,U1,7,NRST*%
%TO.N,/NRST*%
X149583570Y-105864500D03*
%TO.P,U1,6,PH1*%
%TO.N,/OSC_OUT*%
X149083570Y-105864500D03*
%TO.P,U1,5,PH0*%
%TO.N,/OSC_IN*%
X148583569Y-105864500D03*
%TO.P,U1,4,PC15*%
%TO.N,unconnected-(U1-PC15-Pad4)*%
X148083570Y-105864500D03*
%TO.P,U1,3,PC14*%
%TO.N,/LED_B*%
X147583571Y-105864500D03*
%TO.P,U1,2,PC13*%
%TO.N,/LED_G*%
X147083570Y-105864500D03*
%TO.P,U1,1,VBAT*%
%TO.N,+3.3V*%
X146583570Y-105864500D03*
%TD*%
D22*
%TO.P,D11,2,A*%
%TO.N,GND*%
X160164214Y-93997214D03*
%TO.P,D11,1,K*%
%TO.N,Net-(D11-K)*%
X157335786Y-91168786D03*
%TD*%
D23*
%TO.P,J4,1,Pin_1*%
%TO.N,GND*%
X127000000Y-71120000D03*
%TD*%
D14*
%TO.P,D3,1,K*%
%TO.N,Net-(D3-K)*%
X160657000Y-114937000D03*
%TO.P,D3,2,A*%
%TO.N,/LED_B*%
X160657000Y-113361998D03*
%TD*%
D24*
%TO.P,J5,MP*%
%TO.N,N/C*%
X155348000Y-113538000D03*
X142748000Y-113538000D03*
D25*
%TO.P,J5,8,Pin_8*%
%TO.N,GND*%
X152548000Y-110838000D03*
%TO.P,J5,7,Pin_7*%
%TO.N,/NRST*%
X151548000Y-110838000D03*
%TO.P,J5,6,Pin_6*%
%TO.N,/SCL*%
X150548000Y-110838000D03*
%TO.P,J5,5,Pin_5*%
%TO.N,/SDA*%
X149548000Y-110838000D03*
%TO.P,J5,4,Pin_4*%
%TO.N,/S2*%
X148548000Y-110838000D03*
%TO.P,J5,3,Pin_3*%
%TO.N,/S1*%
X147548000Y-110838000D03*
%TO.P,J5,2,Pin_2*%
%TO.N,+3.3V*%
X146548000Y-110838000D03*
%TO.P,J5,1,Pin_1*%
%TO.N,VBUS*%
X145548000Y-110838000D03*
%TD*%
D26*
%TO.P,R24,1*%
%TO.N,/M2Q3*%
X156084999Y-64135000D03*
%TO.P,R24,2*%
%TO.N,GND*%
X155065001Y-64135000D03*
%TD*%
D27*
%TO.P,C11,1*%
%TO.N,+3.3V*%
X157099000Y-108105000D03*
%TO.P,C11,2*%
%TO.N,GND*%
X157099000Y-109065000D03*
%TD*%
D11*
%TO.P,C2,1*%
%TO.N,/OSC_IN*%
X144230411Y-106003411D03*
%TO.P,C2,2*%
%TO.N,GND*%
X143551589Y-105324589D03*
%TD*%
D12*
%TO.P,R8,1*%
%TO.N,Net-(D3-K)*%
X162054000Y-115395997D03*
%TO.P,R8,2*%
%TO.N,GND*%
X162054000Y-114375999D03*
%TD*%
D18*
%TO.P,C15,1*%
%TO.N,GND*%
X151440000Y-86868000D03*
%TO.P,C15,2*%
%TO.N,+3.3V*%
X152400000Y-86868000D03*
%TD*%
D28*
%TO.P,Q4,1,G*%
%TO.N,/M1Q3*%
X143571000Y-64594500D03*
%TO.P,Q4,2,S*%
%TO.N,GND*%
X141671000Y-64594500D03*
%TO.P,Q4,3,D*%
%TO.N,Net-(Q1-G)*%
X142621000Y-66469501D03*
%TD*%
D29*
%TO.P,Q5,1,G*%
%TO.N,/M2Q1*%
X169418000Y-78105000D03*
%TO.P,Q5,2,S*%
%TO.N,GND*%
X169418000Y-76205000D03*
%TO.P,Q5,3,D*%
%TO.N,Net-(Q5-D)*%
X167542999Y-77155000D03*
%TD*%
D15*
%TO.P,R10,1*%
%TO.N,GND*%
X136525000Y-96012000D03*
%TO.P,R10,2*%
%TO.N,/E1B*%
X136525000Y-97031998D03*
%TD*%
D12*
%TO.P,R9,1*%
%TO.N,GND*%
X136525000Y-94997999D03*
%TO.P,R9,2*%
%TO.N,/E1A*%
X136525000Y-93978001D03*
%TD*%
D30*
%TO.P,J2,1,Pin_1*%
%TO.N,/NRST*%
X128251949Y-107296949D03*
D31*
%TO.P,J2,2,Pin_2*%
%TO.N,/SWDIO*%
X130048000Y-109093000D03*
%TO.P,J2,3,Pin_3*%
%TO.N,GND*%
X131844051Y-110889051D03*
%TO.P,J2,4,Pin_4*%
%TO.N,/SWCLK*%
X133640103Y-112685103D03*
%TD*%
D32*
%TO.P,J3,1,Pin_1*%
%TO.N,+BATT*%
X130810000Y-67437000D03*
%TD*%
D12*
%TO.P,R2,1*%
%TO.N,/SCL*%
X158496000Y-112015999D03*
%TO.P,R2,2*%
%TO.N,+3.3V*%
X158496000Y-110996001D03*
%TD*%
%TO.P,R17,1*%
%TO.N,/M2Q1*%
X170942000Y-77597000D03*
%TO.P,R17,2*%
%TO.N,GND*%
X170942000Y-76577002D03*
%TD*%
D18*
%TO.P,C1,1*%
%TO.N,+3.3V*%
X146078000Y-96774000D03*
%TO.P,C1,2*%
%TO.N,GND*%
X147038000Y-96774000D03*
%TD*%
D33*
%TO.P,L1,2,2*%
%TO.N,+3.3V*%
X155232000Y-83814002D03*
%TO.P,L1,1,1*%
%TO.N,Net-(D11-K)*%
X155232000Y-73914000D03*
%TD*%
D34*
%TO.P,Q10,1,G*%
%TO.N,Net-(J6-Pin_6)*%
X133126000Y-96332000D03*
%TO.P,Q10,2,S*%
%TO.N,+3.3V*%
X133126000Y-98232000D03*
%TO.P,Q10,3,D*%
%TO.N,/E1B*%
X135001000Y-97282000D03*
%TD*%
D15*
%TO.P,R22,1*%
%TO.N,GND*%
X157861000Y-100836001D03*
%TO.P,R22,2*%
%TO.N,/E2A*%
X157861000Y-101855999D03*
%TD*%
D12*
%TO.P,R5,1*%
%TO.N,Net-(D1-K)*%
X138303000Y-114809999D03*
%TO.P,R5,2*%
%TO.N,GND*%
X138303000Y-113790001D03*
%TD*%
D35*
%TO.P,U3,1,VIN*%
%TO.N,+BATT*%
X139367000Y-86124000D03*
%TO.P,U3,2,OUT*%
%TO.N,Net-(D11-K)*%
X141067000Y-86123999D03*
%TO.P,U3,3,GND*%
%TO.N,GND*%
X142767000Y-86124000D03*
D36*
X139992000Y-79399000D03*
X145542000Y-79399000D03*
D37*
X142767000Y-76974000D03*
D36*
X139992000Y-74549000D03*
X145542000Y-74549000D03*
D35*
%TO.P,U3,4,FB*%
%TO.N,+3.3V*%
X144467000Y-86123999D03*
%TO.P,U3,5,~{ON}/OFF*%
%TO.N,GND*%
X146167000Y-86124000D03*
%TD*%
D29*
%TO.P,Q11,1,G*%
%TO.N,Net-(J8-Pin_6)*%
X161290000Y-106040000D03*
%TO.P,Q11,2,S*%
%TO.N,+3.3V*%
X161290000Y-104140000D03*
%TO.P,Q11,3,D*%
%TO.N,/E2B*%
X159414999Y-105090000D03*
%TD*%
D15*
%TO.P,R11,1*%
%TO.N,+BATT*%
X156337000Y-101598001D03*
%TO.P,R11,2*%
%TO.N,/VBatt_sense*%
X156337000Y-102617999D03*
%TD*%
D38*
%TO.P,J10,1,Pin_1*%
%TO.N,+3.3V*%
X170307000Y-107569000D03*
%TD*%
D29*
%TO.P,Q12,1,G*%
%TO.N,Net-(J8-Pin_5)*%
X161260001Y-102423000D03*
%TO.P,Q12,2,S*%
%TO.N,+3.3V*%
X161260001Y-100523000D03*
%TO.P,Q12,3,D*%
%TO.N,/E2A*%
X159385000Y-101473000D03*
%TD*%
D18*
%TO.P,C3,1*%
%TO.N,+3.3V*%
X152047000Y-107188000D03*
%TO.P,C3,2*%
%TO.N,GND*%
X153007000Y-107188000D03*
%TD*%
D39*
%TO.P,Y1,1,1*%
%TO.N,/OSC_IN*%
X142965716Y-106934000D03*
%TO.P,Y1,2,2*%
%TO.N,GND*%
X141410081Y-105378365D03*
%TO.P,Y1,3,3*%
%TO.N,/OSC_OUT*%
X140208000Y-106580446D03*
%TO.P,Y1,4,4*%
%TO.N,GND*%
X141763635Y-108136081D03*
%TD*%
D26*
%TO.P,R6,1*%
%TO.N,/M1Q3*%
X143003999Y-63070499D03*
%TO.P,R6,2*%
%TO.N,GND*%
X141984001Y-63070499D03*
%TD*%
D18*
%TO.P,C8,1*%
%TO.N,+3.3V*%
X146078000Y-97790000D03*
%TO.P,C8,2*%
%TO.N,GND*%
X147038000Y-97790000D03*
%TD*%
D34*
%TO.P,Q8,1,G*%
%TO.N,Net-(J6-Pin_5)*%
X133126000Y-92776000D03*
%TO.P,Q8,2,S*%
%TO.N,+3.3V*%
X133126000Y-94676000D03*
%TO.P,Q8,3,D*%
%TO.N,/E1A*%
X135001000Y-93726000D03*
%TD*%
D40*
%TO.P,C5,1*%
%TO.N,/OSC_OUT*%
X138852589Y-105749411D03*
%TO.P,C5,2*%
%TO.N,GND*%
X139531411Y-105070589D03*
%TD*%
D41*
%TO.P,R7,1*%
%TO.N,Net-(D2-K)*%
X159004000Y-116155998D03*
%TO.P,R7,2*%
%TO.N,GND*%
X160024000Y-116155998D03*
%TD*%
D42*
%TO.P,C9,1*%
%TO.N,+3.3VA*%
X151102000Y-107188000D03*
%TO.P,C9,2*%
%TO.N,GND*%
X150142000Y-107188000D03*
%TD*%
%TO.P,C10,1*%
%TO.N,+3.3VA*%
X151229000Y-108204000D03*
%TO.P,C10,2*%
%TO.N,GND*%
X150269000Y-108204000D03*
%TD*%
D43*
%TO.P,J6,8*%
%TO.N,N/C*%
X122310953Y-99530498D03*
%TO.P,J6,7*%
X122310944Y-80630497D03*
D44*
%TO.P,J6,6,Pin_6*%
%TO.N,Net-(J6-Pin_6)*%
X129110949Y-96330498D03*
%TO.P,J6,5,Pin_5*%
%TO.N,Net-(J6-Pin_5)*%
X129110944Y-93830497D03*
%TO.P,J6,4,Pin_4*%
%TO.N,+BATT*%
X129110945Y-91330496D03*
%TO.P,J6,3,Pin_3*%
%TO.N,GND*%
X129110948Y-88830496D03*
%TO.P,J6,2,Pin_2*%
%TO.N,/M1B*%
X129110946Y-86330501D03*
%TO.P,J6,1,Pin_1*%
%TO.N,/M1A*%
X129110946Y-83830497D03*
%TD*%
D14*
%TO.P,D1,1,K*%
%TO.N,Net-(D1-K)*%
X139573000Y-115087501D03*
%TO.P,D1,2,A*%
%TO.N,+3.3V*%
X139573000Y-113512499D03*
%TD*%
D43*
%TO.P,J8,8*%
%TO.N,N/C*%
X175712194Y-80211998D03*
%TO.P,J8,7*%
X175712202Y-99111999D03*
D44*
%TO.P,J8,6,Pin_6*%
%TO.N,Net-(J8-Pin_6)*%
X168912197Y-83411998D03*
%TO.P,J8,5,Pin_5*%
%TO.N,Net-(J8-Pin_5)*%
X168912202Y-85911999D03*
%TO.P,J8,4,Pin_4*%
%TO.N,+BATT*%
X168912201Y-88412000D03*
%TO.P,J8,3,Pin_3*%
%TO.N,GND*%
X168912198Y-90912000D03*
%TO.P,J8,2,Pin_2*%
%TO.N,/M2B*%
X168912200Y-93411995D03*
%TO.P,J8,1,Pin_1*%
%TO.N,/M2A*%
X168912200Y-95911999D03*
%TD*%
D45*
%TO.P,R4,1*%
%TO.N,/M1Q1*%
X129306376Y-75036624D03*
%TO.P,R4,2*%
%TO.N,GND*%
X130027624Y-74315376D03*
%TD*%
D27*
%TO.P,C6,1*%
%TO.N,+3.3V*%
X154051000Y-98707000D03*
%TO.P,C6,2*%
%TO.N,GND*%
X154051000Y-99667000D03*
%TD*%
D46*
%TO.P,J9,1,Pin_1*%
%TO.N,GND*%
X166243000Y-111379000D03*
%TD*%
D41*
%TO.P,R12,1*%
%TO.N,/VBatt_sense*%
X156208000Y-103632000D03*
%TO.P,R12,2*%
%TO.N,GND*%
X157228000Y-103632000D03*
%TD*%
D28*
%TO.P,Q16,1,G*%
%TO.N,/M2Q3*%
X156586000Y-65659000D03*
%TO.P,Q16,2,S*%
%TO.N,GND*%
X154686000Y-65659000D03*
%TO.P,Q16,3,D*%
%TO.N,Net-(Q14-G)*%
X155636000Y-67534001D03*
%TD*%
D47*
%TO.N,GND*%
X162687000Y-93980000D03*
D48*
X167005000Y-102362000D03*
X133350000Y-72517000D03*
X140589000Y-104521000D03*
X137414000Y-95631000D03*
X133350000Y-69088000D03*
X151003000Y-109093000D03*
X153162000Y-109474000D03*
D47*
X164338000Y-90297000D03*
D48*
X132461000Y-108331000D03*
D47*
X156464000Y-87757000D03*
X142748000Y-88392000D03*
X136144000Y-78613000D03*
D48*
X154813000Y-101727000D03*
X157607000Y-100076000D03*
X162092246Y-113648548D03*
X157099000Y-106426000D03*
X160909000Y-115951000D03*
D47*
X161417000Y-89662000D03*
D48*
X157988000Y-104013000D03*
X157353000Y-109855000D03*
X137541000Y-113792000D03*
X152527000Y-108077000D03*
%TO.N,+3.3V*%
X138430000Y-100457000D03*
X140908927Y-100459279D03*
X154686000Y-106172000D03*
D47*
X169037000Y-73152000D03*
D48*
X142748000Y-103505000D03*
X139573000Y-110871000D03*
D47*
X164846000Y-70993000D03*
D48*
X146558000Y-109601000D03*
X145542000Y-106172000D03*
%TO.N,+BATT*%
X157734000Y-98552000D03*
X155702000Y-98552000D03*
D47*
X132207000Y-82296000D03*
X164465000Y-69342000D03*
D48*
%TO.N,/LED_G*%
X159874357Y-112112738D03*
X146177000Y-106807000D03*
%TO.N,/LED_B*%
X161544000Y-112268000D03*
X147066000Y-107188000D03*
D47*
%TO.N,/M1A*%
X126238000Y-84836000D03*
%TO.N,/M1B*%
X134239000Y-82804000D03*
D48*
%TO.N,/NRST*%
X138303000Y-112395000D03*
X152400000Y-111887000D03*
X140589000Y-112395000D03*
X151384000Y-113030000D03*
%TO.N,/M1Q3*%
X134112000Y-68453000D03*
X134112000Y-77597000D03*
X125857000Y-77216000D03*
X132080000Y-101092000D03*
X134239000Y-100330000D03*
X128016000Y-77216000D03*
%TO.N,/M1Q1*%
X134874000Y-99568000D03*
X132334000Y-99568000D03*
%TO.N,/M1Q4*%
X140970000Y-90805000D03*
%TO.N,/M1Q2*%
X139065000Y-94488000D03*
%TO.N,/VBatt_sense*%
X156464000Y-104775000D03*
X154178000Y-105156000D03*
%TO.N,/M2Q1*%
X164973000Y-78867000D03*
X163068000Y-76708000D03*
%TO.N,/M2Q3*%
X164211000Y-79248000D03*
X162179000Y-67056000D03*
%TO.N,/M2Q4*%
X154813000Y-92456000D03*
%TO.N,/M2Q2*%
X161036000Y-97409000D03*
D47*
%TO.N,/M2A*%
X169418000Y-97663000D03*
%TO.N,/M2B*%
X151130000Y-93726000D03*
D48*
%TO.N,/E1A*%
X144653000Y-100711000D03*
X139192000Y-92837000D03*
%TO.N,/E1B*%
X144018000Y-101600000D03*
X139573000Y-99060000D03*
%TO.N,/E2B*%
X154813000Y-104521000D03*
X157480000Y-104775000D03*
%TO.N,/E2A*%
X157734000Y-102743000D03*
X154178000Y-103886000D03*
%TO.N,Net-(Q1-G)*%
X149098000Y-67056000D03*
X149098000Y-69469000D03*
X150404939Y-77027648D03*
%TO.N,Net-(Q13-D)*%
X133731000Y-78867000D03*
%TO.N,Net-(Q5-D)*%
X160782000Y-84455000D03*
X162306000Y-75946000D03*
X165100000Y-77978000D03*
%TO.N,Net-(Q14-G)*%
X161671000Y-67945000D03*
X149606000Y-64897000D03*
X161671000Y-72771000D03*
X149606000Y-70104000D03*
X158877000Y-72136000D03*
X149352000Y-72644000D03*
%TD*%
D49*
%TO.N,/SWDIO*%
X147618000Y-96417866D02*
X147618000Y-98955071D01*
X147339134Y-96139000D02*
X147618000Y-96417866D01*
X144145000Y-96139000D02*
X147339134Y-96139000D01*
X138303000Y-101981000D02*
X144145000Y-96139000D01*
X147618000Y-98955071D02*
X147583571Y-98989500D01*
X133858000Y-101981000D02*
X138303000Y-101981000D01*
X130048000Y-105791000D02*
X133858000Y-101981000D01*
X130048000Y-109093000D02*
X130048000Y-105791000D01*
D50*
%TO.N,+BATT*%
X137546001Y-87944999D02*
X139367000Y-86124000D01*
X136017000Y-87944999D02*
X137546001Y-87944999D01*
X132631503Y-91330496D02*
X136017000Y-87944999D01*
X129110945Y-91330496D02*
X132631503Y-91330496D01*
%TO.N,GND*%
X136017000Y-83374000D02*
X139992000Y-79399000D01*
X136017000Y-86045001D02*
X136017000Y-83374000D01*
X135528211Y-86045001D02*
X136017000Y-86045001D01*
X132742716Y-88830496D02*
X135528211Y-86045001D01*
X129110948Y-88830496D02*
X132742716Y-88830496D01*
%TO.N,+BATT*%
X131161602Y-91330496D02*
X129110945Y-91330496D01*
%TO.N,GND*%
X162687000Y-93980000D02*
X162704214Y-93997214D01*
X162669786Y-93997214D02*
X162687000Y-93980000D01*
X160164214Y-93997214D02*
X162669786Y-93997214D01*
D49*
X152542000Y-63515000D02*
X154686000Y-65659000D01*
D50*
X142767000Y-88373000D02*
X142767000Y-86124000D01*
D49*
X150269000Y-108204000D02*
X150269000Y-108486000D01*
X157607000Y-103632000D02*
X157988000Y-104013000D01*
X154912000Y-100711000D02*
X154912000Y-101628000D01*
X153541000Y-100177000D02*
X154051000Y-99667000D01*
X160909000Y-115951000D02*
X160909000Y-115824000D01*
D50*
X128548262Y-72668262D02*
X127000000Y-71120000D01*
D49*
X131844051Y-108947949D02*
X132461000Y-108331000D01*
X141746477Y-105714761D02*
X141410081Y-105378365D01*
X157228000Y-103632000D02*
X157607000Y-103632000D01*
X157354999Y-106681999D02*
X157099000Y-106426000D01*
X132680577Y-76473074D02*
X134004074Y-76473074D01*
X150269000Y-108486000D02*
X150622000Y-108839000D01*
X142604001Y-62450499D02*
X141984001Y-63070499D01*
X137671998Y-113790001D02*
X137541000Y-113792000D01*
X149333570Y-102427000D02*
X151583570Y-100177000D01*
D50*
X142767000Y-86124000D02*
X142767000Y-76974000D01*
D49*
X167686000Y-74473000D02*
X167686000Y-69007000D01*
X155065001Y-64135000D02*
X155065001Y-65279999D01*
X160450002Y-116155998D02*
X160655000Y-115951000D01*
X141984001Y-63070499D02*
X141984001Y-64281499D01*
X136525000Y-94997999D02*
X136525000Y-96012000D01*
X147038000Y-97790000D02*
X147038000Y-98943930D01*
X157861000Y-106681999D02*
X157354999Y-106681999D01*
D50*
X136144000Y-78613000D02*
X136017000Y-78613000D01*
D49*
X155700001Y-63500000D02*
X155065001Y-64135000D01*
D50*
X139992000Y-79399000D02*
X136803000Y-79399000D01*
D49*
X150083571Y-105864500D02*
X150083571Y-103177001D01*
X160655000Y-115951000D02*
X160909000Y-115951000D01*
X160782000Y-115824000D02*
X160909000Y-115951000D01*
D50*
X164953000Y-90912000D02*
X164338000Y-90297000D01*
D49*
X134004074Y-76473074D02*
X136144000Y-78613000D01*
X150622000Y-108839000D02*
X150749000Y-108966000D01*
X137541000Y-113792000D02*
X137668000Y-113790001D01*
X148175499Y-62450499D02*
X142604001Y-62450499D01*
X140552716Y-104521000D02*
X140589000Y-104557284D01*
X131844051Y-110889051D02*
X131844051Y-108947949D01*
X167686000Y-69007000D02*
X162179000Y-63500000D01*
D50*
X158623000Y-89662000D02*
X156718000Y-87757000D01*
D49*
X141763635Y-108136081D02*
X141746477Y-108118923D01*
X150142000Y-107188000D02*
X150142000Y-105922929D01*
D50*
X146167000Y-88424000D02*
X145332001Y-89258999D01*
D49*
X149352000Y-63627000D02*
X148175499Y-62450499D01*
X157861000Y-100330000D02*
X157607000Y-100076000D01*
X133350000Y-68615000D02*
X133350000Y-69088000D01*
D50*
X139992000Y-74549000D02*
X138111262Y-72668262D01*
D49*
X149464000Y-63515000D02*
X152542000Y-63515000D01*
D50*
X161417000Y-89662000D02*
X158623000Y-89662000D01*
D49*
X151003000Y-109093000D02*
X150876000Y-108966000D01*
X152527000Y-108077000D02*
X152546000Y-108058000D01*
X130027624Y-73704638D02*
X131064000Y-72668262D01*
X143497813Y-105378365D02*
X143551589Y-105324589D01*
X140589000Y-104521000D02*
X140552716Y-104521000D01*
X150083571Y-103177001D02*
X149333570Y-102427000D01*
X150269000Y-108204000D02*
X150269000Y-107315000D01*
D50*
X142767000Y-88411000D02*
X142748000Y-88392000D01*
D49*
X139531411Y-105070589D02*
X140039411Y-105070589D01*
X130027624Y-74315376D02*
X130027624Y-73704638D01*
X147038000Y-98943930D02*
X147083570Y-98989500D01*
X147038000Y-96774000D02*
X147038000Y-97790000D01*
D50*
X143487999Y-89258999D02*
X142767000Y-88538000D01*
D49*
X160024000Y-116155998D02*
X160450002Y-116155998D01*
D50*
X145332001Y-89258999D02*
X143487999Y-89258999D01*
D49*
X145896070Y-104677000D02*
X147083570Y-104677000D01*
X147083570Y-104677000D02*
X149333570Y-102427000D01*
X143805589Y-104054589D02*
X143805589Y-105070589D01*
X151583570Y-100177000D02*
X152771070Y-100177000D01*
X133350000Y-68366471D02*
X133350000Y-68615000D01*
D50*
X136144000Y-78740000D02*
X136144000Y-78613000D01*
D49*
X130522879Y-74315376D02*
X132680577Y-76473074D01*
D50*
X142767000Y-88538000D02*
X142767000Y-88411000D01*
D49*
X170942000Y-76577002D02*
X169790002Y-76577002D01*
X141410081Y-105378365D02*
X143497813Y-105378365D01*
D50*
X168912198Y-90912000D02*
X164953000Y-90912000D01*
D49*
X152548000Y-110088000D02*
X153162000Y-109474000D01*
X146911000Y-86868000D02*
X146167000Y-86124000D01*
X154912000Y-100528000D02*
X154051000Y-99667000D01*
X130027624Y-74315376D02*
X130522879Y-74315376D01*
X150142000Y-105922929D02*
X150083571Y-105864500D01*
X137033000Y-96012000D02*
X137414000Y-95631000D01*
X154912000Y-101628000D02*
X154813000Y-101727000D01*
X141410081Y-105378365D02*
X140589000Y-104557284D01*
X138303000Y-113790001D02*
X137671998Y-113790001D01*
X149333570Y-102427000D02*
X149333570Y-101691385D01*
X150269000Y-107315000D02*
X150142000Y-107188000D01*
X149333570Y-101691385D02*
X147083570Y-99441385D01*
X152548000Y-110838000D02*
X152548000Y-110088000D01*
X141671000Y-64594500D02*
X137121971Y-64594500D01*
X149352000Y-63627000D02*
X149464000Y-63515000D01*
X153007000Y-107188000D02*
X153007000Y-107597000D01*
X162054000Y-114375999D02*
X162054000Y-113686794D01*
D50*
X146167000Y-86124000D02*
X146167000Y-88424000D01*
D49*
X141746477Y-108118923D02*
X141746477Y-105714761D01*
D50*
X136017000Y-78613000D02*
X136017000Y-78613000D01*
X136803000Y-79399000D02*
X136144000Y-78740000D01*
D49*
X151440000Y-86868000D02*
X146911000Y-86868000D01*
X141984001Y-64281499D02*
X141671000Y-64594500D01*
X145542000Y-74168000D02*
X145542000Y-74549000D01*
X155065001Y-65279999D02*
X154686000Y-65659000D01*
X152771070Y-100177000D02*
X153541000Y-100177000D01*
X143805589Y-105070589D02*
X143551589Y-105324589D01*
X140589000Y-104557284D02*
X140589000Y-104521000D01*
X169418000Y-76205000D02*
X167686000Y-74473000D01*
X137121971Y-64594500D02*
X133350000Y-68366471D01*
X169790002Y-76577002D02*
X169418000Y-76205000D01*
X154912000Y-100711000D02*
X154912000Y-100528000D01*
X140039411Y-105070589D02*
X140589000Y-104521000D01*
X157861000Y-100836001D02*
X157861000Y-100330000D01*
X150749000Y-108966000D02*
X151003000Y-109093000D01*
X136525000Y-96012000D02*
X137033000Y-96012000D01*
D50*
X138111262Y-72668262D02*
X131064000Y-72668262D01*
D49*
X162054000Y-113686794D02*
X162092246Y-113648548D01*
X152654000Y-107950000D02*
X152527000Y-108077000D01*
X162179000Y-63500000D02*
X155700001Y-63500000D01*
X153007000Y-107597000D02*
X152654000Y-107950000D01*
D50*
X156718000Y-87757000D02*
X156464000Y-87757000D01*
X142748000Y-88392000D02*
X142767000Y-88373000D01*
D49*
X157099000Y-109065000D02*
X157099000Y-109601000D01*
X147083570Y-99441385D02*
X147083570Y-98989500D01*
X157099000Y-109601000D02*
X157353000Y-109855000D01*
D50*
X131064000Y-72668262D02*
X128548262Y-72668262D01*
D49*
X137668000Y-113790001D02*
X137669999Y-113790001D01*
%TO.N,+3.3V*%
X133126000Y-98232000D02*
X133126000Y-99624529D01*
X132842000Y-99908529D02*
X132842000Y-100965000D01*
X155232000Y-84036000D02*
X155232000Y-83814002D01*
X142748000Y-103505000D02*
X142748000Y-103378000D01*
D50*
X152333000Y-70993000D02*
X151697000Y-71629000D01*
D49*
X154051000Y-98707000D02*
X153741070Y-98707000D01*
X154051000Y-98707000D02*
X155492000Y-100148000D01*
X160222501Y-103072501D02*
X161290000Y-104140000D01*
X161290000Y-104593051D02*
X160252500Y-105630551D01*
D50*
X149987000Y-82989000D02*
X145357000Y-82989000D01*
X173535499Y-73518041D02*
X173169458Y-73152000D01*
D49*
X158623000Y-107569000D02*
X157226000Y-107569000D01*
X146078000Y-98483930D02*
X146583570Y-98989500D01*
X145896070Y-105177000D02*
X146583570Y-105864500D01*
X157226000Y-107569000D02*
X155492000Y-105835000D01*
X140911206Y-100457000D02*
X140908927Y-100459279D01*
X143864670Y-103251000D02*
X142875000Y-103251000D01*
X134163500Y-96741448D02*
X133126000Y-97778948D01*
X160222501Y-102082448D02*
X160222501Y-103072501D01*
D50*
X175712202Y-99111999D02*
X175712202Y-85646403D01*
D49*
X157226000Y-110996001D02*
X155854500Y-109624501D01*
X160655000Y-107569000D02*
X170307000Y-107569000D01*
X144484411Y-103870741D02*
X143864670Y-103251000D01*
X134163500Y-95713500D02*
X134163500Y-96741448D01*
X155492000Y-105366000D02*
X154686000Y-106172000D01*
X146276070Y-106172000D02*
X145542000Y-106172000D01*
X154559000Y-106426000D02*
X154190750Y-106794250D01*
X160252500Y-105630551D02*
X160252500Y-107166500D01*
X154190750Y-106794250D02*
X155854500Y-108458000D01*
X153261000Y-105864500D02*
X154190750Y-106794250D01*
D50*
X175525954Y-77237936D02*
X175079371Y-76281442D01*
D49*
X158623000Y-107569000D02*
X160655000Y-107569000D01*
D50*
X151697000Y-71629000D02*
X151697000Y-81279000D01*
D49*
X132842000Y-100965000D02*
X133350000Y-101473000D01*
X146078000Y-97790000D02*
X146078000Y-98483930D01*
D50*
X154406998Y-82989000D02*
X149987000Y-82989000D01*
D49*
X142113000Y-100457000D02*
X140911206Y-100457000D01*
X146558000Y-110828000D02*
X146548000Y-110838000D01*
D50*
X151697000Y-81279000D02*
X149987000Y-82989000D01*
D49*
X152400000Y-86868000D02*
X155232000Y-84036000D01*
X133126000Y-94676000D02*
X134163500Y-95713500D01*
D50*
X174083476Y-74420249D02*
X173535499Y-73518041D01*
D49*
X146583570Y-105864500D02*
X146276070Y-106172000D01*
X157099000Y-108105000D02*
X158087000Y-108105000D01*
X139573000Y-113512499D02*
X139573000Y-110871000D01*
X142875000Y-103251000D02*
X142748000Y-103505000D01*
D50*
X175712202Y-85646403D02*
X175712194Y-85646395D01*
D49*
X155492000Y-104902000D02*
X155492000Y-105366000D01*
D50*
X145357000Y-82989000D02*
X144467000Y-83879000D01*
D49*
X146078000Y-97790000D02*
X146078000Y-98016000D01*
X154559000Y-106299000D02*
X154559000Y-106426000D01*
D50*
X170307000Y-104517201D02*
X175712202Y-99111999D01*
D49*
X152083570Y-105864500D02*
X153261000Y-105864500D01*
X133350000Y-101473000D02*
X137414000Y-101473000D01*
X145161000Y-98933000D02*
X143637000Y-98933000D01*
X156207500Y-108105000D02*
X155854500Y-108458000D01*
D50*
X175712194Y-85646395D02*
X175712194Y-77677845D01*
D49*
X133126000Y-99624529D02*
X132842000Y-99908529D01*
X152047000Y-105901070D02*
X152083570Y-105864500D01*
X139573000Y-110830248D02*
X137307376Y-108564624D01*
X146558000Y-109601000D02*
X146558000Y-110828000D01*
X161260001Y-100523000D02*
X161260001Y-101044948D01*
D50*
X144467000Y-83879000D02*
X144467000Y-86123999D01*
D49*
X144484411Y-104733411D02*
X144484411Y-103870741D01*
X143637000Y-98933000D02*
X142113000Y-100457000D01*
D50*
X175712194Y-77677845D02*
X175525954Y-77237936D01*
D49*
X155492000Y-100148000D02*
X155492000Y-104902000D01*
X161260001Y-101044948D02*
X160222501Y-102082448D01*
D50*
X173169458Y-73152000D02*
X169037000Y-73152000D01*
D49*
X160252500Y-107166500D02*
X160655000Y-107569000D01*
X137414000Y-101473000D02*
X138430000Y-100457000D01*
X154686000Y-106172000D02*
X154559000Y-106299000D01*
X146078000Y-96774000D02*
X146078000Y-97790000D01*
X152047000Y-107188000D02*
X152047000Y-105901070D01*
X153741070Y-98707000D02*
X152771070Y-99677000D01*
X155492000Y-105835000D02*
X155492000Y-105366000D01*
X157099000Y-108105000D02*
X156207500Y-108105000D01*
D50*
X170307000Y-107569000D02*
X170307000Y-104517201D01*
D49*
X133126000Y-97778948D02*
X133126000Y-98232000D01*
X161290000Y-104140000D02*
X161290000Y-104593051D01*
D50*
X174598330Y-75341794D02*
X174083476Y-74420249D01*
D49*
X139573000Y-110871000D02*
X139573000Y-110830248D01*
X146078000Y-98016000D02*
X145161000Y-98933000D01*
X158087000Y-108105000D02*
X158623000Y-107569000D01*
X155854500Y-109624501D02*
X155854500Y-108458000D01*
D50*
X175079371Y-76281442D02*
X174598330Y-75341794D01*
X164846000Y-70993000D02*
X152333000Y-70993000D01*
D49*
X157480000Y-110996001D02*
X157226000Y-110996001D01*
X157480000Y-110996001D02*
X158496000Y-110996001D01*
D50*
X155232000Y-83814002D02*
X154406998Y-82989000D01*
D49*
X144928000Y-105177000D02*
X145896070Y-105177000D01*
X144484411Y-104733411D02*
X144928000Y-105177000D01*
%TO.N,/OSC_IN*%
X148414821Y-106485136D02*
X148583569Y-106316387D01*
X148414821Y-107540493D02*
X148414821Y-106485136D01*
X148583569Y-106316387D02*
X148583569Y-105864500D01*
X143832716Y-107801000D02*
X148154314Y-107801000D01*
X144230411Y-106003411D02*
X143896305Y-106003411D01*
X148154314Y-107801000D02*
X148414821Y-107540493D01*
X142965716Y-106934000D02*
X143832716Y-107801000D01*
X143896305Y-106003411D02*
X142965716Y-106934000D01*
%TO.N,/OSC_OUT*%
X140208000Y-106580446D02*
X140208000Y-107853238D01*
X142104680Y-109355320D02*
X143259002Y-108201000D01*
X148814821Y-107706179D02*
X148814821Y-106650821D01*
X143259002Y-108201000D02*
X148320000Y-108201000D01*
X148320000Y-108201000D02*
X148814821Y-107706179D01*
X141710082Y-109355320D02*
X142104680Y-109355320D01*
X148814821Y-106650821D02*
X149083570Y-106382072D01*
X139376965Y-105749411D02*
X140208000Y-106580446D01*
X140208000Y-107853238D02*
X141710082Y-109355320D01*
X149083570Y-106382072D02*
X149083570Y-105864500D01*
X138852589Y-105749411D02*
X139376965Y-105749411D01*
%TO.N,Net-(U1-VCAP1)*%
X152805069Y-100711000D02*
X152771070Y-100677001D01*
X153952000Y-100711000D02*
X152805069Y-100711000D01*
%TO.N,+3.3VA*%
X150583570Y-106669570D02*
X150583570Y-105864500D01*
X154060500Y-108677000D02*
X154279500Y-108458000D01*
X151102000Y-107188000D02*
X150583570Y-106669570D01*
X151229000Y-107315000D02*
X151102000Y-107188000D01*
X151702000Y-108677000D02*
X154060500Y-108677000D01*
X151229000Y-108204000D02*
X151702000Y-108677000D01*
X151229000Y-108204000D02*
X151229000Y-107315000D01*
D50*
%TO.N,+BATT*%
X127510745Y-91330496D02*
X125857000Y-89676751D01*
X153924000Y-69469000D02*
X152654000Y-68199000D01*
D49*
X156337000Y-99822000D02*
X156337000Y-99060000D01*
D50*
X129110945Y-91330496D02*
X127510745Y-91330496D01*
X164211000Y-88011000D02*
X164211000Y-84201000D01*
X164211000Y-84201000D02*
X163022000Y-83012000D01*
X125730000Y-86868000D02*
X124652000Y-85790000D01*
D49*
X156337000Y-101598001D02*
X156337000Y-99822000D01*
X163365000Y-98998000D02*
X169987999Y-98998000D01*
D50*
X166751000Y-70819106D02*
X165400894Y-69469000D01*
X132155203Y-82347797D02*
X132207000Y-82296000D01*
X141605000Y-68199000D02*
X139438000Y-70366000D01*
D49*
X155702000Y-98552000D02*
X155829000Y-98552000D01*
X157734000Y-98552000D02*
X158223000Y-99041000D01*
D50*
X152654000Y-68199000D02*
X141605000Y-68199000D01*
X166043000Y-75419000D02*
X166043000Y-72590000D01*
X132715000Y-70358000D02*
X131953000Y-69596000D01*
D49*
X172104000Y-96881999D02*
X172104000Y-90003599D01*
D50*
X165400894Y-69469000D02*
X153924000Y-69469000D01*
X168912201Y-88412000D02*
X168511201Y-88011000D01*
D49*
X163322000Y-99041000D02*
X163365000Y-98998000D01*
D50*
X126028046Y-82347797D02*
X132155203Y-82347797D01*
D49*
X156337000Y-99060000D02*
X155702000Y-98552000D01*
D50*
X168511201Y-88011000D02*
X164211000Y-88011000D01*
X131953000Y-68580000D02*
X130810000Y-67437000D01*
X131953000Y-69596000D02*
X131953000Y-68580000D01*
X163022000Y-78440000D02*
X166043000Y-75419000D01*
X166043000Y-72590000D02*
X166751000Y-71882000D01*
X125857000Y-86868000D02*
X125730000Y-86868000D01*
D49*
X170512401Y-88412000D02*
X168912201Y-88412000D01*
X172104000Y-90003599D02*
X170512401Y-88412000D01*
D50*
X163022000Y-83012000D02*
X163022000Y-78440000D01*
X139430000Y-70358000D02*
X132715000Y-70358000D01*
X124652000Y-83723843D02*
X126028046Y-82347797D01*
D49*
X158223000Y-99041000D02*
X163322000Y-99041000D01*
D50*
X139438000Y-70366000D02*
X139430000Y-70358000D01*
D49*
X169987999Y-98998000D02*
X172104000Y-96881999D01*
D50*
X166751000Y-71882000D02*
X166751000Y-70819106D01*
X125857000Y-89676751D02*
X125857000Y-86868000D01*
X124652000Y-85790000D02*
X124652000Y-83723843D01*
D49*
%TO.N,Net-(D1-K)*%
X138303000Y-114809999D02*
X139295498Y-114809999D01*
X139295498Y-114809999D02*
X139573000Y-115087501D01*
%TO.N,Net-(D2-K)*%
X159004000Y-115062000D02*
X158879000Y-114937000D01*
X159004000Y-116155998D02*
X159004000Y-115062000D01*
%TO.N,/LED_G*%
X146177000Y-106807000D02*
X146177000Y-106680000D01*
X146797956Y-106602000D02*
X146558000Y-106602000D01*
X146558000Y-106602000D02*
X146353000Y-106807000D01*
X146353000Y-106807000D02*
X146177000Y-106807000D01*
X147083570Y-105864500D02*
X147083570Y-106316386D01*
X159874357Y-112366641D02*
X158879000Y-113361998D01*
X147083570Y-106316386D02*
X146797956Y-106602000D01*
X159874357Y-112112738D02*
X159874357Y-112366641D01*
%TO.N,/LED_B*%
X147320000Y-106934000D02*
X147066000Y-107188000D01*
X147583571Y-105864500D02*
X147583571Y-106670429D01*
X161544000Y-112268000D02*
X161544000Y-112474998D01*
X147583571Y-106670429D02*
X147320000Y-106934000D01*
X161544000Y-112474998D02*
X160657000Y-113361998D01*
X147066000Y-107188000D02*
X146939000Y-107188000D01*
%TO.N,Net-(D3-K)*%
X161595003Y-114937000D02*
X162054000Y-115395997D01*
X160657000Y-114937000D02*
X161595003Y-114937000D01*
D50*
%TO.N,/M1A*%
X129100449Y-83830497D02*
X129032000Y-83820000D01*
X129110946Y-83830497D02*
X129100449Y-83830497D01*
X129032000Y-83820000D02*
X129121443Y-83830497D01*
X127243503Y-83830497D02*
X126238000Y-84836000D01*
X129110946Y-83830497D02*
X127243503Y-83830497D01*
%TO.N,/M1B*%
X132628846Y-86330501D02*
X134239000Y-84720347D01*
X129110946Y-86330501D02*
X132628846Y-86330501D01*
X134239000Y-84720347D02*
X134239000Y-82804000D01*
%TO.N,Net-(D11-K)*%
X153162000Y-90932000D02*
X153162000Y-87798740D01*
X159004000Y-77686000D02*
X155232000Y-73914000D01*
X153162000Y-87798740D02*
X154861738Y-86099002D01*
X141067000Y-89178000D02*
X142821000Y-90932000D01*
X157335786Y-91168786D02*
X153398786Y-91168786D01*
X159004000Y-85862002D02*
X159004000Y-77686000D01*
X158767000Y-86099002D02*
X159004000Y-85862002D01*
X141067000Y-86123999D02*
X141067000Y-89178000D01*
X142821000Y-90932000D02*
X153162000Y-90932000D01*
X154861738Y-86099002D02*
X158767000Y-86099002D01*
X153398786Y-91168786D02*
X153162000Y-90932000D01*
D49*
%TO.N,/NRST*%
X149225000Y-106807000D02*
X149225000Y-108215000D01*
X149583570Y-105864500D02*
X149583570Y-106448430D01*
X152400000Y-111990000D02*
X152400000Y-111887000D01*
X151548000Y-110538000D02*
X151548000Y-110838000D01*
X149583570Y-106448430D02*
X149225000Y-106807000D01*
X140589000Y-112400000D02*
X140589000Y-112395000D01*
X149225000Y-108215000D02*
X151548000Y-110538000D01*
X151548000Y-111138000D02*
X151548000Y-110838000D01*
X140777000Y-112588000D02*
X150942000Y-112588000D01*
X152297000Y-111887000D02*
X151548000Y-111138000D01*
X136652000Y-112395000D02*
X135001000Y-114046000D01*
X152400000Y-111887000D02*
X152297000Y-111887000D01*
X138303000Y-112395000D02*
X136652000Y-112395000D01*
X152425999Y-112015999D02*
X152400000Y-111990000D01*
X140777000Y-112588000D02*
X140589000Y-112400000D01*
X135001000Y-114046000D02*
X133096000Y-114046000D01*
X128251949Y-107296949D02*
X128251949Y-109201949D01*
X140589000Y-112395000D02*
X140584000Y-112395000D01*
X140584000Y-112395000D02*
X140589000Y-112400000D01*
X128251949Y-109201949D02*
X133096000Y-114046000D01*
X150942000Y-112588000D02*
X151384000Y-113030000D01*
X157480000Y-112015999D02*
X152425999Y-112015999D01*
%TO.N,/SWCLK*%
X144417000Y-99677000D02*
X145896070Y-99677000D01*
X133640103Y-107405897D02*
X139954000Y-101092000D01*
X143002000Y-101092000D02*
X144417000Y-99677000D01*
X139954000Y-101092000D02*
X143002000Y-101092000D01*
X133640103Y-112685103D02*
X133640103Y-107405897D01*
%TO.N,/SCL*%
X150548000Y-110838000D02*
X150548000Y-111138000D01*
X144612529Y-102743000D02*
X140996330Y-102743000D01*
X144999000Y-103129471D02*
X144612529Y-102743000D01*
X157926000Y-112585999D02*
X158496000Y-112015999D01*
X138190642Y-105548688D02*
X138190642Y-106401565D01*
X148610999Y-108601000D02*
X150548000Y-110538000D01*
X144999000Y-103231817D02*
X144999000Y-103129471D01*
X151995999Y-112585999D02*
X157926000Y-112585999D01*
X150548000Y-110538000D02*
X150548000Y-110838000D01*
X141544397Y-109755320D02*
X142270366Y-109755320D01*
X142270366Y-109755320D02*
X143424687Y-108601000D01*
X145896070Y-103677000D02*
X145444183Y-103677000D01*
X140996330Y-102743000D02*
X138190642Y-105548688D01*
X143424687Y-108601000D02*
X148610999Y-108601000D01*
X150548000Y-111138000D02*
X151995999Y-112585999D01*
X145444183Y-103677000D02*
X144999000Y-103231817D01*
X138190642Y-106401565D02*
X141544397Y-109755320D01*
%TO.N,/SDA*%
X144778214Y-102342999D02*
X144525999Y-102343001D01*
X140830643Y-102343001D02*
X137790642Y-105383003D01*
X141378711Y-110155320D02*
X142436051Y-110155320D01*
X138028624Y-107843376D02*
X138547695Y-107324305D01*
X138547695Y-107324305D02*
X141378711Y-110155320D01*
X143590372Y-109001000D02*
X148445314Y-109001000D01*
X137790642Y-106567251D02*
X138547695Y-107324305D01*
X148445314Y-109001000D02*
X149548000Y-110103686D01*
X149548000Y-110103686D02*
X149548000Y-110838000D01*
X145896070Y-102677000D02*
X145112216Y-102677000D01*
X145112216Y-102677000D02*
X144778214Y-102342999D01*
X144525999Y-102343001D02*
X140830643Y-102343001D01*
X137790642Y-105383003D02*
X137790642Y-106567251D01*
X142436051Y-110155320D02*
X143590372Y-109001000D01*
%TO.N,/M1Q3*%
X139162224Y-68550224D02*
X139606724Y-68105724D01*
X139606724Y-68105724D02*
X139259448Y-68453000D01*
X138610314Y-93488000D02*
X146385191Y-93488000D01*
X126173000Y-77532000D02*
X125857000Y-77216000D01*
X125812517Y-81012797D02*
X126173000Y-80652314D01*
X135797314Y-98968000D02*
X138020157Y-96745157D01*
X134747000Y-78232000D02*
X134112000Y-77597000D01*
X134625471Y-98968000D02*
X135797314Y-98968000D01*
X143117949Y-64594500D02*
X143571000Y-64594500D01*
X149083570Y-96186379D02*
X149083570Y-98989500D01*
X124522000Y-87565000D02*
X123317000Y-86360000D01*
X143003999Y-64027499D02*
X143571000Y-64594500D01*
X132080000Y-101092000D02*
X132080000Y-100984000D01*
X132126000Y-79802000D02*
X134118290Y-79802000D01*
X127850314Y-99968000D02*
X124522000Y-96639685D01*
X139606724Y-68105724D02*
X143117949Y-64594500D01*
X131064000Y-99968000D02*
X127850314Y-99968000D01*
X132080000Y-100984000D02*
X131064000Y-99968000D01*
X134239000Y-100330000D02*
X134239000Y-99354471D01*
X139259448Y-68453000D02*
X134112000Y-68453000D01*
X129540000Y-77216000D02*
X132126000Y-79802000D01*
X138020157Y-96745157D02*
X138020157Y-94078158D01*
X146385191Y-93488000D02*
X149083570Y-96186379D01*
X138020157Y-94078158D02*
X138610314Y-93488000D01*
X126173000Y-80652314D02*
X126173000Y-77532000D01*
X125362203Y-81012797D02*
X125812517Y-81012797D01*
X123317000Y-83058000D02*
X125362203Y-81012797D01*
X134118290Y-79802000D02*
X134747000Y-79173290D01*
X134239000Y-99354471D02*
X134625471Y-98968000D01*
X124522000Y-96639685D02*
X124522000Y-87565000D01*
X123317000Y-86360000D02*
X123317000Y-83058000D01*
X128016000Y-77216000D02*
X129540000Y-77216000D01*
X134747000Y-79173290D02*
X134747000Y-78232000D01*
X143003999Y-63070499D02*
X143003999Y-64027499D01*
%TO.N,/M1Q1*%
X123717000Y-83293000D02*
X125597203Y-81412797D01*
X124922000Y-87399314D02*
X123717000Y-86194314D01*
X123717000Y-86194314D02*
X123717000Y-83293000D01*
X132334000Y-99568000D02*
X128016000Y-99568000D01*
X129306376Y-75036624D02*
X129306376Y-75793376D01*
X126573000Y-76955710D02*
X127120710Y-76408000D01*
X126573000Y-80818000D02*
X126573000Y-76955710D01*
X138465000Y-94199000D02*
X138465000Y-96866000D01*
X129306376Y-75793376D02*
X129921000Y-76408000D01*
X130002000Y-76408000D02*
X131337074Y-77743074D01*
X124922000Y-96474000D02*
X124922000Y-87399314D01*
X146219505Y-93888000D02*
X138776000Y-93888000D01*
X131337074Y-77743074D02*
X131337074Y-77816577D01*
X138465000Y-96866000D02*
X135763000Y-99568000D01*
X128016000Y-99568000D02*
X124922000Y-96474000D01*
X135763000Y-99568000D02*
X134874000Y-99568000D01*
X127120710Y-76408000D02*
X129921000Y-76408000D01*
X125597203Y-81412797D02*
X125978203Y-81412797D01*
X148583569Y-96252064D02*
X146219505Y-93888000D01*
X148583569Y-98989500D02*
X148583569Y-96252064D01*
X125978203Y-81412797D02*
X126573000Y-80818000D01*
X129921000Y-76408000D02*
X130002000Y-76408000D01*
X138776000Y-93888000D02*
X138465000Y-94199000D01*
%TO.N,/M1Q4*%
X141224000Y-90932000D02*
X140970000Y-90805000D01*
X149583570Y-96120693D02*
X145410877Y-91948000D01*
X145410877Y-91948000D02*
X142367000Y-91948000D01*
X140970000Y-90805000D02*
X141097000Y-90805000D01*
X149583570Y-98989500D02*
X149583570Y-96120693D01*
X141351000Y-90932000D02*
X141224000Y-90932000D01*
X142367000Y-91948000D02*
X141351000Y-90932000D01*
%TO.N,/M1Q2*%
X148083570Y-96317750D02*
X146253820Y-94488000D01*
X148083570Y-98989500D02*
X148083570Y-96317750D01*
X146253820Y-94488000D02*
X139065000Y-94488000D01*
%TO.N,/VBatt_sense*%
X153701956Y-105156000D02*
X154178000Y-105156000D01*
X152771070Y-104677000D02*
X153222956Y-104677000D01*
X153222956Y-104677000D02*
X153701956Y-105156000D01*
X156210000Y-103634000D02*
X156210000Y-104521000D01*
X156208000Y-102746999D02*
X156337000Y-102617999D01*
X156210000Y-104521000D02*
X156464000Y-104775000D01*
X156208000Y-103632000D02*
X156208000Y-102746999D01*
X156208000Y-103632000D02*
X156210000Y-103634000D01*
%TO.N,/M2Q1*%
X161283162Y-98598000D02*
X169805290Y-98598000D01*
X160274000Y-97588838D02*
X161283162Y-98598000D01*
X169926000Y-77597000D02*
X169418000Y-78105000D01*
X162087000Y-84745999D02*
X162087000Y-77689000D01*
X166116000Y-89535000D02*
X165608000Y-89027000D01*
X164973000Y-78867000D02*
X167386000Y-78740000D01*
X171460100Y-94858900D02*
X171704000Y-94615000D01*
X157897024Y-97047000D02*
X158438863Y-97588838D01*
X164973000Y-78740000D02*
X164973000Y-78867000D01*
X158438863Y-97588838D02*
X160274000Y-97588838D01*
X167386000Y-78740000D02*
X168021000Y-78105000D01*
X151873000Y-97047000D02*
X157897024Y-97047000D01*
X151083569Y-98989500D02*
X151083569Y-97836431D01*
X171704000Y-94615000D02*
X171704000Y-90208202D01*
X168021000Y-78105000D02*
X169418000Y-78105000D01*
X163068000Y-89027000D02*
X162433000Y-88392000D01*
X162941000Y-76835000D02*
X163068000Y-76708000D01*
X165608000Y-89027000D02*
X163068000Y-89027000D01*
X170942000Y-77597000D02*
X169926000Y-77597000D01*
X171030798Y-89535000D02*
X166116000Y-89535000D01*
X162433000Y-88392000D02*
X162433000Y-85091999D01*
X151083569Y-97836431D02*
X151873000Y-97047000D01*
X169805290Y-98598000D02*
X171460100Y-96943190D01*
X162087000Y-77689000D02*
X162941000Y-76835000D01*
X171460100Y-96943190D02*
X171460100Y-94858900D01*
X162433000Y-85091999D02*
X162087000Y-84745999D01*
X171704000Y-90208202D02*
X171030798Y-89535000D01*
%TO.N,/M2Q3*%
X151583570Y-98537614D02*
X152674184Y-97447000D01*
X157983000Y-67056000D02*
X156586000Y-65659000D01*
X162179000Y-67056000D02*
X157983000Y-67056000D01*
X165562000Y-87076000D02*
X165146000Y-86660000D01*
X157439529Y-99441000D02*
X163576000Y-99441000D01*
X172504000Y-97047685D02*
X172504000Y-88508200D01*
X163957000Y-82624710D02*
X163957000Y-79502000D01*
X163619000Y-99398000D02*
X170153685Y-99398000D01*
X165146000Y-86660000D02*
X165146000Y-83813710D01*
X152674184Y-97447000D02*
X155445529Y-97447000D01*
X163957000Y-79502000D02*
X164211000Y-79121000D01*
X170153685Y-99398000D02*
X172504000Y-97047685D01*
X156084999Y-64135000D02*
X156084999Y-65157999D01*
X155445529Y-97447000D02*
X157439529Y-99441000D01*
X165146000Y-83813710D02*
X163957000Y-82624710D01*
X171071800Y-87076000D02*
X165562000Y-87076000D01*
X172504000Y-88508200D02*
X171071800Y-87076000D01*
X151583570Y-98989500D02*
X151583570Y-98537614D01*
X164211000Y-79121000D02*
X164211000Y-79248000D01*
X156084999Y-65157999D02*
X156586000Y-65659000D01*
X163576000Y-99441000D02*
X163619000Y-99398000D01*
%TO.N,/M2Q4*%
X150083571Y-98989500D02*
X150083571Y-93450139D01*
X151077710Y-92456000D02*
X154813000Y-92456000D01*
X150083571Y-93450139D02*
X151077710Y-92456000D01*
%TO.N,/M2Q2*%
X158062710Y-96647000D02*
X158604548Y-97188838D01*
X150583570Y-97701430D02*
X151638000Y-96647000D01*
X158604548Y-97188838D02*
X160815838Y-97188838D01*
X160815838Y-97188838D02*
X161036000Y-97409000D01*
X150583570Y-98989500D02*
X150583570Y-97701430D01*
X151638000Y-96647000D02*
X158062710Y-96647000D01*
D50*
%TO.N,/M2A*%
X168912200Y-95911999D02*
X168912200Y-97157200D01*
X168912200Y-97157200D02*
X169418000Y-97663000D01*
%TO.N,/M2B*%
X168912200Y-93411995D02*
X167312000Y-93411995D01*
X158991838Y-96253838D02*
X156464000Y-93726000D01*
X167312000Y-93411995D02*
X164470157Y-96253838D01*
X156464000Y-93726000D02*
X151130000Y-93726000D01*
X164470157Y-96253838D02*
X158991838Y-96253838D01*
D49*
%TO.N,Net-(J6-Pin_6)*%
X133124498Y-96330498D02*
X133126000Y-96332000D01*
X129110949Y-96330498D02*
X133124498Y-96330498D01*
%TO.N,Net-(J6-Pin_5)*%
X130165441Y-92776000D02*
X129110944Y-93830497D01*
X133126000Y-92776000D02*
X130165441Y-92776000D01*
%TO.N,Net-(J8-Pin_5)*%
X163885001Y-99798000D02*
X170319371Y-99798000D01*
X172904000Y-86965471D02*
X171850528Y-85911999D01*
X161260001Y-102423000D02*
X163885001Y-99798000D01*
X172904000Y-97213371D02*
X172904000Y-86965471D01*
X171850528Y-85911999D02*
X168912202Y-85911999D01*
X170319371Y-99798000D02*
X172904000Y-97213371D01*
%TO.N,Net-(J8-Pin_6)*%
X168912197Y-83411998D02*
X169916213Y-83411998D01*
X173304000Y-86799786D02*
X173304000Y-97379057D01*
X167772000Y-100198000D02*
X170485056Y-100198000D01*
X165481000Y-102489000D02*
X165481000Y-104009842D01*
X163450842Y-106040000D02*
X161290000Y-106040000D01*
X167772000Y-100198000D02*
X165481000Y-102489000D01*
X169916213Y-83411998D02*
X173304000Y-86799786D01*
X165481000Y-104009842D02*
X163450842Y-106040000D01*
X173304000Y-97379057D02*
X170485056Y-100198000D01*
%TO.N,/E1A*%
X136525000Y-93978001D02*
X135253001Y-93978001D01*
X139192000Y-92837000D02*
X137666001Y-92837000D01*
X145896070Y-100677001D02*
X144653000Y-100711000D01*
X137666001Y-92837000D02*
X136525000Y-93978001D01*
X144653000Y-100711000D02*
X144686999Y-100677001D01*
X135253001Y-93978001D02*
X135001000Y-93726000D01*
%TO.N,/E1B*%
X134093000Y-101073000D02*
X136965471Y-101073000D01*
X144018000Y-101600000D02*
X144094999Y-101676999D01*
X133639000Y-100619000D02*
X134093000Y-101073000D01*
X135001000Y-97282000D02*
X134225471Y-98057529D01*
X135256999Y-97537999D02*
X135001000Y-97282000D01*
X134225471Y-98802314D02*
X133639000Y-99388785D01*
X134225471Y-98057529D02*
X134225471Y-98802314D01*
X136525000Y-97031998D02*
X135251002Y-97031998D01*
X145896070Y-101676999D02*
X144018000Y-101600000D01*
X138978471Y-99060000D02*
X139573000Y-99060000D01*
X133639000Y-99388785D02*
X133639000Y-100619000D01*
X136965471Y-101073000D02*
X138978471Y-99060000D01*
X135251002Y-97031998D02*
X135001000Y-97282000D01*
%TO.N,/E2B*%
X157861000Y-105662001D02*
X157861000Y-105156000D01*
X152771070Y-104176999D02*
X153288641Y-104176999D01*
X153288641Y-104176999D02*
X153667642Y-104556000D01*
X159414999Y-105090000D02*
X157795000Y-105090000D01*
X154778000Y-104556000D02*
X154813000Y-104521000D01*
X153667642Y-104556000D02*
X154778000Y-104556000D01*
X157861000Y-105156000D02*
X157795000Y-105090000D01*
X157795000Y-105090000D02*
X157480000Y-104775000D01*
%TO.N,/E2A*%
X158115000Y-102743000D02*
X157734000Y-102743000D01*
X159385000Y-101473000D02*
X158115000Y-102743000D01*
X157861000Y-102616000D02*
X157734000Y-102743000D01*
X153969000Y-103677000D02*
X152771070Y-103677000D01*
X154178000Y-103886000D02*
X153969000Y-103677000D01*
X157861000Y-101855999D02*
X157861000Y-102616000D01*
%TO.N,Net-(Q1-G)*%
X149987000Y-74168000D02*
X148467000Y-72648000D01*
X149098000Y-66548000D02*
X149098000Y-67056000D01*
X149019501Y-66469501D02*
X142621000Y-66469501D01*
X150368000Y-74168000D02*
X149987000Y-74168000D01*
X150404939Y-74204939D02*
X150368000Y-74168000D01*
X149098000Y-66548000D02*
X149019501Y-66469501D01*
X148467000Y-70100000D02*
X149098000Y-69469000D01*
X148467000Y-72648000D02*
X148467000Y-70100000D01*
X150404939Y-77027648D02*
X150404939Y-74204939D01*
%TO.N,Net-(Q13-D)*%
X133731000Y-78867000D02*
X130683000Y-75819000D01*
%TO.N,Net-(Q5-D)*%
X162306000Y-75946000D02*
X161687000Y-76565000D01*
X161687000Y-76565000D02*
X161687000Y-83550000D01*
X167542999Y-77155000D02*
X166050000Y-77155000D01*
X165100000Y-77978000D02*
X165227000Y-77978000D01*
X161687000Y-83550000D02*
X160782000Y-84455000D01*
X166050000Y-77155000D02*
X165481000Y-77724000D01*
X165481000Y-77724000D02*
X165100000Y-77978000D01*
%TO.N,Net-(Q14-G)*%
X155636000Y-67534001D02*
X154910001Y-67534001D01*
X158905000Y-72164000D02*
X158877000Y-72136000D01*
X158877000Y-72136000D02*
X158849000Y-72164000D01*
X159766000Y-72164000D02*
X158905000Y-72164000D01*
X149606000Y-70104000D02*
X149733000Y-69977000D01*
X156046999Y-67945000D02*
X155636000Y-67534001D01*
X154910001Y-67534001D02*
X152273000Y-64897000D01*
X149606000Y-72390000D02*
X149606000Y-70104000D01*
X160373000Y-72771000D02*
X159766000Y-72164000D01*
X149733000Y-70231000D02*
X149606000Y-70104000D01*
X149352000Y-72644000D02*
X149606000Y-72390000D01*
X161671000Y-67945000D02*
X156046999Y-67945000D01*
X152273000Y-64897000D02*
X149606000Y-64897000D01*
X161671000Y-72771000D02*
X160373000Y-72771000D01*
%TD*%
M02*
