%TF.GenerationSoftware,KiCad,Pcbnew,8.0.1*%
%TF.CreationDate,2024-09-20T18:09:38-07:00*%
%TF.ProjectId,motor_control_design,6d6f746f-725f-4636-9f6e-74726f6c5f64,rev?*%
%TF.SameCoordinates,Original*%
%TF.FileFunction,Soldermask,Bot*%
%TF.FilePolarity,Negative*%
%FSLAX46Y46*%
G04 Gerber Fmt 4.6, Leading zero omitted, Abs format (unit mm)*
G04 Created by KiCad (PCBNEW 8.0.1) date 2024-09-20 18:09:38*
%MOMM*%
%LPD*%
G01*
G04 APERTURE LIST*
G04 Aperture macros list*
%AMRoundRect*
0 Rectangle with rounded corners*
0 $1 Rounding radius*
0 $2 $3 $4 $5 $6 $7 $8 $9 X,Y pos of 4 corners*
0 Add a 4 corners polygon primitive as box body*
4,1,4,$2,$3,$4,$5,$6,$7,$8,$9,$2,$3,0*
0 Add four circle primitives for the rounded corners*
1,1,$1+$1,$2,$3*
1,1,$1+$1,$4,$5*
1,1,$1+$1,$6,$7*
1,1,$1+$1,$8,$9*
0 Add four rect primitives between the rounded corners*
20,1,$1+$1,$2,$3,$4,$5,0*
20,1,$1+$1,$4,$5,$6,$7,0*
20,1,$1+$1,$6,$7,$8,$9,0*
20,1,$1+$1,$8,$9,$2,$3,0*%
%AMHorizOval*
0 Thick line with rounded ends*
0 $1 width*
0 $2 $3 position (X,Y) of the first rounded end (center of the circle)*
0 $4 $5 position (X,Y) of the second rounded end (center of the circle)*
0 Add line between two ends*
20,1,$1,$2,$3,$4,$5,0*
0 Add two circle primitives to create the rounded ends*
1,1,$1,$2,$3*
1,1,$1,$4,$5*%
%AMRotRect*
0 Rectangle, with rotation*
0 The origin of the aperture is its center*
0 $1 length*
0 $2 width*
0 $3 Rotation angle, in degrees counterclockwise*
0 Add horizontal line*
21,1,$1,$2,0,0,$3*%
G04 Aperture macros list end*
%ADD10RotRect,4.000000X4.000000X227.000000*%
%ADD11C,2.200000*%
%ADD12RotRect,1.700000X1.700000X45.000000*%
%ADD13HorizOval,1.700000X0.000000X0.000000X0.000000X0.000000X0*%
%ADD14RotRect,4.000000X4.000000X131.000000*%
%ADD15RotRect,4.000000X4.000000X138.000000*%
%ADD16RotRect,4.000000X4.000000X36.000000*%
%ADD17RoundRect,0.135000X-0.185000X0.135000X-0.185000X-0.135000X0.185000X-0.135000X0.185000X0.135000X0*%
%ADD18RoundRect,0.250000X0.300000X-2.050000X0.300000X2.050000X-0.300000X2.050000X-0.300000X-2.050000X0*%
%ADD19RoundRect,0.250002X5.149998X-4.449998X5.149998X4.449998X-5.149998X4.449998X-5.149998X-4.449998X0*%
%ADD20RoundRect,0.250000X1.000000X0.650000X-1.000000X0.650000X-1.000000X-0.650000X1.000000X-0.650000X0*%
%ADD21RoundRect,0.250000X-1.000000X-0.650000X1.000000X-0.650000X1.000000X0.650000X-1.000000X0.650000X0*%
%ADD22RoundRect,0.250000X0.650000X-1.000000X0.650000X1.000000X-0.650000X1.000000X-0.650000X-1.000000X0*%
%ADD23RoundRect,0.135000X-0.135000X-0.185000X0.135000X-0.185000X0.135000X0.185000X-0.135000X0.185000X0*%
%ADD24RoundRect,0.250000X-2.050000X-0.300000X2.050000X-0.300000X2.050000X0.300000X-2.050000X0.300000X0*%
%ADD25RoundRect,0.250002X-4.449998X-5.149998X4.449998X-5.149998X4.449998X5.149998X-4.449998X5.149998X0*%
%ADD26RoundRect,0.135000X0.185000X-0.135000X0.185000X0.135000X-0.185000X0.135000X-0.185000X-0.135000X0*%
%ADD27RoundRect,0.250000X2.050000X0.300000X-2.050000X0.300000X-2.050000X-0.300000X2.050000X-0.300000X0*%
%ADD28RoundRect,0.250002X4.449998X5.149998X-4.449998X5.149998X-4.449998X-5.149998X4.449998X-5.149998X0*%
%ADD29RoundRect,0.250000X-0.650000X1.000000X-0.650000X-1.000000X0.650000X-1.000000X0.650000X1.000000X0*%
%ADD30RoundRect,0.135000X0.135000X0.185000X-0.135000X0.185000X-0.135000X-0.185000X0.135000X-0.185000X0*%
%ADD31RoundRect,0.250000X1.166726X-0.247487X-0.247487X1.166726X-1.166726X0.247487X0.247487X-1.166726X0*%
G04 APERTURE END LIST*
D10*
%TO.C,J4*%
X127000000Y-71120000D03*
%TD*%
D11*
%TO.C,*%
X134886970Y-74653262D03*
%TD*%
%TO.C,*%
X134836970Y-103603262D03*
%TD*%
%TO.C,*%
X163836970Y-74603262D03*
%TD*%
D12*
%TO.C,J2*%
X128251949Y-107296949D03*
D13*
X130048000Y-109093000D03*
X131844051Y-110889051D03*
X133640103Y-112685103D03*
%TD*%
D14*
%TO.C,J3*%
X130810000Y-67437000D03*
%TD*%
D11*
%TO.C,*%
X163836970Y-103603262D03*
%TD*%
D15*
%TO.C,J10*%
X170307000Y-107569000D03*
%TD*%
D16*
%TO.C,J9*%
X166243000Y-111379000D03*
%TD*%
D17*
%TO.C,R20*%
X149352000Y-72640002D03*
X149352000Y-73660000D03*
%TD*%
D18*
%TO.C,Q14*%
X158115000Y-74803000D03*
D19*
X155575000Y-65653000D03*
D18*
X153035000Y-74803000D03*
%TD*%
D20*
%TO.C,D4*%
X124492000Y-75692000D03*
X128492000Y-75692000D03*
%TD*%
D21*
%TO.C,D5*%
X129145001Y-102362000D03*
X125144999Y-102362000D03*
%TD*%
%TO.C,D8*%
X173355000Y-75565000D03*
X169354998Y-75565000D03*
%TD*%
D17*
%TO.C,R18*%
X159512000Y-85977001D03*
X159512000Y-86996999D03*
%TD*%
D22*
%TO.C,D7*%
X135636000Y-64547999D03*
X135636000Y-68548001D03*
%TD*%
D23*
%TO.C,R13*%
X135890000Y-76962000D03*
X136909998Y-76962000D03*
%TD*%
D24*
%TO.C,Q6*%
X162657000Y-85579000D03*
D25*
X171807000Y-83039000D03*
D24*
X162657000Y-80499000D03*
%TD*%
D21*
%TO.C,D12*%
X154813000Y-102362000D03*
X150812998Y-102362000D03*
%TD*%
D26*
%TO.C,R14*%
X149352000Y-76963999D03*
X149352000Y-75944001D03*
%TD*%
D27*
%TO.C,Q2*%
X135781000Y-80772000D03*
D28*
X126631000Y-83312000D03*
D27*
X135781000Y-85852000D03*
%TD*%
D20*
%TO.C,D9*%
X169355000Y-102362000D03*
X173355000Y-102362000D03*
%TD*%
D27*
%TO.C,Q9*%
X135786999Y-92201998D03*
D28*
X126637000Y-94742000D03*
D27*
X135787002Y-97281998D03*
%TD*%
D17*
%TO.C,R16*%
X139065000Y-94488000D03*
X139065000Y-95507998D03*
%TD*%
D29*
%TO.C,D6*%
X157117000Y-83280001D03*
X157117000Y-79279999D03*
%TD*%
D23*
%TO.C,R19*%
X165987001Y-101092000D03*
X167006999Y-101092000D03*
%TD*%
D24*
%TO.C,Q7*%
X162657000Y-97263000D03*
D25*
X171807000Y-94723000D03*
D24*
X162657000Y-92183000D03*
%TD*%
%TO.C,Q3*%
X141115000Y-85852000D03*
D25*
X150265000Y-83312000D03*
D24*
X141115000Y-80772000D03*
%TD*%
D27*
%TO.C,Q15*%
X156778000Y-92202000D03*
D28*
X147628000Y-94742000D03*
D27*
X156778000Y-97282000D03*
%TD*%
D30*
%TO.C,R23*%
X161037999Y-101346000D03*
X160018001Y-101346000D03*
%TD*%
D31*
%TO.C,D10*%
X163685786Y-65133786D03*
X166514214Y-67962214D03*
%TD*%
D18*
%TO.C,Q1*%
X145688000Y-74821000D03*
D19*
X143148000Y-65671000D03*
D18*
X140608000Y-74821000D03*
%TD*%
D30*
%TO.C,R15*%
X141099000Y-89662000D03*
X140079000Y-89662000D03*
%TD*%
M02*
