%TF.GenerationSoftware,KiCad,Pcbnew,8.0.1*%
%TF.CreationDate,2024-09-20T18:09:38-07:00*%
%TF.ProjectId,motor_control_design,6d6f746f-725f-4636-9f6e-74726f6c5f64,rev?*%
%TF.SameCoordinates,Original*%
%TF.FileFunction,Copper,L2,Bot*%
%TF.FilePolarity,Positive*%
%FSLAX46Y46*%
G04 Gerber Fmt 4.6, Leading zero omitted, Abs format (unit mm)*
G04 Created by KiCad (PCBNEW 8.0.1) date 2024-09-20 18:09:38*
%MOMM*%
%LPD*%
G01*
G04 APERTURE LIST*
G04 Aperture macros list*
%AMRoundRect*
0 Rectangle with rounded corners*
0 $1 Rounding radius*
0 $2 $3 $4 $5 $6 $7 $8 $9 X,Y pos of 4 corners*
0 Add a 4 corners polygon primitive as box body*
4,1,4,$2,$3,$4,$5,$6,$7,$8,$9,$2,$3,0*
0 Add four circle primitives for the rounded corners*
1,1,$1+$1,$2,$3*
1,1,$1+$1,$4,$5*
1,1,$1+$1,$6,$7*
1,1,$1+$1,$8,$9*
0 Add four rect primitives between the rounded corners*
20,1,$1+$1,$2,$3,$4,$5,0*
20,1,$1+$1,$4,$5,$6,$7,0*
20,1,$1+$1,$6,$7,$8,$9,0*
20,1,$1+$1,$8,$9,$2,$3,0*%
%AMHorizOval*
0 Thick line with rounded ends*
0 $1 width*
0 $2 $3 position (X,Y) of the first rounded end (center of the circle)*
0 $4 $5 position (X,Y) of the second rounded end (center of the circle)*
0 Add line between two ends*
20,1,$1,$2,$3,$4,$5,0*
0 Add two circle primitives to create the rounded ends*
1,1,$1,$2,$3*
1,1,$1,$4,$5*%
%AMRotRect*
0 Rectangle, with rotation*
0 The origin of the aperture is its center*
0 $1 length*
0 $2 width*
0 $3 Rotation angle, in degrees counterclockwise*
0 Add horizontal line*
21,1,$1,$2,0,0,$3*%
G04 Aperture macros list end*
%TA.AperFunction,ComponentPad*%
%ADD10RotRect,4.000000X4.000000X227.000000*%
%TD*%
%TA.AperFunction,ComponentPad*%
%ADD11RotRect,1.700000X1.700000X45.000000*%
%TD*%
%TA.AperFunction,ComponentPad*%
%ADD12HorizOval,1.700000X0.000000X0.000000X0.000000X0.000000X0*%
%TD*%
%TA.AperFunction,ComponentPad*%
%ADD13RotRect,4.000000X4.000000X131.000000*%
%TD*%
%TA.AperFunction,ComponentPad*%
%ADD14RotRect,4.000000X4.000000X138.000000*%
%TD*%
%TA.AperFunction,ComponentPad*%
%ADD15RotRect,4.000000X4.000000X36.000000*%
%TD*%
%TA.AperFunction,SMDPad,CuDef*%
%ADD16RoundRect,0.135000X-0.185000X0.135000X-0.185000X-0.135000X0.185000X-0.135000X0.185000X0.135000X0*%
%TD*%
%TA.AperFunction,SMDPad,CuDef*%
%ADD17RoundRect,0.250000X0.300000X-2.050000X0.300000X2.050000X-0.300000X2.050000X-0.300000X-2.050000X0*%
%TD*%
%TA.AperFunction,SMDPad,CuDef*%
%ADD18RoundRect,0.250000X2.375000X-2.025000X2.375000X2.025000X-2.375000X2.025000X-2.375000X-2.025000X0*%
%TD*%
%TA.AperFunction,SMDPad,CuDef*%
%ADD19RoundRect,0.250002X5.149998X-4.449998X5.149998X4.449998X-5.149998X4.449998X-5.149998X-4.449998X0*%
%TD*%
%TA.AperFunction,SMDPad,CuDef*%
%ADD20RoundRect,0.250000X1.000000X0.650000X-1.000000X0.650000X-1.000000X-0.650000X1.000000X-0.650000X0*%
%TD*%
%TA.AperFunction,SMDPad,CuDef*%
%ADD21RoundRect,0.250000X-1.000000X-0.650000X1.000000X-0.650000X1.000000X0.650000X-1.000000X0.650000X0*%
%TD*%
%TA.AperFunction,SMDPad,CuDef*%
%ADD22RoundRect,0.250000X0.650000X-1.000000X0.650000X1.000000X-0.650000X1.000000X-0.650000X-1.000000X0*%
%TD*%
%TA.AperFunction,SMDPad,CuDef*%
%ADD23RoundRect,0.135000X-0.135000X-0.185000X0.135000X-0.185000X0.135000X0.185000X-0.135000X0.185000X0*%
%TD*%
%TA.AperFunction,SMDPad,CuDef*%
%ADD24RoundRect,0.250000X-2.050000X-0.300000X2.050000X-0.300000X2.050000X0.300000X-2.050000X0.300000X0*%
%TD*%
%TA.AperFunction,SMDPad,CuDef*%
%ADD25RoundRect,0.250000X-2.025000X-2.375000X2.025000X-2.375000X2.025000X2.375000X-2.025000X2.375000X0*%
%TD*%
%TA.AperFunction,SMDPad,CuDef*%
%ADD26RoundRect,0.250002X-4.449998X-5.149998X4.449998X-5.149998X4.449998X5.149998X-4.449998X5.149998X0*%
%TD*%
%TA.AperFunction,SMDPad,CuDef*%
%ADD27RoundRect,0.135000X0.185000X-0.135000X0.185000X0.135000X-0.185000X0.135000X-0.185000X-0.135000X0*%
%TD*%
%TA.AperFunction,SMDPad,CuDef*%
%ADD28RoundRect,0.250000X2.050000X0.300000X-2.050000X0.300000X-2.050000X-0.300000X2.050000X-0.300000X0*%
%TD*%
%TA.AperFunction,SMDPad,CuDef*%
%ADD29RoundRect,0.250000X2.025000X2.375000X-2.025000X2.375000X-2.025000X-2.375000X2.025000X-2.375000X0*%
%TD*%
%TA.AperFunction,SMDPad,CuDef*%
%ADD30RoundRect,0.250002X4.449998X5.149998X-4.449998X5.149998X-4.449998X-5.149998X4.449998X-5.149998X0*%
%TD*%
%TA.AperFunction,SMDPad,CuDef*%
%ADD31RoundRect,0.250000X-0.650000X1.000000X-0.650000X-1.000000X0.650000X-1.000000X0.650000X1.000000X0*%
%TD*%
%TA.AperFunction,SMDPad,CuDef*%
%ADD32RoundRect,0.135000X0.135000X0.185000X-0.135000X0.185000X-0.135000X-0.185000X0.135000X-0.185000X0*%
%TD*%
%TA.AperFunction,SMDPad,CuDef*%
%ADD33RoundRect,0.250000X1.166726X-0.247487X-0.247487X1.166726X-1.166726X0.247487X0.247487X-1.166726X0*%
%TD*%
%TA.AperFunction,ViaPad*%
%ADD34C,1.270000*%
%TD*%
%TA.AperFunction,ViaPad*%
%ADD35C,0.600000*%
%TD*%
%TA.AperFunction,Conductor*%
%ADD36C,0.200000*%
%TD*%
%TA.AperFunction,Conductor*%
%ADD37C,1.270000*%
%TD*%
G04 APERTURE END LIST*
D10*
%TO.P,J4,1,Pin_1*%
%TO.N,GND*%
X127000000Y-71120000D03*
%TD*%
D11*
%TO.P,J2,1,Pin_1*%
%TO.N,/NRST*%
X128251949Y-107296949D03*
D12*
%TO.P,J2,2,Pin_2*%
%TO.N,/SWDIO*%
X130048000Y-109093000D03*
%TO.P,J2,3,Pin_3*%
%TO.N,GND*%
X131844051Y-110889051D03*
%TO.P,J2,4,Pin_4*%
%TO.N,/SWCLK*%
X133640103Y-112685103D03*
%TD*%
D13*
%TO.P,J3,1,Pin_1*%
%TO.N,+BATT*%
X130810000Y-67437000D03*
%TD*%
D14*
%TO.P,J10,1,Pin_1*%
%TO.N,+3.3V*%
X170307000Y-107569000D03*
%TD*%
D15*
%TO.P,J9,1,Pin_1*%
%TO.N,GND*%
X166243000Y-111379000D03*
%TD*%
D16*
%TO.P,R20,1*%
%TO.N,Net-(Q14-G)*%
X149352000Y-72640002D03*
%TO.P,R20,2*%
%TO.N,+BATT*%
X149352000Y-73660000D03*
%TD*%
D17*
%TO.P,Q14,1,G*%
%TO.N,Net-(Q14-G)*%
X158115000Y-74803000D03*
D18*
%TO.P,Q14,2,D*%
%TO.N,/M2B*%
X152800000Y-68078000D03*
X158350000Y-68078000D03*
D19*
X155575000Y-65653000D03*
D18*
X152800000Y-63228000D03*
X158350000Y-63228000D03*
D17*
%TO.P,Q14,3,S*%
%TO.N,+BATT*%
X153035000Y-74803000D03*
%TD*%
D20*
%TO.P,D4,2,A*%
%TO.N,/M1A*%
X124492000Y-75692000D03*
%TO.P,D4,1,K*%
%TO.N,+BATT*%
X128492000Y-75692000D03*
%TD*%
D21*
%TO.P,D5,2,A*%
%TO.N,GND*%
X129145001Y-102362000D03*
%TO.P,D5,1,K*%
%TO.N,/M1A*%
X125144999Y-102362000D03*
%TD*%
%TO.P,D8,2,A*%
%TO.N,/M2A*%
X173355000Y-75565000D03*
%TO.P,D8,1,K*%
%TO.N,+BATT*%
X169354998Y-75565000D03*
%TD*%
D16*
%TO.P,R18,1*%
%TO.N,Net-(Q5-D)*%
X159512000Y-85977001D03*
%TO.P,R18,2*%
%TO.N,+BATT*%
X159512000Y-86996999D03*
%TD*%
D22*
%TO.P,D7,2,A*%
%TO.N,/M1B*%
X135636000Y-64547999D03*
%TO.P,D7,1,K*%
%TO.N,+BATT*%
X135636000Y-68548001D03*
%TD*%
D23*
%TO.P,R13,1*%
%TO.N,Net-(Q13-D)*%
X135890000Y-76962000D03*
%TO.P,R13,2*%
%TO.N,+BATT*%
X136909998Y-76962000D03*
%TD*%
D24*
%TO.P,Q6,1,G*%
%TO.N,Net-(Q5-D)*%
X162657000Y-85579000D03*
D25*
%TO.P,Q6,2,D*%
%TO.N,/M2A*%
X169382000Y-80264000D03*
X169382000Y-85814000D03*
D26*
X171807000Y-83039000D03*
D25*
X174232000Y-80264000D03*
X174232000Y-85814000D03*
D24*
%TO.P,Q6,3,S*%
%TO.N,+BATT*%
X162657000Y-80499000D03*
%TD*%
D21*
%TO.P,D12,2,A*%
%TO.N,GND*%
X154813000Y-102362000D03*
%TO.P,D12,1,K*%
%TO.N,/M2B*%
X150812998Y-102362000D03*
%TD*%
D27*
%TO.P,R14,1*%
%TO.N,Net-(Q1-G)*%
X149352000Y-76963999D03*
%TO.P,R14,2*%
%TO.N,+BATT*%
X149352000Y-75944001D03*
%TD*%
D28*
%TO.P,Q2,1,G*%
%TO.N,Net-(Q13-D)*%
X135781000Y-80772000D03*
D29*
%TO.P,Q2,2,D*%
%TO.N,/M1A*%
X129056000Y-86087000D03*
X129056000Y-80537000D03*
D30*
X126631000Y-83312000D03*
D29*
X124206000Y-86087000D03*
X124206000Y-80537000D03*
D28*
%TO.P,Q2,3,S*%
%TO.N,+BATT*%
X135781000Y-85852000D03*
%TD*%
D20*
%TO.P,D9,2,A*%
%TO.N,GND*%
X169355000Y-102362000D03*
%TO.P,D9,1,K*%
%TO.N,/M2A*%
X173355000Y-102362000D03*
%TD*%
D28*
%TO.P,Q9,1,G*%
%TO.N,/M1Q2*%
X135786999Y-92201998D03*
D29*
%TO.P,Q9,2,D*%
%TO.N,/M1A*%
X129062001Y-91966997D03*
X129061999Y-97516997D03*
D30*
X126637000Y-94742000D03*
D29*
X124212001Y-97516999D03*
X124211999Y-91966997D03*
D28*
%TO.P,Q9,3,S*%
%TO.N,GND*%
X135787002Y-97281998D03*
%TD*%
D16*
%TO.P,R16,1*%
%TO.N,/M1Q2*%
X139065000Y-94488000D03*
%TO.P,R16,2*%
%TO.N,GND*%
X139065000Y-95507998D03*
%TD*%
D31*
%TO.P,D6,2,A*%
%TO.N,GND*%
X157117000Y-83280001D03*
%TO.P,D6,1,K*%
%TO.N,/M1B*%
X157117000Y-79279999D03*
%TD*%
D23*
%TO.P,R19,1*%
%TO.N,/M2Q2*%
X165987001Y-101092000D03*
%TO.P,R19,2*%
%TO.N,GND*%
X167006999Y-101092000D03*
%TD*%
D24*
%TO.P,Q7,1,G*%
%TO.N,/M2Q2*%
X162657000Y-97263000D03*
D25*
%TO.P,Q7,2,D*%
%TO.N,/M2A*%
X169382000Y-91948000D03*
X169382000Y-97498000D03*
D26*
X171807000Y-94723000D03*
D25*
X174232000Y-91948000D03*
X174232000Y-97498000D03*
D24*
%TO.P,Q7,3,S*%
%TO.N,GND*%
X162657000Y-92183000D03*
%TD*%
%TO.P,Q3,1,G*%
%TO.N,/M1Q4*%
X141115000Y-85852000D03*
D25*
%TO.P,Q3,2,D*%
%TO.N,/M1B*%
X147840000Y-80537000D03*
X147840000Y-86087000D03*
D26*
X150265000Y-83312000D03*
D25*
X152690000Y-80537000D03*
X152690000Y-86087000D03*
D24*
%TO.P,Q3,3,S*%
%TO.N,GND*%
X141115000Y-80772000D03*
%TD*%
D28*
%TO.P,Q15,1,G*%
%TO.N,/M2Q4*%
X156778000Y-92202000D03*
D29*
%TO.P,Q15,2,D*%
%TO.N,/M2B*%
X150053000Y-97517000D03*
X150053000Y-91967000D03*
D30*
X147628000Y-94742000D03*
D29*
X145203000Y-97517000D03*
X145203000Y-91967000D03*
D28*
%TO.P,Q15,3,S*%
%TO.N,GND*%
X156778000Y-97282000D03*
%TD*%
D32*
%TO.P,R23,1*%
%TO.N,/M2Q4*%
X161037999Y-101346000D03*
%TO.P,R23,2*%
%TO.N,GND*%
X160018001Y-101346000D03*
%TD*%
D33*
%TO.P,D10,2,A*%
%TO.N,/M2B*%
X163685786Y-65133786D03*
%TO.P,D10,1,K*%
%TO.N,+BATT*%
X166514214Y-67962214D03*
%TD*%
D17*
%TO.P,Q1,1,G*%
%TO.N,Net-(Q1-G)*%
X145688000Y-74821000D03*
D18*
%TO.P,Q1,2,D*%
%TO.N,/M1B*%
X140373000Y-68096000D03*
X145923000Y-68096000D03*
D19*
X143148000Y-65671000D03*
D18*
X140373000Y-63246000D03*
X145923000Y-63246000D03*
D17*
%TO.P,Q1,3,S*%
%TO.N,+BATT*%
X140608000Y-74821000D03*
%TD*%
D32*
%TO.P,R15,1*%
%TO.N,/M1Q4*%
X141099000Y-89662000D03*
%TO.P,R15,2*%
%TO.N,GND*%
X140079000Y-89662000D03*
%TD*%
D34*
%TO.N,GND*%
X162687000Y-93980000D03*
D35*
X167005000Y-102362000D03*
X133350000Y-72517000D03*
X140589000Y-104521000D03*
X137414000Y-95631000D03*
X133350000Y-69088000D03*
X151003000Y-109093000D03*
X153162000Y-109474000D03*
D34*
X164338000Y-90297000D03*
D35*
X132461000Y-108331000D03*
D34*
X156464000Y-87757000D03*
X142748000Y-88392000D03*
X136144000Y-78613000D03*
D35*
X154813000Y-101727000D03*
X157607000Y-100076000D03*
X162092246Y-113648548D03*
X157099000Y-106426000D03*
X160909000Y-115951000D03*
D34*
X161417000Y-89662000D03*
D35*
X157988000Y-104013000D03*
X157353000Y-109855000D03*
X137541000Y-113792000D03*
X152527000Y-108077000D03*
%TO.N,+3.3V*%
X138430000Y-100457000D03*
X140908927Y-100459279D03*
X154686000Y-106172000D03*
D34*
X169037000Y-73152000D03*
D35*
X142748000Y-103505000D03*
X139573000Y-110871000D03*
D34*
X164846000Y-70993000D03*
D35*
X146558000Y-109601000D03*
X145542000Y-106172000D03*
%TO.N,+BATT*%
X157734000Y-98552000D03*
X155702000Y-98552000D03*
D34*
X132207000Y-82296000D03*
X164465000Y-69342000D03*
D35*
%TO.N,/LED_G*%
X159874357Y-112112738D03*
X146177000Y-106807000D03*
%TO.N,/LED_B*%
X161544000Y-112268000D03*
X147066000Y-107188000D03*
D34*
%TO.N,/M1A*%
X126238000Y-84836000D03*
%TO.N,/M1B*%
X134239000Y-82804000D03*
D35*
%TO.N,/NRST*%
X138303000Y-112395000D03*
X152400000Y-111887000D03*
X140589000Y-112395000D03*
X151384000Y-113030000D03*
%TO.N,/M1Q3*%
X134112000Y-68453000D03*
X134112000Y-77597000D03*
X125857000Y-77216000D03*
X132080000Y-101092000D03*
X134239000Y-100330000D03*
X128016000Y-77216000D03*
%TO.N,/M1Q1*%
X134874000Y-99568000D03*
X132334000Y-99568000D03*
%TO.N,/M1Q4*%
X140970000Y-90805000D03*
%TO.N,/M1Q2*%
X139065000Y-94488000D03*
%TO.N,/VBatt_sense*%
X156464000Y-104775000D03*
X154178000Y-105156000D03*
%TO.N,/M2Q1*%
X164973000Y-78867000D03*
X163068000Y-76708000D03*
%TO.N,/M2Q3*%
X164211000Y-79248000D03*
X162179000Y-67056000D03*
%TO.N,/M2Q4*%
X154813000Y-92456000D03*
%TO.N,/M2Q2*%
X161036000Y-97409000D03*
D34*
%TO.N,/M2A*%
X169418000Y-97663000D03*
%TO.N,/M2B*%
X151130000Y-93726000D03*
D35*
%TO.N,/E1A*%
X144653000Y-100711000D03*
X139192000Y-92837000D03*
%TO.N,/E1B*%
X144018000Y-101600000D03*
X139573000Y-99060000D03*
%TO.N,/E2B*%
X154813000Y-104521000D03*
X157480000Y-104775000D03*
%TO.N,/E2A*%
X157734000Y-102743000D03*
X154178000Y-103886000D03*
%TO.N,Net-(Q1-G)*%
X149098000Y-67056000D03*
X149098000Y-69469000D03*
X150404939Y-77027648D03*
%TO.N,Net-(Q13-D)*%
X133731000Y-78867000D03*
%TO.N,Net-(Q5-D)*%
X160782000Y-84455000D03*
X162306000Y-75946000D03*
X165100000Y-77978000D03*
%TO.N,Net-(Q14-G)*%
X161671000Y-67945000D03*
X149606000Y-64897000D03*
X161671000Y-72771000D03*
X149606000Y-70104000D03*
X158877000Y-72136000D03*
X149352000Y-72644000D03*
%TD*%
D36*
%TO.N,GND*%
X167006999Y-101092000D02*
X167005000Y-102362000D01*
X167026998Y-101092000D02*
X168039000Y-101092000D01*
X168039000Y-101092000D02*
X169309000Y-102362000D01*
X139083000Y-95505999D02*
X137563001Y-95505999D01*
X167005000Y-102362000D02*
X167006999Y-102360001D01*
X137563001Y-95505999D02*
X135787002Y-97281998D01*
X133350000Y-69088000D02*
X133350000Y-72517000D01*
%TO.N,+3.3V*%
X142875000Y-103505000D02*
X142748000Y-103505000D01*
X145542000Y-108585000D02*
X146558000Y-109601000D01*
X138432279Y-100459279D02*
X138430000Y-100457000D01*
D37*
X169037000Y-73152000D02*
X167005000Y-73152000D01*
D36*
X145542000Y-106172000D02*
X145542000Y-108585000D01*
X140908927Y-100459279D02*
X138432279Y-100459279D01*
X145288000Y-110871000D02*
X146558000Y-109601000D01*
X142113000Y-102870000D02*
X142748000Y-103505000D01*
X145542000Y-106172000D02*
X142875000Y-103505000D01*
X139573000Y-110871000D02*
X145288000Y-110871000D01*
D37*
X167005000Y-73152000D02*
X164846000Y-70993000D01*
D36*
X142113000Y-102870000D02*
X142113000Y-101663352D01*
X142113000Y-101663352D02*
X140908927Y-100459279D01*
X145542000Y-106172000D02*
X154686000Y-106172000D01*
D37*
%TO.N,+BATT*%
X147447000Y-72688650D02*
X146005350Y-71247000D01*
X153035000Y-74803000D02*
X152265000Y-75573000D01*
X130810000Y-67437000D02*
X130810000Y-73374000D01*
X131865326Y-66381674D02*
X130810000Y-67437000D01*
X140608000Y-74821000D02*
X140608000Y-72282000D01*
X137582650Y-71247000D02*
X136913000Y-70577350D01*
X164957000Y-80499000D02*
X162657000Y-80499000D01*
X132166000Y-82337000D02*
X132166000Y-85557000D01*
X135037650Y-67140999D02*
X134278326Y-66381674D01*
X152108133Y-75827000D02*
X151384000Y-75827000D01*
X136627001Y-68548001D02*
X135636000Y-68548001D01*
X132461000Y-85852000D02*
X135781000Y-85852000D01*
X165134428Y-69342000D02*
X164465000Y-69342000D01*
X151384000Y-75827000D02*
X151352001Y-75858999D01*
X166272000Y-79184000D02*
X164957000Y-80499000D01*
D36*
X136909998Y-76962000D02*
X138467000Y-76962000D01*
D37*
X151352001Y-75858999D02*
X149266998Y-75858999D01*
X166272000Y-77397998D02*
X166272000Y-78613000D01*
X135636000Y-68548001D02*
X135636000Y-67140999D01*
X132166000Y-77705650D02*
X132166000Y-82255000D01*
X149266998Y-75858999D02*
X148209999Y-74802001D01*
X136913000Y-70577350D02*
X136913000Y-68834000D01*
X146005350Y-71247000D02*
X137582650Y-71247000D01*
D36*
X155702000Y-98552000D02*
X157734000Y-98552000D01*
D37*
X134278326Y-66381674D02*
X131865326Y-66381674D01*
X168104998Y-75565000D02*
X166272000Y-77397998D01*
X139573000Y-71247000D02*
X137582650Y-71247000D01*
X130810000Y-73374000D02*
X128492000Y-75692000D01*
X132207000Y-82296000D02*
X132166000Y-82337000D01*
X170507000Y-74412998D02*
X169354998Y-75565000D01*
X166272000Y-78613000D02*
X166272000Y-79184000D01*
X166514214Y-67962214D02*
X170507000Y-71955000D01*
D36*
X159512000Y-86996999D02*
X164373745Y-86996999D01*
D37*
X148209999Y-74802001D02*
X147447000Y-74039001D01*
X140608000Y-72282000D02*
X139573000Y-71247000D01*
X152265000Y-75670133D02*
X152108133Y-75827000D01*
X132166000Y-82255000D02*
X132207000Y-82296000D01*
X169354998Y-75565000D02*
X168104998Y-75565000D01*
X152265000Y-75573000D02*
X152265000Y-75670133D01*
X136913000Y-68834000D02*
X136627001Y-68548001D01*
D36*
X164373745Y-86996999D02*
X165257000Y-86113744D01*
X138467000Y-76962000D02*
X140608000Y-74821000D01*
X165257000Y-83099000D02*
X162657000Y-80499000D01*
D37*
X130152350Y-75692000D02*
X132166000Y-77705650D01*
X170507000Y-71955000D02*
X170507000Y-74412998D01*
X135636000Y-67140999D02*
X135037650Y-67140999D01*
X128492000Y-75692000D02*
X130152350Y-75692000D01*
X132166000Y-85557000D02*
X132461000Y-85852000D01*
D36*
X149266998Y-75858999D02*
X149352000Y-75773997D01*
D37*
X147447000Y-74039001D02*
X147447000Y-72688650D01*
D36*
X149352000Y-75773997D02*
X149352000Y-73660000D01*
D37*
X166514214Y-67962214D02*
X165134428Y-69342000D01*
D36*
X165257000Y-86113744D02*
X165257000Y-83099000D01*
%TO.N,/LED_G*%
X150691314Y-110871000D02*
X158750000Y-110871000D01*
X147897314Y-108077000D02*
X150691314Y-110871000D01*
X147106471Y-108077000D02*
X147897314Y-108077000D01*
X146177000Y-106807000D02*
X146177000Y-107147529D01*
X158750000Y-110871000D02*
X159893000Y-112014000D01*
X146177000Y-107147529D02*
X147106471Y-108077000D01*
%TO.N,/LED_B*%
X159350000Y-110455000D02*
X161163000Y-112268000D01*
X150841000Y-110455000D02*
X159350000Y-110455000D01*
X147574000Y-107188000D02*
X150841000Y-110455000D01*
X147066000Y-107188000D02*
X147574000Y-107188000D01*
X161163000Y-112268000D02*
X161544000Y-112268000D01*
D37*
%TO.N,/M1A*%
X125144999Y-98449997D02*
X124212001Y-97516999D01*
X124206000Y-91960998D02*
X124211999Y-91966997D01*
X124492000Y-80251000D02*
X124206000Y-80537000D01*
X125144999Y-102362000D02*
X125144999Y-98449997D01*
X124492000Y-75692000D02*
X124492000Y-80251000D01*
X129685003Y-91966997D02*
X129062001Y-91966997D01*
X124206000Y-86087000D02*
X124206000Y-91960998D01*
%TO.N,/M1B*%
X145573000Y-82804000D02*
X147840000Y-80537000D01*
X157117000Y-79279999D02*
X153947001Y-79279999D01*
X139071001Y-64547999D02*
X140373000Y-63246000D01*
X154505000Y-72336000D02*
X153416000Y-71247000D01*
X134239000Y-82804000D02*
X145573000Y-82804000D01*
X135636000Y-64547999D02*
X139071001Y-64547999D01*
X152690000Y-80537000D02*
X154505000Y-78722000D01*
X153947001Y-79279999D02*
X152690000Y-80537000D01*
X149074000Y-71247000D02*
X145923000Y-68096000D01*
X153416000Y-71247000D02*
X149074000Y-71247000D01*
X147840000Y-80537000D02*
X145561000Y-80537000D01*
X154505000Y-78722000D02*
X154505000Y-72336000D01*
D36*
%TO.N,/NRST*%
X151384000Y-112903000D02*
X152400000Y-111887000D01*
X151384000Y-113030000D02*
X151384000Y-112903000D01*
X140589000Y-112395000D02*
X138303000Y-112395000D01*
%TO.N,/M1Q3*%
X134112000Y-77597000D02*
X136336970Y-75372030D01*
X136336970Y-72328970D02*
X134937500Y-70929500D01*
X136336970Y-75372030D02*
X136336970Y-72328970D01*
X133477000Y-101092000D02*
X132080000Y-101092000D01*
X134239000Y-100330000D02*
X133477000Y-101092000D01*
X134937500Y-70929500D02*
X134112000Y-70104000D01*
X134112000Y-70104000D02*
X134112000Y-68453000D01*
X125857000Y-77216000D02*
X128016000Y-77216000D01*
%TO.N,/M1Q1*%
X134874000Y-99568000D02*
X132334000Y-99568000D01*
%TO.N,/M1Q4*%
X141117000Y-89662000D02*
X141117000Y-85854000D01*
X141117000Y-85854000D02*
X141115000Y-85852000D01*
X140970000Y-89809000D02*
X141117000Y-89662000D01*
X140970000Y-90805000D02*
X140970000Y-89809000D01*
%TO.N,/M1Q2*%
X139083000Y-94486001D02*
X138071002Y-94486001D01*
X138071002Y-94486001D02*
X135786999Y-92201998D01*
%TO.N,/VBatt_sense*%
X156083000Y-105156000D02*
X156464000Y-104775000D01*
X154178000Y-105156000D02*
X156083000Y-105156000D01*
%TO.N,/M2Q1*%
X163068000Y-76962000D02*
X163068000Y-76708000D01*
X164973000Y-78867000D02*
X163068000Y-76962000D01*
%TO.N,/M2Q3*%
X161417000Y-76327000D02*
X161417000Y-75819000D01*
X161417000Y-75819000D02*
X162386970Y-74849030D01*
X162386970Y-74849030D02*
X162386970Y-67263970D01*
X162386970Y-67263970D02*
X162179000Y-67056000D01*
X164211000Y-79121000D02*
X161417000Y-76327000D01*
%TO.N,/M2Q4*%
X153796001Y-99186001D02*
X153162000Y-98552000D01*
X153162000Y-94107000D02*
X154813000Y-92456000D01*
X161037999Y-101346000D02*
X158878000Y-99186001D01*
X153162000Y-98552000D02*
X153162000Y-94107000D01*
X158878000Y-99186001D02*
X153796001Y-99186001D01*
%TO.N,/M2Q2*%
X166007000Y-100710000D02*
X162560000Y-97263000D01*
X166007000Y-101092000D02*
X166007000Y-100710000D01*
D37*
%TO.N,/M2A*%
X169382000Y-91948000D02*
X169382000Y-85814000D01*
X173309002Y-102362000D02*
X173309002Y-98323998D01*
X173309002Y-98323998D02*
X174135000Y-97498000D01*
X173355000Y-75565000D02*
X173355000Y-77405106D01*
X173341001Y-79470001D02*
X174135000Y-80264000D01*
X173355000Y-77405106D02*
X175222947Y-79273053D01*
%TO.N,/M2B*%
X159512000Y-84076351D02*
X159500000Y-84064351D01*
X158183825Y-90482175D02*
X158183825Y-85404525D01*
X160536000Y-70264000D02*
X158350000Y-68078000D01*
X152751350Y-91967000D02*
X154236175Y-90482175D01*
X150138002Y-91967003D02*
X151288005Y-90817000D01*
X150798999Y-98177998D02*
X150138001Y-97517000D01*
X159500000Y-84064351D02*
X159500000Y-75577000D01*
X150798999Y-102362000D02*
X150798999Y-98177998D01*
X158183825Y-85404525D02*
X159512000Y-84076351D01*
X160255786Y-65133786D02*
X158350000Y-63228000D01*
X154236175Y-90482175D02*
X158183825Y-90482175D01*
X159500000Y-75577000D02*
X160536000Y-74541000D01*
X160536000Y-74541000D02*
X160536000Y-70264000D01*
X150053000Y-91967000D02*
X152751350Y-91967000D01*
X163685786Y-65133786D02*
X160255786Y-65133786D01*
D36*
%TO.N,/E1A*%
X142303500Y-95948500D02*
X139192000Y-92837000D01*
X144653000Y-100711000D02*
X143212256Y-100711000D01*
X143212256Y-100711000D02*
X142303500Y-99802244D01*
X142303500Y-99802244D02*
X142303500Y-95948500D01*
%TO.N,/E1B*%
X144018000Y-101600000D02*
X143002000Y-101600000D01*
X140462000Y-99060000D02*
X139573000Y-99060000D01*
X143002000Y-101600000D02*
X140462000Y-99060000D01*
%TO.N,/E2B*%
X154813000Y-104521000D02*
X155280529Y-104053471D01*
X157439529Y-104775000D02*
X157480000Y-104775000D01*
X155280529Y-104053471D02*
X156718000Y-104053471D01*
X156718000Y-104053471D02*
X157439529Y-104775000D01*
%TO.N,/E2A*%
X154502000Y-103562000D02*
X154178000Y-103886000D01*
X156915000Y-103562000D02*
X154813000Y-103562000D01*
X154813000Y-103562000D02*
X154502000Y-103562000D01*
X157734000Y-102743000D02*
X156915000Y-103562000D01*
%TO.N,Net-(Q1-G)*%
X149098000Y-69469000D02*
X149098000Y-67056000D01*
X147830999Y-76963999D02*
X145688000Y-74821000D01*
X149352000Y-76963999D02*
X150366001Y-76963999D01*
X149352000Y-76963999D02*
X147830999Y-76963999D01*
%TO.N,Net-(Q13-D)*%
X135209000Y-79653314D02*
X136054343Y-80498657D01*
X135890000Y-76962000D02*
X135209000Y-77643000D01*
X133857000Y-78867000D02*
X135781000Y-80791000D01*
X133731000Y-78741000D02*
X133731000Y-78867000D01*
X133731000Y-78867000D02*
X133857000Y-78867000D01*
X135209000Y-77643000D02*
X135209000Y-79653314D01*
X133667000Y-78677000D02*
X133731000Y-78741000D01*
%TO.N,Net-(Q5-D)*%
X160274000Y-85579000D02*
X159910001Y-85579000D01*
X159910001Y-85579000D02*
X159512000Y-85977001D01*
X163316529Y-76108000D02*
X162468000Y-76108000D01*
X160274000Y-85579000D02*
X160274000Y-84963000D01*
X160274000Y-84963000D02*
X160782000Y-84455000D01*
X165100000Y-77891471D02*
X163316529Y-76108000D01*
X165100000Y-77978000D02*
X165100000Y-77891471D01*
X162468000Y-76108000D02*
X162306000Y-75946000D01*
X162657000Y-85579000D02*
X160274000Y-85579000D01*
%TO.N,Net-(Q14-G)*%
X149698000Y-64989000D02*
X149606000Y-64897000D01*
X149606000Y-64897000D02*
X149733000Y-64897000D01*
X158115000Y-72263000D02*
X158242000Y-72136000D01*
X149698000Y-70012000D02*
X149698000Y-64989000D01*
X149606000Y-70104000D02*
X149698000Y-70012000D01*
X158115000Y-72263000D02*
X158115000Y-74803000D01*
X161671000Y-71501000D02*
X161671000Y-72771000D01*
X158242000Y-72136000D02*
X158877000Y-72136000D01*
X161671000Y-67945000D02*
X161671000Y-71501000D01*
%TD*%
%TA.AperFunction,Conductor*%
%TO.N,GND*%
G36*
X166525833Y-80638518D02*
G01*
X166581767Y-80680389D01*
X166606184Y-80745854D01*
X166606500Y-80754700D01*
X166606500Y-88239001D01*
X166606501Y-88239018D01*
X166617000Y-88341796D01*
X166617001Y-88341799D01*
X166672185Y-88508331D01*
X166672186Y-88508334D01*
X166764288Y-88657656D01*
X166888344Y-88781712D01*
X166888347Y-88781714D01*
X166890903Y-88783735D01*
X166892202Y-88785570D01*
X166893451Y-88786819D01*
X166893237Y-88787032D01*
X166931278Y-88840758D01*
X166934416Y-88910557D01*
X166899319Y-88970972D01*
X166890903Y-88978265D01*
X166888341Y-88980290D01*
X166764289Y-89104342D01*
X166672187Y-89253663D01*
X166672185Y-89253668D01*
X166617001Y-89420201D01*
X166614950Y-89440282D01*
X166614950Y-89440284D01*
X166606500Y-89522985D01*
X166606500Y-99923001D01*
X166606501Y-99923018D01*
X166617000Y-100025796D01*
X166617001Y-100025799D01*
X166667100Y-100176986D01*
X166669502Y-100246814D01*
X166633770Y-100306856D01*
X166612515Y-100322722D01*
X166605097Y-100327109D01*
X166537373Y-100344292D01*
X166471111Y-100322132D01*
X166454295Y-100308058D01*
X166371397Y-100225160D01*
X166371374Y-100225139D01*
X164671415Y-98525180D01*
X164637930Y-98463857D01*
X164642914Y-98394165D01*
X164684786Y-98338232D01*
X164750250Y-98313815D01*
X164753860Y-98313686D01*
X164753859Y-98313659D01*
X164756998Y-98313499D01*
X164757008Y-98313499D01*
X164859797Y-98302999D01*
X165026334Y-98247814D01*
X165175656Y-98155712D01*
X165299712Y-98031656D01*
X165391814Y-97882334D01*
X165446999Y-97715797D01*
X165457500Y-97613009D01*
X165457499Y-96912992D01*
X165448950Y-96829307D01*
X165446999Y-96810203D01*
X165446998Y-96810200D01*
X165424692Y-96742885D01*
X165391814Y-96643666D01*
X165299712Y-96494344D01*
X165175656Y-96370288D01*
X165026334Y-96278186D01*
X164859797Y-96223001D01*
X164859795Y-96223000D01*
X164757010Y-96212500D01*
X160556998Y-96212500D01*
X160556981Y-96212501D01*
X160454203Y-96223000D01*
X160454200Y-96223001D01*
X160287668Y-96278185D01*
X160287663Y-96278187D01*
X160138342Y-96370289D01*
X160014289Y-96494342D01*
X159922187Y-96643663D01*
X159922185Y-96643668D01*
X159915820Y-96662878D01*
X159867001Y-96810203D01*
X159867001Y-96810204D01*
X159867000Y-96810204D01*
X159856500Y-96912983D01*
X159856500Y-97613001D01*
X159856501Y-97613019D01*
X159867000Y-97715796D01*
X159867001Y-97715799D01*
X159922185Y-97882331D01*
X159922187Y-97882336D01*
X159957069Y-97938888D01*
X160014288Y-98031656D01*
X160138344Y-98155712D01*
X160287666Y-98247814D01*
X160454203Y-98302999D01*
X160556991Y-98313500D01*
X162709902Y-98313499D01*
X162776941Y-98333184D01*
X162797583Y-98349818D01*
X165181484Y-100733719D01*
X165214969Y-100795042D01*
X165217421Y-100831128D01*
X165216501Y-100842811D01*
X165216501Y-101341169D01*
X165216502Y-101341191D01*
X165219336Y-101377205D01*
X165264130Y-101531388D01*
X165264132Y-101531393D01*
X165345864Y-101669595D01*
X165345870Y-101669603D01*
X165459397Y-101783130D01*
X165459401Y-101783133D01*
X165459403Y-101783135D01*
X165597608Y-101864869D01*
X165635123Y-101875768D01*
X165751792Y-101909664D01*
X165751795Y-101909664D01*
X165751797Y-101909665D01*
X165787820Y-101912500D01*
X166186181Y-101912499D01*
X166222205Y-101909665D01*
X166376394Y-101864869D01*
X166434371Y-101830581D01*
X166502093Y-101813398D01*
X166560613Y-101830581D01*
X166617806Y-101864405D01*
X166756999Y-101904844D01*
X166756999Y-101352434D01*
X166757381Y-101342704D01*
X166757501Y-101341181D01*
X166757500Y-100965999D01*
X166777184Y-100898961D01*
X166829988Y-100853206D01*
X166881500Y-100842000D01*
X167132999Y-100842000D01*
X167200038Y-100861685D01*
X167245793Y-100914489D01*
X167256999Y-100966000D01*
X167256999Y-101904843D01*
X167396193Y-101864404D01*
X167417879Y-101851580D01*
X167485602Y-101834397D01*
X167551865Y-101856557D01*
X167595629Y-101911023D01*
X167605000Y-101958312D01*
X167605000Y-102112000D01*
X169105000Y-102112000D01*
X169105000Y-100962000D01*
X169605000Y-100962000D01*
X169605000Y-102112000D01*
X171104999Y-102112000D01*
X171104999Y-101662028D01*
X171104998Y-101662013D01*
X171094505Y-101559302D01*
X171039358Y-101392880D01*
X171039356Y-101392875D01*
X170947315Y-101243654D01*
X170823345Y-101119684D01*
X170674124Y-101027643D01*
X170674119Y-101027641D01*
X170507697Y-100972494D01*
X170507690Y-100972493D01*
X170404986Y-100962000D01*
X169605000Y-100962000D01*
X169105000Y-100962000D01*
X168305028Y-100962000D01*
X168305012Y-100962001D01*
X168202302Y-100972494D01*
X168035880Y-101027641D01*
X168035871Y-101027645D01*
X167966095Y-101070684D01*
X167898703Y-101089124D01*
X167832039Y-101068201D01*
X167787270Y-101014559D01*
X167776999Y-100965145D01*
X167776999Y-100842879D01*
X167776998Y-100842864D01*
X167774166Y-100806878D01*
X167766966Y-100782094D01*
X167767166Y-100712224D01*
X167805109Y-100653554D01*
X167868747Y-100624711D01*
X167886030Y-100623499D01*
X172049502Y-100623499D01*
X172116541Y-100643184D01*
X172162296Y-100695988D01*
X172173502Y-100747499D01*
X172173502Y-100891970D01*
X172153817Y-100959009D01*
X172101013Y-101004764D01*
X172088507Y-101009676D01*
X172035666Y-101027186D01*
X171886342Y-101119289D01*
X171762289Y-101243342D01*
X171670187Y-101392663D01*
X171670185Y-101392668D01*
X171670115Y-101392880D01*
X171615001Y-101559203D01*
X171615001Y-101559204D01*
X171615000Y-101559204D01*
X171604500Y-101661983D01*
X171604500Y-103062001D01*
X171604501Y-103062018D01*
X171615000Y-103164796D01*
X171615001Y-103164799D01*
X171670185Y-103331331D01*
X171670187Y-103331336D01*
X171695772Y-103372816D01*
X171762288Y-103480656D01*
X171886344Y-103604712D01*
X172035666Y-103696814D01*
X172202203Y-103751999D01*
X172304991Y-103762500D01*
X174405008Y-103762499D01*
X174507797Y-103751999D01*
X174607505Y-103718958D01*
X174677330Y-103716557D01*
X174737373Y-103752288D01*
X174768566Y-103814808D01*
X174761006Y-103884268D01*
X174754042Y-103898407D01*
X174475310Y-104383869D01*
X174473067Y-104387622D01*
X173925395Y-105268075D01*
X173923020Y-105271746D01*
X173344690Y-106132282D01*
X173342188Y-106135868D01*
X173071758Y-106509125D01*
X173016485Y-106551864D01*
X172946879Y-106557936D01*
X172888371Y-106528523D01*
X170458298Y-104340475D01*
X170431169Y-104320863D01*
X170409708Y-104305348D01*
X170409706Y-104305347D01*
X170409703Y-104305345D01*
X170275848Y-104252494D01*
X170275842Y-104252493D01*
X170263924Y-104251412D01*
X170132508Y-104239495D01*
X170132507Y-104239495D01*
X169991320Y-104267404D01*
X169991315Y-104267406D01*
X169863711Y-104333961D01*
X169819060Y-104373973D01*
X167078475Y-107417701D01*
X167043345Y-107466296D01*
X166990494Y-107600151D01*
X166990493Y-107600158D01*
X166977495Y-107743491D01*
X166977495Y-107743492D01*
X167005404Y-107884679D01*
X167005407Y-107884688D01*
X167039701Y-107950439D01*
X167053250Y-108018982D01*
X167027591Y-108083970D01*
X166970870Y-108124768D01*
X166901096Y-108128424D01*
X166893128Y-108126249D01*
X166764481Y-108086472D01*
X166620724Y-108084418D01*
X166620720Y-108084419D01*
X166482201Y-108122952D01*
X166430268Y-108152771D01*
X166430256Y-108152779D01*
X164975791Y-109209510D01*
X165876045Y-110448604D01*
X165769322Y-110492811D01*
X165605537Y-110602249D01*
X165468907Y-110738878D01*
X164571282Y-109503402D01*
X163116814Y-110560136D01*
X163116799Y-110560148D01*
X163072397Y-110600319D01*
X163072396Y-110600320D01*
X162992945Y-110720151D01*
X162950472Y-110857518D01*
X162950472Y-110857519D01*
X162948418Y-111001275D01*
X162948419Y-111001279D01*
X162986952Y-111139798D01*
X163016771Y-111191731D01*
X163016779Y-111191743D01*
X164073510Y-112646208D01*
X165312604Y-111745953D01*
X165356811Y-111852678D01*
X165466249Y-112016463D01*
X165602877Y-112153091D01*
X164367403Y-113050716D01*
X164367402Y-113050717D01*
X165026981Y-113958549D01*
X165050461Y-114024355D01*
X165034635Y-114092409D01*
X164992102Y-114136761D01*
X164269530Y-114585688D01*
X164265776Y-114587930D01*
X163366286Y-115103738D01*
X163362455Y-115105845D01*
X162445399Y-115589589D01*
X162441496Y-115591561D01*
X161507911Y-116042696D01*
X161503942Y-116044529D01*
X160555064Y-116462456D01*
X160551032Y-116464147D01*
X159587977Y-116848376D01*
X159583888Y-116849924D01*
X158673051Y-117176589D01*
X158632124Y-117183865D01*
X158502988Y-117184838D01*
X158486378Y-117183847D01*
X158267768Y-117155987D01*
X158251442Y-117152781D01*
X158038535Y-117095908D01*
X158022784Y-117090545D01*
X157819408Y-117005679D01*
X157804517Y-116998256D01*
X157804474Y-116998231D01*
X157614327Y-116886921D01*
X157600565Y-116877571D01*
X157581017Y-116862278D01*
X157426997Y-116741780D01*
X157414613Y-116730675D01*
X157260787Y-116572871D01*
X157249998Y-116560204D01*
X157177471Y-116462456D01*
X157132613Y-116401998D01*
X157120476Y-116381913D01*
X157117689Y-116376126D01*
X156260874Y-114596866D01*
X156252821Y-114575161D01*
X156250923Y-114568079D01*
X156250922Y-114568076D01*
X156250922Y-114568075D01*
X156229648Y-114531227D01*
X156225326Y-114523048D01*
X156221789Y-114515703D01*
X156206879Y-114484741D01*
X156202090Y-114479175D01*
X156188698Y-114460300D01*
X156187631Y-114458452D01*
X156185030Y-114453947D01*
X156185029Y-114453946D01*
X156185027Y-114453943D01*
X156154970Y-114423887D01*
X156148660Y-114417087D01*
X156142783Y-114410258D01*
X156120920Y-114384851D01*
X156114855Y-114380716D01*
X156097028Y-114365945D01*
X156091846Y-114360763D01*
X156091844Y-114360761D01*
X156055018Y-114339499D01*
X156047176Y-114334571D01*
X156012041Y-114310616D01*
X156012037Y-114310614D01*
X156012036Y-114310613D01*
X156005103Y-114308186D01*
X155984068Y-114298536D01*
X155977716Y-114294869D01*
X155936631Y-114283860D01*
X155927791Y-114281132D01*
X155887649Y-114267086D01*
X155887640Y-114267084D01*
X155880324Y-114266536D01*
X155857515Y-114262661D01*
X155850424Y-114260761D01*
X155850422Y-114260761D01*
X155807900Y-114260761D01*
X155798632Y-114260414D01*
X155785837Y-114259455D01*
X155756237Y-114257236D01*
X155756234Y-114257236D01*
X155756233Y-114257236D01*
X155756232Y-114257236D01*
X155749015Y-114258601D01*
X155725973Y-114260761D01*
X142269285Y-114260761D01*
X142255772Y-114260023D01*
X142250598Y-114259455D01*
X142250596Y-114259455D01*
X142250593Y-114259455D01*
X142191430Y-114260732D01*
X142188757Y-114260761D01*
X142129637Y-114260761D01*
X142124494Y-114261439D01*
X142124237Y-114261458D01*
X142124001Y-114261508D01*
X142118845Y-114262300D01*
X142062013Y-114278851D01*
X142059438Y-114279570D01*
X142002346Y-114294868D01*
X141997536Y-114296861D01*
X141997304Y-114296942D01*
X141997096Y-114297048D01*
X141992313Y-114299151D01*
X141941671Y-114329865D01*
X141939371Y-114331226D01*
X141888214Y-114360762D01*
X141884077Y-114363936D01*
X141883882Y-114364069D01*
X141883713Y-114364221D01*
X141879638Y-114367490D01*
X141838678Y-114410258D01*
X141836808Y-114412168D01*
X141795026Y-114453950D01*
X141791849Y-114458091D01*
X141791700Y-114458264D01*
X141791578Y-114458452D01*
X141788489Y-114462663D01*
X141760018Y-114514531D01*
X141758706Y-114516860D01*
X141729138Y-114568074D01*
X141727147Y-114572881D01*
X141721293Y-114585079D01*
X140738187Y-116376126D01*
X140729067Y-116390349D01*
X140603052Y-116560182D01*
X140592263Y-116572849D01*
X140438434Y-116730653D01*
X140426048Y-116741760D01*
X140252482Y-116877548D01*
X140238719Y-116886898D01*
X140048530Y-116998231D01*
X140033641Y-117005654D01*
X139830263Y-117090523D01*
X139814513Y-117095886D01*
X139601603Y-117152764D01*
X139585277Y-117155970D01*
X139366673Y-117183833D01*
X139350064Y-117184825D01*
X139217018Y-117183826D01*
X139175190Y-117176224D01*
X138283116Y-116848512D01*
X138279077Y-116846947D01*
X138020978Y-116741760D01*
X137591920Y-116566899D01*
X137322537Y-116457113D01*
X137318554Y-116455408D01*
X136376204Y-116032394D01*
X136372283Y-116030551D01*
X135445276Y-115574872D01*
X135441422Y-115572893D01*
X134530906Y-115085115D01*
X134527124Y-115083003D01*
X133634198Y-114563715D01*
X133630492Y-114561472D01*
X132905467Y-114105212D01*
X132859212Y-114052846D01*
X132848611Y-113983785D01*
X132877030Y-113919956D01*
X132935446Y-113881625D01*
X133005313Y-113880960D01*
X133023908Y-113887879D01*
X133176440Y-113959006D01*
X133404695Y-114020166D01*
X133593021Y-114036642D01*
X133640102Y-114040762D01*
X133640103Y-114040762D01*
X133640104Y-114040762D01*
X133679337Y-114037329D01*
X133875511Y-114020166D01*
X134103766Y-113959006D01*
X134317933Y-113859138D01*
X134511504Y-113723598D01*
X134678598Y-113556504D01*
X134814138Y-113362933D01*
X134914006Y-113148766D01*
X134975166Y-112920511D01*
X134995762Y-112685103D01*
X134975166Y-112449695D01*
X134926482Y-112268000D01*
X134914008Y-112221447D01*
X134914007Y-112221446D01*
X134914006Y-112221440D01*
X134814138Y-112007274D01*
X134751962Y-111918476D01*
X134678597Y-111813700D01*
X134511505Y-111646609D01*
X134511498Y-111646604D01*
X134497002Y-111636454D01*
X134458697Y-111609632D01*
X134317937Y-111511070D01*
X134317933Y-111511068D01*
X134103766Y-111411200D01*
X134103762Y-111411199D01*
X134103758Y-111411197D01*
X133875516Y-111350041D01*
X133875506Y-111350039D01*
X133640104Y-111329444D01*
X133640102Y-111329444D01*
X133404699Y-111350039D01*
X133404686Y-111350042D01*
X133303443Y-111377169D01*
X133233593Y-111375506D01*
X133175731Y-111336343D01*
X133148228Y-111272114D01*
X133151576Y-111225300D01*
X133178619Y-111124373D01*
X133178620Y-111124366D01*
X133199208Y-110889052D01*
X133199208Y-110889049D01*
X133178620Y-110653735D01*
X133178618Y-110653724D01*
X133117484Y-110425567D01*
X133117480Y-110425558D01*
X133017651Y-110211474D01*
X133017650Y-110211472D01*
X132958976Y-110127677D01*
X132958976Y-110127676D01*
X132327013Y-110759640D01*
X132309976Y-110696058D01*
X132244150Y-110582044D01*
X132151058Y-110488952D01*
X132037044Y-110423126D01*
X131973459Y-110406088D01*
X132605424Y-109774124D01*
X132605424Y-109774123D01*
X132521634Y-109715453D01*
X132521630Y-109715451D01*
X132307543Y-109615621D01*
X132307534Y-109615617D01*
X132079377Y-109554483D01*
X132079366Y-109554481D01*
X131844053Y-109533894D01*
X131844049Y-109533894D01*
X131608735Y-109554481D01*
X131608724Y-109554483D01*
X131507801Y-109581525D01*
X131437951Y-109579862D01*
X131380088Y-109540699D01*
X131352585Y-109476470D01*
X131355932Y-109429661D01*
X131383063Y-109328408D01*
X131403659Y-109093000D01*
X131383063Y-108857592D01*
X131321903Y-108629337D01*
X131222035Y-108415171D01*
X131194981Y-108376533D01*
X131086494Y-108221597D01*
X130919402Y-108054506D01*
X130919395Y-108054501D01*
X130725834Y-107918967D01*
X130725830Y-107918965D01*
X130652310Y-107884682D01*
X130511663Y-107819097D01*
X130511659Y-107819096D01*
X130511655Y-107819094D01*
X130283413Y-107757938D01*
X130283403Y-107757936D01*
X130048001Y-107737341D01*
X130047998Y-107737341D01*
X130004952Y-107741107D01*
X129936452Y-107727340D01*
X129886269Y-107678725D01*
X129870336Y-107610696D01*
X129881351Y-107566067D01*
X129926916Y-107466296D01*
X129939196Y-107439406D01*
X129959677Y-107296949D01*
X129939196Y-107154492D01*
X129879408Y-107023576D01*
X129841789Y-106976893D01*
X129841784Y-106976888D01*
X129841780Y-106976883D01*
X128572008Y-105707114D01*
X128572002Y-105707109D01*
X128571998Y-105707105D01*
X128525322Y-105669489D01*
X128394408Y-105609702D01*
X128394404Y-105609701D01*
X128251949Y-105589221D01*
X128109493Y-105609701D01*
X128109489Y-105609702D01*
X127978578Y-105669488D01*
X127931883Y-105707117D01*
X126662114Y-106976889D01*
X126662105Y-106976899D01*
X126624489Y-107023575D01*
X126564702Y-107154489D01*
X126564701Y-107154493D01*
X126544221Y-107296949D01*
X126564701Y-107439404D01*
X126564702Y-107439408D01*
X126624488Y-107570319D01*
X126624489Y-107570320D01*
X126624490Y-107570322D01*
X126662109Y-107617005D01*
X126662112Y-107617008D01*
X126662117Y-107617014D01*
X127722606Y-108677500D01*
X127931893Y-108886787D01*
X127931897Y-108886790D01*
X127931899Y-108886792D01*
X127978575Y-108924408D01*
X128109489Y-108984195D01*
X128109490Y-108984195D01*
X128109492Y-108984196D01*
X128251949Y-109004677D01*
X128394406Y-108984196D01*
X128521067Y-108926350D01*
X128590225Y-108916407D01*
X128653781Y-108945431D01*
X128691556Y-109004209D01*
X128696107Y-109049952D01*
X128692341Y-109092997D01*
X128692341Y-109093000D01*
X128712936Y-109328403D01*
X128712938Y-109328413D01*
X128774094Y-109556655D01*
X128774096Y-109556659D01*
X128774097Y-109556663D01*
X128801588Y-109615617D01*
X128873965Y-109770830D01*
X128873967Y-109770834D01*
X128932551Y-109854500D01*
X129009505Y-109964401D01*
X129176599Y-110131495D01*
X129273384Y-110199265D01*
X129370165Y-110267032D01*
X129370167Y-110267033D01*
X129370170Y-110267035D01*
X129584337Y-110366903D01*
X129584343Y-110366904D01*
X129584344Y-110366905D01*
X129629484Y-110379000D01*
X129812592Y-110428063D01*
X130000918Y-110444539D01*
X130047999Y-110448659D01*
X130048000Y-110448659D01*
X130048001Y-110448659D01*
X130087234Y-110445226D01*
X130283408Y-110428063D01*
X130384659Y-110400933D01*
X130454506Y-110402596D01*
X130512369Y-110441758D01*
X130539873Y-110505987D01*
X130536525Y-110552801D01*
X130509483Y-110653724D01*
X130509481Y-110653735D01*
X130488894Y-110889049D01*
X130488894Y-110889052D01*
X130509481Y-111124366D01*
X130509483Y-111124377D01*
X130570617Y-111352534D01*
X130570621Y-111352543D01*
X130670451Y-111566630D01*
X130670453Y-111566634D01*
X130729123Y-111650424D01*
X130729124Y-111650424D01*
X131361088Y-111018459D01*
X131378126Y-111082044D01*
X131443952Y-111196058D01*
X131537044Y-111289150D01*
X131651058Y-111354976D01*
X131714641Y-111372013D01*
X131082676Y-112003976D01*
X131166472Y-112062650D01*
X131380558Y-112162480D01*
X131380567Y-112162484D01*
X131608724Y-112223618D01*
X131608735Y-112223620D01*
X131844049Y-112244208D01*
X131844053Y-112244208D01*
X132079366Y-112223620D01*
X132079373Y-112223619D01*
X132180300Y-112196576D01*
X132250150Y-112198239D01*
X132308013Y-112237401D01*
X132335517Y-112301630D01*
X132332169Y-112348443D01*
X132305042Y-112449686D01*
X132305039Y-112449699D01*
X132284444Y-112685102D01*
X132284444Y-112685103D01*
X132305039Y-112920506D01*
X132305041Y-112920516D01*
X132366197Y-113148758D01*
X132366199Y-113148762D01*
X132366200Y-113148766D01*
X132447817Y-113323793D01*
X132466068Y-113362933D01*
X132466070Y-113362937D01*
X132601604Y-113556498D01*
X132601609Y-113556505D01*
X132765991Y-113720887D01*
X132799476Y-113782210D01*
X132794492Y-113851902D01*
X132752620Y-113907835D01*
X132687156Y-113932252D01*
X132618883Y-113917400D01*
X132608640Y-113911145D01*
X131898153Y-113428587D01*
X131894612Y-113426091D01*
X131060912Y-112816228D01*
X131057461Y-112813610D01*
X130245568Y-112174995D01*
X130242210Y-112172257D01*
X129453137Y-111505684D01*
X129449877Y-111502831D01*
X128684561Y-110809093D01*
X128681403Y-110806128D01*
X127940790Y-110086084D01*
X127937737Y-110083010D01*
X127222743Y-109337549D01*
X127219799Y-109334371D01*
X126650027Y-108697185D01*
X126531242Y-108564346D01*
X126528418Y-108561074D01*
X126482482Y-108505943D01*
X126029485Y-107962264D01*
X125867219Y-107767515D01*
X125864504Y-107764139D01*
X125290077Y-107023578D01*
X125231400Y-106947931D01*
X125228810Y-106944468D01*
X125125934Y-106801815D01*
X124624605Y-106106644D01*
X124622137Y-106103092D01*
X124500560Y-105921454D01*
X124047577Y-105244689D01*
X124045256Y-105241088D01*
X123645221Y-104595745D01*
X123501009Y-104363100D01*
X123498792Y-104359379D01*
X123269406Y-103958722D01*
X122985570Y-103462959D01*
X122983492Y-103459178D01*
X122943733Y-103383738D01*
X122501886Y-102545357D01*
X122499934Y-102541490D01*
X122408235Y-102351705D01*
X122050556Y-101611430D01*
X122048748Y-101607516D01*
X122045435Y-101600000D01*
X121653256Y-100710254D01*
X121644231Y-100640971D01*
X121674095Y-100577805D01*
X121733368Y-100540813D01*
X121803231Y-100541738D01*
X121831818Y-100554702D01*
X121867667Y-100576814D01*
X122034204Y-100631999D01*
X122136993Y-100642500D01*
X123885499Y-100642499D01*
X123952538Y-100662184D01*
X123998293Y-100714987D01*
X124009499Y-100766499D01*
X124009499Y-100876728D01*
X123989814Y-100943767D01*
X123937010Y-100989522D01*
X123924504Y-100994434D01*
X123825665Y-101027186D01*
X123825662Y-101027187D01*
X123676341Y-101119289D01*
X123552288Y-101243342D01*
X123460186Y-101392663D01*
X123460184Y-101392668D01*
X123460114Y-101392880D01*
X123405000Y-101559203D01*
X123405000Y-101559204D01*
X123404999Y-101559204D01*
X123394499Y-101661983D01*
X123394499Y-103062001D01*
X123394500Y-103062018D01*
X123404999Y-103164796D01*
X123405000Y-103164799D01*
X123460184Y-103331331D01*
X123460186Y-103331336D01*
X123485771Y-103372816D01*
X123552287Y-103480656D01*
X123676343Y-103604712D01*
X123825665Y-103696814D01*
X123992202Y-103751999D01*
X124094990Y-103762500D01*
X126195007Y-103762499D01*
X126297796Y-103751999D01*
X126464333Y-103696814D01*
X126613655Y-103604712D01*
X126737711Y-103480656D01*
X126829813Y-103331334D01*
X126884998Y-103164797D01*
X126895499Y-103062009D01*
X126895499Y-102612000D01*
X127395002Y-102612000D01*
X127395002Y-103061986D01*
X127405495Y-103164697D01*
X127460642Y-103331119D01*
X127460644Y-103331124D01*
X127552685Y-103480345D01*
X127676655Y-103604315D01*
X127825876Y-103696356D01*
X127825881Y-103696358D01*
X127992303Y-103751505D01*
X127992310Y-103751506D01*
X128095020Y-103761999D01*
X128895000Y-103761999D01*
X128895001Y-103761998D01*
X128895001Y-102612000D01*
X129395001Y-102612000D01*
X129395001Y-103761999D01*
X130194973Y-103761999D01*
X130194987Y-103761998D01*
X130297698Y-103751505D01*
X130424312Y-103709549D01*
X133486470Y-103709549D01*
X133493239Y-103752288D01*
X133509431Y-103854522D01*
X133519724Y-103919505D01*
X133567081Y-104065255D01*
X133585414Y-104121676D01*
X133681921Y-104311082D01*
X133806860Y-104483048D01*
X133957183Y-104633371D01*
X134129149Y-104758310D01*
X134129151Y-104758311D01*
X134129154Y-104758313D01*
X134318558Y-104854819D01*
X134520727Y-104920508D01*
X134730683Y-104953762D01*
X134730684Y-104953762D01*
X134943256Y-104953762D01*
X134943257Y-104953762D01*
X135153213Y-104920508D01*
X135355382Y-104854819D01*
X135544786Y-104758313D01*
X135566759Y-104742348D01*
X135716756Y-104633371D01*
X135716758Y-104633368D01*
X135716762Y-104633366D01*
X135867074Y-104483054D01*
X135867076Y-104483050D01*
X135867079Y-104483048D01*
X135992018Y-104311082D01*
X135992017Y-104311082D01*
X135992021Y-104311078D01*
X136088527Y-104121674D01*
X136154216Y-103919505D01*
X136187470Y-103709549D01*
X136187470Y-103496975D01*
X136154216Y-103287019D01*
X136088527Y-103084850D01*
X135992021Y-102895446D01*
X135992019Y-102895443D01*
X135992018Y-102895441D01*
X135867079Y-102723475D01*
X135716756Y-102573152D01*
X135544790Y-102448213D01*
X135355384Y-102351706D01*
X135355383Y-102351705D01*
X135355382Y-102351705D01*
X135153213Y-102286016D01*
X135153211Y-102286015D01*
X135153210Y-102286015D01*
X134991927Y-102260470D01*
X134943257Y-102252762D01*
X134730683Y-102252762D01*
X134682012Y-102260470D01*
X134520730Y-102286015D01*
X134318555Y-102351706D01*
X134129149Y-102448213D01*
X133957183Y-102573152D01*
X133806860Y-102723475D01*
X133681921Y-102895441D01*
X133585414Y-103084847D01*
X133519723Y-103287022D01*
X133488714Y-103482806D01*
X133486470Y-103496975D01*
X133486470Y-103709549D01*
X130424312Y-103709549D01*
X130464120Y-103696358D01*
X130464125Y-103696356D01*
X130613346Y-103604315D01*
X130737316Y-103480345D01*
X130829357Y-103331124D01*
X130829359Y-103331119D01*
X130884506Y-103164697D01*
X130884507Y-103164690D01*
X130895000Y-103061986D01*
X130895001Y-103061973D01*
X130895001Y-102612000D01*
X129395001Y-102612000D01*
X128895001Y-102612000D01*
X127395002Y-102612000D01*
X126895499Y-102612000D01*
X126895498Y-102112000D01*
X127395001Y-102112000D01*
X128895001Y-102112000D01*
X128895001Y-100962000D01*
X129395001Y-100962000D01*
X129395001Y-102112000D01*
X130895000Y-102112000D01*
X130895000Y-101662028D01*
X130894999Y-101662013D01*
X130884506Y-101559302D01*
X130829359Y-101392880D01*
X130829357Y-101392875D01*
X130737316Y-101243654D01*
X130613346Y-101119684D01*
X130464125Y-101027643D01*
X130464120Y-101027641D01*
X130297698Y-100972494D01*
X130297691Y-100972493D01*
X130194987Y-100962000D01*
X129395001Y-100962000D01*
X128895001Y-100962000D01*
X128095029Y-100962000D01*
X128095013Y-100962001D01*
X127992303Y-100972494D01*
X127825881Y-101027641D01*
X127825876Y-101027643D01*
X127676655Y-101119684D01*
X127552685Y-101243654D01*
X127460644Y-101392875D01*
X127460642Y-101392880D01*
X127405495Y-101559302D01*
X127405494Y-101559309D01*
X127395001Y-101662013D01*
X127395001Y-102112000D01*
X126895498Y-102112000D01*
X126895498Y-101661992D01*
X126889165Y-101600000D01*
X126884998Y-101559203D01*
X126884997Y-101559200D01*
X126864927Y-101498633D01*
X126829813Y-101392666D01*
X126737711Y-101243344D01*
X126613655Y-101119288D01*
X126510706Y-101055789D01*
X126464335Y-101027187D01*
X126464334Y-101027186D01*
X126464333Y-101027186D01*
X126365493Y-100994433D01*
X126308050Y-100954661D01*
X126281227Y-100890145D01*
X126280499Y-100876728D01*
X126280499Y-100766499D01*
X126300184Y-100699460D01*
X126352988Y-100653705D01*
X126404499Y-100642499D01*
X131137000Y-100642499D01*
X131137006Y-100642499D01*
X131204468Y-100635607D01*
X131273158Y-100648376D01*
X131324043Y-100696256D01*
X131340964Y-100764046D01*
X131334110Y-100799919D01*
X131294632Y-100912742D01*
X131294630Y-100912750D01*
X131274435Y-101091996D01*
X131274435Y-101092003D01*
X131294630Y-101271249D01*
X131294631Y-101271254D01*
X131354211Y-101441523D01*
X131436525Y-101572524D01*
X131450184Y-101594262D01*
X131577738Y-101721816D01*
X131668080Y-101778582D01*
X131723489Y-101813398D01*
X131730478Y-101817789D01*
X131841271Y-101856557D01*
X131900745Y-101877368D01*
X131900750Y-101877369D01*
X132079996Y-101897565D01*
X132080000Y-101897565D01*
X132080004Y-101897565D01*
X132259249Y-101877369D01*
X132259252Y-101877368D01*
X132259255Y-101877368D01*
X132429522Y-101817789D01*
X132582262Y-101721816D01*
X132582267Y-101721810D01*
X132585097Y-101719555D01*
X132587275Y-101718665D01*
X132588158Y-101718111D01*
X132588255Y-101718265D01*
X132649783Y-101693145D01*
X132662412Y-101692500D01*
X133390331Y-101692500D01*
X133390347Y-101692501D01*
X133397943Y-101692501D01*
X133556054Y-101692501D01*
X133556057Y-101692501D01*
X133708785Y-101651577D01*
X133781695Y-101609482D01*
X133785101Y-101607516D01*
X133845709Y-101572524D01*
X133845708Y-101572524D01*
X133845716Y-101572520D01*
X133957520Y-101460716D01*
X133957520Y-101460714D01*
X133967724Y-101450511D01*
X133967728Y-101450506D01*
X134257535Y-101160698D01*
X134318856Y-101127215D01*
X134331311Y-101125163D01*
X134418255Y-101115368D01*
X134588522Y-101055789D01*
X134741262Y-100959816D01*
X134868816Y-100832262D01*
X134964789Y-100679522D01*
X135024368Y-100509255D01*
X135032743Y-100434916D01*
X135059808Y-100370505D01*
X135115008Y-100331759D01*
X135223522Y-100293789D01*
X135376262Y-100197816D01*
X135503816Y-100070262D01*
X135599789Y-99917522D01*
X135659368Y-99747255D01*
X135659557Y-99745578D01*
X135679565Y-99568003D01*
X135679565Y-99567996D01*
X135659369Y-99388750D01*
X135659368Y-99388745D01*
X135619001Y-99273383D01*
X135599789Y-99218478D01*
X135503816Y-99065738D01*
X135376262Y-98938184D01*
X135370499Y-98934563D01*
X135223523Y-98842211D01*
X135053254Y-98782631D01*
X135053249Y-98782630D01*
X134874004Y-98762435D01*
X134873996Y-98762435D01*
X134694750Y-98782630D01*
X134694745Y-98782631D01*
X134524476Y-98842211D01*
X134371736Y-98938185D01*
X134368903Y-98940445D01*
X134366724Y-98941334D01*
X134365842Y-98941889D01*
X134365744Y-98941734D01*
X134304217Y-98966855D01*
X134291588Y-98967500D01*
X132916412Y-98967500D01*
X132849373Y-98947815D01*
X132839097Y-98940445D01*
X132836263Y-98938185D01*
X132836262Y-98938184D01*
X132773451Y-98898717D01*
X132683523Y-98842211D01*
X132513254Y-98782631D01*
X132513249Y-98782630D01*
X132334004Y-98762435D01*
X132333996Y-98762435D01*
X132154750Y-98782630D01*
X132154745Y-98782631D01*
X132002454Y-98835921D01*
X131932675Y-98839482D01*
X131872047Y-98804753D01*
X131839820Y-98742760D01*
X131837499Y-98718879D01*
X131837499Y-97531998D01*
X132987003Y-97531998D01*
X132987003Y-97631984D01*
X132997496Y-97734695D01*
X133052643Y-97901117D01*
X133052645Y-97901122D01*
X133144686Y-98050343D01*
X133268656Y-98174313D01*
X133417877Y-98266354D01*
X133417882Y-98266356D01*
X133584304Y-98321503D01*
X133584311Y-98321504D01*
X133687021Y-98331997D01*
X135537001Y-98331997D01*
X135537002Y-98331996D01*
X135537002Y-97531998D01*
X136037002Y-97531998D01*
X136037002Y-98331997D01*
X137886974Y-98331997D01*
X137886988Y-98331996D01*
X137989699Y-98321503D01*
X138156121Y-98266356D01*
X138156126Y-98266354D01*
X138305347Y-98174313D01*
X138429317Y-98050343D01*
X138521358Y-97901122D01*
X138521360Y-97901117D01*
X138576507Y-97734695D01*
X138576508Y-97734688D01*
X138587001Y-97631984D01*
X138587002Y-97631971D01*
X138587002Y-97531998D01*
X136037002Y-97531998D01*
X135537002Y-97531998D01*
X132987003Y-97531998D01*
X131837499Y-97531998D01*
X131837499Y-97031998D01*
X132987002Y-97031998D01*
X135537002Y-97031998D01*
X135537002Y-96231998D01*
X136037002Y-96231998D01*
X136037002Y-97031998D01*
X138587001Y-97031998D01*
X138587001Y-96932026D01*
X138587000Y-96932011D01*
X138576507Y-96829300D01*
X138521360Y-96662878D01*
X138521358Y-96662873D01*
X138429317Y-96513652D01*
X138305347Y-96389682D01*
X138156126Y-96297641D01*
X138156121Y-96297639D01*
X137989699Y-96242492D01*
X137989692Y-96242491D01*
X137886988Y-96231998D01*
X136037002Y-96231998D01*
X135537002Y-96231998D01*
X133687030Y-96231998D01*
X133687014Y-96231999D01*
X133584304Y-96242492D01*
X133417882Y-96297639D01*
X133417877Y-96297641D01*
X133268656Y-96389682D01*
X133144686Y-96513652D01*
X133052645Y-96662873D01*
X133052643Y-96662878D01*
X132997496Y-96829300D01*
X132997495Y-96829307D01*
X132987002Y-96932011D01*
X132987002Y-97031998D01*
X131837499Y-97031998D01*
X131837499Y-95757998D01*
X138252156Y-95757998D01*
X138292595Y-95897192D01*
X138374261Y-96035283D01*
X138374268Y-96035292D01*
X138487705Y-96148729D01*
X138487714Y-96148736D01*
X138625808Y-96230404D01*
X138625811Y-96230405D01*
X138779871Y-96275164D01*
X138779877Y-96275165D01*
X138815000Y-96277929D01*
X138815000Y-95757998D01*
X139315000Y-95757998D01*
X139315000Y-96277928D01*
X139350122Y-96275165D01*
X139350128Y-96275164D01*
X139504188Y-96230405D01*
X139504191Y-96230404D01*
X139642285Y-96148736D01*
X139642294Y-96148729D01*
X139755731Y-96035292D01*
X139755738Y-96035283D01*
X139837404Y-95897192D01*
X139877844Y-95757998D01*
X139315000Y-95757998D01*
X138815000Y-95757998D01*
X138252156Y-95757998D01*
X131837499Y-95757998D01*
X131837499Y-94396147D01*
X131837500Y-94396087D01*
X131837500Y-94392013D01*
X131837501Y-94392006D01*
X131837500Y-89912000D01*
X139309069Y-89912000D01*
X139311832Y-89947122D01*
X139311833Y-89947128D01*
X139356592Y-90101188D01*
X139356593Y-90101191D01*
X139438261Y-90239285D01*
X139438268Y-90239294D01*
X139551705Y-90352731D01*
X139551714Y-90352738D01*
X139689805Y-90434404D01*
X139829000Y-90474844D01*
X139829000Y-89912000D01*
X139309069Y-89912000D01*
X131837500Y-89912000D01*
X131837500Y-89541989D01*
X131835559Y-89522992D01*
X131827000Y-89439200D01*
X131826999Y-89439197D01*
X131818262Y-89412830D01*
X131817987Y-89412000D01*
X139309069Y-89412000D01*
X139829000Y-89412000D01*
X139829000Y-88849154D01*
X139828998Y-88849153D01*
X139689811Y-88889591D01*
X139689808Y-88889593D01*
X139551714Y-88971261D01*
X139551705Y-88971268D01*
X139438268Y-89084705D01*
X139438261Y-89084714D01*
X139356593Y-89222808D01*
X139356592Y-89222811D01*
X139311833Y-89376871D01*
X139311832Y-89376877D01*
X139309069Y-89412000D01*
X131817987Y-89412000D01*
X131771815Y-89272663D01*
X131679713Y-89123341D01*
X131668051Y-89111679D01*
X131634566Y-89050356D01*
X131639550Y-88980664D01*
X131668051Y-88936317D01*
X131673712Y-88930656D01*
X131765814Y-88781334D01*
X131820999Y-88614797D01*
X131831500Y-88512009D01*
X131831499Y-87008003D01*
X131851184Y-86940965D01*
X131903987Y-86895210D01*
X131973146Y-86885266D01*
X132011794Y-86897519D01*
X132025119Y-86904309D01*
X132066802Y-86917851D01*
X132066804Y-86917853D01*
X132066805Y-86917853D01*
X132098880Y-86928275D01*
X132195103Y-86959541D01*
X132270759Y-86971523D01*
X132371630Y-86987500D01*
X132371634Y-86987500D01*
X135870365Y-86987500D01*
X135870366Y-86987500D01*
X136046897Y-86959540D01*
X136046900Y-86959539D01*
X136046901Y-86959539D01*
X136203773Y-86908568D01*
X136242091Y-86902499D01*
X137881002Y-86902499D01*
X137881008Y-86902499D01*
X137983797Y-86891999D01*
X138150334Y-86836814D01*
X138299656Y-86744712D01*
X138360319Y-86684049D01*
X138421642Y-86650564D01*
X138491334Y-86655548D01*
X138535681Y-86684049D01*
X138596344Y-86744712D01*
X138745666Y-86836814D01*
X138912203Y-86891999D01*
X139014991Y-86902500D01*
X140392500Y-86902499D01*
X140459539Y-86922184D01*
X140505294Y-86974987D01*
X140516500Y-87026499D01*
X140516500Y-88738475D01*
X140496815Y-88805514D01*
X140444011Y-88851269D01*
X140374853Y-88861213D01*
X140357905Y-88857551D01*
X140329001Y-88849153D01*
X140329000Y-88849154D01*
X140329000Y-89401591D01*
X140328618Y-89411316D01*
X140328500Y-89412803D01*
X140328500Y-89911170D01*
X140328501Y-89911182D01*
X140328618Y-89912663D01*
X140329000Y-89922393D01*
X140329000Y-90284812D01*
X140309994Y-90350784D01*
X140244211Y-90455476D01*
X140184631Y-90625745D01*
X140184630Y-90625750D01*
X140164435Y-90804996D01*
X140164435Y-90805003D01*
X140184630Y-90984249D01*
X140184631Y-90984254D01*
X140244211Y-91154523D01*
X140283585Y-91217186D01*
X140340184Y-91307262D01*
X140467738Y-91434816D01*
X140620478Y-91530789D01*
X140715047Y-91563880D01*
X140790745Y-91590368D01*
X140790750Y-91590369D01*
X140969996Y-91610565D01*
X140970000Y-91610565D01*
X140970004Y-91610565D01*
X141149249Y-91590369D01*
X141149252Y-91590368D01*
X141149255Y-91590368D01*
X141319522Y-91530789D01*
X141472262Y-91434816D01*
X141599816Y-91307262D01*
X141695789Y-91154522D01*
X141755368Y-90984255D01*
X141775565Y-90805000D01*
X141769151Y-90748076D01*
X141755369Y-90625750D01*
X141755368Y-90625745D01*
X141695788Y-90455475D01*
X141682209Y-90433865D01*
X141663208Y-90366628D01*
X141683575Y-90299793D01*
X141699519Y-90280213D01*
X141740135Y-90239598D01*
X141821869Y-90101393D01*
X141866665Y-89947204D01*
X141869500Y-89911181D01*
X141869499Y-89412820D01*
X141866665Y-89376796D01*
X141821869Y-89222607D01*
X141751929Y-89104344D01*
X141736164Y-89077687D01*
X141738602Y-89076244D01*
X141717985Y-89023721D01*
X141717500Y-89012766D01*
X141717500Y-87026499D01*
X141737185Y-86959460D01*
X141789989Y-86913705D01*
X141841500Y-86902499D01*
X143215002Y-86902499D01*
X143215008Y-86902499D01*
X143317797Y-86891999D01*
X143484334Y-86836814D01*
X143633656Y-86744712D01*
X143757712Y-86620656D01*
X143849814Y-86471334D01*
X143904999Y-86304797D01*
X143915500Y-86202009D01*
X143915499Y-85501992D01*
X143904999Y-85399203D01*
X143849814Y-85232666D01*
X143757712Y-85083344D01*
X143633656Y-84959288D01*
X143484334Y-84867186D01*
X143317797Y-84812001D01*
X143317795Y-84812000D01*
X143215010Y-84801500D01*
X139014998Y-84801500D01*
X139014981Y-84801501D01*
X138912203Y-84812000D01*
X138912200Y-84812001D01*
X138745668Y-84867185D01*
X138745663Y-84867187D01*
X138596342Y-84959289D01*
X138535681Y-85019951D01*
X138474358Y-85053436D01*
X138404666Y-85048452D01*
X138360319Y-85019951D01*
X138299657Y-84959289D01*
X138299656Y-84959288D01*
X138150334Y-84867186D01*
X137983797Y-84812001D01*
X137983795Y-84812000D01*
X137881016Y-84801500D01*
X137881009Y-84801500D01*
X136242087Y-84801500D01*
X136203771Y-84795431D01*
X136046897Y-84744460D01*
X135870366Y-84716500D01*
X135870365Y-84716500D01*
X133425500Y-84716500D01*
X133358461Y-84696815D01*
X133312706Y-84644011D01*
X133301500Y-84592500D01*
X133301500Y-83769784D01*
X133321185Y-83702745D01*
X133373989Y-83656990D01*
X133443147Y-83647046D01*
X133498392Y-83669471D01*
X133499269Y-83670108D01*
X133499272Y-83670111D01*
X133505260Y-83674462D01*
X133515026Y-83681558D01*
X133525668Y-83690229D01*
X133551777Y-83714031D01*
X133576294Y-83729211D01*
X133601641Y-83744905D01*
X133609238Y-83750006D01*
X133643868Y-83775167D01*
X133676813Y-83791953D01*
X133685778Y-83797001D01*
X133730696Y-83824813D01*
X133769089Y-83839686D01*
X133780578Y-83844824D01*
X133803119Y-83856309D01*
X133854905Y-83873134D01*
X133861365Y-83875434D01*
X133926924Y-83900832D01*
X133950176Y-83905178D01*
X133965703Y-83909135D01*
X133973103Y-83911540D01*
X134044165Y-83922794D01*
X134047455Y-83923362D01*
X134133780Y-83939500D01*
X134149634Y-83939500D01*
X144940500Y-83939500D01*
X145007539Y-83959185D01*
X145053294Y-84011989D01*
X145064500Y-84063500D01*
X145064500Y-88512001D01*
X145064501Y-88512018D01*
X145075000Y-88614796D01*
X145075002Y-88614803D01*
X145096108Y-88678497D01*
X145098509Y-88748325D01*
X145062777Y-88808367D01*
X145000257Y-88839559D01*
X144978402Y-88841500D01*
X143127998Y-88841500D01*
X143127981Y-88841501D01*
X143025203Y-88852000D01*
X143025200Y-88852001D01*
X142858668Y-88907185D01*
X142858663Y-88907187D01*
X142709342Y-88999289D01*
X142585289Y-89123342D01*
X142493187Y-89272663D01*
X142493185Y-89272668D01*
X142438001Y-89439202D01*
X142428103Y-89536088D01*
X142428046Y-89536465D01*
X142427500Y-89541988D01*
X142427500Y-94923903D01*
X142407815Y-94990942D01*
X142355011Y-95036697D01*
X142285853Y-95046641D01*
X142222297Y-95017616D01*
X142215819Y-95011584D01*
X140022700Y-92818465D01*
X139989215Y-92757142D01*
X139987163Y-92744686D01*
X139977368Y-92657745D01*
X139917789Y-92487478D01*
X139821816Y-92334738D01*
X139694262Y-92207184D01*
X139606530Y-92152058D01*
X139541523Y-92111211D01*
X139371254Y-92051631D01*
X139371249Y-92051630D01*
X139192004Y-92031435D01*
X139191996Y-92031435D01*
X139012750Y-92051630D01*
X139012745Y-92051631D01*
X138842476Y-92111211D01*
X138777470Y-92152058D01*
X138710233Y-92171058D01*
X138643398Y-92150690D01*
X138598184Y-92097422D01*
X138587498Y-92047064D01*
X138587498Y-91851996D01*
X138587497Y-91851979D01*
X138576998Y-91749201D01*
X138576997Y-91749198D01*
X138524366Y-91590369D01*
X138521813Y-91582664D01*
X138429711Y-91433342D01*
X138305655Y-91309286D01*
X138204921Y-91247153D01*
X138156335Y-91217185D01*
X138156330Y-91217183D01*
X138154861Y-91216696D01*
X137989796Y-91161999D01*
X137989794Y-91161998D01*
X137887009Y-91151498D01*
X133686997Y-91151498D01*
X133686980Y-91151499D01*
X133584202Y-91161998D01*
X133584199Y-91161999D01*
X133417667Y-91217183D01*
X133417662Y-91217185D01*
X133268341Y-91309287D01*
X133144288Y-91433340D01*
X133052186Y-91582661D01*
X133052184Y-91582666D01*
X133024348Y-91666668D01*
X132997000Y-91749201D01*
X132997000Y-91749202D01*
X132996999Y-91749202D01*
X132986499Y-91851981D01*
X132986499Y-92551999D01*
X132986500Y-92552017D01*
X132996999Y-92654794D01*
X132997000Y-92654797D01*
X133041068Y-92787784D01*
X133052185Y-92821332D01*
X133144287Y-92970654D01*
X133268343Y-93094710D01*
X133417665Y-93186812D01*
X133584202Y-93241997D01*
X133686990Y-93252498D01*
X135936901Y-93252497D01*
X136003940Y-93272182D01*
X136024582Y-93288816D01*
X137586141Y-94850375D01*
X137586151Y-94850386D01*
X137590481Y-94854716D01*
X137590482Y-94854717D01*
X137702286Y-94966521D01*
X137787291Y-95015598D01*
X137839217Y-95045578D01*
X137991945Y-95086502D01*
X137991948Y-95086502D01*
X138136827Y-95086502D01*
X138203866Y-95106187D01*
X138249621Y-95158991D01*
X138259565Y-95228149D01*
X138255903Y-95245097D01*
X138252155Y-95257997D01*
X138252155Y-95257998D01*
X138804567Y-95257998D01*
X138814293Y-95258379D01*
X138815819Y-95258500D01*
X138822176Y-95258499D01*
X138863143Y-95265458D01*
X138885745Y-95273368D01*
X138885750Y-95273368D01*
X138885752Y-95273369D01*
X139064996Y-95293565D01*
X139065000Y-95293565D01*
X139065004Y-95293565D01*
X139244246Y-95273369D01*
X139244245Y-95273369D01*
X139244255Y-95273368D01*
X139266860Y-95265457D01*
X139307815Y-95258499D01*
X139314170Y-95258499D01*
X139314180Y-95258499D01*
X139315693Y-95258380D01*
X139325419Y-95257998D01*
X139877844Y-95257998D01*
X139837405Y-95118805D01*
X139803581Y-95061612D01*
X139786398Y-94993888D01*
X139803581Y-94935370D01*
X139837869Y-94877393D01*
X139882665Y-94723204D01*
X139885500Y-94687181D01*
X139885499Y-94679104D01*
X139905177Y-94612066D01*
X139957977Y-94566307D01*
X140027134Y-94556356D01*
X140090693Y-94585375D01*
X140097180Y-94591415D01*
X141666681Y-96160916D01*
X141700166Y-96222239D01*
X141703000Y-96248597D01*
X141703000Y-99152403D01*
X141683315Y-99219442D01*
X141630511Y-99265197D01*
X141561353Y-99275141D01*
X141497797Y-99246116D01*
X141491319Y-99240084D01*
X140949590Y-98698355D01*
X140949588Y-98698352D01*
X140830717Y-98579481D01*
X140830709Y-98579475D01*
X140728936Y-98520717D01*
X140728934Y-98520716D01*
X140693790Y-98500425D01*
X140693789Y-98500424D01*
X140681263Y-98497067D01*
X140541057Y-98459499D01*
X140382943Y-98459499D01*
X140375347Y-98459499D01*
X140375331Y-98459500D01*
X140155412Y-98459500D01*
X140088373Y-98439815D01*
X140078097Y-98432445D01*
X140075263Y-98430185D01*
X140075262Y-98430184D01*
X140017938Y-98394165D01*
X139922523Y-98334211D01*
X139752254Y-98274631D01*
X139752249Y-98274630D01*
X139573004Y-98254435D01*
X139572996Y-98254435D01*
X139393750Y-98274630D01*
X139393745Y-98274631D01*
X139223476Y-98334211D01*
X139070737Y-98430184D01*
X138943184Y-98557737D01*
X138847211Y-98710476D01*
X138787631Y-98880745D01*
X138787630Y-98880750D01*
X138767435Y-99059996D01*
X138767435Y-99060003D01*
X138787630Y-99239249D01*
X138787631Y-99239254D01*
X138847211Y-99409523D01*
X138937417Y-99553085D01*
X138956417Y-99620322D01*
X138936049Y-99687157D01*
X138882781Y-99732371D01*
X138813525Y-99741608D01*
X138786226Y-99733135D01*
X138786095Y-99733511D01*
X138609254Y-99671631D01*
X138609249Y-99671630D01*
X138430004Y-99651435D01*
X138429996Y-99651435D01*
X138250750Y-99671630D01*
X138250745Y-99671631D01*
X138080476Y-99731211D01*
X137927737Y-99827184D01*
X137800184Y-99954737D01*
X137704211Y-100107476D01*
X137644631Y-100277745D01*
X137644630Y-100277750D01*
X137624435Y-100456996D01*
X137624435Y-100457003D01*
X137644630Y-100636249D01*
X137644631Y-100636254D01*
X137704211Y-100806523D01*
X137772051Y-100914489D01*
X137800184Y-100959262D01*
X137927738Y-101086816D01*
X137980047Y-101119684D01*
X138045323Y-101160700D01*
X138080478Y-101182789D01*
X138167565Y-101213262D01*
X138250745Y-101242368D01*
X138250750Y-101242369D01*
X138429996Y-101262565D01*
X138430000Y-101262565D01*
X138430004Y-101262565D01*
X138609249Y-101242369D01*
X138609252Y-101242368D01*
X138609255Y-101242368D01*
X138779522Y-101182789D01*
X138932262Y-101086816D01*
X138932262Y-101086815D01*
X138938158Y-101083111D01*
X138938811Y-101084151D01*
X138996921Y-101060424D01*
X139009554Y-101059779D01*
X140326515Y-101059779D01*
X140393554Y-101079464D01*
X140403830Y-101086834D01*
X140406663Y-101089093D01*
X140406665Y-101089095D01*
X140559405Y-101185068D01*
X140729672Y-101244647D01*
X140816596Y-101254440D01*
X140881007Y-101281505D01*
X140890392Y-101289979D01*
X141476181Y-101875768D01*
X141509666Y-101937091D01*
X141512500Y-101963449D01*
X141512500Y-102783330D01*
X141512499Y-102783348D01*
X141512499Y-102949054D01*
X141512498Y-102949054D01*
X141553423Y-103101787D01*
X141559156Y-103111716D01*
X141559158Y-103111718D01*
X141632477Y-103238712D01*
X141632481Y-103238717D01*
X141751349Y-103357585D01*
X141751355Y-103357590D01*
X141917298Y-103523533D01*
X141950783Y-103584856D01*
X141952837Y-103597330D01*
X141962630Y-103684249D01*
X142022210Y-103854521D01*
X142087684Y-103958722D01*
X142118184Y-104007262D01*
X142245738Y-104134816D01*
X142398478Y-104230789D01*
X142568745Y-104290368D01*
X142568750Y-104290369D01*
X142658372Y-104300466D01*
X142748000Y-104310565D01*
X142763549Y-104308812D01*
X142832367Y-104320863D01*
X142865116Y-104344351D01*
X144711298Y-106190534D01*
X144744783Y-106251857D01*
X144746837Y-106264331D01*
X144756630Y-106351249D01*
X144816210Y-106521521D01*
X144912185Y-106674263D01*
X144914445Y-106677097D01*
X144915334Y-106679275D01*
X144915889Y-106680158D01*
X144915734Y-106680255D01*
X144940855Y-106741783D01*
X144941500Y-106754412D01*
X144941500Y-108498330D01*
X144941499Y-108498348D01*
X144941499Y-108664054D01*
X144941498Y-108664054D01*
X144941499Y-108664057D01*
X144982423Y-108816785D01*
X144982424Y-108816787D01*
X144982423Y-108816787D01*
X144999520Y-108846398D01*
X144999522Y-108846400D01*
X144999523Y-108846402D01*
X145022842Y-108886792D01*
X145061479Y-108953715D01*
X145180349Y-109072585D01*
X145180355Y-109072590D01*
X145621084Y-109513319D01*
X145654569Y-109574642D01*
X145649585Y-109644334D01*
X145621084Y-109688681D01*
X145075584Y-110234181D01*
X145014261Y-110267666D01*
X144987903Y-110270500D01*
X140155412Y-110270500D01*
X140088373Y-110250815D01*
X140078097Y-110243445D01*
X140075263Y-110241185D01*
X140075262Y-110241184D01*
X140018496Y-110205515D01*
X139922523Y-110145211D01*
X139752254Y-110085631D01*
X139752249Y-110085630D01*
X139573004Y-110065435D01*
X139572996Y-110065435D01*
X139393750Y-110085630D01*
X139393745Y-110085631D01*
X139223476Y-110145211D01*
X139070737Y-110241184D01*
X138943184Y-110368737D01*
X138847211Y-110521476D01*
X138787631Y-110691745D01*
X138787630Y-110691750D01*
X138767435Y-110870996D01*
X138767435Y-110871003D01*
X138787630Y-111050249D01*
X138787631Y-111050254D01*
X138847211Y-111220523D01*
X138929525Y-111351524D01*
X138943184Y-111373262D01*
X139070738Y-111500816D01*
X139093721Y-111515257D01*
X139173691Y-111565506D01*
X139219982Y-111617841D01*
X139230630Y-111686895D01*
X139202255Y-111750743D01*
X139143865Y-111789115D01*
X139107719Y-111794500D01*
X138885412Y-111794500D01*
X138818373Y-111774815D01*
X138808097Y-111767445D01*
X138805263Y-111765185D01*
X138805262Y-111765184D01*
X138748496Y-111729515D01*
X138652523Y-111669211D01*
X138482254Y-111609631D01*
X138482249Y-111609630D01*
X138303004Y-111589435D01*
X138302996Y-111589435D01*
X138123750Y-111609630D01*
X138123745Y-111609631D01*
X137953476Y-111669211D01*
X137800737Y-111765184D01*
X137673184Y-111892737D01*
X137577211Y-112045476D01*
X137517631Y-112215745D01*
X137517630Y-112215750D01*
X137497435Y-112394996D01*
X137497435Y-112395003D01*
X137517630Y-112574249D01*
X137517631Y-112574254D01*
X137577211Y-112744523D01*
X137653425Y-112865816D01*
X137673184Y-112897262D01*
X137800738Y-113024816D01*
X137953478Y-113120789D01*
X138033409Y-113148758D01*
X138123745Y-113180368D01*
X138123750Y-113180369D01*
X138302996Y-113200565D01*
X138303000Y-113200565D01*
X138303004Y-113200565D01*
X138482249Y-113180369D01*
X138482252Y-113180368D01*
X138482255Y-113180368D01*
X138652522Y-113120789D01*
X138805262Y-113024816D01*
X138805267Y-113024810D01*
X138808097Y-113022555D01*
X138810275Y-113021665D01*
X138811158Y-113021111D01*
X138811255Y-113021265D01*
X138872783Y-112996145D01*
X138885412Y-112995500D01*
X140006588Y-112995500D01*
X140073627Y-113015185D01*
X140083903Y-113022555D01*
X140086736Y-113024814D01*
X140086738Y-113024816D01*
X140239478Y-113120789D01*
X140319409Y-113148758D01*
X140409745Y-113180368D01*
X140409750Y-113180369D01*
X140588996Y-113200565D01*
X140589000Y-113200565D01*
X140589004Y-113200565D01*
X140768249Y-113180369D01*
X140768252Y-113180368D01*
X140768255Y-113180368D01*
X140938522Y-113120789D01*
X141091262Y-113024816D01*
X141218816Y-112897262D01*
X141314789Y-112744522D01*
X141374368Y-112574255D01*
X141379609Y-112527738D01*
X141394565Y-112395003D01*
X141394565Y-112394996D01*
X141374369Y-112215750D01*
X141374368Y-112215745D01*
X141335907Y-112105830D01*
X141314789Y-112045478D01*
X141218816Y-111892738D01*
X141091262Y-111765184D01*
X141068279Y-111750743D01*
X140988309Y-111700494D01*
X140942018Y-111648159D01*
X140931370Y-111579105D01*
X140959745Y-111515257D01*
X141018135Y-111476885D01*
X141054281Y-111471500D01*
X145201331Y-111471500D01*
X145201347Y-111471501D01*
X145208943Y-111471501D01*
X145367054Y-111471501D01*
X145367057Y-111471501D01*
X145519785Y-111430577D01*
X145569904Y-111401639D01*
X145656716Y-111351520D01*
X145768520Y-111239716D01*
X145768520Y-111239714D01*
X145778728Y-111229507D01*
X145778730Y-111229504D01*
X146576535Y-110431698D01*
X146637856Y-110398215D01*
X146650311Y-110396163D01*
X146737255Y-110386368D01*
X146907522Y-110326789D01*
X147060262Y-110230816D01*
X147187816Y-110103262D01*
X147283789Y-109950522D01*
X147343368Y-109780255D01*
X147344059Y-109774123D01*
X147363565Y-109601003D01*
X147363565Y-109600996D01*
X147343369Y-109421750D01*
X147343368Y-109421745D01*
X147283789Y-109251478D01*
X147187816Y-109098738D01*
X147060262Y-108971184D01*
X147032460Y-108953715D01*
X146957309Y-108906494D01*
X146911018Y-108854159D01*
X146900370Y-108785105D01*
X146928745Y-108721257D01*
X146987135Y-108682885D01*
X147023281Y-108677500D01*
X147027413Y-108677500D01*
X147027414Y-108677500D01*
X147597217Y-108677500D01*
X147664256Y-108697185D01*
X147684897Y-108713818D01*
X150322598Y-111351520D01*
X150322600Y-111351521D01*
X150322604Y-111351524D01*
X150425969Y-111411201D01*
X150459530Y-111430577D01*
X150612257Y-111471501D01*
X150612259Y-111471501D01*
X150777968Y-111471501D01*
X150777984Y-111471500D01*
X151522536Y-111471500D01*
X151589575Y-111491185D01*
X151635330Y-111543989D01*
X151645274Y-111613147D01*
X151639578Y-111636452D01*
X151632610Y-111656368D01*
X151614630Y-111707750D01*
X151604837Y-111794668D01*
X151577770Y-111859082D01*
X151569298Y-111868465D01*
X151206894Y-112230869D01*
X151160169Y-112260229D01*
X151034476Y-112304211D01*
X151034475Y-112304212D01*
X150881737Y-112400184D01*
X150754184Y-112527737D01*
X150658211Y-112680476D01*
X150598631Y-112850745D01*
X150598630Y-112850750D01*
X150578435Y-113029996D01*
X150578435Y-113030003D01*
X150598630Y-113209249D01*
X150598631Y-113209254D01*
X150658211Y-113379523D01*
X150706915Y-113457034D01*
X150754184Y-113532262D01*
X150881738Y-113659816D01*
X151034478Y-113755789D01*
X151109985Y-113782210D01*
X151204745Y-113815368D01*
X151204750Y-113815369D01*
X151383996Y-113835565D01*
X151384000Y-113835565D01*
X151384004Y-113835565D01*
X151563249Y-113815369D01*
X151563252Y-113815368D01*
X151563255Y-113815368D01*
X151733522Y-113755789D01*
X151886262Y-113659816D01*
X152013816Y-113532262D01*
X152109789Y-113379522D01*
X152169368Y-113209255D01*
X152189565Y-113030000D01*
X152187812Y-113014448D01*
X152199864Y-112945630D01*
X152223348Y-112912885D01*
X152418535Y-112717698D01*
X152479856Y-112684215D01*
X152492311Y-112682163D01*
X152579255Y-112672368D01*
X152749522Y-112612789D01*
X152902262Y-112516816D01*
X153029816Y-112389262D01*
X153125789Y-112236522D01*
X153185368Y-112066255D01*
X153185443Y-112065589D01*
X153205565Y-111887003D01*
X153205565Y-111886996D01*
X153185369Y-111707750D01*
X153185367Y-111707742D01*
X153160423Y-111636454D01*
X153156862Y-111566675D01*
X153191591Y-111506048D01*
X153253585Y-111473821D01*
X153277465Y-111471500D01*
X158449903Y-111471500D01*
X158516942Y-111491185D01*
X158537584Y-111507819D01*
X159034031Y-112004266D01*
X159067516Y-112065589D01*
X159069570Y-112105830D01*
X159068792Y-112112735D01*
X159068792Y-112112741D01*
X159088987Y-112291987D01*
X159088988Y-112291992D01*
X159148568Y-112462261D01*
X159218939Y-112574255D01*
X159244541Y-112615000D01*
X159372095Y-112742554D01*
X159375229Y-112744523D01*
X159507409Y-112827578D01*
X159524835Y-112838527D01*
X159692690Y-112897262D01*
X159695102Y-112898106D01*
X159695107Y-112898107D01*
X159874353Y-112918303D01*
X159874357Y-112918303D01*
X159874361Y-112918303D01*
X160053606Y-112898107D01*
X160053609Y-112898106D01*
X160053612Y-112898106D01*
X160223879Y-112838527D01*
X160376619Y-112742554D01*
X160494788Y-112624385D01*
X160556111Y-112590900D01*
X160625803Y-112595884D01*
X160670150Y-112624385D01*
X160678139Y-112632374D01*
X160678149Y-112632385D01*
X160682479Y-112636715D01*
X160682480Y-112636716D01*
X160794284Y-112748520D01*
X160881095Y-112798639D01*
X160881097Y-112798641D01*
X160925294Y-112824158D01*
X160931215Y-112827577D01*
X160931217Y-112827577D01*
X160931218Y-112827578D01*
X160940004Y-112829932D01*
X160954148Y-112833721D01*
X161009738Y-112865816D01*
X161041738Y-112897816D01*
X161194478Y-112993789D01*
X161283148Y-113024816D01*
X161364745Y-113053368D01*
X161364750Y-113053369D01*
X161543996Y-113073565D01*
X161544000Y-113073565D01*
X161544004Y-113073565D01*
X161723249Y-113053369D01*
X161723252Y-113053368D01*
X161723255Y-113053368D01*
X161893522Y-112993789D01*
X162046262Y-112897816D01*
X162173816Y-112770262D01*
X162269789Y-112617522D01*
X162329368Y-112447255D01*
X162334672Y-112400184D01*
X162349565Y-112268003D01*
X162349565Y-112267996D01*
X162329369Y-112088750D01*
X162329368Y-112088745D01*
X162314228Y-112045478D01*
X162269789Y-111918478D01*
X162253615Y-111892738D01*
X162228444Y-111852678D01*
X162173816Y-111765738D01*
X162046262Y-111638184D01*
X162043509Y-111636454D01*
X161893523Y-111542211D01*
X161723254Y-111482631D01*
X161723249Y-111482630D01*
X161544004Y-111462435D01*
X161543996Y-111462435D01*
X161364746Y-111482631D01*
X161364741Y-111482632D01*
X161336145Y-111492638D01*
X161266366Y-111496199D01*
X161207512Y-111463277D01*
X159837590Y-110093355D01*
X159837588Y-110093352D01*
X159718717Y-109974481D01*
X159718716Y-109974480D01*
X159631904Y-109924360D01*
X159631904Y-109924359D01*
X159631900Y-109924358D01*
X159581785Y-109895423D01*
X159429057Y-109854499D01*
X159270943Y-109854499D01*
X159263347Y-109854499D01*
X159263331Y-109854500D01*
X151141098Y-109854500D01*
X151074059Y-109834815D01*
X151053417Y-109818181D01*
X149650405Y-108415169D01*
X148219415Y-106984180D01*
X148185931Y-106922858D01*
X148190915Y-106853166D01*
X148232787Y-106797233D01*
X148298251Y-106772816D01*
X148307097Y-106772500D01*
X154103588Y-106772500D01*
X154170627Y-106792185D01*
X154180903Y-106799555D01*
X154183736Y-106801814D01*
X154183738Y-106801816D01*
X154336478Y-106897789D01*
X154469879Y-106944468D01*
X154506745Y-106957368D01*
X154506750Y-106957369D01*
X154685996Y-106977565D01*
X154686000Y-106977565D01*
X154686004Y-106977565D01*
X154865249Y-106957369D01*
X154865252Y-106957368D01*
X154865255Y-106957368D01*
X155035522Y-106897789D01*
X155188262Y-106801816D01*
X155315816Y-106674262D01*
X155411789Y-106521522D01*
X155471368Y-106351255D01*
X155481162Y-106264331D01*
X155491565Y-106172003D01*
X155491565Y-106171996D01*
X155471369Y-105992750D01*
X155471367Y-105992742D01*
X155446423Y-105921454D01*
X155442862Y-105851675D01*
X155477591Y-105791048D01*
X155539585Y-105758821D01*
X155563465Y-105756500D01*
X155996331Y-105756500D01*
X155996347Y-105756501D01*
X156003943Y-105756501D01*
X156162054Y-105756501D01*
X156162057Y-105756501D01*
X156314785Y-105715577D01*
X156394180Y-105669738D01*
X156451716Y-105636520D01*
X156478535Y-105609701D01*
X156482535Y-105605701D01*
X156543857Y-105572215D01*
X156556316Y-105570162D01*
X156643255Y-105560368D01*
X156813522Y-105500789D01*
X156906027Y-105442663D01*
X156973264Y-105423663D01*
X157037973Y-105442664D01*
X157130475Y-105500788D01*
X157300745Y-105560368D01*
X157300750Y-105560369D01*
X157479996Y-105580565D01*
X157480000Y-105580565D01*
X157480004Y-105580565D01*
X157659249Y-105560369D01*
X157659252Y-105560368D01*
X157659255Y-105560368D01*
X157829522Y-105500789D01*
X157982262Y-105404816D01*
X158109816Y-105277262D01*
X158205789Y-105124522D01*
X158265368Y-104954255D01*
X158265424Y-104953762D01*
X158285565Y-104775003D01*
X158285565Y-104774996D01*
X158265369Y-104595750D01*
X158265368Y-104595745D01*
X158254377Y-104564335D01*
X158205789Y-104425478D01*
X158182002Y-104387622D01*
X158133909Y-104311082D01*
X158109816Y-104272738D01*
X157982262Y-104145184D01*
X157829521Y-104049210D01*
X157659252Y-103989631D01*
X157659246Y-103989630D01*
X157625144Y-103985788D01*
X157560730Y-103958722D01*
X157521174Y-103901127D01*
X157519037Y-103831290D01*
X157551344Y-103774889D01*
X157616684Y-103709549D01*
X162486470Y-103709549D01*
X162493239Y-103752288D01*
X162509431Y-103854522D01*
X162519724Y-103919505D01*
X162567081Y-104065255D01*
X162585414Y-104121676D01*
X162681921Y-104311082D01*
X162806860Y-104483048D01*
X162957183Y-104633371D01*
X163129149Y-104758310D01*
X163129151Y-104758311D01*
X163129154Y-104758313D01*
X163318558Y-104854819D01*
X163520727Y-104920508D01*
X163730683Y-104953762D01*
X163730684Y-104953762D01*
X163943256Y-104953762D01*
X163943257Y-104953762D01*
X164153213Y-104920508D01*
X164355382Y-104854819D01*
X164544786Y-104758313D01*
X164566759Y-104742348D01*
X164716756Y-104633371D01*
X164716758Y-104633368D01*
X164716762Y-104633366D01*
X164867074Y-104483054D01*
X164867076Y-104483050D01*
X164867079Y-104483048D01*
X164992018Y-104311082D01*
X164992017Y-104311082D01*
X164992021Y-104311078D01*
X165088527Y-104121674D01*
X165154216Y-103919505D01*
X165187470Y-103709549D01*
X165187470Y-103496975D01*
X165154216Y-103287019D01*
X165088527Y-103084850D01*
X164992021Y-102895446D01*
X164992019Y-102895443D01*
X164992018Y-102895441D01*
X164867079Y-102723475D01*
X164755604Y-102612000D01*
X167605001Y-102612000D01*
X167605001Y-103061986D01*
X167615494Y-103164697D01*
X167670641Y-103331119D01*
X167670643Y-103331124D01*
X167762684Y-103480345D01*
X167886654Y-103604315D01*
X168035875Y-103696356D01*
X168035880Y-103696358D01*
X168202302Y-103751505D01*
X168202309Y-103751506D01*
X168305019Y-103761999D01*
X169104999Y-103761999D01*
X169105000Y-103761998D01*
X169105000Y-102612000D01*
X169605000Y-102612000D01*
X169605000Y-103761999D01*
X170404972Y-103761999D01*
X170404986Y-103761998D01*
X170507697Y-103751505D01*
X170674119Y-103696358D01*
X170674124Y-103696356D01*
X170823345Y-103604315D01*
X170947315Y-103480345D01*
X171039356Y-103331124D01*
X171039358Y-103331119D01*
X171094505Y-103164697D01*
X171094506Y-103164690D01*
X171104999Y-103061986D01*
X171105000Y-103061973D01*
X171105000Y-102612000D01*
X169605000Y-102612000D01*
X169105000Y-102612000D01*
X167605001Y-102612000D01*
X164755604Y-102612000D01*
X164716756Y-102573152D01*
X164544790Y-102448213D01*
X164355384Y-102351706D01*
X164355383Y-102351705D01*
X164355382Y-102351705D01*
X164153213Y-102286016D01*
X164153211Y-102286015D01*
X164153210Y-102286015D01*
X163991927Y-102260470D01*
X163943257Y-102252762D01*
X163730683Y-102252762D01*
X163682012Y-102260470D01*
X163520730Y-102286015D01*
X163318555Y-102351706D01*
X163129149Y-102448213D01*
X162957183Y-102573152D01*
X162806860Y-102723475D01*
X162681921Y-102895441D01*
X162585414Y-103084847D01*
X162519723Y-103287022D01*
X162488714Y-103482806D01*
X162486470Y-103496975D01*
X162486470Y-103709549D01*
X157616684Y-103709549D01*
X157752535Y-103573698D01*
X157813856Y-103540215D01*
X157826311Y-103538163D01*
X157913255Y-103528368D01*
X158083522Y-103468789D01*
X158236262Y-103372816D01*
X158363816Y-103245262D01*
X158459789Y-103092522D01*
X158519368Y-102922255D01*
X158522389Y-102895446D01*
X158539565Y-102743003D01*
X158539565Y-102742996D01*
X158519369Y-102563750D01*
X158519368Y-102563745D01*
X158502647Y-102515958D01*
X158459789Y-102393478D01*
X158363816Y-102240738D01*
X158236262Y-102113184D01*
X158218880Y-102102262D01*
X158083523Y-102017211D01*
X157913254Y-101957631D01*
X157913249Y-101957630D01*
X157734004Y-101937435D01*
X157733996Y-101937435D01*
X157554750Y-101957630D01*
X157554745Y-101957631D01*
X157384476Y-102017211D01*
X157231737Y-102113184D01*
X157104184Y-102240737D01*
X157008210Y-102393478D01*
X156948630Y-102563750D01*
X156938837Y-102650668D01*
X156911770Y-102715082D01*
X156903299Y-102724465D01*
X156800946Y-102826819D01*
X156774682Y-102853083D01*
X156713359Y-102886568D01*
X156643667Y-102881584D01*
X156587733Y-102839713D01*
X156563316Y-102774249D01*
X156563000Y-102765402D01*
X156563000Y-102612000D01*
X153063001Y-102612000D01*
X153063001Y-103061986D01*
X153073494Y-103164697D01*
X153128641Y-103331119D01*
X153128643Y-103331124D01*
X153220684Y-103480345D01*
X153344655Y-103604316D01*
X153345286Y-103604815D01*
X153345606Y-103605267D01*
X153349763Y-103609424D01*
X153349052Y-103610134D01*
X153385661Y-103661838D01*
X153391592Y-103715962D01*
X153372435Y-103885995D01*
X153372435Y-103886000D01*
X153392630Y-104065249D01*
X153392631Y-104065254D01*
X153452211Y-104235523D01*
X153548184Y-104388262D01*
X153548185Y-104388263D01*
X153593241Y-104433320D01*
X153626725Y-104494643D01*
X153621740Y-104564335D01*
X153593241Y-104608680D01*
X153548184Y-104653737D01*
X153452211Y-104806476D01*
X153392631Y-104976745D01*
X153392630Y-104976750D01*
X153372435Y-105155996D01*
X153372435Y-105156003D01*
X153392630Y-105335249D01*
X153392632Y-105335257D01*
X153417577Y-105406546D01*
X153421138Y-105476325D01*
X153386409Y-105536952D01*
X153324415Y-105569179D01*
X153300535Y-105571500D01*
X146124412Y-105571500D01*
X146057373Y-105551815D01*
X146047097Y-105544445D01*
X146044263Y-105542185D01*
X146044262Y-105542184D01*
X145939448Y-105476325D01*
X145891521Y-105446210D01*
X145721249Y-105386630D01*
X145634331Y-105376837D01*
X145569917Y-105349770D01*
X145560534Y-105341298D01*
X143547130Y-103327895D01*
X143517769Y-103281168D01*
X143505205Y-103245262D01*
X143473789Y-103155478D01*
X143446291Y-103111716D01*
X143377815Y-103002737D01*
X143250262Y-102875184D01*
X143097521Y-102779210D01*
X142927249Y-102719630D01*
X142840332Y-102709837D01*
X142775918Y-102682770D01*
X142766535Y-102674298D01*
X142749819Y-102657582D01*
X142716334Y-102596259D01*
X142713500Y-102569901D01*
X142713500Y-102305980D01*
X142733185Y-102238941D01*
X142785989Y-102193186D01*
X142855147Y-102183242D01*
X142869591Y-102186204D01*
X142922942Y-102200500D01*
X142922943Y-102200500D01*
X143435588Y-102200500D01*
X143502627Y-102220185D01*
X143512903Y-102227555D01*
X143515736Y-102229814D01*
X143515738Y-102229816D01*
X143668478Y-102325789D01*
X143742542Y-102351705D01*
X143838745Y-102385368D01*
X143838750Y-102385369D01*
X144017996Y-102405565D01*
X144018000Y-102405565D01*
X144018004Y-102405565D01*
X144197249Y-102385369D01*
X144197252Y-102385368D01*
X144197255Y-102385368D01*
X144367522Y-102325789D01*
X144520262Y-102229816D01*
X144647816Y-102102262D01*
X144743789Y-101949522D01*
X144803368Y-101779255D01*
X144810258Y-101718111D01*
X144823565Y-101600002D01*
X144823565Y-101593036D01*
X144825214Y-101593036D01*
X144835787Y-101532668D01*
X144883135Y-101481288D01*
X144905995Y-101470565D01*
X144966692Y-101449326D01*
X145002520Y-101436790D01*
X145002522Y-101436789D01*
X145155262Y-101340816D01*
X145282816Y-101213262D01*
X145378789Y-101060522D01*
X145438368Y-100890255D01*
X145438381Y-100890145D01*
X145453876Y-100752616D01*
X145480942Y-100688202D01*
X145538537Y-100648647D01*
X145577096Y-100642499D01*
X147977985Y-100642499D01*
X147977991Y-100642500D01*
X149539499Y-100642499D01*
X149606538Y-100662184D01*
X149652293Y-100714987D01*
X149663499Y-100766499D01*
X149663499Y-100881367D01*
X149643814Y-100948406D01*
X149591010Y-100994161D01*
X149578507Y-100999071D01*
X149546506Y-101009676D01*
X149493664Y-101027186D01*
X149493661Y-101027187D01*
X149344340Y-101119289D01*
X149220287Y-101243342D01*
X149128185Y-101392663D01*
X149128183Y-101392668D01*
X149128113Y-101392880D01*
X149072999Y-101559203D01*
X149072999Y-101559204D01*
X149072998Y-101559204D01*
X149062498Y-101661983D01*
X149062498Y-103062001D01*
X149062499Y-103062018D01*
X149072998Y-103164796D01*
X149072999Y-103164799D01*
X149128183Y-103331331D01*
X149128185Y-103331336D01*
X149153770Y-103372816D01*
X149220286Y-103480656D01*
X149344342Y-103604712D01*
X149493664Y-103696814D01*
X149660201Y-103751999D01*
X149762989Y-103762500D01*
X151863006Y-103762499D01*
X151965795Y-103751999D01*
X152132332Y-103696814D01*
X152281654Y-103604712D01*
X152405710Y-103480656D01*
X152497812Y-103331334D01*
X152552997Y-103164797D01*
X152563498Y-103062009D01*
X152563497Y-102112000D01*
X153063000Y-102112000D01*
X154563000Y-102112000D01*
X154563000Y-100962000D01*
X155063000Y-100962000D01*
X155063000Y-102112000D01*
X156562999Y-102112000D01*
X156562999Y-101662028D01*
X156562998Y-101662013D01*
X156556254Y-101596000D01*
X159248070Y-101596000D01*
X159250833Y-101631122D01*
X159250834Y-101631128D01*
X159295593Y-101785188D01*
X159295594Y-101785191D01*
X159377262Y-101923285D01*
X159377269Y-101923294D01*
X159490706Y-102036731D01*
X159490715Y-102036738D01*
X159628806Y-102118404D01*
X159768001Y-102158844D01*
X159768001Y-101596000D01*
X159248070Y-101596000D01*
X156556254Y-101596000D01*
X156552505Y-101559302D01*
X156497358Y-101392880D01*
X156497356Y-101392875D01*
X156405315Y-101243654D01*
X156281345Y-101119684D01*
X156132124Y-101027643D01*
X156132119Y-101027641D01*
X155965697Y-100972494D01*
X155965690Y-100972493D01*
X155862986Y-100962000D01*
X155063000Y-100962000D01*
X154563000Y-100962000D01*
X153763028Y-100962000D01*
X153763012Y-100962001D01*
X153660302Y-100972494D01*
X153493880Y-101027641D01*
X153493875Y-101027643D01*
X153344654Y-101119684D01*
X153220684Y-101243654D01*
X153128643Y-101392875D01*
X153128641Y-101392880D01*
X153073494Y-101559302D01*
X153073493Y-101559309D01*
X153063000Y-101662013D01*
X153063000Y-102112000D01*
X152563497Y-102112000D01*
X152563497Y-101661992D01*
X152557164Y-101600000D01*
X152552997Y-101559203D01*
X152552996Y-101559200D01*
X152532926Y-101498633D01*
X152497812Y-101392666D01*
X152405710Y-101243344D01*
X152281654Y-101119288D01*
X152178705Y-101055789D01*
X152132334Y-101027187D01*
X152132333Y-101027186D01*
X152132332Y-101027186D01*
X152033493Y-100994434D01*
X152019494Y-100989795D01*
X151962050Y-100950022D01*
X151935227Y-100885506D01*
X151934499Y-100872089D01*
X151934499Y-100766499D01*
X151954184Y-100699460D01*
X152006988Y-100653705D01*
X152058499Y-100642499D01*
X152128002Y-100642499D01*
X152128008Y-100642499D01*
X152230797Y-100631999D01*
X152397334Y-100576814D01*
X152546656Y-100484712D01*
X152670712Y-100360656D01*
X152762814Y-100211334D01*
X152817999Y-100044797D01*
X152828500Y-99942009D01*
X152828499Y-99367094D01*
X152848183Y-99300057D01*
X152900987Y-99254302D01*
X152970146Y-99244358D01*
X153033702Y-99273383D01*
X153040180Y-99279415D01*
X153311140Y-99550375D01*
X153311150Y-99550386D01*
X153315480Y-99554716D01*
X153315481Y-99554717D01*
X153427285Y-99666521D01*
X153485592Y-99700184D01*
X153564216Y-99745578D01*
X153716944Y-99786502D01*
X153716947Y-99786502D01*
X153882654Y-99786502D01*
X153882670Y-99786501D01*
X158577903Y-99786501D01*
X158644942Y-99806186D01*
X158665584Y-99822820D01*
X159406688Y-100563924D01*
X159440173Y-100625247D01*
X159435189Y-100694939D01*
X159406689Y-100739285D01*
X159377270Y-100768704D01*
X159377262Y-100768714D01*
X159295594Y-100906808D01*
X159295593Y-100906811D01*
X159250834Y-101060871D01*
X159250833Y-101060877D01*
X159248070Y-101096000D01*
X159887402Y-101096000D01*
X159954441Y-101115685D01*
X159975083Y-101132319D01*
X160231180Y-101388416D01*
X160264665Y-101449739D01*
X160267499Y-101476096D01*
X160267499Y-101595168D01*
X160267500Y-101595184D01*
X160267619Y-101596689D01*
X160268001Y-101606418D01*
X160268001Y-102158843D01*
X160407196Y-102118404D01*
X160464386Y-102084582D01*
X160532109Y-102067398D01*
X160590627Y-102084580D01*
X160648606Y-102118869D01*
X160676015Y-102126832D01*
X160802790Y-102163664D01*
X160802793Y-102163664D01*
X160802795Y-102163665D01*
X160838818Y-102166500D01*
X161237179Y-102166499D01*
X161273203Y-102163665D01*
X161427392Y-102118869D01*
X161565597Y-102037135D01*
X161679134Y-101923598D01*
X161760868Y-101785393D01*
X161796722Y-101661983D01*
X161805663Y-101631208D01*
X161805664Y-101631202D01*
X161806320Y-101622863D01*
X161808499Y-101595181D01*
X161808498Y-101096820D01*
X161805664Y-101060796D01*
X161760868Y-100906607D01*
X161679134Y-100768402D01*
X161679132Y-100768400D01*
X161679129Y-100768396D01*
X161565602Y-100654869D01*
X161565594Y-100654863D01*
X161427392Y-100573131D01*
X161427387Y-100573129D01*
X161273207Y-100528335D01*
X161273201Y-100528334D01*
X161237187Y-100525500D01*
X161237180Y-100525500D01*
X161118096Y-100525500D01*
X161051057Y-100505815D01*
X161030415Y-100489181D01*
X159365590Y-98824356D01*
X159365588Y-98824353D01*
X159246717Y-98705482D01*
X159246716Y-98705481D01*
X159159904Y-98655361D01*
X159159904Y-98655360D01*
X159159900Y-98655359D01*
X159109785Y-98626424D01*
X158957057Y-98585500D01*
X158798943Y-98585500D01*
X158791347Y-98585500D01*
X158791331Y-98585501D01*
X158654153Y-98585501D01*
X158587114Y-98565816D01*
X158541359Y-98513012D01*
X158530933Y-98475386D01*
X158530313Y-98469884D01*
X158542367Y-98401062D01*
X158589715Y-98349682D01*
X158653533Y-98331999D01*
X158877972Y-98331999D01*
X158877986Y-98331998D01*
X158980697Y-98321505D01*
X159147119Y-98266358D01*
X159147124Y-98266356D01*
X159296345Y-98174315D01*
X159420315Y-98050345D01*
X159512356Y-97901124D01*
X159512358Y-97901119D01*
X159567505Y-97734697D01*
X159567506Y-97734690D01*
X159577999Y-97631986D01*
X159578000Y-97631973D01*
X159578000Y-97532000D01*
X156652000Y-97532000D01*
X156584961Y-97512315D01*
X156539206Y-97459511D01*
X156528000Y-97408000D01*
X156528000Y-96232000D01*
X157028000Y-96232000D01*
X157028000Y-97032000D01*
X159577999Y-97032000D01*
X159577999Y-96932028D01*
X159577998Y-96932013D01*
X159567505Y-96829302D01*
X159512358Y-96662880D01*
X159512356Y-96662875D01*
X159420315Y-96513654D01*
X159296345Y-96389684D01*
X159147124Y-96297643D01*
X159147119Y-96297641D01*
X158980697Y-96242494D01*
X158980690Y-96242493D01*
X158877986Y-96232000D01*
X157028000Y-96232000D01*
X156528000Y-96232000D01*
X154678028Y-96232000D01*
X154678012Y-96232001D01*
X154575302Y-96242494D01*
X154408880Y-96297641D01*
X154408875Y-96297643D01*
X154259654Y-96389684D01*
X154135684Y-96513654D01*
X154043643Y-96662875D01*
X154043641Y-96662880D01*
X154004206Y-96781889D01*
X153964433Y-96839334D01*
X153899918Y-96866157D01*
X153831142Y-96853842D01*
X153779942Y-96806299D01*
X153762500Y-96742885D01*
X153762500Y-94407097D01*
X153782185Y-94340058D01*
X153798819Y-94319416D01*
X154829417Y-93288818D01*
X154890740Y-93255333D01*
X154917098Y-93252499D01*
X158878002Y-93252499D01*
X158878008Y-93252499D01*
X158980797Y-93241999D01*
X159147334Y-93186814D01*
X159296656Y-93094712D01*
X159420712Y-92970656D01*
X159512814Y-92821334D01*
X159567999Y-92654797D01*
X159578500Y-92552009D01*
X159578500Y-92433000D01*
X159857001Y-92433000D01*
X159857001Y-92532986D01*
X159867494Y-92635697D01*
X159922641Y-92802119D01*
X159922643Y-92802124D01*
X160014684Y-92951345D01*
X160138654Y-93075315D01*
X160287875Y-93167356D01*
X160287880Y-93167358D01*
X160454302Y-93222505D01*
X160454309Y-93222506D01*
X160557019Y-93232999D01*
X162406999Y-93232999D01*
X162407000Y-93232998D01*
X162407000Y-92433000D01*
X162907000Y-92433000D01*
X162907000Y-93232999D01*
X164756972Y-93232999D01*
X164756986Y-93232998D01*
X164859697Y-93222505D01*
X165026119Y-93167358D01*
X165026124Y-93167356D01*
X165175345Y-93075315D01*
X165299315Y-92951345D01*
X165391356Y-92802124D01*
X165391358Y-92802119D01*
X165446505Y-92635697D01*
X165446506Y-92635690D01*
X165456999Y-92532986D01*
X165457000Y-92532973D01*
X165457000Y-92433000D01*
X162907000Y-92433000D01*
X162407000Y-92433000D01*
X159857001Y-92433000D01*
X159578500Y-92433000D01*
X159578499Y-91933000D01*
X159857000Y-91933000D01*
X162407000Y-91933000D01*
X162407000Y-91133000D01*
X162907000Y-91133000D01*
X162907000Y-91933000D01*
X165456999Y-91933000D01*
X165456999Y-91833028D01*
X165456998Y-91833013D01*
X165446505Y-91730302D01*
X165391358Y-91563880D01*
X165391356Y-91563875D01*
X165299315Y-91414654D01*
X165175345Y-91290684D01*
X165026124Y-91198643D01*
X165026119Y-91198641D01*
X164859697Y-91143494D01*
X164859690Y-91143493D01*
X164756986Y-91133000D01*
X162907000Y-91133000D01*
X162407000Y-91133000D01*
X160557028Y-91133000D01*
X160557012Y-91133001D01*
X160454302Y-91143494D01*
X160287880Y-91198641D01*
X160287875Y-91198643D01*
X160138654Y-91290684D01*
X160014684Y-91414654D01*
X159922643Y-91563875D01*
X159922641Y-91563880D01*
X159867494Y-91730302D01*
X159867493Y-91730309D01*
X159857000Y-91833013D01*
X159857000Y-91933000D01*
X159578499Y-91933000D01*
X159578499Y-91851992D01*
X159567999Y-91749203D01*
X159512814Y-91582666D01*
X159420712Y-91433344D01*
X159296656Y-91309288D01*
X159195917Y-91247152D01*
X159149194Y-91195205D01*
X159137971Y-91126242D01*
X159153475Y-91082002D01*
X159152780Y-91081648D01*
X159154992Y-91077307D01*
X159236134Y-90918056D01*
X159272868Y-90805000D01*
X159291364Y-90748076D01*
X159291364Y-90748075D01*
X159291365Y-90748072D01*
X159319325Y-90571541D01*
X159319325Y-87891498D01*
X159339010Y-87824459D01*
X159391814Y-87778704D01*
X159443325Y-87767498D01*
X159761168Y-87767498D01*
X159761180Y-87767498D01*
X159797204Y-87764664D01*
X159951393Y-87719868D01*
X160089598Y-87638134D01*
X160089603Y-87638129D01*
X160093915Y-87633818D01*
X160155238Y-87600333D01*
X160181596Y-87597499D01*
X164287076Y-87597499D01*
X164287092Y-87597500D01*
X164294688Y-87597500D01*
X164452799Y-87597500D01*
X164452802Y-87597500D01*
X164605530Y-87556576D01*
X164660919Y-87524597D01*
X164742461Y-87477519D01*
X164854265Y-87365715D01*
X164854265Y-87365713D01*
X164864469Y-87355510D01*
X164864473Y-87355505D01*
X165615506Y-86604472D01*
X165615511Y-86604468D01*
X165625714Y-86594264D01*
X165625716Y-86594264D01*
X165737520Y-86482460D01*
X165810610Y-86355864D01*
X165816577Y-86345529D01*
X165857500Y-86192802D01*
X165857500Y-86034687D01*
X165857500Y-83019943D01*
X165843800Y-82968811D01*
X165816577Y-82867215D01*
X165783106Y-82809242D01*
X165737520Y-82730284D01*
X165625716Y-82618480D01*
X165625715Y-82618479D01*
X165621385Y-82614149D01*
X165621374Y-82614139D01*
X164853416Y-81846181D01*
X164819931Y-81784858D01*
X164824915Y-81715166D01*
X164866787Y-81659233D01*
X164932251Y-81634816D01*
X164941097Y-81634500D01*
X165046370Y-81634500D01*
X165134631Y-81620520D01*
X165222897Y-81606541D01*
X165377609Y-81556271D01*
X165392881Y-81551309D01*
X165552132Y-81470167D01*
X165696728Y-81365111D01*
X165823111Y-81238728D01*
X166394819Y-80667018D01*
X166456142Y-80633534D01*
X166525833Y-80638518D01*
G37*
%TD.AperFunction*%
%TA.AperFunction,Conductor*%
G36*
X167425043Y-108339312D02*
G01*
X167432292Y-108345356D01*
X167694156Y-108581139D01*
X169614604Y-110310318D01*
X169651253Y-110369805D01*
X169649922Y-110439662D01*
X169617730Y-110491704D01*
X169255897Y-110840811D01*
X169252696Y-110843792D01*
X169168486Y-110919491D01*
X169105470Y-110949670D01*
X169036142Y-110940988D01*
X168985271Y-110900159D01*
X168412488Y-110111790D01*
X167173394Y-111012043D01*
X167129189Y-110905322D01*
X167019751Y-110741537D01*
X166883120Y-110604906D01*
X168118596Y-109707282D01*
X167249005Y-108510393D01*
X167225525Y-108444587D01*
X167241350Y-108376533D01*
X167291456Y-108327838D01*
X167359934Y-108313963D01*
X167425043Y-108339312D01*
G37*
%TD.AperFunction*%
%TA.AperFunction,Conductor*%
G36*
X155698767Y-80435184D02*
G01*
X155744522Y-80487988D01*
X155749433Y-80500492D01*
X155782186Y-80599333D01*
X155874288Y-80748655D01*
X155998344Y-80872711D01*
X156147666Y-80964813D01*
X156314203Y-81019998D01*
X156416991Y-81030499D01*
X157817008Y-81030498D01*
X157919797Y-81019998D01*
X158086334Y-80964813D01*
X158175406Y-80909873D01*
X158242795Y-80891434D01*
X158309459Y-80912356D01*
X158354229Y-80965998D01*
X158364500Y-81015413D01*
X158364500Y-81545173D01*
X158344815Y-81612212D01*
X158292011Y-81657967D01*
X158222853Y-81667911D01*
X158175404Y-81650712D01*
X158086128Y-81595646D01*
X158086119Y-81595642D01*
X157919697Y-81540495D01*
X157919690Y-81540494D01*
X157816986Y-81530001D01*
X157367000Y-81530001D01*
X157367000Y-83406001D01*
X157347315Y-83473040D01*
X157294511Y-83518795D01*
X157243000Y-83530001D01*
X155717001Y-83530001D01*
X155717001Y-84329987D01*
X155727494Y-84432698D01*
X155782641Y-84599120D01*
X155782643Y-84599125D01*
X155874684Y-84748346D01*
X155998654Y-84872316D01*
X156147875Y-84964357D01*
X156147880Y-84964359D01*
X156314302Y-85019506D01*
X156314309Y-85019507D01*
X156417019Y-85030000D01*
X156948304Y-85030000D01*
X157015343Y-85049684D01*
X157061098Y-85102488D01*
X157071042Y-85171647D01*
X157070777Y-85173397D01*
X157052135Y-85291103D01*
X157048960Y-85311149D01*
X157048325Y-85315158D01*
X157048325Y-89222675D01*
X157028640Y-89289714D01*
X156975836Y-89335469D01*
X156924325Y-89346675D01*
X155147546Y-89346675D01*
X155080507Y-89326990D01*
X155034752Y-89274186D01*
X155024808Y-89205028D01*
X155053833Y-89141472D01*
X155082450Y-89117136D01*
X155131566Y-89086841D01*
X155183656Y-89054712D01*
X155307712Y-88930656D01*
X155399814Y-88781334D01*
X155454999Y-88614797D01*
X155465500Y-88512009D01*
X155465500Y-86117897D01*
X155465499Y-83030001D01*
X155717000Y-83030001D01*
X156867000Y-83030001D01*
X156867000Y-81530001D01*
X156417028Y-81530001D01*
X156417012Y-81530002D01*
X156314302Y-81540495D01*
X156147880Y-81595642D01*
X156147875Y-81595644D01*
X155998654Y-81687685D01*
X155874684Y-81811655D01*
X155782643Y-81960876D01*
X155782641Y-81960881D01*
X155727494Y-82127303D01*
X155727493Y-82127310D01*
X155717000Y-82230014D01*
X155717000Y-83030001D01*
X155465499Y-83030001D01*
X155465499Y-82962014D01*
X155465500Y-82962009D01*
X155465499Y-80539498D01*
X155485184Y-80472460D01*
X155537987Y-80426705D01*
X155589499Y-80415499D01*
X155631728Y-80415499D01*
X155698767Y-80435184D01*
G37*
%TD.AperFunction*%
%TA.AperFunction,Conductor*%
G36*
X144621425Y-72402185D02*
G01*
X144667180Y-72454989D01*
X144677124Y-72524147D01*
X144672095Y-72545492D01*
X144653135Y-72602709D01*
X144648000Y-72618206D01*
X144637500Y-72720983D01*
X144637500Y-76921001D01*
X144637501Y-76921018D01*
X144648000Y-77023796D01*
X144648001Y-77023799D01*
X144703185Y-77190331D01*
X144703187Y-77190336D01*
X144714842Y-77209232D01*
X144795288Y-77339656D01*
X144919344Y-77463712D01*
X145068666Y-77555814D01*
X145117789Y-77572091D01*
X145175233Y-77611863D01*
X145202057Y-77676379D01*
X145189742Y-77745155D01*
X145184324Y-77754893D01*
X145130189Y-77842659D01*
X145130185Y-77842668D01*
X145075001Y-78009202D01*
X145065801Y-78099258D01*
X145065801Y-78099262D01*
X145064500Y-78111991D01*
X145064500Y-79439589D01*
X145044815Y-79506628D01*
X144996797Y-79550072D01*
X144965872Y-79565829D01*
X144821270Y-79670890D01*
X144694890Y-79797270D01*
X144589833Y-79941867D01*
X144508691Y-80101118D01*
X144508689Y-80101121D01*
X144453460Y-80271098D01*
X144453460Y-80271101D01*
X144445826Y-80319302D01*
X144425500Y-80447634D01*
X144425500Y-80626366D01*
X144439480Y-80714631D01*
X144453460Y-80802898D01*
X144453460Y-80802901D01*
X144508689Y-80972878D01*
X144508691Y-80972881D01*
X144589833Y-81132132D01*
X144694889Y-81276728D01*
X144821272Y-81403111D01*
X144877803Y-81444183D01*
X144920467Y-81499512D01*
X144926446Y-81569126D01*
X144893840Y-81630920D01*
X144833001Y-81665278D01*
X144804916Y-81668500D01*
X143900444Y-81668500D01*
X143833405Y-81648815D01*
X143787650Y-81596011D01*
X143777706Y-81526853D01*
X143794906Y-81479403D01*
X143849353Y-81391130D01*
X143849358Y-81391119D01*
X143904505Y-81224697D01*
X143904506Y-81224690D01*
X143914999Y-81121986D01*
X143915000Y-81121973D01*
X143915000Y-81022000D01*
X140989000Y-81022000D01*
X140921961Y-81002315D01*
X140876206Y-80949511D01*
X140865000Y-80898000D01*
X140865000Y-79722000D01*
X141365000Y-79722000D01*
X141365000Y-80522000D01*
X143914999Y-80522000D01*
X143914999Y-80422028D01*
X143914998Y-80422013D01*
X143904505Y-80319302D01*
X143849358Y-80152880D01*
X143849356Y-80152875D01*
X143757315Y-80003654D01*
X143633345Y-79879684D01*
X143484124Y-79787643D01*
X143484119Y-79787641D01*
X143317697Y-79732494D01*
X143317690Y-79732493D01*
X143214986Y-79722000D01*
X141365000Y-79722000D01*
X140865000Y-79722000D01*
X139015028Y-79722000D01*
X139015012Y-79722001D01*
X138912302Y-79732494D01*
X138745880Y-79787641D01*
X138745875Y-79787643D01*
X138596657Y-79879682D01*
X138536034Y-79940305D01*
X138474710Y-79973789D01*
X138405019Y-79968804D01*
X138360672Y-79940304D01*
X138299657Y-79879289D01*
X138299656Y-79879288D01*
X138150334Y-79787186D01*
X137983797Y-79732001D01*
X137983795Y-79732000D01*
X137881016Y-79721500D01*
X137881009Y-79721500D01*
X136177783Y-79721500D01*
X136110744Y-79701815D01*
X136090102Y-79685181D01*
X135845819Y-79440897D01*
X135812334Y-79379574D01*
X135809500Y-79353216D01*
X135809500Y-77943097D01*
X135829185Y-77876058D01*
X135845819Y-77855416D01*
X135882417Y-77818818D01*
X135943740Y-77785333D01*
X135970098Y-77782499D01*
X136089168Y-77782499D01*
X136089180Y-77782499D01*
X136125204Y-77779665D01*
X136279393Y-77734869D01*
X136302785Y-77721034D01*
X136336877Y-77700873D01*
X136404601Y-77683689D01*
X136463121Y-77700873D01*
X136520601Y-77734867D01*
X136520603Y-77734867D01*
X136520605Y-77734869D01*
X136520607Y-77734869D01*
X136520608Y-77734870D01*
X136674789Y-77779664D01*
X136674792Y-77779664D01*
X136674794Y-77779665D01*
X136710817Y-77782500D01*
X137109178Y-77782499D01*
X137145202Y-77779665D01*
X137299391Y-77734869D01*
X137437596Y-77653135D01*
X137491913Y-77598817D01*
X137553234Y-77565334D01*
X137579593Y-77562500D01*
X138380331Y-77562500D01*
X138380347Y-77562501D01*
X138387943Y-77562501D01*
X138546054Y-77562501D01*
X138546057Y-77562501D01*
X138698785Y-77521577D01*
X138778180Y-77475738D01*
X138835716Y-77442520D01*
X138947520Y-77330716D01*
X138947520Y-77330714D01*
X138957724Y-77320511D01*
X138957728Y-77320506D01*
X139354420Y-76923813D01*
X139415741Y-76890330D01*
X139485433Y-76895314D01*
X139541366Y-76937186D01*
X139565457Y-76998894D01*
X139568001Y-77023797D01*
X139568001Y-77023799D01*
X139623185Y-77190331D01*
X139623187Y-77190336D01*
X139634842Y-77209232D01*
X139715288Y-77339656D01*
X139839344Y-77463712D01*
X139988666Y-77555814D01*
X140155203Y-77610999D01*
X140257991Y-77621500D01*
X140958008Y-77621499D01*
X140958016Y-77621498D01*
X140958019Y-77621498D01*
X141014302Y-77615748D01*
X141060797Y-77610999D01*
X141227334Y-77555814D01*
X141376656Y-77463712D01*
X141500712Y-77339656D01*
X141592814Y-77190334D01*
X141647999Y-77023797D01*
X141658500Y-76921009D01*
X141658499Y-75282090D01*
X141664568Y-75243773D01*
X141715539Y-75086901D01*
X141715539Y-75086900D01*
X141715540Y-75086897D01*
X141743500Y-74910366D01*
X141743500Y-72506500D01*
X141763185Y-72439461D01*
X141815989Y-72393706D01*
X141867500Y-72382500D01*
X144554386Y-72382500D01*
X144621425Y-72402185D01*
G37*
%TD.AperFunction*%
%TA.AperFunction,Conductor*%
G36*
X133302603Y-68679453D02*
G01*
X133355480Y-68725124D01*
X133368312Y-68751373D01*
X133386209Y-68802520D01*
X133482185Y-68955263D01*
X133484445Y-68958097D01*
X133485334Y-68960275D01*
X133485889Y-68961158D01*
X133485734Y-68961255D01*
X133510855Y-69022783D01*
X133511500Y-69035412D01*
X133511500Y-70017330D01*
X133511499Y-70017348D01*
X133511499Y-70183054D01*
X133511498Y-70183054D01*
X133552423Y-70335787D01*
X133562573Y-70353365D01*
X133562574Y-70353366D01*
X133608584Y-70433059D01*
X133631479Y-70472714D01*
X133631481Y-70472717D01*
X133750349Y-70591585D01*
X133750355Y-70591590D01*
X135700151Y-72541386D01*
X135733636Y-72602709D01*
X135736470Y-72629067D01*
X135736470Y-73368052D01*
X135716785Y-73435091D01*
X135663981Y-73480846D01*
X135594823Y-73490790D01*
X135556176Y-73478537D01*
X135405387Y-73401707D01*
X135405384Y-73401706D01*
X135405382Y-73401705D01*
X135203213Y-73336016D01*
X135203211Y-73336015D01*
X135203210Y-73336015D01*
X135041927Y-73310470D01*
X134993257Y-73302762D01*
X134780683Y-73302762D01*
X134732012Y-73310470D01*
X134570730Y-73336015D01*
X134368555Y-73401706D01*
X134179149Y-73498213D01*
X134007183Y-73623152D01*
X133856860Y-73773475D01*
X133731921Y-73945441D01*
X133635414Y-74134847D01*
X133569723Y-74337022D01*
X133561659Y-74387936D01*
X133536470Y-74546975D01*
X133536470Y-74759549D01*
X133538868Y-74774691D01*
X133565998Y-74945984D01*
X133569724Y-74969505D01*
X133629256Y-75152726D01*
X133635414Y-75171676D01*
X133731921Y-75361082D01*
X133856860Y-75533048D01*
X134007183Y-75683371D01*
X134179149Y-75808310D01*
X134179151Y-75808311D01*
X134179154Y-75808313D01*
X134368558Y-75904819D01*
X134570727Y-75970508D01*
X134605337Y-75975989D01*
X134668470Y-76005916D01*
X134705402Y-76065227D01*
X134704406Y-76135090D01*
X134673620Y-76186143D01*
X134093465Y-76766298D01*
X134032142Y-76799783D01*
X134019668Y-76801837D01*
X133932750Y-76811630D01*
X133762478Y-76871210D01*
X133609737Y-76967184D01*
X133482184Y-77094737D01*
X133482182Y-77094740D01*
X133403487Y-77219981D01*
X133351152Y-77266272D01*
X133282099Y-77276919D01*
X133218251Y-77248544D01*
X133188009Y-77210302D01*
X133187386Y-77209080D01*
X133168662Y-77172331D01*
X133137168Y-77110519D01*
X133121385Y-77088797D01*
X133032111Y-76965921D01*
X131015695Y-74949505D01*
X130982210Y-74888182D01*
X130987194Y-74818490D01*
X131015695Y-74774143D01*
X131298379Y-74491459D01*
X131676111Y-74113728D01*
X131697092Y-74084850D01*
X131781167Y-73969132D01*
X131862309Y-73809881D01*
X131899487Y-73695460D01*
X131917541Y-73639897D01*
X131939981Y-73498213D01*
X131945500Y-73463370D01*
X131945500Y-69819628D01*
X131965185Y-69752589D01*
X131988146Y-69726047D01*
X133169923Y-68698743D01*
X133233429Y-68669619D01*
X133302603Y-68679453D01*
G37*
%TD.AperFunction*%
%TA.AperFunction,Conductor*%
G36*
X126223249Y-71757463D02*
G01*
X126362537Y-71896751D01*
X126519620Y-72001711D01*
X125477842Y-73118883D01*
X126792689Y-74344998D01*
X126840607Y-74380928D01*
X126847933Y-74383970D01*
X126902302Y-74427853D01*
X126924315Y-74494165D01*
X126906983Y-74561850D01*
X126901126Y-74570364D01*
X126807187Y-74722663D01*
X126807185Y-74722668D01*
X126779349Y-74806670D01*
X126752001Y-74889203D01*
X126752001Y-74889204D01*
X126752000Y-74889204D01*
X126741500Y-74991983D01*
X126741500Y-76392001D01*
X126741501Y-76392018D01*
X126750377Y-76478899D01*
X126737607Y-76547591D01*
X126689726Y-76598476D01*
X126627019Y-76615500D01*
X126439412Y-76615500D01*
X126372373Y-76595815D01*
X126362091Y-76588441D01*
X126359265Y-76586187D01*
X126359262Y-76586184D01*
X126359256Y-76586180D01*
X126296116Y-76546506D01*
X126249825Y-76494171D01*
X126238730Y-76428908D01*
X126242500Y-76392009D01*
X126242499Y-74991992D01*
X126231999Y-74889203D01*
X126176814Y-74722666D01*
X126084712Y-74573344D01*
X125960656Y-74449288D01*
X125849826Y-74380928D01*
X125811336Y-74357187D01*
X125811331Y-74357185D01*
X125774553Y-74344998D01*
X125644797Y-74302001D01*
X125644795Y-74302000D01*
X125542016Y-74291500D01*
X123458371Y-74291500D01*
X123391332Y-74271815D01*
X123345577Y-74219011D01*
X123335633Y-74149853D01*
X123350834Y-74105760D01*
X123511136Y-73826567D01*
X123513373Y-73822826D01*
X123521425Y-73809881D01*
X124061034Y-72942388D01*
X124063398Y-72938734D01*
X124076434Y-72919337D01*
X124452780Y-72359346D01*
X124506508Y-72314688D01*
X124575856Y-72306166D01*
X124638803Y-72336489D01*
X124640262Y-72337828D01*
X125112164Y-72777883D01*
X126156657Y-71657802D01*
X126223249Y-71757463D01*
G37*
%TD.AperFunction*%
%TA.AperFunction,Conductor*%
G36*
X128998882Y-72642156D02*
G01*
X129459812Y-72147871D01*
X129519929Y-72112266D01*
X129589752Y-72114816D01*
X129647113Y-72154709D01*
X129673800Y-72219282D01*
X129674500Y-72232439D01*
X129674500Y-72852298D01*
X129654815Y-72919337D01*
X129638181Y-72939979D01*
X128322979Y-74255181D01*
X128261656Y-74288666D01*
X128235298Y-74291500D01*
X127746026Y-74291500D01*
X127678987Y-74271815D01*
X127633232Y-74219011D01*
X127623288Y-74149853D01*
X127652313Y-74086297D01*
X127655338Y-74082932D01*
X128657883Y-73007833D01*
X127537803Y-71963341D01*
X127637463Y-71896751D01*
X127776751Y-71757463D01*
X127881712Y-71600377D01*
X128998882Y-72642156D01*
G37*
%TD.AperFunction*%
%TA.AperFunction,Conductor*%
G36*
X128062765Y-68112630D02*
G01*
X128115038Y-68148195D01*
X129257211Y-69462114D01*
X129286047Y-69495286D01*
X129315173Y-69558795D01*
X129305339Y-69627969D01*
X129259668Y-69680846D01*
X129192660Y-69700637D01*
X129125589Y-69681059D01*
X129107895Y-69667325D01*
X128887833Y-69462114D01*
X127843340Y-70582195D01*
X127776751Y-70482537D01*
X127637463Y-70343249D01*
X127480377Y-70238287D01*
X128522157Y-69121115D01*
X127807250Y-68454454D01*
X127771645Y-68394337D01*
X127774195Y-68324513D01*
X127802625Y-68277623D01*
X127932268Y-68143399D01*
X127992997Y-68108857D01*
X128062765Y-68112630D01*
G37*
%TD.AperFunction*%
%TD*%
M02*
