%TF.GenerationSoftware,KiCad,Pcbnew,8.0.1*%
%TF.CreationDate,2024-09-20T18:09:38-07:00*%
%TF.ProjectId,motor_control_design,6d6f746f-725f-4636-9f6e-74726f6c5f64,rev?*%
%TF.SameCoordinates,Original*%
%TF.FileFunction,Legend,Top*%
%TF.FilePolarity,Positive*%
%FSLAX46Y46*%
G04 Gerber Fmt 4.6, Leading zero omitted, Abs format (unit mm)*
G04 Created by KiCad (PCBNEW 8.0.1) date 2024-09-20 18:09:38*
%MOMM*%
%LPD*%
G01*
G04 APERTURE LIST*
%ADD10C,0.200000*%
%ADD11C,0.100000*%
%ADD12C,0.050000*%
%ADD13C,0.150000*%
%ADD14C,0.120000*%
%ADD15C,0.508000*%
%ADD16C,0.152400*%
G04 APERTURE END LIST*
D10*
X163280000Y-108705909D02*
X163174961Y-108723364D01*
X163174961Y-108723364D02*
X163059387Y-108807333D01*
X163059387Y-108807333D02*
X162971803Y-108929827D01*
X162971803Y-108929827D02*
X162950733Y-109062856D01*
X162950733Y-109062856D02*
X162968188Y-109167895D01*
X162968188Y-109167895D02*
X163041623Y-109349983D01*
X163041623Y-109349983D02*
X163125592Y-109465557D01*
X163125592Y-109465557D02*
X163276076Y-109591666D01*
X163276076Y-109591666D02*
X163370580Y-109640725D01*
X163370580Y-109640725D02*
X163503609Y-109661795D01*
X163503609Y-109661795D02*
X163647172Y-109616350D01*
X163647172Y-109616350D02*
X163724222Y-109560371D01*
X163724222Y-109560371D02*
X163811806Y-109437877D01*
X163811806Y-109437877D02*
X163822341Y-109371362D01*
X163822341Y-109371362D02*
X163626412Y-109101690D01*
X163626412Y-109101690D02*
X163472314Y-109213649D01*
X164225042Y-109196504D02*
X163637256Y-108387487D01*
X163637256Y-108387487D02*
X164687337Y-108860626D01*
X164687337Y-108860626D02*
X164099552Y-108051609D01*
X165072583Y-108580729D02*
X164484798Y-107771712D01*
X164484798Y-107771712D02*
X164677421Y-107631763D01*
X164677421Y-107631763D02*
X164820985Y-107586318D01*
X164820985Y-107586318D02*
X164954014Y-107607388D01*
X164954014Y-107607388D02*
X165048518Y-107656447D01*
X165048518Y-107656447D02*
X165199001Y-107782556D01*
X165199001Y-107782556D02*
X165282971Y-107898130D01*
X165282971Y-107898130D02*
X165356405Y-108080218D01*
X165356405Y-108080218D02*
X165373860Y-108185257D01*
X165373860Y-108185257D02*
X165352790Y-108318286D01*
X165352790Y-108318286D02*
X165265206Y-108440780D01*
X165265206Y-108440780D02*
X165072583Y-108580729D01*
X133036748Y-64615803D02*
X133094533Y-64754860D01*
X133094533Y-64754860D02*
X133089835Y-64822039D01*
X133089835Y-64822039D02*
X133049199Y-64920460D01*
X133049199Y-64920460D02*
X132941383Y-65014182D01*
X132941383Y-65014182D02*
X132838265Y-65040726D01*
X132838265Y-65040726D02*
X132771086Y-65036028D01*
X132771086Y-65036028D02*
X132672665Y-64995392D01*
X132672665Y-64995392D02*
X132422738Y-64707883D01*
X132422738Y-64707883D02*
X133177448Y-64051824D01*
X133177448Y-64051824D02*
X133396134Y-64303394D01*
X133396134Y-64303394D02*
X133422677Y-64406512D01*
X133422677Y-64406512D02*
X133417980Y-64473692D01*
X133417980Y-64473692D02*
X133377343Y-64572112D01*
X133377343Y-64572112D02*
X133305466Y-64634594D01*
X133305466Y-64634594D02*
X133202348Y-64661137D01*
X133202348Y-64661137D02*
X133135169Y-64656439D01*
X133135169Y-64656439D02*
X133036748Y-64615803D01*
X133036748Y-64615803D02*
X132818062Y-64364233D01*
X133263187Y-65239209D02*
X133575597Y-65598594D01*
X132985074Y-65354777D02*
X133958470Y-64950288D01*
X133958470Y-64950288D02*
X133422447Y-65857917D01*
X134302120Y-65345612D02*
X134677011Y-65776875D01*
X133734856Y-66217303D02*
X134489566Y-65561244D01*
X134801975Y-65920629D02*
X135176866Y-66351892D01*
X134234711Y-66792320D02*
X134989420Y-66136261D01*
D11*
X132137321Y-108279908D02*
X132272008Y-108212564D01*
X132272008Y-108212564D02*
X132440367Y-108044205D01*
X132440367Y-108044205D02*
X132474039Y-107943190D01*
X132474039Y-107943190D02*
X132474039Y-107875847D01*
X132474039Y-107875847D02*
X132440367Y-107774831D01*
X132440367Y-107774831D02*
X132373024Y-107707488D01*
X132373024Y-107707488D02*
X132272008Y-107673816D01*
X132272008Y-107673816D02*
X132204665Y-107673816D01*
X132204665Y-107673816D02*
X132103649Y-107707488D01*
X132103649Y-107707488D02*
X131935291Y-107808503D01*
X131935291Y-107808503D02*
X131834275Y-107842175D01*
X131834275Y-107842175D02*
X131766932Y-107842175D01*
X131766932Y-107842175D02*
X131665917Y-107808503D01*
X131665917Y-107808503D02*
X131598573Y-107741160D01*
X131598573Y-107741160D02*
X131564901Y-107640144D01*
X131564901Y-107640144D02*
X131564901Y-107572801D01*
X131564901Y-107572801D02*
X131598573Y-107471786D01*
X131598573Y-107471786D02*
X131766932Y-107303427D01*
X131766932Y-107303427D02*
X131901619Y-107236083D01*
X132103650Y-106966709D02*
X132979115Y-107505457D01*
X132979115Y-107505457D02*
X132608726Y-106865694D01*
X132608726Y-106865694D02*
X133248489Y-107236083D01*
X133248489Y-107236083D02*
X132709741Y-106360618D01*
X133686222Y-106798351D02*
X132979115Y-106091244D01*
X132979115Y-106091244D02*
X133147474Y-105922885D01*
X133147474Y-105922885D02*
X133282161Y-105855541D01*
X133282161Y-105855541D02*
X133416848Y-105855541D01*
X133416848Y-105855541D02*
X133517863Y-105889213D01*
X133517863Y-105889213D02*
X133686222Y-105990229D01*
X133686222Y-105990229D02*
X133787237Y-106091244D01*
X133787237Y-106091244D02*
X133888252Y-106259603D01*
X133888252Y-106259603D02*
X133921924Y-106360618D01*
X133921924Y-106360618D02*
X133921924Y-106495305D01*
X133921924Y-106495305D02*
X133854581Y-106629992D01*
X133854581Y-106629992D02*
X133686222Y-106798351D01*
X134393329Y-106091244D02*
X133686222Y-105384137D01*
X134157626Y-104912733D02*
X134292313Y-104778046D01*
X134292313Y-104778046D02*
X134393328Y-104744374D01*
X134393328Y-104744374D02*
X134528015Y-104744374D01*
X134528015Y-104744374D02*
X134696374Y-104845389D01*
X134696374Y-104845389D02*
X134932076Y-105081092D01*
X134932076Y-105081092D02*
X135033091Y-105249450D01*
X135033091Y-105249450D02*
X135033091Y-105384137D01*
X135033091Y-105384137D02*
X134999420Y-105485153D01*
X134999420Y-105485153D02*
X134864733Y-105619840D01*
X134864733Y-105619840D02*
X134763717Y-105653511D01*
X134763717Y-105653511D02*
X134629030Y-105653511D01*
X134629030Y-105653511D02*
X134460672Y-105552496D01*
X134460672Y-105552496D02*
X134224969Y-105316794D01*
X134224969Y-105316794D02*
X134123954Y-105148435D01*
X134123954Y-105148435D02*
X134123954Y-105013748D01*
X134123954Y-105013748D02*
X134157626Y-104912733D01*
D12*
X151446332Y-109702454D02*
X151092778Y-109348900D01*
X151092778Y-109348900D02*
X151648362Y-109500423D01*
X151648362Y-109500423D02*
X151294809Y-109146870D01*
X152018752Y-109130034D02*
X151732542Y-109079526D01*
X151816721Y-109332064D02*
X151463168Y-108978511D01*
X151463168Y-108978511D02*
X151597855Y-108843824D01*
X151597855Y-108843824D02*
X151648363Y-108826988D01*
X151648363Y-108826988D02*
X151682034Y-108826988D01*
X151682034Y-108826988D02*
X151732542Y-108843824D01*
X151732542Y-108843824D02*
X151783050Y-108894332D01*
X151783050Y-108894332D02*
X151799885Y-108944839D01*
X151799885Y-108944839D02*
X151799885Y-108978511D01*
X151799885Y-108978511D02*
X151783050Y-109029019D01*
X151783050Y-109029019D02*
X151648363Y-109163706D01*
X152136603Y-108978511D02*
X152203947Y-108944839D01*
X152203947Y-108944839D02*
X152288126Y-108860660D01*
X152288126Y-108860660D02*
X152304962Y-108810152D01*
X152304962Y-108810152D02*
X152304962Y-108776480D01*
X152304962Y-108776480D02*
X152288126Y-108725973D01*
X152288126Y-108725973D02*
X152254454Y-108692301D01*
X152254454Y-108692301D02*
X152203947Y-108675465D01*
X152203947Y-108675465D02*
X152170275Y-108675465D01*
X152170275Y-108675465D02*
X152119767Y-108692301D01*
X152119767Y-108692301D02*
X152035588Y-108742809D01*
X152035588Y-108742809D02*
X151985080Y-108759644D01*
X151985080Y-108759644D02*
X151951408Y-108759644D01*
X151951408Y-108759644D02*
X151900901Y-108742809D01*
X151900901Y-108742809D02*
X151867229Y-108709137D01*
X151867229Y-108709137D02*
X151850393Y-108658629D01*
X151850393Y-108658629D02*
X151850393Y-108624957D01*
X151850393Y-108624957D02*
X151867229Y-108574450D01*
X151867229Y-108574450D02*
X151951408Y-108490270D01*
X151951408Y-108490270D02*
X152018752Y-108456599D01*
X152102931Y-108338748D02*
X152304961Y-108136717D01*
X152557500Y-108591286D02*
X152203946Y-108237733D01*
D10*
X122416673Y-102102219D02*
X122416673Y-101102219D01*
X122416673Y-101102219D02*
X122750006Y-101816504D01*
X122750006Y-101816504D02*
X123083339Y-101102219D01*
X123083339Y-101102219D02*
X123083339Y-102102219D01*
X123702387Y-102102219D02*
X123607149Y-102054600D01*
X123607149Y-102054600D02*
X123559530Y-102006980D01*
X123559530Y-102006980D02*
X123511911Y-101911742D01*
X123511911Y-101911742D02*
X123511911Y-101626028D01*
X123511911Y-101626028D02*
X123559530Y-101530790D01*
X123559530Y-101530790D02*
X123607149Y-101483171D01*
X123607149Y-101483171D02*
X123702387Y-101435552D01*
X123702387Y-101435552D02*
X123845244Y-101435552D01*
X123845244Y-101435552D02*
X123940482Y-101483171D01*
X123940482Y-101483171D02*
X123988101Y-101530790D01*
X123988101Y-101530790D02*
X124035720Y-101626028D01*
X124035720Y-101626028D02*
X124035720Y-101911742D01*
X124035720Y-101911742D02*
X123988101Y-102006980D01*
X123988101Y-102006980D02*
X123940482Y-102054600D01*
X123940482Y-102054600D02*
X123845244Y-102102219D01*
X123845244Y-102102219D02*
X123702387Y-102102219D01*
X124321435Y-101435552D02*
X124702387Y-101435552D01*
X124464292Y-101102219D02*
X124464292Y-101959361D01*
X124464292Y-101959361D02*
X124511911Y-102054600D01*
X124511911Y-102054600D02*
X124607149Y-102102219D01*
X124607149Y-102102219D02*
X124702387Y-102102219D01*
X125178578Y-102102219D02*
X125083340Y-102054600D01*
X125083340Y-102054600D02*
X125035721Y-102006980D01*
X125035721Y-102006980D02*
X124988102Y-101911742D01*
X124988102Y-101911742D02*
X124988102Y-101626028D01*
X124988102Y-101626028D02*
X125035721Y-101530790D01*
X125035721Y-101530790D02*
X125083340Y-101483171D01*
X125083340Y-101483171D02*
X125178578Y-101435552D01*
X125178578Y-101435552D02*
X125321435Y-101435552D01*
X125321435Y-101435552D02*
X125416673Y-101483171D01*
X125416673Y-101483171D02*
X125464292Y-101530790D01*
X125464292Y-101530790D02*
X125511911Y-101626028D01*
X125511911Y-101626028D02*
X125511911Y-101911742D01*
X125511911Y-101911742D02*
X125464292Y-102006980D01*
X125464292Y-102006980D02*
X125416673Y-102054600D01*
X125416673Y-102054600D02*
X125321435Y-102102219D01*
X125321435Y-102102219D02*
X125178578Y-102102219D01*
X125940483Y-102102219D02*
X125940483Y-101435552D01*
X125940483Y-101626028D02*
X125988102Y-101530790D01*
X125988102Y-101530790D02*
X126035721Y-101483171D01*
X126035721Y-101483171D02*
X126130959Y-101435552D01*
X126130959Y-101435552D02*
X126226197Y-101435552D01*
X127845245Y-102102219D02*
X127273817Y-102102219D01*
X127559531Y-102102219D02*
X127559531Y-101102219D01*
X127559531Y-101102219D02*
X127464293Y-101245076D01*
X127464293Y-101245076D02*
X127369055Y-101340314D01*
X127369055Y-101340314D02*
X127273817Y-101387933D01*
D12*
X147348660Y-109702454D02*
X147416004Y-109668782D01*
X147416004Y-109668782D02*
X147500183Y-109584603D01*
X147500183Y-109584603D02*
X147517019Y-109534095D01*
X147517019Y-109534095D02*
X147517019Y-109500423D01*
X147517019Y-109500423D02*
X147500183Y-109449916D01*
X147500183Y-109449916D02*
X147466511Y-109416244D01*
X147466511Y-109416244D02*
X147416004Y-109399408D01*
X147416004Y-109399408D02*
X147382332Y-109399408D01*
X147382332Y-109399408D02*
X147331824Y-109416244D01*
X147331824Y-109416244D02*
X147247645Y-109466752D01*
X147247645Y-109466752D02*
X147197137Y-109483587D01*
X147197137Y-109483587D02*
X147163465Y-109483587D01*
X147163465Y-109483587D02*
X147112958Y-109466752D01*
X147112958Y-109466752D02*
X147079286Y-109433080D01*
X147079286Y-109433080D02*
X147062450Y-109382572D01*
X147062450Y-109382572D02*
X147062450Y-109348900D01*
X147062450Y-109348900D02*
X147079286Y-109298393D01*
X147079286Y-109298393D02*
X147163465Y-109214213D01*
X147163465Y-109214213D02*
X147230809Y-109180542D01*
X147904244Y-109180542D02*
X147702213Y-109382573D01*
X147803228Y-109281557D02*
X147449675Y-108928004D01*
X147449675Y-108928004D02*
X147466511Y-109012183D01*
X147466511Y-109012183D02*
X147466511Y-109079527D01*
X147466511Y-109079527D02*
X147449675Y-109130034D01*
X144946271Y-109399408D02*
X145417675Y-109635110D01*
X145417675Y-109635110D02*
X145181973Y-109163706D01*
X145586034Y-109096363D02*
X145653377Y-109062691D01*
X145653377Y-109062691D02*
X145687049Y-109062691D01*
X145687049Y-109062691D02*
X145737557Y-109079527D01*
X145737557Y-109079527D02*
X145788064Y-109130034D01*
X145788064Y-109130034D02*
X145804900Y-109180542D01*
X145804900Y-109180542D02*
X145804900Y-109214214D01*
X145804900Y-109214214D02*
X145788064Y-109264721D01*
X145788064Y-109264721D02*
X145653377Y-109399408D01*
X145653377Y-109399408D02*
X145299824Y-109045855D01*
X145299824Y-109045855D02*
X145417675Y-108928004D01*
X145417675Y-108928004D02*
X145468183Y-108911168D01*
X145468183Y-108911168D02*
X145501854Y-108911168D01*
X145501854Y-108911168D02*
X145552362Y-108928004D01*
X145552362Y-108928004D02*
X145586034Y-108961676D01*
X145586034Y-108961676D02*
X145602870Y-109012183D01*
X145602870Y-109012183D02*
X145602870Y-109045855D01*
X145602870Y-109045855D02*
X145586034Y-109096363D01*
X145586034Y-109096363D02*
X145468183Y-109214214D01*
X145653377Y-108692302D02*
X145939587Y-108978512D01*
X145939587Y-108978512D02*
X145990095Y-108995347D01*
X145990095Y-108995347D02*
X146023766Y-108995347D01*
X146023766Y-108995347D02*
X146074274Y-108978512D01*
X146074274Y-108978512D02*
X146141618Y-108911168D01*
X146141618Y-108911168D02*
X146158454Y-108860660D01*
X146158454Y-108860660D02*
X146158454Y-108826989D01*
X146158454Y-108826989D02*
X146141618Y-108776481D01*
X146141618Y-108776481D02*
X145855408Y-108490271D01*
X146343648Y-108675465D02*
X146410992Y-108641794D01*
X146410992Y-108641794D02*
X146495171Y-108557614D01*
X146495171Y-108557614D02*
X146512007Y-108507107D01*
X146512007Y-108507107D02*
X146512007Y-108473435D01*
X146512007Y-108473435D02*
X146495171Y-108422927D01*
X146495171Y-108422927D02*
X146461500Y-108389256D01*
X146461500Y-108389256D02*
X146410992Y-108372420D01*
X146410992Y-108372420D02*
X146377320Y-108372420D01*
X146377320Y-108372420D02*
X146326813Y-108389256D01*
X146326813Y-108389256D02*
X146242633Y-108439763D01*
X146242633Y-108439763D02*
X146192126Y-108456599D01*
X146192126Y-108456599D02*
X146158454Y-108456599D01*
X146158454Y-108456599D02*
X146107946Y-108439763D01*
X146107946Y-108439763D02*
X146074274Y-108406091D01*
X146074274Y-108406091D02*
X146057439Y-108355584D01*
X146057439Y-108355584D02*
X146057439Y-108321912D01*
X146057439Y-108321912D02*
X146074274Y-108271404D01*
X146074274Y-108271404D02*
X146158454Y-108187225D01*
X146158454Y-108187225D02*
X146225797Y-108153553D01*
D10*
X124837530Y-73094716D02*
X124800353Y-72994938D01*
X124800353Y-72994938D02*
X124695874Y-72897509D01*
X124695874Y-72897509D02*
X124558919Y-72834907D01*
X124558919Y-72834907D02*
X124424314Y-72839608D01*
X124424314Y-72839608D02*
X124324536Y-72876784D01*
X124324536Y-72876784D02*
X124159805Y-72983614D01*
X124159805Y-72983614D02*
X124062376Y-73088093D01*
X124062376Y-73088093D02*
X123967298Y-73259874D01*
X123967298Y-73259874D02*
X123937172Y-73362003D01*
X123937172Y-73362003D02*
X123941873Y-73496608D01*
X123941873Y-73496608D02*
X124013876Y-73628863D01*
X124013876Y-73628863D02*
X124083529Y-73693815D01*
X124083529Y-73693815D02*
X124220484Y-73756417D01*
X124220484Y-73756417D02*
X124287786Y-73754067D01*
X124287786Y-73754067D02*
X124515119Y-73510282D01*
X124515119Y-73510282D02*
X124375814Y-73380378D01*
X124536271Y-74116005D02*
X125218270Y-73384651D01*
X125218270Y-73384651D02*
X124954188Y-74505718D01*
X124954188Y-74505718D02*
X125636186Y-73774364D01*
X125302452Y-74830479D02*
X125984450Y-74099125D01*
X125984450Y-74099125D02*
X126158582Y-74261506D01*
X126158582Y-74261506D02*
X126230585Y-74393761D01*
X126230585Y-74393761D02*
X126235285Y-74528366D01*
X126235285Y-74528366D02*
X126205159Y-74630494D01*
X126205159Y-74630494D02*
X126110081Y-74802276D01*
X126110081Y-74802276D02*
X126012653Y-74906755D01*
X126012653Y-74906755D02*
X125847922Y-75013584D01*
X125847922Y-75013584D02*
X125748144Y-75050761D01*
X125748144Y-75050761D02*
X125613539Y-75055462D01*
X125613539Y-75055462D02*
X125476583Y-74992860D01*
X125476583Y-74992860D02*
X125302452Y-74830479D01*
X170422673Y-101975219D02*
X170422673Y-100975219D01*
X170422673Y-100975219D02*
X170756006Y-101689504D01*
X170756006Y-101689504D02*
X171089339Y-100975219D01*
X171089339Y-100975219D02*
X171089339Y-101975219D01*
X171708387Y-101975219D02*
X171613149Y-101927600D01*
X171613149Y-101927600D02*
X171565530Y-101879980D01*
X171565530Y-101879980D02*
X171517911Y-101784742D01*
X171517911Y-101784742D02*
X171517911Y-101499028D01*
X171517911Y-101499028D02*
X171565530Y-101403790D01*
X171565530Y-101403790D02*
X171613149Y-101356171D01*
X171613149Y-101356171D02*
X171708387Y-101308552D01*
X171708387Y-101308552D02*
X171851244Y-101308552D01*
X171851244Y-101308552D02*
X171946482Y-101356171D01*
X171946482Y-101356171D02*
X171994101Y-101403790D01*
X171994101Y-101403790D02*
X172041720Y-101499028D01*
X172041720Y-101499028D02*
X172041720Y-101784742D01*
X172041720Y-101784742D02*
X171994101Y-101879980D01*
X171994101Y-101879980D02*
X171946482Y-101927600D01*
X171946482Y-101927600D02*
X171851244Y-101975219D01*
X171851244Y-101975219D02*
X171708387Y-101975219D01*
X172327435Y-101308552D02*
X172708387Y-101308552D01*
X172470292Y-100975219D02*
X172470292Y-101832361D01*
X172470292Y-101832361D02*
X172517911Y-101927600D01*
X172517911Y-101927600D02*
X172613149Y-101975219D01*
X172613149Y-101975219D02*
X172708387Y-101975219D01*
X173184578Y-101975219D02*
X173089340Y-101927600D01*
X173089340Y-101927600D02*
X173041721Y-101879980D01*
X173041721Y-101879980D02*
X172994102Y-101784742D01*
X172994102Y-101784742D02*
X172994102Y-101499028D01*
X172994102Y-101499028D02*
X173041721Y-101403790D01*
X173041721Y-101403790D02*
X173089340Y-101356171D01*
X173089340Y-101356171D02*
X173184578Y-101308552D01*
X173184578Y-101308552D02*
X173327435Y-101308552D01*
X173327435Y-101308552D02*
X173422673Y-101356171D01*
X173422673Y-101356171D02*
X173470292Y-101403790D01*
X173470292Y-101403790D02*
X173517911Y-101499028D01*
X173517911Y-101499028D02*
X173517911Y-101784742D01*
X173517911Y-101784742D02*
X173470292Y-101879980D01*
X173470292Y-101879980D02*
X173422673Y-101927600D01*
X173422673Y-101927600D02*
X173327435Y-101975219D01*
X173327435Y-101975219D02*
X173184578Y-101975219D01*
X173946483Y-101975219D02*
X173946483Y-101308552D01*
X173946483Y-101499028D02*
X173994102Y-101403790D01*
X173994102Y-101403790D02*
X174041721Y-101356171D01*
X174041721Y-101356171D02*
X174136959Y-101308552D01*
X174136959Y-101308552D02*
X174232197Y-101308552D01*
X175279817Y-101070457D02*
X175327436Y-101022838D01*
X175327436Y-101022838D02*
X175422674Y-100975219D01*
X175422674Y-100975219D02*
X175660769Y-100975219D01*
X175660769Y-100975219D02*
X175756007Y-101022838D01*
X175756007Y-101022838D02*
X175803626Y-101070457D01*
X175803626Y-101070457D02*
X175851245Y-101165695D01*
X175851245Y-101165695D02*
X175851245Y-101260933D01*
X175851245Y-101260933D02*
X175803626Y-101403790D01*
X175803626Y-101403790D02*
X175232198Y-101975219D01*
X175232198Y-101975219D02*
X175851245Y-101975219D01*
D12*
X145979107Y-109382572D02*
X146197973Y-109163706D01*
X146197973Y-109163706D02*
X146214809Y-109416244D01*
X146214809Y-109416244D02*
X146265317Y-109365736D01*
X146265317Y-109365736D02*
X146315824Y-109348900D01*
X146315824Y-109348900D02*
X146349496Y-109348900D01*
X146349496Y-109348900D02*
X146400004Y-109365736D01*
X146400004Y-109365736D02*
X146484183Y-109449916D01*
X146484183Y-109449916D02*
X146501019Y-109500423D01*
X146501019Y-109500423D02*
X146501019Y-109534095D01*
X146501019Y-109534095D02*
X146484183Y-109584603D01*
X146484183Y-109584603D02*
X146383168Y-109685618D01*
X146383168Y-109685618D02*
X146332660Y-109702454D01*
X146332660Y-109702454D02*
X146298988Y-109702454D01*
X146298988Y-109062691D02*
X146770392Y-109298393D01*
X146770392Y-109298393D02*
X146534690Y-108826989D01*
X146618869Y-108742810D02*
X146837736Y-108523943D01*
X146837736Y-108523943D02*
X146854572Y-108776481D01*
X146854572Y-108776481D02*
X146905079Y-108725974D01*
X146905079Y-108725974D02*
X146955587Y-108709138D01*
X146955587Y-108709138D02*
X146989259Y-108709138D01*
X146989259Y-108709138D02*
X147039766Y-108725974D01*
X147039766Y-108725974D02*
X147123946Y-108810153D01*
X147123946Y-108810153D02*
X147140781Y-108860661D01*
X147140781Y-108860661D02*
X147140781Y-108894332D01*
X147140781Y-108894332D02*
X147123946Y-108944840D01*
X147123946Y-108944840D02*
X147022930Y-109045855D01*
X147022930Y-109045855D02*
X146972423Y-109062691D01*
X146972423Y-109062691D02*
X146938751Y-109062691D01*
D11*
X135947321Y-112089908D02*
X136082008Y-112022564D01*
X136082008Y-112022564D02*
X136250367Y-111854205D01*
X136250367Y-111854205D02*
X136284039Y-111753190D01*
X136284039Y-111753190D02*
X136284039Y-111685847D01*
X136284039Y-111685847D02*
X136250367Y-111584831D01*
X136250367Y-111584831D02*
X136183024Y-111517488D01*
X136183024Y-111517488D02*
X136082008Y-111483816D01*
X136082008Y-111483816D02*
X136014665Y-111483816D01*
X136014665Y-111483816D02*
X135913649Y-111517488D01*
X135913649Y-111517488D02*
X135745291Y-111618503D01*
X135745291Y-111618503D02*
X135644275Y-111652175D01*
X135644275Y-111652175D02*
X135576932Y-111652175D01*
X135576932Y-111652175D02*
X135475917Y-111618503D01*
X135475917Y-111618503D02*
X135408573Y-111551160D01*
X135408573Y-111551160D02*
X135374901Y-111450144D01*
X135374901Y-111450144D02*
X135374901Y-111382801D01*
X135374901Y-111382801D02*
X135408573Y-111281786D01*
X135408573Y-111281786D02*
X135576932Y-111113427D01*
X135576932Y-111113427D02*
X135711619Y-111046083D01*
X135913650Y-110776709D02*
X136789115Y-111315457D01*
X136789115Y-111315457D02*
X136418726Y-110675694D01*
X136418726Y-110675694D02*
X137058489Y-111046083D01*
X137058489Y-111046083D02*
X136519741Y-110170618D01*
X137832939Y-110136946D02*
X137832939Y-110204290D01*
X137832939Y-110204290D02*
X137765596Y-110338977D01*
X137765596Y-110338977D02*
X137698252Y-110406320D01*
X137698252Y-110406320D02*
X137563565Y-110473664D01*
X137563565Y-110473664D02*
X137428878Y-110473664D01*
X137428878Y-110473664D02*
X137327863Y-110439992D01*
X137327863Y-110439992D02*
X137159504Y-110338977D01*
X137159504Y-110338977D02*
X137058489Y-110237961D01*
X137058489Y-110237961D02*
X136957474Y-110069603D01*
X136957474Y-110069603D02*
X136923802Y-109968587D01*
X136923802Y-109968587D02*
X136923802Y-109833900D01*
X136923802Y-109833900D02*
X136991145Y-109699213D01*
X136991145Y-109699213D02*
X137058489Y-109631870D01*
X137058489Y-109631870D02*
X137193176Y-109564526D01*
X137193176Y-109564526D02*
X137260519Y-109564526D01*
X138540046Y-109564526D02*
X138203329Y-109901244D01*
X138203329Y-109901244D02*
X137496222Y-109194137D01*
X138775748Y-109328824D02*
X138068642Y-108621717D01*
X139179809Y-108924763D02*
X138472703Y-108823748D01*
X138472703Y-108217656D02*
X138472703Y-109025778D01*
D12*
X152310809Y-109180542D02*
X152260301Y-109197378D01*
X152260301Y-109197378D02*
X152209794Y-109247885D01*
X152209794Y-109247885D02*
X152176122Y-109315229D01*
X152176122Y-109315229D02*
X152176122Y-109382572D01*
X152176122Y-109382572D02*
X152192958Y-109433080D01*
X152192958Y-109433080D02*
X152243465Y-109517259D01*
X152243465Y-109517259D02*
X152293973Y-109567767D01*
X152293973Y-109567767D02*
X152378152Y-109618274D01*
X152378152Y-109618274D02*
X152428660Y-109635110D01*
X152428660Y-109635110D02*
X152496004Y-109635110D01*
X152496004Y-109635110D02*
X152563347Y-109601439D01*
X152563347Y-109601439D02*
X152597019Y-109567767D01*
X152597019Y-109567767D02*
X152630691Y-109500423D01*
X152630691Y-109500423D02*
X152630691Y-109466752D01*
X152630691Y-109466752D02*
X152512839Y-109348900D01*
X152512839Y-109348900D02*
X152445496Y-109416244D01*
X152815885Y-109348900D02*
X152462332Y-108995347D01*
X152462332Y-108995347D02*
X153017916Y-109146870D01*
X153017916Y-109146870D02*
X152664362Y-108793317D01*
X153186275Y-108978511D02*
X152832721Y-108624957D01*
X152832721Y-108624957D02*
X152916901Y-108540778D01*
X152916901Y-108540778D02*
X152984244Y-108507106D01*
X152984244Y-108507106D02*
X153051588Y-108507106D01*
X153051588Y-108507106D02*
X153102095Y-108523942D01*
X153102095Y-108523942D02*
X153186275Y-108574450D01*
X153186275Y-108574450D02*
X153236782Y-108624957D01*
X153236782Y-108624957D02*
X153287290Y-108709137D01*
X153287290Y-108709137D02*
X153304126Y-108759644D01*
X153304126Y-108759644D02*
X153304126Y-108826988D01*
X153304126Y-108826988D02*
X153270454Y-108894332D01*
X153270454Y-108894332D02*
X153186275Y-108978511D01*
X150523660Y-109702454D02*
X150591004Y-109668782D01*
X150591004Y-109668782D02*
X150675183Y-109584603D01*
X150675183Y-109584603D02*
X150692019Y-109534095D01*
X150692019Y-109534095D02*
X150692019Y-109500423D01*
X150692019Y-109500423D02*
X150675183Y-109449916D01*
X150675183Y-109449916D02*
X150641511Y-109416244D01*
X150641511Y-109416244D02*
X150591004Y-109399408D01*
X150591004Y-109399408D02*
X150557332Y-109399408D01*
X150557332Y-109399408D02*
X150506824Y-109416244D01*
X150506824Y-109416244D02*
X150422645Y-109466752D01*
X150422645Y-109466752D02*
X150372137Y-109483587D01*
X150372137Y-109483587D02*
X150338465Y-109483587D01*
X150338465Y-109483587D02*
X150287958Y-109466752D01*
X150287958Y-109466752D02*
X150254286Y-109433080D01*
X150254286Y-109433080D02*
X150237450Y-109382572D01*
X150237450Y-109382572D02*
X150237450Y-109348900D01*
X150237450Y-109348900D02*
X150254286Y-109298393D01*
X150254286Y-109298393D02*
X150338465Y-109214213D01*
X150338465Y-109214213D02*
X150405809Y-109180542D01*
X151062408Y-109130034D02*
X151062408Y-109163706D01*
X151062408Y-109163706D02*
X151028736Y-109231050D01*
X151028736Y-109231050D02*
X150995064Y-109264721D01*
X150995064Y-109264721D02*
X150927721Y-109298393D01*
X150927721Y-109298393D02*
X150860377Y-109298393D01*
X150860377Y-109298393D02*
X150809870Y-109281557D01*
X150809870Y-109281557D02*
X150725690Y-109231050D01*
X150725690Y-109231050D02*
X150675183Y-109180542D01*
X150675183Y-109180542D02*
X150624675Y-109096363D01*
X150624675Y-109096363D02*
X150607839Y-109045855D01*
X150607839Y-109045855D02*
X150607839Y-108978512D01*
X150607839Y-108978512D02*
X150641511Y-108911168D01*
X150641511Y-108911168D02*
X150675183Y-108877496D01*
X150675183Y-108877496D02*
X150742526Y-108843825D01*
X150742526Y-108843825D02*
X150776198Y-108843825D01*
X151415961Y-108843825D02*
X151247602Y-109012183D01*
X151247602Y-109012183D02*
X150894049Y-108658630D01*
D11*
X130299665Y-106374908D02*
X129592558Y-105667801D01*
X129592558Y-105667801D02*
X130703726Y-105970847D01*
X130703726Y-105970847D02*
X129996619Y-105263740D01*
X131444504Y-105230068D02*
X130872084Y-105129053D01*
X131040443Y-105634129D02*
X130333336Y-104927022D01*
X130333336Y-104927022D02*
X130602710Y-104657648D01*
X130602710Y-104657648D02*
X130703726Y-104623976D01*
X130703726Y-104623976D02*
X130771069Y-104623976D01*
X130771069Y-104623976D02*
X130872084Y-104657648D01*
X130872084Y-104657648D02*
X130973100Y-104758664D01*
X130973100Y-104758664D02*
X131006771Y-104859679D01*
X131006771Y-104859679D02*
X131006771Y-104927022D01*
X131006771Y-104927022D02*
X130973100Y-105028038D01*
X130973100Y-105028038D02*
X130703726Y-105297412D01*
X131680207Y-104927022D02*
X131814894Y-104859679D01*
X131814894Y-104859679D02*
X131983252Y-104691320D01*
X131983252Y-104691320D02*
X132016924Y-104590305D01*
X132016924Y-104590305D02*
X132016924Y-104522961D01*
X132016924Y-104522961D02*
X131983252Y-104421946D01*
X131983252Y-104421946D02*
X131915909Y-104354602D01*
X131915909Y-104354602D02*
X131814894Y-104320931D01*
X131814894Y-104320931D02*
X131747550Y-104320931D01*
X131747550Y-104320931D02*
X131646535Y-104354602D01*
X131646535Y-104354602D02*
X131478176Y-104455618D01*
X131478176Y-104455618D02*
X131377161Y-104489289D01*
X131377161Y-104489289D02*
X131309817Y-104489289D01*
X131309817Y-104489289D02*
X131208802Y-104455618D01*
X131208802Y-104455618D02*
X131141459Y-104388274D01*
X131141459Y-104388274D02*
X131107787Y-104287259D01*
X131107787Y-104287259D02*
X131107787Y-104219915D01*
X131107787Y-104219915D02*
X131141459Y-104118900D01*
X131141459Y-104118900D02*
X131309817Y-103950541D01*
X131309817Y-103950541D02*
X131444504Y-103883198D01*
X131612863Y-103647496D02*
X132016924Y-103243435D01*
X132522000Y-104152572D02*
X131814894Y-103445465D01*
X145764619Y-61558872D02*
X146240809Y-61558872D01*
X145669381Y-61844587D02*
X146002714Y-60844587D01*
X146002714Y-60844587D02*
X146336047Y-61844587D01*
X147240809Y-61844587D02*
X146907476Y-61368396D01*
X146669381Y-61844587D02*
X146669381Y-60844587D01*
X146669381Y-60844587D02*
X147050333Y-60844587D01*
X147050333Y-60844587D02*
X147145571Y-60892206D01*
X147145571Y-60892206D02*
X147193190Y-60939825D01*
X147193190Y-60939825D02*
X147240809Y-61035063D01*
X147240809Y-61035063D02*
X147240809Y-61177920D01*
X147240809Y-61177920D02*
X147193190Y-61273158D01*
X147193190Y-61273158D02*
X147145571Y-61320777D01*
X147145571Y-61320777D02*
X147050333Y-61368396D01*
X147050333Y-61368396D02*
X146669381Y-61368396D01*
X147669381Y-61320777D02*
X148002714Y-61320777D01*
X148145571Y-61844587D02*
X147669381Y-61844587D01*
X147669381Y-61844587D02*
X147669381Y-60844587D01*
X147669381Y-60844587D02*
X148145571Y-60844587D01*
X148526524Y-61796968D02*
X148669381Y-61844587D01*
X148669381Y-61844587D02*
X148907476Y-61844587D01*
X148907476Y-61844587D02*
X149002714Y-61796968D01*
X149002714Y-61796968D02*
X149050333Y-61749348D01*
X149050333Y-61749348D02*
X149097952Y-61654110D01*
X149097952Y-61654110D02*
X149097952Y-61558872D01*
X149097952Y-61558872D02*
X149050333Y-61463634D01*
X149050333Y-61463634D02*
X149002714Y-61416015D01*
X149002714Y-61416015D02*
X148907476Y-61368396D01*
X148907476Y-61368396D02*
X148717000Y-61320777D01*
X148717000Y-61320777D02*
X148621762Y-61273158D01*
X148621762Y-61273158D02*
X148574143Y-61225539D01*
X148574143Y-61225539D02*
X148526524Y-61130301D01*
X148526524Y-61130301D02*
X148526524Y-61035063D01*
X148526524Y-61035063D02*
X148574143Y-60939825D01*
X148574143Y-60939825D02*
X148621762Y-60892206D01*
X148621762Y-60892206D02*
X148717000Y-60844587D01*
X148717000Y-60844587D02*
X148955095Y-60844587D01*
X148955095Y-60844587D02*
X149097952Y-60892206D01*
X150145572Y-60844587D02*
X150478905Y-61844587D01*
X150478905Y-61844587D02*
X150812238Y-60844587D01*
X151097953Y-60939825D02*
X151145572Y-60892206D01*
X151145572Y-60892206D02*
X151240810Y-60844587D01*
X151240810Y-60844587D02*
X151478905Y-60844587D01*
X151478905Y-60844587D02*
X151574143Y-60892206D01*
X151574143Y-60892206D02*
X151621762Y-60939825D01*
X151621762Y-60939825D02*
X151669381Y-61035063D01*
X151669381Y-61035063D02*
X151669381Y-61130301D01*
X151669381Y-61130301D02*
X151621762Y-61273158D01*
X151621762Y-61273158D02*
X151050334Y-61844587D01*
X151050334Y-61844587D02*
X151669381Y-61844587D01*
X146883666Y-63454531D02*
X146883666Y-62454531D01*
X146883666Y-62454531D02*
X147216999Y-63168816D01*
X147216999Y-63168816D02*
X147550332Y-62454531D01*
X147550332Y-62454531D02*
X147550332Y-63454531D01*
X148169380Y-63454531D02*
X148074142Y-63406912D01*
X148074142Y-63406912D02*
X148026523Y-63359292D01*
X148026523Y-63359292D02*
X147978904Y-63264054D01*
X147978904Y-63264054D02*
X147978904Y-62978340D01*
X147978904Y-62978340D02*
X148026523Y-62883102D01*
X148026523Y-62883102D02*
X148074142Y-62835483D01*
X148074142Y-62835483D02*
X148169380Y-62787864D01*
X148169380Y-62787864D02*
X148312237Y-62787864D01*
X148312237Y-62787864D02*
X148407475Y-62835483D01*
X148407475Y-62835483D02*
X148455094Y-62883102D01*
X148455094Y-62883102D02*
X148502713Y-62978340D01*
X148502713Y-62978340D02*
X148502713Y-63264054D01*
X148502713Y-63264054D02*
X148455094Y-63359292D01*
X148455094Y-63359292D02*
X148407475Y-63406912D01*
X148407475Y-63406912D02*
X148312237Y-63454531D01*
X148312237Y-63454531D02*
X148169380Y-63454531D01*
X148788428Y-62787864D02*
X149169380Y-62787864D01*
X148931285Y-62454531D02*
X148931285Y-63311673D01*
X148931285Y-63311673D02*
X148978904Y-63406912D01*
X148978904Y-63406912D02*
X149074142Y-63454531D01*
X149074142Y-63454531D02*
X149169380Y-63454531D01*
X149645571Y-63454531D02*
X149550333Y-63406912D01*
X149550333Y-63406912D02*
X149502714Y-63359292D01*
X149502714Y-63359292D02*
X149455095Y-63264054D01*
X149455095Y-63264054D02*
X149455095Y-62978340D01*
X149455095Y-62978340D02*
X149502714Y-62883102D01*
X149502714Y-62883102D02*
X149550333Y-62835483D01*
X149550333Y-62835483D02*
X149645571Y-62787864D01*
X149645571Y-62787864D02*
X149788428Y-62787864D01*
X149788428Y-62787864D02*
X149883666Y-62835483D01*
X149883666Y-62835483D02*
X149931285Y-62883102D01*
X149931285Y-62883102D02*
X149978904Y-62978340D01*
X149978904Y-62978340D02*
X149978904Y-63264054D01*
X149978904Y-63264054D02*
X149931285Y-63359292D01*
X149931285Y-63359292D02*
X149883666Y-63406912D01*
X149883666Y-63406912D02*
X149788428Y-63454531D01*
X149788428Y-63454531D02*
X149645571Y-63454531D01*
X150407476Y-63454531D02*
X150407476Y-62787864D01*
X150407476Y-62978340D02*
X150455095Y-62883102D01*
X150455095Y-62883102D02*
X150502714Y-62835483D01*
X150502714Y-62835483D02*
X150597952Y-62787864D01*
X150597952Y-62787864D02*
X150693190Y-62787864D01*
X146740809Y-65064475D02*
X146740809Y-64064475D01*
X146740809Y-64064475D02*
X147121761Y-64064475D01*
X147121761Y-64064475D02*
X147216999Y-64112094D01*
X147216999Y-64112094D02*
X147264618Y-64159713D01*
X147264618Y-64159713D02*
X147312237Y-64254951D01*
X147312237Y-64254951D02*
X147312237Y-64397808D01*
X147312237Y-64397808D02*
X147264618Y-64493046D01*
X147264618Y-64493046D02*
X147216999Y-64540665D01*
X147216999Y-64540665D02*
X147121761Y-64588284D01*
X147121761Y-64588284D02*
X146740809Y-64588284D01*
X147883666Y-65064475D02*
X147788428Y-65016856D01*
X147788428Y-65016856D02*
X147740809Y-64969236D01*
X147740809Y-64969236D02*
X147693190Y-64873998D01*
X147693190Y-64873998D02*
X147693190Y-64588284D01*
X147693190Y-64588284D02*
X147740809Y-64493046D01*
X147740809Y-64493046D02*
X147788428Y-64445427D01*
X147788428Y-64445427D02*
X147883666Y-64397808D01*
X147883666Y-64397808D02*
X148026523Y-64397808D01*
X148026523Y-64397808D02*
X148121761Y-64445427D01*
X148121761Y-64445427D02*
X148169380Y-64493046D01*
X148169380Y-64493046D02*
X148216999Y-64588284D01*
X148216999Y-64588284D02*
X148216999Y-64873998D01*
X148216999Y-64873998D02*
X148169380Y-64969236D01*
X148169380Y-64969236D02*
X148121761Y-65016856D01*
X148121761Y-65016856D02*
X148026523Y-65064475D01*
X148026523Y-65064475D02*
X147883666Y-65064475D01*
X148550333Y-64397808D02*
X148740809Y-65064475D01*
X148740809Y-65064475D02*
X148931285Y-64588284D01*
X148931285Y-64588284D02*
X149121761Y-65064475D01*
X149121761Y-65064475D02*
X149312237Y-64397808D01*
X150074142Y-65016856D02*
X149978904Y-65064475D01*
X149978904Y-65064475D02*
X149788428Y-65064475D01*
X149788428Y-65064475D02*
X149693190Y-65016856D01*
X149693190Y-65016856D02*
X149645571Y-64921617D01*
X149645571Y-64921617D02*
X149645571Y-64540665D01*
X149645571Y-64540665D02*
X149693190Y-64445427D01*
X149693190Y-64445427D02*
X149788428Y-64397808D01*
X149788428Y-64397808D02*
X149978904Y-64397808D01*
X149978904Y-64397808D02*
X150074142Y-64445427D01*
X150074142Y-64445427D02*
X150121761Y-64540665D01*
X150121761Y-64540665D02*
X150121761Y-64635903D01*
X150121761Y-64635903D02*
X149645571Y-64731141D01*
X150550333Y-65064475D02*
X150550333Y-64397808D01*
X150550333Y-64588284D02*
X150597952Y-64493046D01*
X150597952Y-64493046D02*
X150645571Y-64445427D01*
X150645571Y-64445427D02*
X150740809Y-64397808D01*
X150740809Y-64397808D02*
X150836047Y-64397808D01*
X147121761Y-66150609D02*
X147264618Y-66198228D01*
X147264618Y-66198228D02*
X147312237Y-66245847D01*
X147312237Y-66245847D02*
X147359856Y-66341085D01*
X147359856Y-66341085D02*
X147359856Y-66483942D01*
X147359856Y-66483942D02*
X147312237Y-66579180D01*
X147312237Y-66579180D02*
X147264618Y-66626800D01*
X147264618Y-66626800D02*
X147169380Y-66674419D01*
X147169380Y-66674419D02*
X146788428Y-66674419D01*
X146788428Y-66674419D02*
X146788428Y-65674419D01*
X146788428Y-65674419D02*
X147121761Y-65674419D01*
X147121761Y-65674419D02*
X147216999Y-65722038D01*
X147216999Y-65722038D02*
X147264618Y-65769657D01*
X147264618Y-65769657D02*
X147312237Y-65864895D01*
X147312237Y-65864895D02*
X147312237Y-65960133D01*
X147312237Y-65960133D02*
X147264618Y-66055371D01*
X147264618Y-66055371D02*
X147216999Y-66102990D01*
X147216999Y-66102990D02*
X147121761Y-66150609D01*
X147121761Y-66150609D02*
X146788428Y-66150609D01*
X147931285Y-66674419D02*
X147836047Y-66626800D01*
X147836047Y-66626800D02*
X147788428Y-66579180D01*
X147788428Y-66579180D02*
X147740809Y-66483942D01*
X147740809Y-66483942D02*
X147740809Y-66198228D01*
X147740809Y-66198228D02*
X147788428Y-66102990D01*
X147788428Y-66102990D02*
X147836047Y-66055371D01*
X147836047Y-66055371D02*
X147931285Y-66007752D01*
X147931285Y-66007752D02*
X148074142Y-66007752D01*
X148074142Y-66007752D02*
X148169380Y-66055371D01*
X148169380Y-66055371D02*
X148216999Y-66102990D01*
X148216999Y-66102990D02*
X148264618Y-66198228D01*
X148264618Y-66198228D02*
X148264618Y-66483942D01*
X148264618Y-66483942D02*
X148216999Y-66579180D01*
X148216999Y-66579180D02*
X148169380Y-66626800D01*
X148169380Y-66626800D02*
X148074142Y-66674419D01*
X148074142Y-66674419D02*
X147931285Y-66674419D01*
X149121761Y-66674419D02*
X149121761Y-66150609D01*
X149121761Y-66150609D02*
X149074142Y-66055371D01*
X149074142Y-66055371D02*
X148978904Y-66007752D01*
X148978904Y-66007752D02*
X148788428Y-66007752D01*
X148788428Y-66007752D02*
X148693190Y-66055371D01*
X149121761Y-66626800D02*
X149026523Y-66674419D01*
X149026523Y-66674419D02*
X148788428Y-66674419D01*
X148788428Y-66674419D02*
X148693190Y-66626800D01*
X148693190Y-66626800D02*
X148645571Y-66531561D01*
X148645571Y-66531561D02*
X148645571Y-66436323D01*
X148645571Y-66436323D02*
X148693190Y-66341085D01*
X148693190Y-66341085D02*
X148788428Y-66293466D01*
X148788428Y-66293466D02*
X149026523Y-66293466D01*
X149026523Y-66293466D02*
X149121761Y-66245847D01*
X149597952Y-66674419D02*
X149597952Y-66007752D01*
X149597952Y-66198228D02*
X149645571Y-66102990D01*
X149645571Y-66102990D02*
X149693190Y-66055371D01*
X149693190Y-66055371D02*
X149788428Y-66007752D01*
X149788428Y-66007752D02*
X149883666Y-66007752D01*
X150645571Y-66674419D02*
X150645571Y-65674419D01*
X150645571Y-66626800D02*
X150550333Y-66674419D01*
X150550333Y-66674419D02*
X150359857Y-66674419D01*
X150359857Y-66674419D02*
X150264619Y-66626800D01*
X150264619Y-66626800D02*
X150217000Y-66579180D01*
X150217000Y-66579180D02*
X150169381Y-66483942D01*
X150169381Y-66483942D02*
X150169381Y-66198228D01*
X150169381Y-66198228D02*
X150217000Y-66102990D01*
X150217000Y-66102990D02*
X150264619Y-66055371D01*
X150264619Y-66055371D02*
X150359857Y-66007752D01*
X150359857Y-66007752D02*
X150550333Y-66007752D01*
X150550333Y-66007752D02*
X150645571Y-66055371D01*
D12*
X148364660Y-109702454D02*
X148432004Y-109668782D01*
X148432004Y-109668782D02*
X148516183Y-109584603D01*
X148516183Y-109584603D02*
X148533019Y-109534095D01*
X148533019Y-109534095D02*
X148533019Y-109500423D01*
X148533019Y-109500423D02*
X148516183Y-109449916D01*
X148516183Y-109449916D02*
X148482511Y-109416244D01*
X148482511Y-109416244D02*
X148432004Y-109399408D01*
X148432004Y-109399408D02*
X148398332Y-109399408D01*
X148398332Y-109399408D02*
X148347824Y-109416244D01*
X148347824Y-109416244D02*
X148263645Y-109466752D01*
X148263645Y-109466752D02*
X148213137Y-109483587D01*
X148213137Y-109483587D02*
X148179465Y-109483587D01*
X148179465Y-109483587D02*
X148128958Y-109466752D01*
X148128958Y-109466752D02*
X148095286Y-109433080D01*
X148095286Y-109433080D02*
X148078450Y-109382572D01*
X148078450Y-109382572D02*
X148078450Y-109348900D01*
X148078450Y-109348900D02*
X148095286Y-109298393D01*
X148095286Y-109298393D02*
X148179465Y-109214213D01*
X148179465Y-109214213D02*
X148246809Y-109180542D01*
X148398331Y-109062691D02*
X148398331Y-109029019D01*
X148398331Y-109029019D02*
X148415167Y-108978512D01*
X148415167Y-108978512D02*
X148499347Y-108894332D01*
X148499347Y-108894332D02*
X148549854Y-108877496D01*
X148549854Y-108877496D02*
X148583526Y-108877496D01*
X148583526Y-108877496D02*
X148634034Y-108894332D01*
X148634034Y-108894332D02*
X148667705Y-108928004D01*
X148667705Y-108928004D02*
X148701377Y-108995347D01*
X148701377Y-108995347D02*
X148701377Y-109399408D01*
X148701377Y-109399408D02*
X148920244Y-109180542D01*
D10*
X166600812Y-105845076D02*
X167015036Y-105385034D01*
X167015036Y-105385034D02*
X167075095Y-105887656D01*
X167075095Y-105887656D02*
X167170685Y-105781492D01*
X167170685Y-105781492D02*
X167269800Y-105742580D01*
X167269800Y-105742580D02*
X167337051Y-105739055D01*
X167337051Y-105739055D02*
X167439690Y-105767394D01*
X167439690Y-105767394D02*
X167616629Y-105926711D01*
X167616629Y-105926711D02*
X167655542Y-106025826D01*
X167655542Y-106025826D02*
X167659066Y-106093077D01*
X167659066Y-106093077D02*
X167630727Y-106195716D01*
X167630727Y-106195716D02*
X167439547Y-106408043D01*
X167439547Y-106408043D02*
X167340432Y-106446955D01*
X167340432Y-106446955D02*
X167273181Y-106450480D01*
X167206216Y-105172707D02*
X168172404Y-105594123D01*
X168172404Y-105594123D02*
X167652303Y-104677277D01*
X167811620Y-104500338D02*
X168225844Y-104040296D01*
X168225844Y-104040296D02*
X168285903Y-104542917D01*
X168285903Y-104542917D02*
X168381493Y-104436754D01*
X168381493Y-104436754D02*
X168480608Y-104397842D01*
X168480608Y-104397842D02*
X168547859Y-104394317D01*
X168547859Y-104394317D02*
X168650498Y-104422656D01*
X168650498Y-104422656D02*
X168827437Y-104581973D01*
X168827437Y-104581973D02*
X168866350Y-104681087D01*
X168866350Y-104681087D02*
X168869874Y-104748339D01*
X168869874Y-104748339D02*
X168841535Y-104850978D01*
X168841535Y-104850978D02*
X168650355Y-105063305D01*
X168650355Y-105063305D02*
X168551240Y-105102217D01*
X168551240Y-105102217D02*
X168483989Y-105105742D01*
D11*
X133933619Y-109141083D02*
X133832604Y-109174755D01*
X133832604Y-109174755D02*
X133731588Y-109275770D01*
X133731588Y-109275770D02*
X133664245Y-109410457D01*
X133664245Y-109410457D02*
X133664245Y-109545144D01*
X133664245Y-109545144D02*
X133697917Y-109646160D01*
X133697917Y-109646160D02*
X133798932Y-109814518D01*
X133798932Y-109814518D02*
X133899947Y-109915534D01*
X133899947Y-109915534D02*
X134068306Y-110016549D01*
X134068306Y-110016549D02*
X134169321Y-110050221D01*
X134169321Y-110050221D02*
X134304008Y-110050221D01*
X134304008Y-110050221D02*
X134438695Y-109982877D01*
X134438695Y-109982877D02*
X134506039Y-109915534D01*
X134506039Y-109915534D02*
X134573382Y-109780847D01*
X134573382Y-109780847D02*
X134573382Y-109713503D01*
X134573382Y-109713503D02*
X134337680Y-109477801D01*
X134337680Y-109477801D02*
X134202993Y-109612488D01*
X134943772Y-109477801D02*
X134236665Y-108770694D01*
X134236665Y-108770694D02*
X135347833Y-109073740D01*
X135347833Y-109073740D02*
X134640726Y-108366633D01*
X135684550Y-108737022D02*
X134977443Y-108029915D01*
X134977443Y-108029915D02*
X135145802Y-107861557D01*
X135145802Y-107861557D02*
X135280489Y-107794213D01*
X135280489Y-107794213D02*
X135415176Y-107794213D01*
X135415176Y-107794213D02*
X135516191Y-107827885D01*
X135516191Y-107827885D02*
X135684550Y-107928900D01*
X135684550Y-107928900D02*
X135785565Y-108029915D01*
X135785565Y-108029915D02*
X135886581Y-108198274D01*
X135886581Y-108198274D02*
X135920252Y-108299289D01*
X135920252Y-108299289D02*
X135920252Y-108433976D01*
X135920252Y-108433976D02*
X135852909Y-108568664D01*
X135852909Y-108568664D02*
X135684550Y-108737022D01*
D12*
X149380660Y-109702454D02*
X149448004Y-109668782D01*
X149448004Y-109668782D02*
X149532183Y-109584603D01*
X149532183Y-109584603D02*
X149549019Y-109534095D01*
X149549019Y-109534095D02*
X149549019Y-109500423D01*
X149549019Y-109500423D02*
X149532183Y-109449916D01*
X149532183Y-109449916D02*
X149498511Y-109416244D01*
X149498511Y-109416244D02*
X149448004Y-109399408D01*
X149448004Y-109399408D02*
X149414332Y-109399408D01*
X149414332Y-109399408D02*
X149363824Y-109416244D01*
X149363824Y-109416244D02*
X149279645Y-109466752D01*
X149279645Y-109466752D02*
X149229137Y-109483587D01*
X149229137Y-109483587D02*
X149195465Y-109483587D01*
X149195465Y-109483587D02*
X149144958Y-109466752D01*
X149144958Y-109466752D02*
X149111286Y-109433080D01*
X149111286Y-109433080D02*
X149094450Y-109382572D01*
X149094450Y-109382572D02*
X149094450Y-109348900D01*
X149094450Y-109348900D02*
X149111286Y-109298393D01*
X149111286Y-109298393D02*
X149195465Y-109214213D01*
X149195465Y-109214213D02*
X149262809Y-109180542D01*
X149751049Y-109365737D02*
X149397496Y-109012183D01*
X149397496Y-109012183D02*
X149481675Y-108928004D01*
X149481675Y-108928004D02*
X149549018Y-108894332D01*
X149549018Y-108894332D02*
X149616362Y-108894332D01*
X149616362Y-108894332D02*
X149666870Y-108911168D01*
X149666870Y-108911168D02*
X149751049Y-108961676D01*
X149751049Y-108961676D02*
X149801557Y-109012183D01*
X149801557Y-109012183D02*
X149852064Y-109096363D01*
X149852064Y-109096363D02*
X149868900Y-109146870D01*
X149868900Y-109146870D02*
X149868900Y-109214214D01*
X149868900Y-109214214D02*
X149835228Y-109281557D01*
X149835228Y-109281557D02*
X149751049Y-109365737D01*
X149986751Y-108928004D02*
X150155110Y-108759645D01*
X150054095Y-109062691D02*
X149818392Y-108591286D01*
X149818392Y-108591286D02*
X150289797Y-108826989D01*
D13*
X138056579Y-87637857D02*
X138104199Y-87685476D01*
X138104199Y-87685476D02*
X138151818Y-87828333D01*
X138151818Y-87828333D02*
X138151818Y-87923571D01*
X138151818Y-87923571D02*
X138104199Y-88066428D01*
X138104199Y-88066428D02*
X138008960Y-88161666D01*
X138008960Y-88161666D02*
X137913722Y-88209285D01*
X137913722Y-88209285D02*
X137723246Y-88256904D01*
X137723246Y-88256904D02*
X137580389Y-88256904D01*
X137580389Y-88256904D02*
X137389913Y-88209285D01*
X137389913Y-88209285D02*
X137294675Y-88161666D01*
X137294675Y-88161666D02*
X137199437Y-88066428D01*
X137199437Y-88066428D02*
X137151818Y-87923571D01*
X137151818Y-87923571D02*
X137151818Y-87828333D01*
X137151818Y-87828333D02*
X137199437Y-87685476D01*
X137199437Y-87685476D02*
X137247056Y-87637857D01*
X138151818Y-86685476D02*
X138151818Y-87256904D01*
X138151818Y-86971190D02*
X137151818Y-86971190D01*
X137151818Y-86971190D02*
X137294675Y-87066428D01*
X137294675Y-87066428D02*
X137389913Y-87161666D01*
X137389913Y-87161666D02*
X137437532Y-87256904D01*
X137485151Y-85828333D02*
X138151818Y-85828333D01*
X137104199Y-86066428D02*
X137818484Y-86304523D01*
X137818484Y-86304523D02*
X137818484Y-85685476D01*
D14*
%TO.C,C14*%
X136752000Y-86733747D02*
X136752000Y-87256253D01*
X135282000Y-86733747D02*
X135282000Y-87256253D01*
%TO.C,C4*%
X143966693Y-104724810D02*
X143814190Y-104572307D01*
X144475810Y-104215693D02*
X144323307Y-104063190D01*
%TO.C,R21*%
X157481000Y-106325641D02*
X157481000Y-106018359D01*
X158241000Y-106325641D02*
X158241000Y-106018359D01*
%TO.C,Q13*%
X130242826Y-77585000D02*
X129783207Y-77125380D01*
X130242826Y-77585000D02*
X130702446Y-78044619D01*
X132449000Y-75378826D02*
X131989380Y-74919207D01*
X132449000Y-75378826D02*
X132908619Y-75838446D01*
X131036554Y-78774707D02*
X130697143Y-78435295D01*
X131100193Y-78371656D01*
X131036554Y-78774707D01*
G36*
X131036554Y-78774707D02*
G01*
X130697143Y-78435295D01*
X131100193Y-78371656D01*
X131036554Y-78774707D01*
G37*
%TO.C,D2*%
X158144000Y-113349499D02*
X158144000Y-115634499D01*
X158144000Y-115634499D02*
X159614000Y-115634499D01*
X159614000Y-115634499D02*
X159614000Y-113349499D01*
%TO.C,R3*%
X157100000Y-111352359D02*
X157100000Y-111659641D01*
X157860000Y-111352359D02*
X157860000Y-111659641D01*
%TO.C,FB1*%
X154904221Y-107948000D02*
X155229779Y-107948000D01*
X154904221Y-108968000D02*
X155229779Y-108968000D01*
%TO.C,R1*%
X137507940Y-107826659D02*
X137290659Y-108043940D01*
X138045341Y-108364060D02*
X137828060Y-108581341D01*
%TO.C,C7*%
X154324164Y-100351000D02*
X154539836Y-100351000D01*
X154324164Y-101071000D02*
X154539836Y-101071000D01*
%TO.C,U1*%
X145723570Y-106037000D02*
X145393570Y-106277000D01*
X145393570Y-105797000D01*
X145723570Y-106037000D01*
G36*
X145723570Y-106037000D02*
G01*
X145393570Y-106277000D01*
X145393570Y-105797000D01*
X145723570Y-106037000D01*
G37*
X152943570Y-106037000D02*
X152468570Y-106037000D01*
X152943570Y-105562000D02*
X152943570Y-106037000D01*
X152943570Y-99292000D02*
X152943570Y-98817000D01*
X152943570Y-98817000D02*
X152468570Y-98817000D01*
X146198570Y-106037000D02*
X145963570Y-106037000D01*
X145723570Y-105562000D02*
X145723570Y-105737000D01*
X145723570Y-99292000D02*
X145723570Y-98817000D01*
X145723570Y-98817000D02*
X146198570Y-98817000D01*
%TO.C,D11*%
X157434781Y-88934329D02*
X161330940Y-92830487D01*
X157434781Y-88934329D02*
X155101329Y-91267781D01*
X155101329Y-91267781D02*
X158997487Y-95163940D01*
%TO.C,J4*%
X123890624Y-71228580D02*
X126891420Y-68010624D01*
X126891420Y-68010624D02*
X130109376Y-71011420D01*
X127108580Y-74229376D02*
X123890624Y-71228580D01*
X130109376Y-71011420D02*
X127108580Y-74229376D01*
%TO.C,D3*%
X159922000Y-113349499D02*
X159922000Y-115634499D01*
X159922000Y-115634499D02*
X161392000Y-115634499D01*
X161392000Y-115634499D02*
X161392000Y-113349499D01*
%TO.C,J5*%
X155758000Y-114748000D02*
X155758000Y-114448000D01*
X155758000Y-112628000D02*
X155758000Y-110578000D01*
X155758000Y-110578000D02*
X154988000Y-110578000D01*
X154988000Y-110928000D02*
X153008000Y-110928000D01*
X154988000Y-110578000D02*
X154988000Y-110928000D01*
X154958000Y-116048000D02*
X154958000Y-114748000D01*
X154958000Y-114748000D02*
X155758000Y-114748000D01*
X145088000Y-110928000D02*
X143108000Y-110928000D01*
X145088000Y-110338000D02*
X145088000Y-110928000D01*
X143138000Y-116048000D02*
X154958000Y-116048000D01*
X143138000Y-114748000D02*
X143138000Y-116048000D01*
X143108000Y-110928000D02*
X143108000Y-110578000D01*
X143108000Y-110578000D02*
X142338000Y-110578000D01*
X142338000Y-114748000D02*
X143138000Y-114748000D01*
X142338000Y-114448000D02*
X142338000Y-114748000D01*
X142338000Y-110578000D02*
X142338000Y-112628000D01*
%TO.C,R24*%
X155728641Y-63755000D02*
X155421359Y-63755000D01*
X155728641Y-64515000D02*
X155421359Y-64515000D01*
%TO.C,C11*%
X156739000Y-108477164D02*
X156739000Y-108692836D01*
X157459000Y-108477164D02*
X157459000Y-108692836D01*
%TO.C,C2*%
X143712693Y-105994810D02*
X143560190Y-105842307D01*
X144221810Y-105485693D02*
X144069307Y-105333190D01*
%TO.C,R8*%
X161674000Y-115039639D02*
X161674000Y-114732357D01*
X162434000Y-115039639D02*
X162434000Y-114732357D01*
%TO.C,C15*%
X151812164Y-86508000D02*
X152027836Y-86508000D01*
X151812164Y-87228000D02*
X152027836Y-87228000D01*
%TO.C,Q4*%
X141060999Y-65532000D02*
X141061000Y-64882000D01*
X141060999Y-65532000D02*
X141061000Y-66182000D01*
X144181001Y-65532000D02*
X144181000Y-64882000D01*
X144181001Y-65532000D02*
X144181000Y-66182000D01*
X144460999Y-64609500D02*
X144131000Y-64369500D01*
X144461000Y-64129500D01*
X144460999Y-64609500D01*
G36*
X144460999Y-64609500D02*
G01*
X144131000Y-64369500D01*
X144461000Y-64129500D01*
X144460999Y-64609500D01*
G37*
%TO.C,Q5*%
X168480500Y-75594999D02*
X167830500Y-75595000D01*
X168480500Y-75594999D02*
X169130500Y-75595000D01*
X168480500Y-78715001D02*
X167830500Y-78715000D01*
X168480500Y-78715001D02*
X169130500Y-78715000D01*
X169883000Y-78995000D02*
X169403000Y-78994999D01*
X169643000Y-78665000D01*
X169883000Y-78995000D01*
G36*
X169883000Y-78995000D02*
G01*
X169403000Y-78994999D01*
X169643000Y-78665000D01*
X169883000Y-78995000D01*
G37*
%TO.C,R10*%
X136145000Y-96368358D02*
X136145000Y-96675640D01*
X136905000Y-96368358D02*
X136905000Y-96675640D01*
%TO.C,R9*%
X136145000Y-94641641D02*
X136145000Y-94334359D01*
X136905000Y-94641641D02*
X136905000Y-94334359D01*
%TO.C,J2*%
X126371045Y-107296949D02*
X127311497Y-106356497D01*
X127311497Y-108237401D02*
X126371045Y-107296949D01*
X128209523Y-109135427D02*
X130090427Y-107254523D01*
X128209523Y-109135427D02*
X133640103Y-114566007D01*
X130090427Y-107254523D02*
X135521007Y-112685103D01*
X133640103Y-114566007D02*
X135521007Y-112685103D01*
%TO.C,J3*%
X127706308Y-67219968D02*
X131027032Y-64333308D01*
X130592968Y-70540692D02*
X127706308Y-67219968D01*
X131027032Y-64333308D02*
X133913692Y-67654032D01*
X133913692Y-67654032D02*
X130592968Y-70540692D01*
%TO.C,R2*%
X158116000Y-111659641D02*
X158116000Y-111352359D01*
X158876000Y-111659641D02*
X158876000Y-111352359D01*
%TO.C,R17*%
X170562000Y-77240642D02*
X170562000Y-76933360D01*
X171322000Y-77240642D02*
X171322000Y-76933360D01*
%TO.C,C1*%
X146450164Y-96414000D02*
X146665836Y-96414000D01*
X146450164Y-97134000D02*
X146665836Y-97134000D01*
%TO.C,L1*%
X161532000Y-85164001D02*
X158532000Y-85164001D01*
X161532000Y-72564001D02*
X161532000Y-85164001D01*
X158532000Y-72564001D02*
X161532000Y-72564001D01*
X151932000Y-85164001D02*
X148932000Y-85164001D01*
X148932000Y-85164001D02*
X148932000Y-72564001D01*
X148932000Y-72564001D02*
X151932000Y-72564001D01*
%TO.C,Q10*%
X134063500Y-95722000D02*
X133413500Y-95722000D01*
X134063500Y-95722000D02*
X134713500Y-95722000D01*
X134063500Y-98842000D02*
X133413500Y-98842000D01*
X134063500Y-98842000D02*
X134713500Y-98842000D01*
X132901000Y-95772000D02*
X132661000Y-95442000D01*
X133141000Y-95442000D01*
X132901000Y-95772000D01*
G36*
X132901000Y-95772000D02*
G01*
X132661000Y-95442000D01*
X133141000Y-95442000D01*
X132901000Y-95772000D01*
G37*
%TO.C,R22*%
X157481000Y-101192359D02*
X157481000Y-101499641D01*
X158241000Y-101192359D02*
X158241000Y-101499641D01*
%TO.C,R5*%
X137923000Y-114453641D02*
X137923000Y-114146359D01*
X138683000Y-114453641D02*
X138683000Y-114146359D01*
%TO.C,U3*%
X137567000Y-81799000D02*
X137567000Y-83299000D01*
X137567000Y-83299000D02*
X138517000Y-83299000D01*
X147967000Y-81799000D02*
X147967000Y-83299000D01*
X147967000Y-83299000D02*
X147017000Y-83299000D01*
X138517000Y-85861500D02*
X138187000Y-86101500D01*
X138187000Y-85621500D01*
X138517000Y-85861500D01*
G36*
X138517000Y-85861500D02*
G01*
X138187000Y-86101500D01*
X138187000Y-85621500D01*
X138517000Y-85861500D01*
G37*
%TO.C,Q11*%
X160352500Y-103529999D02*
X159702500Y-103530000D01*
X160352500Y-103529999D02*
X161002500Y-103530000D01*
X160352500Y-106650001D02*
X159702500Y-106650000D01*
X160352500Y-106650001D02*
X161002500Y-106650000D01*
X161755000Y-106930000D02*
X161275000Y-106929999D01*
X161515000Y-106600000D01*
X161755000Y-106930000D01*
G36*
X161755000Y-106930000D02*
G01*
X161275000Y-106929999D01*
X161515000Y-106600000D01*
X161755000Y-106930000D01*
G37*
%TO.C,R11*%
X155957000Y-101954359D02*
X155957000Y-102261641D01*
X156717000Y-101954359D02*
X156717000Y-102261641D01*
%TO.C,J10*%
X167199993Y-107731832D02*
X170144168Y-104461993D01*
X170144168Y-104461993D02*
X173414007Y-107406168D01*
X170469832Y-110676007D02*
X167199993Y-107731832D01*
X173414007Y-107406168D02*
X170469832Y-110676007D01*
%TO.C,Q12*%
X160322501Y-99912999D02*
X159672501Y-99913000D01*
X160322501Y-99912999D02*
X160972501Y-99913000D01*
X160322501Y-103033001D02*
X159672501Y-103033000D01*
X160322501Y-103033001D02*
X160972501Y-103033000D01*
X161725001Y-103313000D02*
X161245001Y-103312999D01*
X161485001Y-102983000D01*
X161725001Y-103313000D01*
G36*
X161725001Y-103313000D02*
G01*
X161245001Y-103312999D01*
X161485001Y-102983000D01*
X161725001Y-103313000D01*
G37*
%TO.C,C3*%
X152419164Y-106828000D02*
X152634836Y-106828000D01*
X152419164Y-107548000D02*
X152634836Y-107548000D01*
%TO.C,Y1*%
X141834345Y-109338163D02*
X144167798Y-107004710D01*
X144167798Y-107004710D02*
X141339371Y-104176283D01*
%TO.C,R6*%
X142647641Y-62690499D02*
X142340359Y-62690499D01*
X142647641Y-63450499D02*
X142340359Y-63450499D01*
%TO.C,C8*%
X146450164Y-97430000D02*
X146665836Y-97430000D01*
X146450164Y-98150000D02*
X146665836Y-98150000D01*
%TO.C,Q8*%
X134063500Y-92166000D02*
X133413500Y-92166000D01*
X134063500Y-92166000D02*
X134713500Y-92166000D01*
X134063500Y-95286000D02*
X133413500Y-95286000D01*
X134063500Y-95286000D02*
X134713500Y-95286000D01*
X132901000Y-92216000D02*
X132661000Y-91886000D01*
X133141000Y-91886000D01*
X132901000Y-92216000D01*
G36*
X132901000Y-92216000D02*
G01*
X132661000Y-91886000D01*
X133141000Y-91886000D01*
X132901000Y-92216000D01*
G37*
%TO.C,C5*%
X138861190Y-105231693D02*
X139013693Y-105079190D01*
X139370307Y-105740810D02*
X139522810Y-105588307D01*
%TO.C,R7*%
X159360359Y-115775998D02*
X159667641Y-115775998D01*
X159360359Y-116535998D02*
X159667641Y-116535998D01*
%TO.C,C9*%
X150729836Y-106828000D02*
X150514164Y-106828000D01*
X150729836Y-107548000D02*
X150514164Y-107548000D01*
%TO.C,C10*%
X150856836Y-107844000D02*
X150641164Y-107844000D01*
X150856836Y-108564000D02*
X150641164Y-108564000D01*
D15*
%TO.C,J6*%
X129491940Y-78180600D02*
G75*
G02*
X128729952Y-78180600I-380994J0D01*
G01*
X128729952Y-78180600D02*
G75*
G02*
X129491940Y-78180600I380994J0D01*
G01*
D16*
X130687953Y-82850054D02*
X130687944Y-79958595D01*
X130687951Y-85350056D02*
X130687943Y-84810934D01*
X130687947Y-100202395D02*
X130687940Y-97310934D01*
X130687947Y-87850055D02*
X130687946Y-87310933D01*
X130687946Y-92850054D02*
X130687944Y-92310937D01*
X130687945Y-95350051D02*
X130687943Y-94810937D01*
X130687944Y-79958595D02*
X124599489Y-79958601D01*
X130687943Y-90350060D02*
X130687942Y-89810939D01*
X124599487Y-100202398D02*
X130687947Y-100202395D01*
X120426343Y-81864939D02*
X120426348Y-98296059D01*
D14*
%TO.C,D1*%
X138838000Y-113500000D02*
X138838000Y-115785000D01*
X138838000Y-115785000D02*
X140308000Y-115785000D01*
X140308000Y-115785000D02*
X140308000Y-113500000D01*
D15*
%TO.C,J8*%
X169293194Y-101561896D02*
G75*
G02*
X168531206Y-101561896I-380994J0D01*
G01*
X168531206Y-101561896D02*
G75*
G02*
X169293194Y-101561896I380994J0D01*
G01*
D16*
X177596804Y-97877557D02*
X177596798Y-81446437D01*
X173423659Y-79540098D02*
X167335199Y-79540101D01*
X167335203Y-89392436D02*
X167335204Y-89931557D01*
X167335202Y-99783901D02*
X173423657Y-99783895D01*
X167335201Y-84392445D02*
X167335203Y-84931559D01*
X167335200Y-86892442D02*
X167335202Y-87431559D01*
X167335199Y-91892441D02*
X167335200Y-92431563D01*
X167335199Y-79540101D02*
X167335206Y-82431562D01*
X167335195Y-94392440D02*
X167335203Y-94931562D01*
X167335193Y-96892442D02*
X167335202Y-99783901D01*
D14*
%TO.C,R4*%
X129289659Y-74515940D02*
X129506940Y-74298659D01*
X129827060Y-75053341D02*
X130044341Y-74836060D01*
%TO.C,C6*%
X153691000Y-99079164D02*
X153691000Y-99294836D01*
X154411000Y-99079164D02*
X154411000Y-99294836D01*
%TO.C,J9*%
X163170035Y-110892289D02*
X166729711Y-108306035D01*
X165756289Y-114451965D02*
X163170035Y-110892289D01*
X166729711Y-108306035D02*
X169315965Y-111865711D01*
X169315965Y-111865711D02*
X165756289Y-114451965D01*
%TO.C,R12*%
X156564359Y-103252000D02*
X156871641Y-103252000D01*
X156564359Y-104012000D02*
X156871641Y-104012000D01*
%TO.C,Q16*%
X154075999Y-66596500D02*
X154076000Y-65946500D01*
X154075999Y-66596500D02*
X154076000Y-67246500D01*
X157196001Y-66596500D02*
X157196000Y-65946500D01*
X157196001Y-66596500D02*
X157196000Y-67246500D01*
X157475999Y-65674000D02*
X157146000Y-65434000D01*
X157476000Y-65194000D01*
X157475999Y-65674000D01*
G36*
X157475999Y-65674000D02*
G01*
X157146000Y-65434000D01*
X157476000Y-65194000D01*
X157475999Y-65674000D01*
G37*
%TD*%
M02*
