M48
; DRILL file {KiCad 8.0.1} date 2024-11-14T00:10:26-0800
; FORMAT={-:-/ absolute / metric / decimal}
; #@! TF.CreationDate,2024-11-14T00:10:26-08:00
; #@! TF.GenerationSoftware,Kicad,Pcbnew,8.0.1
; #@! TF.FileFunction,Plated,1,2,PTH
FMAT,2
METRIC
; #@! TA.AperFunction,Plated,PTH,ViaDrill
T1C0.300
; #@! TA.AperFunction,Plated,PTH,ViaDrill
T2C0.635
; #@! TA.AperFunction,Plated,PTH,ComponentDrill
T3C1.000
; #@! TA.AperFunction,Plated,PTH,ComponentDrill
T4C2.000
%
G90
G05
T1
X125.857Y-77.216
X127.051Y-73.152
X127.254Y-69.393
X128.016Y-77.216
X132.08Y-101.092
X132.334Y-99.568
X132.461Y-108.331
X133.35Y-69.088
X133.35Y-72.517
X133.731Y-78.867
X134.112Y-68.453
X134.112Y-77.597
X134.239Y-100.33
X134.62Y-107.747
X134.874Y-99.568
X134.976Y-109.576
X135.331Y-107.086
X135.382Y-108.661
X135.636Y-110.236
X135.89Y-106.578
X135.992Y-107.747
X136.246Y-110.846
X136.347Y-109.576
X136.55Y-107.239
X136.601Y-105.918
X136.906Y-111.506
X136.957Y-110.185
X137.414Y-95.631
X137.541Y-113.792
X137.566Y-78.638
X137.617Y-110.846
X138.227Y-79.299
X138.278Y-77.978
X138.303Y-112.395
X138.43Y-100.457
X138.938Y-78.638
X139.065Y-94.488
X139.192Y-92.837
X139.573Y-99.06
X139.573Y-110.871
X139.852Y-78.638
X140.513Y-79.299
X140.564Y-77.978
X140.589Y-104.521
X140.589Y-112.395
X140.909Y-100.459
X140.97Y-90.805
X141.224Y-78.638
X141.935Y-76.911
X141.935Y-78.181
X141.986Y-74.524
X142.596Y-77.572
X142.596Y-78.842
X142.646Y-75.184
X142.646Y-76.251
X142.697Y-73.863
X142.748Y-103.505
X143.205Y-75.641
X143.256Y-78.232
X143.307Y-73.304
X143.307Y-76.911
X143.358Y-74.524
X143.866Y-76.302
X143.916Y-74.981
X143.916Y-78.892
X143.967Y-73.965
X143.967Y-77.572
X144.018Y-72.644
X144.018Y-101.6
X144.577Y-75.641
X144.628Y-78.232
X144.653Y-100.711
X145.542Y-106.172
X146.177Y-106.807
X146.558Y-109.601
X147.015Y-101.498
X147.015Y-102.311
X147.015Y-103.124
X147.015Y-103.937
X147.015Y-104.75
X147.066Y-107.188
X147.828Y-101.498
X147.828Y-102.311
X147.828Y-103.124
X147.828Y-103.937
X147.828Y-104.75
X148.641Y-101.498
X148.641Y-102.311
X148.641Y-103.124
X148.641Y-103.937
X148.641Y-104.75
X149.098Y-67.056
X149.098Y-69.469
X149.352Y-72.644
X149.454Y-104.75
X149.606Y-64.897
X149.606Y-70.104
X150.266Y-104.75
X150.405Y-77.028
X151.003Y-109.093
X151.079Y-104.75
X151.384Y-113.03
X152.4Y-111.887
X152.527Y-108.077
X153.162Y-94.996
X153.162Y-109.474
X154.178Y-103.886
X154.178Y-105.156
X154.686Y-102.921
X154.686Y-106.172
X154.813Y-101.727
X154.813Y-104.521
X155.702Y-98.552
X156.464Y-104.775
X157.099Y-106.426
X157.353Y-109.855
X157.48Y-104.775
X157.607Y-100.076
X157.734Y-98.552
X157.734Y-102.743
X157.988Y-104.013
X159.131Y-72.136
X159.874Y-112.113
X159.918Y-108.966
X160.579Y-109.626
X160.63Y-108.306
X160.909Y-115.951
X161.036Y-97.409
X161.138Y-110.236
X161.29Y-108.966
X161.544Y-112.268
X161.671Y-67.945
X161.671Y-72.263
X161.798Y-110.896
X161.849Y-109.576
X161.95Y-108.306
X162.001Y-92.304
X162.052Y-84.582
X162.092Y-113.649
X162.179Y-67.056
X162.306Y-75.946
X162.509Y-110.236
X162.56Y-109.017
X163.068Y-76.708
X163.22Y-109.677
X163.271Y-108.356
X163.932Y-109.017
X164.211Y-79.248
X164.592Y-106.07
X164.592Y-110.998
X164.973Y-78.867
X165.1Y-77.978
X165.252Y-106.731
X165.71Y-105.766
X166.37Y-106.426
X166.421Y-105.105
X166.522Y-103.784
X167.005Y-102.362
X167.081Y-105.766
X167.132Y-104.445
X167.742Y-111.201
X167.792Y-105.105
X168.504Y-104.445
X168.656Y-102.87
X170.18Y-101.905
T2
X126.238Y-84.836
X132.207Y-82.296
X134.239Y-82.804
X136.144Y-78.613
X142.748Y-88.392
X151.13Y-94.234
X156.21Y-88.646
X160.274Y-88.519
X164.465Y-69.342
X164.846Y-70.993
X166.243Y-90.932
X169.037Y-73.152
X169.418Y-97.663
T3
X128.252Y-107.297
X130.048Y-109.093
X131.844Y-110.889
X133.64Y-112.685
T4
X127.0Y-71.12
X130.81Y-67.437
X166.243Y-111.379
X170.307Y-107.569
M30
