M48
; DRILL file {KiCad 8.0.4} date 2024-11-13T00:18:50-0600
; FORMAT={-:-/ absolute / inch / decimal}
; #@! TF.CreationDate,2024-11-13T00:18:50-06:00
; #@! TF.GenerationSoftware,Kicad,Pcbnew,8.0.4
; #@! TF.FileFunction,Plated,1,2,PTH
FMAT,2
INCH
; #@! TA.AperFunction,Plated,PTH,ViaDrill
T1C0.0157
; #@! TA.AperFunction,Plated,PTH,ComponentDrill
T2C0.0236
; #@! TA.AperFunction,Plated,PTH,ComponentDrill
T3C0.0394
; #@! TA.AperFunction,Plated,PTH,ComponentDrill
T4C0.0472
%
G90
G05
T1
X4.848Y-4.18
X4.848Y-4.224
X4.848Y-4.268
X4.848Y-4.312
X4.848Y-4.356
X4.848Y-4.4
X4.892Y-4.18
X4.892Y-4.224
X4.892Y-4.268
X4.892Y-4.312
X4.892Y-4.356
X4.892Y-4.4
X4.892Y-4.444
X4.892Y-4.488
X4.9291Y-3.4173
X4.9291Y-3.4567
X4.9291Y-3.5591
X4.9291Y-3.5984
X4.9291Y-3.6378
X4.9291Y-3.6772
X4.936Y-4.224
X4.936Y-4.268
X4.936Y-4.312
X4.936Y-4.356
X4.936Y-4.4
X4.936Y-4.444
X4.936Y-4.18
X4.936Y-4.488
X4.9769Y-4.6031
X5.008Y-4.572
X5.008Y-4.6342
X5.0098Y-3.5984
X5.034Y-4.014
X5.034Y-4.058
X5.0391Y-4.5409
X5.0391Y-4.6031
X5.0391Y-4.6653
X5.063Y-3.1181
X5.063Y-3.1575
X5.0702Y-4.572
X5.0702Y-4.6342
X5.0702Y-4.6965
X5.0748Y-3.7264
X5.078Y-4.014
X5.078Y-4.058
X5.1013Y-4.6031
X5.1013Y-4.6653
X5.1013Y-4.7276
X5.1024Y-3.0787
X5.1024Y-3.1181
X5.1024Y-3.1575
X5.122Y-3.926
X5.122Y-3.97
X5.122Y-4.014
X5.122Y-4.058
X5.1299Y-4.4193
X5.1306Y-4.462
X5.132Y-4.7582
X5.1325Y-4.6342
X5.1325Y-4.6965
X5.1417Y-3.0787
X5.1417Y-3.1181
X5.1417Y-3.1575
X5.154Y-3.6358
X5.1631Y-4.7271
X5.1631Y-4.7893
X5.1636Y-4.6653
X5.1647Y-4.0591
X5.166Y-3.926
X5.166Y-3.97
X5.166Y-4.014
X5.1713Y-3.2303
X5.1725Y-4.5039
X5.1732Y-4.4179
X5.1739Y-4.4606
X5.1811Y-3.0394
X5.1811Y-3.0787
X5.1811Y-3.1181
X5.1811Y-3.1575
X5.1942Y-4.696
X5.1942Y-4.7582
X5.1942Y-4.8205
X5.2087Y-4.0591
X5.21Y-3.926
X5.21Y-3.97
X5.21Y-4.014
X5.2151Y-4.416
X5.2165Y-4.4592
X5.2165Y-4.5032
X5.2165Y-4.5472
X5.2205Y-3.0
X5.2205Y-3.0394
X5.2205Y-3.0787
X5.2205Y-3.2756
X5.2205Y-3.315
X5.2253Y-4.7271
X5.2253Y-4.7893
X5.2253Y-4.8516
X5.2269Y-3.1654
X5.2539Y-4.0617
X5.254Y-3.926
X5.254Y-3.97
X5.254Y-4.014
X5.2565Y-4.7582
X5.2565Y-4.8205
X5.2598Y-2.9606
X5.2598Y-3.0
X5.2598Y-3.0394
X5.2598Y-3.0787
X5.2677Y-3.8602
X5.2835Y-3.5207
X5.2867Y-3.6857
X5.2876Y-4.7893
X5.296Y-3.1634
X5.324Y-3.782
X5.324Y-3.826
X5.3307Y-3.6417
X5.3307Y-3.6857
X5.3346Y-4.2795
X5.3589Y-4.6471
X5.368Y-3.782
X5.368Y-3.826
X5.368Y-3.87
X5.374Y-4.2795
X5.3747Y-3.5977
X5.3747Y-3.6417
X5.3747Y-3.6857
X5.388Y-4.854
X5.388Y-4.898
X5.388Y-4.942
X5.39Y-4.616
X5.39Y-4.6782
X5.3976Y-2.9055
X5.3976Y-2.9449
X5.412Y-3.782
X5.412Y-3.826
X5.412Y-3.87
X5.4134Y-4.2795
X5.4211Y-4.5849
X5.4211Y-4.6471
X5.4211Y-4.7093
X5.4232Y-4.3169
X5.432Y-4.854
X5.432Y-4.898
X5.432Y-4.942
X5.437Y-2.9055
X5.437Y-2.9449
X5.4488Y-3.3307
X5.4508Y-3.1476
X5.4522Y-4.616
X5.4522Y-4.6782
X5.4522Y-4.7405
X5.456Y-3.782
X5.456Y-3.826
X5.4561Y-3.0878
X5.4606Y-3.9547
X5.4724Y-4.0512
X5.4724Y-4.0906
X5.476Y-4.898
X5.476Y-4.854
X5.476Y-4.942
X5.4764Y-2.9055
X5.4764Y-2.9449
X5.4803Y-4.3543
X5.4833Y-4.6471
X5.4833Y-4.7093
X5.4862Y-3.1772
X5.498Y-4.3957
X5.498Y-4.435
X5.498Y-4.4744
X5.5Y-3.9173
X5.5Y-3.9547
X5.5034Y-3.0852
X5.5039Y-3.4882
X5.5059Y-4.122
X5.5118Y-4.5118
X5.5145Y-4.6782
X5.5145Y-4.7405
X5.5197Y-4.3543
X5.52Y-4.854
X5.52Y-4.898
X5.52Y-4.942
X5.5413Y-3.0059
X5.5413Y-3.0453
X5.5413Y-4.0591
X5.5433Y-3.4488
X5.5433Y-3.4882
X5.5453Y-4.122
X5.5456Y-4.7093
X5.5531Y-3.1486
X5.5531Y-3.2067
X5.5568Y-4.5706
X5.564Y-4.854
X5.564Y-4.898
X5.564Y-4.942
X5.5807Y-3.0059
X5.5807Y-3.0453
X5.5827Y-3.4488
X5.5827Y-3.4882
X5.5846Y-4.5984
X5.5886Y-3.6319
X5.6206Y-3.9592
X5.622Y-3.4488
X5.622Y-3.4882
X5.626Y-3.9094
X5.6358Y-3.2126
X5.6566Y-3.5255
X5.6566Y-3.7814
X5.6614Y-3.4488
X5.685Y-3.311
X5.6949Y-3.1339
X5.7047Y-3.9055
X5.7165Y-3.3701
X5.7244Y-3.0945
X5.7303Y-3.2736
X5.7343Y-3.1339
X5.7451Y-3.874
X5.7471Y-4.8996
X5.748Y-4.8563
X5.7795Y-3.1358
X5.7835Y-3.813
X5.7911Y-4.8996
X5.7912Y-4.8583
X5.813Y-3.876
X5.8287Y-4.8189
X5.8351Y-4.8996
X5.84Y-3.536
X5.84Y-3.58
X5.84Y-3.624
X5.84Y-3.668
X5.84Y-3.712
X5.8726Y-3.2751
X5.8791Y-4.8996
X5.884Y-3.536
X5.884Y-3.58
X5.884Y-3.624
X5.884Y-3.668
X5.884Y-3.712
X5.8858Y-4.8209
X5.9231Y-4.8996
X5.928Y-3.536
X5.928Y-3.58
X5.928Y-3.624
X5.928Y-3.668
X5.928Y-3.712
X5.9301Y-3.4352
X5.9528Y-3.374
X5.9665Y-3.8287
X5.9665Y-3.9646
X5.9671Y-4.8996
X5.972Y-3.536
X5.972Y-3.58
X5.972Y-3.624
X5.972Y-3.668
X5.9724Y-3.7126
X5.9764Y-4.815
X5.9872Y-3.4409
X5.9882Y-3.2992
X5.9941Y-3.3976
X6.0069Y-3.1309
X6.0111Y-4.8996
X6.0138Y-4.6909
X6.016Y-3.536
X6.016Y-3.58
X6.016Y-3.624
X6.016Y-3.668
X6.016Y-3.712
X6.0346Y-3.3523
X6.0394Y-4.8287
X6.0472Y-3.1693
X6.0479Y-3.9646
X6.0551Y-4.8996
X6.0924Y-3.9652
X6.0945Y-3.2028
X6.1137Y-3.3509
X6.1147Y-3.7131
X6.1172Y-3.4488
X6.1359Y-3.9646
X6.1752Y-3.3484
X6.1811Y-3.4449
X6.187Y-3.5354
X6.187Y-3.5807
X6.1929Y-4.7854
X6.2028Y-3.7559
X6.2028Y-3.7953
X6.2087Y-3.2776
X6.216Y-4.654
X6.2343Y-4.7657
X6.2343Y-4.8097
X6.2343Y-4.8537
X6.2343Y-4.8977
X6.2343Y-4.9417
X6.2421Y-3.7559
X6.2421Y-3.7953
X6.2667Y-3.3858
X6.2835Y-3.7559
X6.2844Y-3.4606
X6.2854Y-3.811
X6.2913Y-3.5118
X6.326Y-4.678
X6.3287Y-2.9646
X6.3543Y-4.3823
X6.3577Y-4.0234
X6.3577Y-4.4958
X6.3583Y-4.0669
X6.3583Y-4.5394
X6.36Y-4.58
X6.3602Y-3.3799
X6.37Y-4.684
X6.376Y-2.9606
X6.3799Y-3.1014
X6.3819Y-3.4724
X6.3819Y-3.5118
X6.3819Y-3.6811
X6.3819Y-3.7205
X6.4Y-4.6
X6.412Y-4.686
X6.4193Y-3.9764
X6.4213Y-3.6811
X6.4213Y-3.7205
X6.4272Y-2.8898
X6.4272Y-2.9291
X6.4272Y-2.9685
X6.44Y-4.6
X6.4409Y-3.5748
X6.4462Y-4.3708
X6.454Y-4.684
X6.48Y-4.6015
X6.4803Y-3.6142
X6.4823Y-3.5748
X6.4902Y-4.3708
X6.496Y-4.686
X6.5051Y-4.1109
X6.5089Y-3.8671
X6.52Y-4.6
X6.5325Y-3.2431
X6.5342Y-4.3708
X6.54Y-4.686
X6.5472Y-2.9803
X6.5472Y-3.0197
X6.5472Y-3.0591
X6.5491Y-4.0669
X6.5491Y-4.1109
X6.5512Y-3.9567
X6.56Y-4.6
X6.584Y-4.686
X6.5866Y-2.9803
X6.5866Y-3.0197
X6.5866Y-3.0591
X6.5931Y-4.0669
X6.5931Y-4.1109
X6.6Y-4.6
X6.6102Y-4.4
X6.6102Y-4.44
X6.6102Y-4.48
X6.6102Y-4.52
X6.6102Y-4.56
X6.626Y-3.0197
X6.626Y-3.0591
X6.628Y-4.686
X6.628Y-4.73
X6.628Y-4.774
X6.6302Y-4.36
X6.6371Y-4.0669
X6.6371Y-4.1109
X6.64Y-4.6
X6.6506Y-3.8612
X6.6532Y-3.8192
X6.6654Y-3.0591
X6.6693Y-3.9724
X6.6702Y-4.35
X6.672Y-4.684
X6.672Y-4.73
X6.672Y-4.774
X6.6811Y-4.0669
X6.6811Y-4.1109
X6.71Y-3.508
X6.71Y-3.552
X6.71Y-3.596
X6.71Y-3.64
X6.71Y-3.684
X6.7106Y-4.3504
X6.718Y-4.676
X6.7256Y-4.1108
X6.727Y-4.0669
X6.75Y-4.3104
X6.7502Y-4.35
X6.754Y-3.244
X6.754Y-3.288
X6.754Y-3.332
X6.754Y-3.376
X6.754Y-3.42
X6.754Y-3.464
X6.754Y-3.508
X6.754Y-3.552
X6.754Y-3.596
X6.754Y-3.64
X6.754Y-3.684
X6.7618Y-4.6614
X6.7902Y-4.3106
X6.7902Y-4.35
X6.7972Y-4.6378
X6.798Y-3.244
X6.798Y-3.288
X6.798Y-3.332
X6.798Y-3.376
X6.798Y-3.42
X6.798Y-3.464
X6.798Y-3.508
X6.798Y-3.552
X6.798Y-3.596
X6.798Y-3.64
X6.798Y-3.684
X6.7992Y-4.5984
X6.8302Y-4.3106
X6.8302Y-4.35
X6.8465Y-4.5925
X6.868Y-4.4713
X6.868Y-4.5513
X6.8681Y-4.3917
X6.8681Y-4.4317
X6.8681Y-4.5118
X6.874Y-4.311
X6.874Y-4.3504
X6.91Y-3.332
X6.91Y-3.376
X6.91Y-3.42
X6.91Y-3.464
X6.91Y-3.508
X6.91Y-3.552
X6.91Y-3.596
X6.91Y-3.64
X6.91Y-3.684
X6.91Y-3.81
X6.91Y-3.854
X6.91Y-3.898
X6.91Y-3.942
X6.91Y-3.986
X6.91Y-4.03
X6.918Y-4.311
X6.918Y-4.3504
X6.954Y-3.42
X6.954Y-3.464
X6.954Y-3.508
X6.954Y-3.552
X6.954Y-3.596
X6.954Y-3.64
X6.954Y-3.684
X6.954Y-3.81
X6.954Y-3.854
X6.954Y-3.898
X6.954Y-3.942
X6.954Y-3.986
X6.954Y-4.03
X6.9613Y-4.311
X6.9613Y-4.3504
X6.998Y-3.552
X6.998Y-3.596
X6.998Y-3.64
X6.998Y-3.684
X6.998Y-3.81
X6.998Y-3.854
X6.998Y-3.898
X6.998Y-3.942
X6.998Y-3.986
X6.998Y-4.03
T2
X6.8068Y-3.749
X6.8068Y-4.0896
X6.971Y-3.749
X6.971Y-4.0896
T3
X4.8751Y-3.7822
X4.8751Y-3.8822
X4.8751Y-3.9822
X4.8751Y-4.0822
T4
X6.3409Y-4.7736
X6.5045Y-4.7736
M30
