M48
; DRILL file {KiCad 8.0.1} date 2024-09-20T18:09:35-0700
; FORMAT={-:-/ absolute / metric / decimal}
; #@! TF.CreationDate,2024-09-20T18:09:35-07:00
; #@! TF.GenerationSoftware,Kicad,Pcbnew,8.0.1
; #@! TF.FileFunction,Plated,1,2,PTH
FMAT,2
METRIC
; #@! TA.AperFunction,Plated,PTH,ViaDrill
T1C0.300
; #@! TA.AperFunction,Plated,PTH,ViaDrill
T2C0.635
; #@! TA.AperFunction,Plated,PTH,ComponentDrill
T3C1.000
; #@! TA.AperFunction,Plated,PTH,ComponentDrill
T4C2.000
%
G90
G05
T1
X125.857Y-77.216
X128.016Y-77.216
X132.08Y-101.092
X132.334Y-99.568
X132.461Y-108.331
X133.35Y-69.088
X133.35Y-72.517
X133.731Y-78.867
X134.112Y-68.453
X134.112Y-77.597
X134.239Y-100.33
X134.874Y-99.568
X137.414Y-95.631
X137.541Y-113.792
X138.303Y-112.395
X138.43Y-100.457
X139.065Y-94.488
X139.192Y-92.837
X139.573Y-99.06
X139.573Y-110.871
X140.589Y-104.521
X140.589Y-112.395
X140.909Y-100.459
X140.97Y-90.805
X142.748Y-103.505
X144.018Y-101.6
X144.653Y-100.711
X145.542Y-106.172
X146.177Y-106.807
X146.558Y-109.601
X147.066Y-107.188
X149.098Y-67.056
X149.098Y-69.469
X149.352Y-72.644
X149.606Y-64.897
X149.606Y-70.104
X150.405Y-77.028
X151.003Y-109.093
X151.384Y-113.03
X152.4Y-111.887
X152.527Y-108.077
X153.162Y-109.474
X154.178Y-103.886
X154.178Y-105.156
X154.686Y-106.172
X154.813Y-92.456
X154.813Y-101.727
X154.813Y-104.521
X155.702Y-98.552
X156.464Y-104.775
X157.099Y-106.426
X157.353Y-109.855
X157.48Y-104.775
X157.607Y-100.076
X157.734Y-98.552
X157.734Y-102.743
X157.988Y-104.013
X158.877Y-72.136
X159.874Y-112.113
X160.782Y-84.455
X160.909Y-115.951
X161.036Y-97.409
X161.544Y-112.268
X161.671Y-67.945
X161.671Y-72.771
X162.092Y-113.649
X162.179Y-67.056
X162.306Y-75.946
X163.068Y-76.708
X164.211Y-79.248
X164.973Y-78.867
X165.1Y-77.978
X167.005Y-102.362
T2
X126.238Y-84.836
X132.207Y-82.296
X134.239Y-82.804
X136.144Y-78.613
X142.748Y-88.392
X151.13Y-93.726
X156.464Y-87.757
X161.417Y-89.662
X162.687Y-93.98
X164.338Y-90.297
X164.465Y-69.342
X164.846Y-70.993
X169.037Y-73.152
X169.418Y-97.663
T3
X128.252Y-107.297
X130.048Y-109.093
X131.844Y-110.889
X133.64Y-112.685
T4
X127.0Y-71.12
X130.81Y-67.437
X166.243Y-111.379
X170.307Y-107.569
M30
