%TF.GenerationSoftware,KiCad,Pcbnew,8.0.4*%
%TF.CreationDate,2024-11-13T00:18:53-06:00*%
%TF.ProjectId,ARES_FC,41524553-5f46-4432-9e6b-696361645f70,rev?*%
%TF.SameCoordinates,Original*%
%TF.FileFunction,Profile,NP*%
%FSLAX46Y46*%
G04 Gerber Fmt 4.6, Leading zero omitted, Abs format (unit mm)*
G04 Created by KiCad (PCBNEW 8.0.4) date 2024-11-13 00:18:53*
%MOMM*%
%LPD*%
G01*
G04 APERTURE LIST*
%TA.AperFunction,Profile*%
%ADD10C,0.100000*%
%TD*%
%TA.AperFunction,Profile*%
%ADD11C,0.010000*%
%TD*%
G04 APERTURE END LIST*
D10*
X178538742Y-109281800D02*
X178538742Y-99502800D01*
X159869743Y-70927799D02*
G75*
G02*
X178538752Y-89723796I-9914043J-28516501D01*
G01*
X157793393Y-71962949D02*
G75*
G02*
X159869739Y-70927837I1907207J-1225651D01*
G01*
X121388740Y-89723799D02*
X121388740Y-99502799D01*
X142261094Y-71962945D02*
X143169242Y-73848800D01*
X142134089Y-127042650D02*
G75*
G02*
X140057741Y-128077792I-1907289J1225750D01*
G01*
X142134094Y-127042653D02*
X143169240Y-125156799D01*
X156758240Y-125156799D02*
X143169240Y-125156800D01*
X157793388Y-71962946D02*
X156758242Y-73848800D01*
X140057739Y-128077800D02*
G75*
G02*
X121388741Y-109281799I9914011J28516450D01*
G01*
X121388740Y-99502799D02*
X121388740Y-109281799D01*
X178538742Y-99502800D02*
X178538742Y-89723800D01*
X121388740Y-89723799D02*
G75*
G02*
X140187288Y-70935354I28436490J-9653231D01*
G01*
X143169242Y-73848800D02*
X156758242Y-73848800D01*
X159742739Y-128077760D02*
G75*
G02*
X157666357Y-127042674I-169139J2260860D01*
G01*
X178538742Y-109281800D02*
G75*
G02*
X159740196Y-128070252I-28436512J9653240D01*
G01*
X140184743Y-70927839D02*
G75*
G02*
X142261101Y-71962941I169157J-2260761D01*
G01*
X157666388Y-127042654D02*
X156758240Y-125156799D01*
D11*
%TO.C,J2*%
X172342500Y-94925000D02*
X173442500Y-94925000D01*
X172342500Y-103575000D02*
X173442500Y-103575000D01*
X173442500Y-95525000D02*
X172342500Y-95525000D01*
X173442500Y-104175000D02*
X172342500Y-104175000D01*
X176662500Y-94925000D02*
X177462500Y-94925000D01*
X176662500Y-103575000D02*
X177462500Y-103575000D01*
X177462500Y-95525000D02*
X176662500Y-95525000D01*
X177462500Y-104175000D02*
X176662500Y-104175000D01*
X172042500Y-95225000D02*
G75*
G02*
X172342500Y-94925000I300000J0D01*
G01*
X172042500Y-103875000D02*
G75*
G02*
X172342500Y-103575000I300000J0D01*
G01*
X172342500Y-95525000D02*
G75*
G02*
X172042500Y-95225000I0J300000D01*
G01*
X172342500Y-104175000D02*
G75*
G02*
X172042500Y-103875000I0J300000D01*
G01*
X173442500Y-94925000D02*
G75*
G02*
X173742500Y-95225000I0J-300000D01*
G01*
X173442500Y-103575000D02*
G75*
G02*
X173742500Y-103875000I0J-300000D01*
G01*
X173742500Y-95225000D02*
G75*
G02*
X173442500Y-95525000I-300000J0D01*
G01*
X173742500Y-103875000D02*
G75*
G02*
X173442500Y-104175000I-300000J0D01*
G01*
X176362500Y-95225000D02*
G75*
G02*
X176662500Y-94925000I300000J0D01*
G01*
X176362500Y-103875000D02*
G75*
G02*
X176662500Y-103575000I300000J0D01*
G01*
X176662500Y-95525000D02*
G75*
G02*
X176362500Y-95225000I0J300000D01*
G01*
X176662500Y-104175000D02*
G75*
G02*
X176362500Y-103875000I0J300000D01*
G01*
X177462500Y-94925000D02*
G75*
G02*
X177762500Y-95225000I0J-300000D01*
G01*
X177462500Y-103575000D02*
G75*
G02*
X177762500Y-103875000I0J-300000D01*
G01*
X177762500Y-95225000D02*
G75*
G02*
X177462500Y-95525000I-300000J0D01*
G01*
X177762500Y-103875000D02*
G75*
G02*
X177462500Y-104175000I-300000J0D01*
G01*
%TD*%
M02*
