M48
; DRILL file {KiCad 8.0.4} date 2024-11-10T21:25:48-0600
; FORMAT={-:-/ absolute / inch / decimal}
; #@! TF.CreationDate,2024-11-10T21:25:48-06:00
; #@! TF.GenerationSoftware,Kicad,Pcbnew,8.0.4
; #@! TF.FileFunction,Plated,1,2,PTH
FMAT,2
INCH
; #@! TA.AperFunction,Plated,PTH,ViaDrill
T1C0.0157
; #@! TA.AperFunction,Plated,PTH,ComponentDrill
T2C0.0236
; #@! TA.AperFunction,Plated,PTH,ComponentDrill
T3C0.0394
; #@! TA.AperFunction,Plated,PTH,ComponentDrill
T4C0.0472
%
G90
G05
T1
X4.848Y-4.18
X4.848Y-4.224
X4.848Y-4.268
X4.848Y-4.312
X4.848Y-4.356
X4.848Y-4.4
X4.892Y-4.18
X4.892Y-4.224
X4.892Y-4.268
X4.892Y-4.312
X4.892Y-4.356
X4.892Y-4.4
X4.892Y-4.444
X4.892Y-4.488
X4.936Y-4.224
X4.936Y-4.268
X4.936Y-4.312
X4.936Y-4.356
X4.936Y-4.4
X4.936Y-4.444
X4.936Y-4.18
X4.936Y-4.488
X4.9665Y-3.8492
X4.9769Y-4.6031
X5.008Y-4.572
X5.008Y-4.6342
X5.034Y-4.014
X5.034Y-4.014
X5.034Y-4.058
X5.0391Y-4.5409
X5.0391Y-4.6031
X5.0391Y-4.6653
X5.0702Y-4.572
X5.0702Y-4.6342
X5.0702Y-4.6965
X5.0713Y-4.3988
X5.0733Y-3.6862
X5.0745Y-3.6362
X5.078Y-4.014
X5.078Y-4.014
X5.078Y-4.058
X5.1013Y-4.6031
X5.1013Y-4.6653
X5.1013Y-4.7276
X5.122Y-3.926
X5.122Y-3.97
X5.122Y-3.97
X5.122Y-4.014
X5.122Y-4.014
X5.122Y-4.014
X5.122Y-4.058
X5.132Y-4.7582
X5.1323Y-3.3712
X5.1325Y-4.6342
X5.1325Y-4.6965
X5.136Y-4.114
X5.138Y-4.266
X5.154Y-3.6358
X5.1631Y-4.7271
X5.1631Y-4.7893
X5.1636Y-4.6653
X5.1647Y-4.0591
X5.166Y-3.926
X5.166Y-3.97
X5.166Y-4.014
X5.1942Y-4.696
X5.1942Y-4.7582
X5.1942Y-4.8205
X5.2087Y-4.0591
X5.21Y-3.926
X5.21Y-3.97
X5.21Y-4.014
X5.2123Y-3.3712
X5.2253Y-4.7271
X5.2253Y-4.7893
X5.2253Y-4.8516
X5.2269Y-3.1654
X5.2382Y-3.5217
X5.252Y-4.238
X5.252Y-4.328
X5.2539Y-4.0617
X5.254Y-3.926
X5.254Y-3.97
X5.254Y-4.014
X5.256Y-4.146
X5.2565Y-4.7582
X5.2565Y-4.8205
X5.2677Y-3.8602
X5.2876Y-4.7893
X5.296Y-3.1634
X5.324Y-3.782
X5.324Y-3.826
X5.324Y-3.87
X5.3589Y-4.6471
X5.368Y-3.782
X5.368Y-3.826
X5.368Y-3.87
X5.3701Y-3.6575
X5.388Y-4.854
X5.388Y-4.898
X5.388Y-4.942
X5.39Y-4.616
X5.39Y-4.6782
X5.412Y-3.782
X5.412Y-3.826
X5.412Y-3.87
X5.4211Y-4.5849
X5.4211Y-4.6471
X5.4211Y-4.7093
X5.4213Y-3.0226
X5.432Y-4.854
X5.432Y-4.898
X5.432Y-4.942
X5.4508Y-3.1476
X5.4522Y-4.616
X5.4522Y-4.6782
X5.4522Y-4.7405
X5.456Y-3.782
X5.456Y-3.826
X5.4606Y-3.0226
X5.476Y-4.898
X5.476Y-4.854
X5.476Y-4.942
X5.4833Y-4.6471
X5.4833Y-4.7093
X5.4862Y-3.1772
X5.506Y-4.192
X5.506Y-4.284
X5.5145Y-4.6782
X5.5145Y-4.7405
X5.52Y-4.854
X5.52Y-4.898
X5.52Y-4.942
X5.5217Y-4.002
X5.5456Y-4.7093
X5.5472Y-3.0413
X5.5531Y-3.1378
X5.5531Y-3.2067
X5.5571Y-4.4739
X5.564Y-4.854
X5.564Y-4.898
X5.564Y-4.942
X5.576Y-4.52
X5.58Y-4.568
X5.5886Y-3.6319
X5.6161Y-4.7
X5.626Y-3.9094
X5.6358Y-3.2126
X5.6358Y-3.9705
X5.6448Y-3.4783
X5.6516Y-4.1004
X5.6516Y-4.1594
X5.6516Y-4.4547
X5.6566Y-3.5255
X5.6566Y-3.7814
X5.6601Y-4.7
X5.685Y-3.311
X5.687Y-3.8976
X5.7041Y-4.7
X5.7224Y-3.437
X5.7264Y-3.3701
X5.7303Y-3.2736
X5.7323Y-3.8976
X5.748Y-4.844
X5.748Y-4.888
X5.7677Y-3.0732
X5.7835Y-3.813
X5.792Y-4.844
X5.792Y-4.888
X5.813Y-3.876
X5.836Y-4.888
X5.836Y-4.844
X5.84Y-3.536
X5.84Y-3.58
X5.84Y-3.624
X5.84Y-3.668
X5.84Y-3.712
X5.8465Y-4.7618
X5.8495Y-3.3822
X5.8726Y-3.2751
X5.88Y-4.844
X5.88Y-4.888
X5.884Y-3.536
X5.884Y-3.58
X5.884Y-3.624
X5.884Y-3.668
X5.884Y-3.712
X5.8858Y-4.7618
X5.924Y-4.844
X5.924Y-4.888
X5.928Y-3.536
X5.928Y-3.58
X5.928Y-3.624
X5.928Y-3.668
X5.928Y-3.712
X5.9301Y-3.4352
X5.9528Y-3.374
X5.9646Y-4.7618
X5.9665Y-3.8287
X5.968Y-4.888
X5.972Y-3.536
X5.972Y-3.58
X5.972Y-3.624
X5.972Y-3.668
X5.978Y-3.714
X5.9872Y-3.4409
X5.9882Y-3.3051
X5.9941Y-3.3976
X6.0039Y-4.7618
X6.0118Y-3.1358
X6.012Y-4.888
X6.016Y-3.536
X6.016Y-3.58
X6.016Y-3.624
X6.016Y-3.668
X6.016Y-3.712
X6.0217Y-4.815
X6.0346Y-3.3523
X6.0433Y-4.7618
X6.0472Y-3.1693
X6.056Y-4.888
X6.0945Y-3.2028
X6.1137Y-3.3509
X6.1147Y-3.7131
X6.1172Y-3.4488
X6.1181Y-4.7016
X6.1614Y-4.7008
X6.1752Y-3.3484
X6.1811Y-3.4449
X6.187Y-3.5354
X6.187Y-3.5807
X6.1949Y-3.75
X6.2054Y-4.7008
X6.2087Y-3.2776
X6.216Y-4.654
X6.2667Y-3.3858
X6.2815Y-4.1004
X6.2835Y-4.5138
X6.2844Y-3.4606
X6.2854Y-3.811
X6.2913Y-3.5118
X6.326Y-4.678
X6.3504Y-3.0266
X6.36Y-4.58
X6.3602Y-3.3799
X6.368Y-4.396
X6.37Y-4.684
X6.3898Y-3.0266
X6.3898Y-3.1014
X6.4Y-4.6
X6.41Y-4.268
X6.41Y-4.312
X6.41Y-4.356
X6.412Y-4.686
X6.4291Y-3.0276
X6.4338Y-3.498
X6.44Y-4.6
X6.454Y-4.268
X6.454Y-4.312
X6.454Y-4.356
X6.454Y-4.684
X6.4646Y-3.9764
X6.48Y-4.6015
X6.496Y-4.686
X6.498Y-4.136
X6.498Y-4.268
X6.498Y-4.312
X6.498Y-4.356
X6.5098Y-3.9768
X6.52Y-4.6
X6.5325Y-3.2431
X6.54Y-4.686
X6.542Y-4.092
X6.542Y-4.136
X6.542Y-4.268
X6.542Y-4.312
X6.542Y-4.356
X6.5444Y-3.8465
X6.56Y-4.6
X6.584Y-4.686
X6.584Y-4.73
X6.584Y-4.774
X6.586Y-4.092
X6.586Y-4.136
X6.586Y-4.268
X6.586Y-4.312
X6.6Y-4.6
X6.6102Y-4.4
X6.6102Y-4.44
X6.6102Y-4.48
X6.6102Y-4.52
X6.6102Y-4.56
X6.6208Y-3.368
X6.628Y-4.686
X6.628Y-4.686
X6.628Y-4.73
X6.628Y-4.774
X6.63Y-4.092
X6.63Y-4.136
X6.63Y-4.268
X6.63Y-4.312
X6.6302Y-4.36
X6.64Y-4.6
X6.6506Y-3.8612
X6.6532Y-3.8192
X6.6702Y-4.35
X6.6713Y-3.9724
X6.672Y-4.684
X6.672Y-4.73
X6.672Y-4.774
X6.6732Y-4.2677
X6.674Y-4.092
X6.674Y-4.136
X6.7008Y-3.368
X6.71Y-3.508
X6.71Y-3.552
X6.71Y-3.596
X6.71Y-3.64
X6.71Y-3.684
X6.7102Y-4.35
X6.718Y-4.268
X6.718Y-4.676
X6.7185Y-4.1358
X6.7238Y-3.8126
X6.7283Y-4.0748
X6.7502Y-4.35
X6.754Y-3.244
X6.754Y-3.288
X6.754Y-3.332
X6.754Y-3.376
X6.754Y-3.42
X6.754Y-3.464
X6.754Y-3.508
X6.754Y-3.552
X6.754Y-3.596
X6.754Y-3.64
X6.754Y-3.684
X6.7618Y-4.6614
X6.762Y-4.268
X6.7902Y-4.35
X6.7972Y-4.6378
X6.798Y-3.244
X6.798Y-3.288
X6.798Y-3.332
X6.798Y-3.376
X6.798Y-3.42
X6.798Y-3.464
X6.798Y-3.508
X6.798Y-3.552
X6.798Y-3.596
X6.798Y-3.64
X6.798Y-3.684
X6.806Y-4.18
X6.806Y-4.268
X6.815Y-4.6004
X6.8302Y-4.35
X6.85Y-4.18
X6.85Y-4.268
X6.8602Y-4.5709
X6.8661Y-4.37
X6.8701Y-4.5295
X6.8702Y-4.41
X6.8702Y-4.45
X6.8702Y-4.49
X6.894Y-4.18
X6.894Y-4.268
X6.91Y-3.332
X6.91Y-3.376
X6.91Y-3.42
X6.91Y-3.464
X6.91Y-3.508
X6.91Y-3.552
X6.91Y-3.596
X6.91Y-3.64
X6.91Y-3.684
X6.91Y-3.81
X6.91Y-3.854
X6.91Y-3.898
X6.91Y-3.942
X6.91Y-3.986
X6.91Y-4.03
X6.938Y-4.18
X6.938Y-4.224
X6.938Y-4.268
X6.954Y-3.42
X6.954Y-3.464
X6.954Y-3.508
X6.954Y-3.552
X6.954Y-3.596
X6.954Y-3.64
X6.954Y-3.684
X6.954Y-3.81
X6.954Y-3.854
X6.954Y-3.898
X6.954Y-3.942
X6.954Y-3.986
X6.954Y-4.03
X6.982Y-4.18
X6.982Y-4.224
X6.982Y-4.268
X6.998Y-3.552
X6.998Y-3.596
X6.998Y-3.64
X6.998Y-3.684
X6.998Y-3.81
X6.998Y-3.854
X6.998Y-3.898
X6.998Y-3.942
X6.998Y-3.986
X6.998Y-4.03
T2
X6.8068Y-3.749
X6.8068Y-4.0896
X6.971Y-3.749
X6.971Y-4.0896
T3
X4.8751Y-3.7822
X4.8751Y-3.8822
X4.8751Y-3.9822
X4.8751Y-4.0822
T4
X6.3409Y-4.7736
X6.5045Y-4.7736
M30
