%TF.GenerationSoftware,KiCad,Pcbnew,8.0.4*%
%TF.CreationDate,2024-11-10T21:25:59-06:00*%
%TF.ProjectId,ARES_FC,41524553-5f46-4432-9e6b-696361645f70,rev?*%
%TF.SameCoordinates,Original*%
%TF.FileFunction,Legend,Top*%
%TF.FilePolarity,Positive*%
%FSLAX46Y46*%
G04 Gerber Fmt 4.6, Leading zero omitted, Abs format (unit mm)*
G04 Created by KiCad (PCBNEW 8.0.4) date 2024-11-10 21:25:59*
%MOMM*%
%LPD*%
G01*
G04 APERTURE LIST*
%ADD10C,0.125000*%
%ADD11C,0.100000*%
%ADD12C,0.150000*%
%ADD13C,0.120000*%
%ADD14C,0.127000*%
%ADD15C,0.200000*%
G04 APERTURE END LIST*
D10*
X126476016Y-98514290D02*
X126399826Y-98476195D01*
X126399826Y-98476195D02*
X126285540Y-98476195D01*
X126285540Y-98476195D02*
X126171254Y-98514290D01*
X126171254Y-98514290D02*
X126095064Y-98590480D01*
X126095064Y-98590480D02*
X126056969Y-98666671D01*
X126056969Y-98666671D02*
X126018873Y-98819052D01*
X126018873Y-98819052D02*
X126018873Y-98933338D01*
X126018873Y-98933338D02*
X126056969Y-99085719D01*
X126056969Y-99085719D02*
X126095064Y-99161909D01*
X126095064Y-99161909D02*
X126171254Y-99238100D01*
X126171254Y-99238100D02*
X126285540Y-99276195D01*
X126285540Y-99276195D02*
X126361731Y-99276195D01*
X126361731Y-99276195D02*
X126476016Y-99238100D01*
X126476016Y-99238100D02*
X126514112Y-99200004D01*
X126514112Y-99200004D02*
X126514112Y-98933338D01*
X126514112Y-98933338D02*
X126361731Y-98933338D01*
X126856969Y-99276195D02*
X126856969Y-98476195D01*
X126856969Y-98476195D02*
X127314112Y-99276195D01*
X127314112Y-99276195D02*
X127314112Y-98476195D01*
X127695064Y-99276195D02*
X127695064Y-98476195D01*
X127695064Y-98476195D02*
X127885540Y-98476195D01*
X127885540Y-98476195D02*
X127999826Y-98514290D01*
X127999826Y-98514290D02*
X128076016Y-98590480D01*
X128076016Y-98590480D02*
X128114111Y-98666671D01*
X128114111Y-98666671D02*
X128152207Y-98819052D01*
X128152207Y-98819052D02*
X128152207Y-98933338D01*
X128152207Y-98933338D02*
X128114111Y-99085719D01*
X128114111Y-99085719D02*
X128076016Y-99161909D01*
X128076016Y-99161909D02*
X127999826Y-99238100D01*
X127999826Y-99238100D02*
X127885540Y-99276195D01*
X127885540Y-99276195D02*
X127695064Y-99276195D01*
X164591759Y-123383690D02*
X164515569Y-123345595D01*
X164515569Y-123345595D02*
X164401283Y-123345595D01*
X164401283Y-123345595D02*
X164286997Y-123383690D01*
X164286997Y-123383690D02*
X164210807Y-123459880D01*
X164210807Y-123459880D02*
X164172712Y-123536071D01*
X164172712Y-123536071D02*
X164134616Y-123688452D01*
X164134616Y-123688452D02*
X164134616Y-123802738D01*
X164134616Y-123802738D02*
X164172712Y-123955119D01*
X164172712Y-123955119D02*
X164210807Y-124031309D01*
X164210807Y-124031309D02*
X164286997Y-124107500D01*
X164286997Y-124107500D02*
X164401283Y-124145595D01*
X164401283Y-124145595D02*
X164477474Y-124145595D01*
X164477474Y-124145595D02*
X164591759Y-124107500D01*
X164591759Y-124107500D02*
X164629855Y-124069404D01*
X164629855Y-124069404D02*
X164629855Y-123802738D01*
X164629855Y-123802738D02*
X164477474Y-123802738D01*
X164972712Y-124145595D02*
X164972712Y-123345595D01*
X164972712Y-123345595D02*
X165429855Y-124145595D01*
X165429855Y-124145595D02*
X165429855Y-123345595D01*
X165810807Y-124145595D02*
X165810807Y-123345595D01*
X165810807Y-123345595D02*
X166001283Y-123345595D01*
X166001283Y-123345595D02*
X166115569Y-123383690D01*
X166115569Y-123383690D02*
X166191759Y-123459880D01*
X166191759Y-123459880D02*
X166229854Y-123536071D01*
X166229854Y-123536071D02*
X166267950Y-123688452D01*
X166267950Y-123688452D02*
X166267950Y-123802738D01*
X166267950Y-123802738D02*
X166229854Y-123955119D01*
X166229854Y-123955119D02*
X166191759Y-124031309D01*
X166191759Y-124031309D02*
X166115569Y-124107500D01*
X166115569Y-124107500D02*
X166001283Y-124145595D01*
X166001283Y-124145595D02*
X165810807Y-124145595D01*
X126025254Y-104356195D02*
X126025254Y-103556195D01*
X126025254Y-103556195D02*
X126482397Y-104356195D01*
X126482397Y-104356195D02*
X126482397Y-103556195D01*
X127320492Y-104356195D02*
X127053825Y-103975242D01*
X126863349Y-104356195D02*
X126863349Y-103556195D01*
X126863349Y-103556195D02*
X127168111Y-103556195D01*
X127168111Y-103556195D02*
X127244301Y-103594290D01*
X127244301Y-103594290D02*
X127282396Y-103632385D01*
X127282396Y-103632385D02*
X127320492Y-103708576D01*
X127320492Y-103708576D02*
X127320492Y-103822861D01*
X127320492Y-103822861D02*
X127282396Y-103899052D01*
X127282396Y-103899052D02*
X127244301Y-103937147D01*
X127244301Y-103937147D02*
X127168111Y-103975242D01*
X127168111Y-103975242D02*
X126863349Y-103975242D01*
X127625253Y-104318100D02*
X127739539Y-104356195D01*
X127739539Y-104356195D02*
X127930015Y-104356195D01*
X127930015Y-104356195D02*
X128006206Y-104318100D01*
X128006206Y-104318100D02*
X128044301Y-104280004D01*
X128044301Y-104280004D02*
X128082396Y-104203814D01*
X128082396Y-104203814D02*
X128082396Y-104127623D01*
X128082396Y-104127623D02*
X128044301Y-104051433D01*
X128044301Y-104051433D02*
X128006206Y-104013338D01*
X128006206Y-104013338D02*
X127930015Y-103975242D01*
X127930015Y-103975242D02*
X127777634Y-103937147D01*
X127777634Y-103937147D02*
X127701444Y-103899052D01*
X127701444Y-103899052D02*
X127663349Y-103860957D01*
X127663349Y-103860957D02*
X127625253Y-103784766D01*
X127625253Y-103784766D02*
X127625253Y-103708576D01*
X127625253Y-103708576D02*
X127663349Y-103632385D01*
X127663349Y-103632385D02*
X127701444Y-103594290D01*
X127701444Y-103594290D02*
X127777634Y-103556195D01*
X127777634Y-103556195D02*
X127968111Y-103556195D01*
X127968111Y-103556195D02*
X128082396Y-103594290D01*
X128310968Y-103556195D02*
X128768111Y-103556195D01*
X128539539Y-104356195D02*
X128539539Y-103556195D01*
D11*
X147363408Y-79383609D02*
X147649122Y-79383609D01*
X147506265Y-79883609D02*
X147506265Y-79383609D01*
X147911026Y-79383609D02*
X148006264Y-79383609D01*
X148006264Y-79383609D02*
X148053883Y-79407419D01*
X148053883Y-79407419D02*
X148101502Y-79455038D01*
X148101502Y-79455038D02*
X148125312Y-79550276D01*
X148125312Y-79550276D02*
X148125312Y-79716942D01*
X148125312Y-79716942D02*
X148101502Y-79812180D01*
X148101502Y-79812180D02*
X148053883Y-79859800D01*
X148053883Y-79859800D02*
X148006264Y-79883609D01*
X148006264Y-79883609D02*
X147911026Y-79883609D01*
X147911026Y-79883609D02*
X147863407Y-79859800D01*
X147863407Y-79859800D02*
X147815788Y-79812180D01*
X147815788Y-79812180D02*
X147791979Y-79716942D01*
X147791979Y-79716942D02*
X147791979Y-79550276D01*
X147791979Y-79550276D02*
X147815788Y-79455038D01*
X147815788Y-79455038D02*
X147863407Y-79407419D01*
X147863407Y-79407419D02*
X147911026Y-79383609D01*
X149006264Y-79883609D02*
X148839598Y-79645514D01*
X148720550Y-79883609D02*
X148720550Y-79383609D01*
X148720550Y-79383609D02*
X148911026Y-79383609D01*
X148911026Y-79383609D02*
X148958645Y-79407419D01*
X148958645Y-79407419D02*
X148982455Y-79431228D01*
X148982455Y-79431228D02*
X149006264Y-79478847D01*
X149006264Y-79478847D02*
X149006264Y-79550276D01*
X149006264Y-79550276D02*
X148982455Y-79597895D01*
X148982455Y-79597895D02*
X148958645Y-79621704D01*
X148958645Y-79621704D02*
X148911026Y-79645514D01*
X148911026Y-79645514D02*
X148720550Y-79645514D01*
X149387217Y-79621704D02*
X149220550Y-79621704D01*
X149220550Y-79883609D02*
X149220550Y-79383609D01*
X149220550Y-79383609D02*
X149458645Y-79383609D01*
X150196740Y-79621704D02*
X150268168Y-79645514D01*
X150268168Y-79645514D02*
X150291978Y-79669323D01*
X150291978Y-79669323D02*
X150315787Y-79716942D01*
X150315787Y-79716942D02*
X150315787Y-79788371D01*
X150315787Y-79788371D02*
X150291978Y-79835990D01*
X150291978Y-79835990D02*
X150268168Y-79859800D01*
X150268168Y-79859800D02*
X150220549Y-79883609D01*
X150220549Y-79883609D02*
X150030073Y-79883609D01*
X150030073Y-79883609D02*
X150030073Y-79383609D01*
X150030073Y-79383609D02*
X150196740Y-79383609D01*
X150196740Y-79383609D02*
X150244359Y-79407419D01*
X150244359Y-79407419D02*
X150268168Y-79431228D01*
X150268168Y-79431228D02*
X150291978Y-79478847D01*
X150291978Y-79478847D02*
X150291978Y-79526466D01*
X150291978Y-79526466D02*
X150268168Y-79574085D01*
X150268168Y-79574085D02*
X150244359Y-79597895D01*
X150244359Y-79597895D02*
X150196740Y-79621704D01*
X150196740Y-79621704D02*
X150030073Y-79621704D01*
X150625311Y-79383609D02*
X150720549Y-79383609D01*
X150720549Y-79383609D02*
X150768168Y-79407419D01*
X150768168Y-79407419D02*
X150815787Y-79455038D01*
X150815787Y-79455038D02*
X150839597Y-79550276D01*
X150839597Y-79550276D02*
X150839597Y-79716942D01*
X150839597Y-79716942D02*
X150815787Y-79812180D01*
X150815787Y-79812180D02*
X150768168Y-79859800D01*
X150768168Y-79859800D02*
X150720549Y-79883609D01*
X150720549Y-79883609D02*
X150625311Y-79883609D01*
X150625311Y-79883609D02*
X150577692Y-79859800D01*
X150577692Y-79859800D02*
X150530073Y-79812180D01*
X150530073Y-79812180D02*
X150506264Y-79716942D01*
X150506264Y-79716942D02*
X150506264Y-79550276D01*
X150506264Y-79550276D02*
X150530073Y-79455038D01*
X150530073Y-79455038D02*
X150577692Y-79407419D01*
X150577692Y-79407419D02*
X150625311Y-79383609D01*
X151030074Y-79740752D02*
X151268169Y-79740752D01*
X150982455Y-79883609D02*
X151149121Y-79383609D01*
X151149121Y-79383609D02*
X151315788Y-79883609D01*
X151768168Y-79883609D02*
X151601502Y-79645514D01*
X151482454Y-79883609D02*
X151482454Y-79383609D01*
X151482454Y-79383609D02*
X151672930Y-79383609D01*
X151672930Y-79383609D02*
X151720549Y-79407419D01*
X151720549Y-79407419D02*
X151744359Y-79431228D01*
X151744359Y-79431228D02*
X151768168Y-79478847D01*
X151768168Y-79478847D02*
X151768168Y-79550276D01*
X151768168Y-79550276D02*
X151744359Y-79597895D01*
X151744359Y-79597895D02*
X151720549Y-79621704D01*
X151720549Y-79621704D02*
X151672930Y-79645514D01*
X151672930Y-79645514D02*
X151482454Y-79645514D01*
X151982454Y-79883609D02*
X151982454Y-79383609D01*
X151982454Y-79383609D02*
X152101502Y-79383609D01*
X152101502Y-79383609D02*
X152172930Y-79407419D01*
X152172930Y-79407419D02*
X152220549Y-79455038D01*
X152220549Y-79455038D02*
X152244359Y-79502657D01*
X152244359Y-79502657D02*
X152268168Y-79597895D01*
X152268168Y-79597895D02*
X152268168Y-79669323D01*
X152268168Y-79669323D02*
X152244359Y-79764561D01*
X152244359Y-79764561D02*
X152220549Y-79812180D01*
X152220549Y-79812180D02*
X152172930Y-79859800D01*
X152172930Y-79859800D02*
X152101502Y-79883609D01*
X152101502Y-79883609D02*
X151982454Y-79883609D01*
X163461027Y-106485780D02*
X163699122Y-106485780D01*
X163413408Y-106628637D02*
X163580074Y-106128637D01*
X163580074Y-106128637D02*
X163746741Y-106628637D01*
X164199121Y-106628637D02*
X164032455Y-106390542D01*
X163913407Y-106628637D02*
X163913407Y-106128637D01*
X163913407Y-106128637D02*
X164103883Y-106128637D01*
X164103883Y-106128637D02*
X164151502Y-106152447D01*
X164151502Y-106152447D02*
X164175312Y-106176256D01*
X164175312Y-106176256D02*
X164199121Y-106223875D01*
X164199121Y-106223875D02*
X164199121Y-106295304D01*
X164199121Y-106295304D02*
X164175312Y-106342923D01*
X164175312Y-106342923D02*
X164151502Y-106366732D01*
X164151502Y-106366732D02*
X164103883Y-106390542D01*
X164103883Y-106390542D02*
X163913407Y-106390542D01*
X164413407Y-106366732D02*
X164580074Y-106366732D01*
X164651502Y-106628637D02*
X164413407Y-106628637D01*
X164413407Y-106628637D02*
X164413407Y-106128637D01*
X164413407Y-106128637D02*
X164651502Y-106128637D01*
X164841979Y-106604828D02*
X164913407Y-106628637D01*
X164913407Y-106628637D02*
X165032455Y-106628637D01*
X165032455Y-106628637D02*
X165080074Y-106604828D01*
X165080074Y-106604828D02*
X165103883Y-106581018D01*
X165103883Y-106581018D02*
X165127693Y-106533399D01*
X165127693Y-106533399D02*
X165127693Y-106485780D01*
X165127693Y-106485780D02*
X165103883Y-106438161D01*
X165103883Y-106438161D02*
X165080074Y-106414351D01*
X165080074Y-106414351D02*
X165032455Y-106390542D01*
X165032455Y-106390542D02*
X164937217Y-106366732D01*
X164937217Y-106366732D02*
X164889598Y-106342923D01*
X164889598Y-106342923D02*
X164865788Y-106319113D01*
X164865788Y-106319113D02*
X164841979Y-106271494D01*
X164841979Y-106271494D02*
X164841979Y-106223875D01*
X164841979Y-106223875D02*
X164865788Y-106176256D01*
X164865788Y-106176256D02*
X164889598Y-106152447D01*
X164889598Y-106152447D02*
X164937217Y-106128637D01*
X164937217Y-106128637D02*
X165056264Y-106128637D01*
X165056264Y-106128637D02*
X165127693Y-106152447D01*
X165889597Y-106366732D02*
X165722930Y-106366732D01*
X165722930Y-106628637D02*
X165722930Y-106128637D01*
X165722930Y-106128637D02*
X165961025Y-106128637D01*
X166222930Y-106628637D02*
X166175311Y-106604828D01*
X166175311Y-106604828D02*
X166151501Y-106557208D01*
X166151501Y-106557208D02*
X166151501Y-106128637D01*
X166413406Y-106628637D02*
X166413406Y-106295304D01*
X166413406Y-106128637D02*
X166389597Y-106152447D01*
X166389597Y-106152447D02*
X166413406Y-106176256D01*
X166413406Y-106176256D02*
X166437216Y-106152447D01*
X166437216Y-106152447D02*
X166413406Y-106128637D01*
X166413406Y-106128637D02*
X166413406Y-106176256D01*
X166865787Y-106295304D02*
X166865787Y-106700066D01*
X166865787Y-106700066D02*
X166841977Y-106747685D01*
X166841977Y-106747685D02*
X166818168Y-106771494D01*
X166818168Y-106771494D02*
X166770549Y-106795304D01*
X166770549Y-106795304D02*
X166699120Y-106795304D01*
X166699120Y-106795304D02*
X166651501Y-106771494D01*
X166865787Y-106604828D02*
X166818168Y-106628637D01*
X166818168Y-106628637D02*
X166722930Y-106628637D01*
X166722930Y-106628637D02*
X166675311Y-106604828D01*
X166675311Y-106604828D02*
X166651501Y-106581018D01*
X166651501Y-106581018D02*
X166627692Y-106533399D01*
X166627692Y-106533399D02*
X166627692Y-106390542D01*
X166627692Y-106390542D02*
X166651501Y-106342923D01*
X166651501Y-106342923D02*
X166675311Y-106319113D01*
X166675311Y-106319113D02*
X166722930Y-106295304D01*
X166722930Y-106295304D02*
X166818168Y-106295304D01*
X166818168Y-106295304D02*
X166865787Y-106319113D01*
X167103882Y-106628637D02*
X167103882Y-106128637D01*
X167318168Y-106628637D02*
X167318168Y-106366732D01*
X167318168Y-106366732D02*
X167294358Y-106319113D01*
X167294358Y-106319113D02*
X167246739Y-106295304D01*
X167246739Y-106295304D02*
X167175311Y-106295304D01*
X167175311Y-106295304D02*
X167127692Y-106319113D01*
X167127692Y-106319113D02*
X167103882Y-106342923D01*
X167484835Y-106295304D02*
X167675311Y-106295304D01*
X167556263Y-106128637D02*
X167556263Y-106557208D01*
X167556263Y-106557208D02*
X167580073Y-106604828D01*
X167580073Y-106604828D02*
X167627692Y-106628637D01*
X167627692Y-106628637D02*
X167675311Y-106628637D01*
X168508643Y-106581018D02*
X168484834Y-106604828D01*
X168484834Y-106604828D02*
X168413405Y-106628637D01*
X168413405Y-106628637D02*
X168365786Y-106628637D01*
X168365786Y-106628637D02*
X168294358Y-106604828D01*
X168294358Y-106604828D02*
X168246739Y-106557208D01*
X168246739Y-106557208D02*
X168222929Y-106509589D01*
X168222929Y-106509589D02*
X168199120Y-106414351D01*
X168199120Y-106414351D02*
X168199120Y-106342923D01*
X168199120Y-106342923D02*
X168222929Y-106247685D01*
X168222929Y-106247685D02*
X168246739Y-106200066D01*
X168246739Y-106200066D02*
X168294358Y-106152447D01*
X168294358Y-106152447D02*
X168365786Y-106128637D01*
X168365786Y-106128637D02*
X168413405Y-106128637D01*
X168413405Y-106128637D02*
X168484834Y-106152447D01*
X168484834Y-106152447D02*
X168508643Y-106176256D01*
X168794358Y-106628637D02*
X168746739Y-106604828D01*
X168746739Y-106604828D02*
X168722929Y-106581018D01*
X168722929Y-106581018D02*
X168699120Y-106533399D01*
X168699120Y-106533399D02*
X168699120Y-106390542D01*
X168699120Y-106390542D02*
X168722929Y-106342923D01*
X168722929Y-106342923D02*
X168746739Y-106319113D01*
X168746739Y-106319113D02*
X168794358Y-106295304D01*
X168794358Y-106295304D02*
X168865786Y-106295304D01*
X168865786Y-106295304D02*
X168913405Y-106319113D01*
X168913405Y-106319113D02*
X168937215Y-106342923D01*
X168937215Y-106342923D02*
X168961024Y-106390542D01*
X168961024Y-106390542D02*
X168961024Y-106533399D01*
X168961024Y-106533399D02*
X168937215Y-106581018D01*
X168937215Y-106581018D02*
X168913405Y-106604828D01*
X168913405Y-106604828D02*
X168865786Y-106628637D01*
X168865786Y-106628637D02*
X168794358Y-106628637D01*
X169175310Y-106628637D02*
X169175310Y-106295304D01*
X169175310Y-106342923D02*
X169199120Y-106319113D01*
X169199120Y-106319113D02*
X169246739Y-106295304D01*
X169246739Y-106295304D02*
X169318167Y-106295304D01*
X169318167Y-106295304D02*
X169365786Y-106319113D01*
X169365786Y-106319113D02*
X169389596Y-106366732D01*
X169389596Y-106366732D02*
X169389596Y-106628637D01*
X169389596Y-106366732D02*
X169413405Y-106319113D01*
X169413405Y-106319113D02*
X169461024Y-106295304D01*
X169461024Y-106295304D02*
X169532453Y-106295304D01*
X169532453Y-106295304D02*
X169580072Y-106319113D01*
X169580072Y-106319113D02*
X169603882Y-106366732D01*
X169603882Y-106366732D02*
X169603882Y-106628637D01*
X169841977Y-106295304D02*
X169841977Y-106795304D01*
X169841977Y-106319113D02*
X169889596Y-106295304D01*
X169889596Y-106295304D02*
X169984834Y-106295304D01*
X169984834Y-106295304D02*
X170032453Y-106319113D01*
X170032453Y-106319113D02*
X170056263Y-106342923D01*
X170056263Y-106342923D02*
X170080072Y-106390542D01*
X170080072Y-106390542D02*
X170080072Y-106533399D01*
X170080072Y-106533399D02*
X170056263Y-106581018D01*
X170056263Y-106581018D02*
X170032453Y-106604828D01*
X170032453Y-106604828D02*
X169984834Y-106628637D01*
X169984834Y-106628637D02*
X169889596Y-106628637D01*
X169889596Y-106628637D02*
X169841977Y-106604828D01*
X170508644Y-106295304D02*
X170508644Y-106628637D01*
X170294358Y-106295304D02*
X170294358Y-106557208D01*
X170294358Y-106557208D02*
X170318168Y-106604828D01*
X170318168Y-106604828D02*
X170365787Y-106628637D01*
X170365787Y-106628637D02*
X170437215Y-106628637D01*
X170437215Y-106628637D02*
X170484834Y-106604828D01*
X170484834Y-106604828D02*
X170508644Y-106581018D01*
X170675311Y-106295304D02*
X170865787Y-106295304D01*
X170746739Y-106128637D02*
X170746739Y-106557208D01*
X170746739Y-106557208D02*
X170770549Y-106604828D01*
X170770549Y-106604828D02*
X170818168Y-106628637D01*
X170818168Y-106628637D02*
X170865787Y-106628637D01*
X171222929Y-106604828D02*
X171175310Y-106628637D01*
X171175310Y-106628637D02*
X171080072Y-106628637D01*
X171080072Y-106628637D02*
X171032453Y-106604828D01*
X171032453Y-106604828D02*
X171008644Y-106557208D01*
X171008644Y-106557208D02*
X171008644Y-106366732D01*
X171008644Y-106366732D02*
X171032453Y-106319113D01*
X171032453Y-106319113D02*
X171080072Y-106295304D01*
X171080072Y-106295304D02*
X171175310Y-106295304D01*
X171175310Y-106295304D02*
X171222929Y-106319113D01*
X171222929Y-106319113D02*
X171246739Y-106366732D01*
X171246739Y-106366732D02*
X171246739Y-106414351D01*
X171246739Y-106414351D02*
X171008644Y-106461970D01*
X171461024Y-106628637D02*
X171461024Y-106295304D01*
X171461024Y-106390542D02*
X171484834Y-106342923D01*
X171484834Y-106342923D02*
X171508643Y-106319113D01*
X171508643Y-106319113D02*
X171556262Y-106295304D01*
X171556262Y-106295304D02*
X171603881Y-106295304D01*
X163484836Y-107433609D02*
X163484836Y-107100276D01*
X163484836Y-107195514D02*
X163508646Y-107147895D01*
X163508646Y-107147895D02*
X163532455Y-107124085D01*
X163532455Y-107124085D02*
X163580074Y-107100276D01*
X163580074Y-107100276D02*
X163627693Y-107100276D01*
X163984836Y-107409800D02*
X163937217Y-107433609D01*
X163937217Y-107433609D02*
X163841979Y-107433609D01*
X163841979Y-107433609D02*
X163794360Y-107409800D01*
X163794360Y-107409800D02*
X163770551Y-107362180D01*
X163770551Y-107362180D02*
X163770551Y-107171704D01*
X163770551Y-107171704D02*
X163794360Y-107124085D01*
X163794360Y-107124085D02*
X163841979Y-107100276D01*
X163841979Y-107100276D02*
X163937217Y-107100276D01*
X163937217Y-107100276D02*
X163984836Y-107124085D01*
X163984836Y-107124085D02*
X164008646Y-107171704D01*
X164008646Y-107171704D02*
X164008646Y-107219323D01*
X164008646Y-107219323D02*
X163770551Y-107266942D01*
X164175312Y-107100276D02*
X164294360Y-107433609D01*
X164294360Y-107433609D02*
X164413407Y-107100276D01*
X164794359Y-107409800D02*
X164746740Y-107433609D01*
X164746740Y-107433609D02*
X164651502Y-107433609D01*
X164651502Y-107433609D02*
X164603883Y-107409800D01*
X164603883Y-107409800D02*
X164580074Y-107362180D01*
X164580074Y-107362180D02*
X164580074Y-107171704D01*
X164580074Y-107171704D02*
X164603883Y-107124085D01*
X164603883Y-107124085D02*
X164651502Y-107100276D01*
X164651502Y-107100276D02*
X164746740Y-107100276D01*
X164746740Y-107100276D02*
X164794359Y-107124085D01*
X164794359Y-107124085D02*
X164818169Y-107171704D01*
X164818169Y-107171704D02*
X164818169Y-107219323D01*
X164818169Y-107219323D02*
X164580074Y-107266942D01*
X165032454Y-107433609D02*
X165032454Y-107100276D01*
X165032454Y-107195514D02*
X165056264Y-107147895D01*
X165056264Y-107147895D02*
X165080073Y-107124085D01*
X165080073Y-107124085D02*
X165127692Y-107100276D01*
X165127692Y-107100276D02*
X165175311Y-107100276D01*
X165270550Y-107100276D02*
X165461026Y-107100276D01*
X165341978Y-106933609D02*
X165341978Y-107362180D01*
X165341978Y-107362180D02*
X165365788Y-107409800D01*
X165365788Y-107409800D02*
X165413407Y-107433609D01*
X165413407Y-107433609D02*
X165461026Y-107433609D01*
X165818168Y-107409800D02*
X165770549Y-107433609D01*
X165770549Y-107433609D02*
X165675311Y-107433609D01*
X165675311Y-107433609D02*
X165627692Y-107409800D01*
X165627692Y-107409800D02*
X165603883Y-107362180D01*
X165603883Y-107362180D02*
X165603883Y-107171704D01*
X165603883Y-107171704D02*
X165627692Y-107124085D01*
X165627692Y-107124085D02*
X165675311Y-107100276D01*
X165675311Y-107100276D02*
X165770549Y-107100276D01*
X165770549Y-107100276D02*
X165818168Y-107124085D01*
X165818168Y-107124085D02*
X165841978Y-107171704D01*
X165841978Y-107171704D02*
X165841978Y-107219323D01*
X165841978Y-107219323D02*
X165603883Y-107266942D01*
X165984835Y-107100276D02*
X166175311Y-107100276D01*
X166056263Y-106933609D02*
X166056263Y-107362180D01*
X166056263Y-107362180D02*
X166080073Y-107409800D01*
X166080073Y-107409800D02*
X166127692Y-107433609D01*
X166127692Y-107433609D02*
X166175311Y-107433609D01*
X166556263Y-107100276D02*
X166556263Y-107433609D01*
X166341977Y-107100276D02*
X166341977Y-107362180D01*
X166341977Y-107362180D02*
X166365787Y-107409800D01*
X166365787Y-107409800D02*
X166413406Y-107433609D01*
X166413406Y-107433609D02*
X166484834Y-107433609D01*
X166484834Y-107433609D02*
X166532453Y-107409800D01*
X166532453Y-107409800D02*
X166556263Y-107385990D01*
X166794358Y-107433609D02*
X166794358Y-107100276D01*
X166794358Y-107195514D02*
X166818168Y-107147895D01*
X166818168Y-107147895D02*
X166841977Y-107124085D01*
X166841977Y-107124085D02*
X166889596Y-107100276D01*
X166889596Y-107100276D02*
X166937215Y-107100276D01*
X167699120Y-107433609D02*
X167699120Y-107171704D01*
X167699120Y-107171704D02*
X167675310Y-107124085D01*
X167675310Y-107124085D02*
X167627691Y-107100276D01*
X167627691Y-107100276D02*
X167532453Y-107100276D01*
X167532453Y-107100276D02*
X167484834Y-107124085D01*
X167699120Y-107409800D02*
X167651501Y-107433609D01*
X167651501Y-107433609D02*
X167532453Y-107433609D01*
X167532453Y-107433609D02*
X167484834Y-107409800D01*
X167484834Y-107409800D02*
X167461025Y-107362180D01*
X167461025Y-107362180D02*
X167461025Y-107314561D01*
X167461025Y-107314561D02*
X167484834Y-107266942D01*
X167484834Y-107266942D02*
X167532453Y-107243133D01*
X167532453Y-107243133D02*
X167651501Y-107243133D01*
X167651501Y-107243133D02*
X167699120Y-107219323D01*
X168151501Y-107433609D02*
X168151501Y-106933609D01*
X168151501Y-107409800D02*
X168103882Y-107433609D01*
X168103882Y-107433609D02*
X168008644Y-107433609D01*
X168008644Y-107433609D02*
X167961025Y-107409800D01*
X167961025Y-107409800D02*
X167937215Y-107385990D01*
X167937215Y-107385990D02*
X167913406Y-107338371D01*
X167913406Y-107338371D02*
X167913406Y-107195514D01*
X167913406Y-107195514D02*
X167937215Y-107147895D01*
X167937215Y-107147895D02*
X167961025Y-107124085D01*
X167961025Y-107124085D02*
X168008644Y-107100276D01*
X168008644Y-107100276D02*
X168103882Y-107100276D01*
X168103882Y-107100276D02*
X168151501Y-107124085D01*
X168699120Y-107100276D02*
X168889596Y-107100276D01*
X168770548Y-106933609D02*
X168770548Y-107362180D01*
X168770548Y-107362180D02*
X168794358Y-107409800D01*
X168794358Y-107409800D02*
X168841977Y-107433609D01*
X168841977Y-107433609D02*
X168889596Y-107433609D01*
X169246738Y-107409800D02*
X169199119Y-107433609D01*
X169199119Y-107433609D02*
X169103881Y-107433609D01*
X169103881Y-107433609D02*
X169056262Y-107409800D01*
X169056262Y-107409800D02*
X169032453Y-107362180D01*
X169032453Y-107362180D02*
X169032453Y-107171704D01*
X169032453Y-107171704D02*
X169056262Y-107124085D01*
X169056262Y-107124085D02*
X169103881Y-107100276D01*
X169103881Y-107100276D02*
X169199119Y-107100276D01*
X169199119Y-107100276D02*
X169246738Y-107124085D01*
X169246738Y-107124085D02*
X169270548Y-107171704D01*
X169270548Y-107171704D02*
X169270548Y-107219323D01*
X169270548Y-107219323D02*
X169032453Y-107266942D01*
X169484833Y-107433609D02*
X169484833Y-107100276D01*
X169484833Y-107195514D02*
X169508643Y-107147895D01*
X169508643Y-107147895D02*
X169532452Y-107124085D01*
X169532452Y-107124085D02*
X169580071Y-107100276D01*
X169580071Y-107100276D02*
X169627690Y-107100276D01*
X169794357Y-107433609D02*
X169794357Y-107100276D01*
X169794357Y-107195514D02*
X169818167Y-107147895D01*
X169818167Y-107147895D02*
X169841976Y-107124085D01*
X169841976Y-107124085D02*
X169889595Y-107100276D01*
X169889595Y-107100276D02*
X169937214Y-107100276D01*
X170318167Y-107433609D02*
X170318167Y-107171704D01*
X170318167Y-107171704D02*
X170294357Y-107124085D01*
X170294357Y-107124085D02*
X170246738Y-107100276D01*
X170246738Y-107100276D02*
X170151500Y-107100276D01*
X170151500Y-107100276D02*
X170103881Y-107124085D01*
X170318167Y-107409800D02*
X170270548Y-107433609D01*
X170270548Y-107433609D02*
X170151500Y-107433609D01*
X170151500Y-107433609D02*
X170103881Y-107409800D01*
X170103881Y-107409800D02*
X170080072Y-107362180D01*
X170080072Y-107362180D02*
X170080072Y-107314561D01*
X170080072Y-107314561D02*
X170103881Y-107266942D01*
X170103881Y-107266942D02*
X170151500Y-107243133D01*
X170151500Y-107243133D02*
X170270548Y-107243133D01*
X170270548Y-107243133D02*
X170318167Y-107219323D01*
X170556262Y-107433609D02*
X170556262Y-107100276D01*
X170556262Y-107147895D02*
X170580072Y-107124085D01*
X170580072Y-107124085D02*
X170627691Y-107100276D01*
X170627691Y-107100276D02*
X170699119Y-107100276D01*
X170699119Y-107100276D02*
X170746738Y-107124085D01*
X170746738Y-107124085D02*
X170770548Y-107171704D01*
X170770548Y-107171704D02*
X170770548Y-107433609D01*
X170770548Y-107171704D02*
X170794357Y-107124085D01*
X170794357Y-107124085D02*
X170841976Y-107100276D01*
X170841976Y-107100276D02*
X170913405Y-107100276D01*
X170913405Y-107100276D02*
X170961024Y-107124085D01*
X170961024Y-107124085D02*
X170984834Y-107171704D01*
X170984834Y-107171704D02*
X170984834Y-107433609D01*
X171603881Y-107100276D02*
X171603881Y-107600276D01*
X171603881Y-107124085D02*
X171651500Y-107100276D01*
X171651500Y-107100276D02*
X171746738Y-107100276D01*
X171746738Y-107100276D02*
X171794357Y-107124085D01*
X171794357Y-107124085D02*
X171818167Y-107147895D01*
X171818167Y-107147895D02*
X171841976Y-107195514D01*
X171841976Y-107195514D02*
X171841976Y-107338371D01*
X171841976Y-107338371D02*
X171818167Y-107385990D01*
X171818167Y-107385990D02*
X171794357Y-107409800D01*
X171794357Y-107409800D02*
X171746738Y-107433609D01*
X171746738Y-107433609D02*
X171651500Y-107433609D01*
X171651500Y-107433609D02*
X171603881Y-107409800D01*
X172246738Y-107409800D02*
X172199119Y-107433609D01*
X172199119Y-107433609D02*
X172103881Y-107433609D01*
X172103881Y-107433609D02*
X172056262Y-107409800D01*
X172056262Y-107409800D02*
X172032453Y-107362180D01*
X172032453Y-107362180D02*
X172032453Y-107171704D01*
X172032453Y-107171704D02*
X172056262Y-107124085D01*
X172056262Y-107124085D02*
X172103881Y-107100276D01*
X172103881Y-107100276D02*
X172199119Y-107100276D01*
X172199119Y-107100276D02*
X172246738Y-107124085D01*
X172246738Y-107124085D02*
X172270548Y-107171704D01*
X172270548Y-107171704D02*
X172270548Y-107219323D01*
X172270548Y-107219323D02*
X172032453Y-107266942D01*
X172484833Y-107433609D02*
X172484833Y-107100276D01*
X172484833Y-107195514D02*
X172508643Y-107147895D01*
X172508643Y-107147895D02*
X172532452Y-107124085D01*
X172532452Y-107124085D02*
X172580071Y-107100276D01*
X172580071Y-107100276D02*
X172627690Y-107100276D01*
X173389595Y-107433609D02*
X173389595Y-107171704D01*
X173389595Y-107171704D02*
X173365785Y-107124085D01*
X173365785Y-107124085D02*
X173318166Y-107100276D01*
X173318166Y-107100276D02*
X173222928Y-107100276D01*
X173222928Y-107100276D02*
X173175309Y-107124085D01*
X173389595Y-107409800D02*
X173341976Y-107433609D01*
X173341976Y-107433609D02*
X173222928Y-107433609D01*
X173222928Y-107433609D02*
X173175309Y-107409800D01*
X173175309Y-107409800D02*
X173151500Y-107362180D01*
X173151500Y-107362180D02*
X173151500Y-107314561D01*
X173151500Y-107314561D02*
X173175309Y-107266942D01*
X173175309Y-107266942D02*
X173222928Y-107243133D01*
X173222928Y-107243133D02*
X173341976Y-107243133D01*
X173341976Y-107243133D02*
X173389595Y-107219323D01*
X173603881Y-107409800D02*
X173651500Y-107433609D01*
X173651500Y-107433609D02*
X173746738Y-107433609D01*
X173746738Y-107433609D02*
X173794357Y-107409800D01*
X173794357Y-107409800D02*
X173818166Y-107362180D01*
X173818166Y-107362180D02*
X173818166Y-107338371D01*
X173818166Y-107338371D02*
X173794357Y-107290752D01*
X173794357Y-107290752D02*
X173746738Y-107266942D01*
X173746738Y-107266942D02*
X173675309Y-107266942D01*
X173675309Y-107266942D02*
X173627690Y-107243133D01*
X173627690Y-107243133D02*
X173603881Y-107195514D01*
X173603881Y-107195514D02*
X173603881Y-107171704D01*
X173603881Y-107171704D02*
X173627690Y-107124085D01*
X173627690Y-107124085D02*
X173675309Y-107100276D01*
X173675309Y-107100276D02*
X173746738Y-107100276D01*
X173746738Y-107100276D02*
X173794357Y-107124085D01*
X174032452Y-107100276D02*
X174032452Y-107600276D01*
X174032452Y-107124085D02*
X174080071Y-107100276D01*
X174080071Y-107100276D02*
X174175309Y-107100276D01*
X174175309Y-107100276D02*
X174222928Y-107124085D01*
X174222928Y-107124085D02*
X174246738Y-107147895D01*
X174246738Y-107147895D02*
X174270547Y-107195514D01*
X174270547Y-107195514D02*
X174270547Y-107338371D01*
X174270547Y-107338371D02*
X174246738Y-107385990D01*
X174246738Y-107385990D02*
X174222928Y-107409800D01*
X174222928Y-107409800D02*
X174175309Y-107433609D01*
X174175309Y-107433609D02*
X174080071Y-107433609D01*
X174080071Y-107433609D02*
X174032452Y-107409800D01*
X174675309Y-107409800D02*
X174627690Y-107433609D01*
X174627690Y-107433609D02*
X174532452Y-107433609D01*
X174532452Y-107433609D02*
X174484833Y-107409800D01*
X174484833Y-107409800D02*
X174461024Y-107362180D01*
X174461024Y-107362180D02*
X174461024Y-107171704D01*
X174461024Y-107171704D02*
X174484833Y-107124085D01*
X174484833Y-107124085D02*
X174532452Y-107100276D01*
X174532452Y-107100276D02*
X174627690Y-107100276D01*
X174627690Y-107100276D02*
X174675309Y-107124085D01*
X174675309Y-107124085D02*
X174699119Y-107171704D01*
X174699119Y-107171704D02*
X174699119Y-107219323D01*
X174699119Y-107219323D02*
X174461024Y-107266942D01*
X174913404Y-107433609D02*
X174913404Y-107100276D01*
X174913404Y-107195514D02*
X174937214Y-107147895D01*
X174937214Y-107147895D02*
X174961023Y-107124085D01*
X174961023Y-107124085D02*
X175008642Y-107100276D01*
X175008642Y-107100276D02*
X175056261Y-107100276D01*
X175437214Y-107433609D02*
X175437214Y-107171704D01*
X175437214Y-107171704D02*
X175413404Y-107124085D01*
X175413404Y-107124085D02*
X175365785Y-107100276D01*
X175365785Y-107100276D02*
X175270547Y-107100276D01*
X175270547Y-107100276D02*
X175222928Y-107124085D01*
X175437214Y-107409800D02*
X175389595Y-107433609D01*
X175389595Y-107433609D02*
X175270547Y-107433609D01*
X175270547Y-107433609D02*
X175222928Y-107409800D01*
X175222928Y-107409800D02*
X175199119Y-107362180D01*
X175199119Y-107362180D02*
X175199119Y-107314561D01*
X175199119Y-107314561D02*
X175222928Y-107266942D01*
X175222928Y-107266942D02*
X175270547Y-107243133D01*
X175270547Y-107243133D02*
X175389595Y-107243133D01*
X175389595Y-107243133D02*
X175437214Y-107219323D01*
D10*
X125911015Y-96571100D02*
X126025301Y-96609195D01*
X126025301Y-96609195D02*
X126215777Y-96609195D01*
X126215777Y-96609195D02*
X126291968Y-96571100D01*
X126291968Y-96571100D02*
X126330063Y-96533004D01*
X126330063Y-96533004D02*
X126368158Y-96456814D01*
X126368158Y-96456814D02*
X126368158Y-96380623D01*
X126368158Y-96380623D02*
X126330063Y-96304433D01*
X126330063Y-96304433D02*
X126291968Y-96266338D01*
X126291968Y-96266338D02*
X126215777Y-96228242D01*
X126215777Y-96228242D02*
X126063396Y-96190147D01*
X126063396Y-96190147D02*
X125987206Y-96152052D01*
X125987206Y-96152052D02*
X125949111Y-96113957D01*
X125949111Y-96113957D02*
X125911015Y-96037766D01*
X125911015Y-96037766D02*
X125911015Y-95961576D01*
X125911015Y-95961576D02*
X125949111Y-95885385D01*
X125949111Y-95885385D02*
X125987206Y-95847290D01*
X125987206Y-95847290D02*
X126063396Y-95809195D01*
X126063396Y-95809195D02*
X126253873Y-95809195D01*
X126253873Y-95809195D02*
X126368158Y-95847290D01*
X126634825Y-95809195D02*
X126825301Y-96609195D01*
X126825301Y-96609195D02*
X126977682Y-96037766D01*
X126977682Y-96037766D02*
X127130063Y-96609195D01*
X127130063Y-96609195D02*
X127320540Y-95809195D01*
X128082445Y-96533004D02*
X128044349Y-96571100D01*
X128044349Y-96571100D02*
X127930064Y-96609195D01*
X127930064Y-96609195D02*
X127853873Y-96609195D01*
X127853873Y-96609195D02*
X127739587Y-96571100D01*
X127739587Y-96571100D02*
X127663397Y-96494909D01*
X127663397Y-96494909D02*
X127625302Y-96418719D01*
X127625302Y-96418719D02*
X127587206Y-96266338D01*
X127587206Y-96266338D02*
X127587206Y-96152052D01*
X127587206Y-96152052D02*
X127625302Y-95999671D01*
X127625302Y-95999671D02*
X127663397Y-95923480D01*
X127663397Y-95923480D02*
X127739587Y-95847290D01*
X127739587Y-95847290D02*
X127853873Y-95809195D01*
X127853873Y-95809195D02*
X127930064Y-95809195D01*
X127930064Y-95809195D02*
X128044349Y-95847290D01*
X128044349Y-95847290D02*
X128082445Y-95885385D01*
X128806254Y-96609195D02*
X128425302Y-96609195D01*
X128425302Y-96609195D02*
X128425302Y-95809195D01*
X129072921Y-96609195D02*
X129072921Y-95809195D01*
X129530064Y-96609195D02*
X129187206Y-96152052D01*
X129530064Y-95809195D02*
X129072921Y-96266338D01*
X159613426Y-123345595D02*
X159880093Y-124145595D01*
X159880093Y-124145595D02*
X160146759Y-123345595D01*
X160680092Y-123726547D02*
X160794378Y-123764642D01*
X160794378Y-123764642D02*
X160832473Y-123802738D01*
X160832473Y-123802738D02*
X160870569Y-123878928D01*
X160870569Y-123878928D02*
X160870569Y-123993214D01*
X160870569Y-123993214D02*
X160832473Y-124069404D01*
X160832473Y-124069404D02*
X160794378Y-124107500D01*
X160794378Y-124107500D02*
X160718188Y-124145595D01*
X160718188Y-124145595D02*
X160413426Y-124145595D01*
X160413426Y-124145595D02*
X160413426Y-123345595D01*
X160413426Y-123345595D02*
X160680092Y-123345595D01*
X160680092Y-123345595D02*
X160756283Y-123383690D01*
X160756283Y-123383690D02*
X160794378Y-123421785D01*
X160794378Y-123421785D02*
X160832473Y-123497976D01*
X160832473Y-123497976D02*
X160832473Y-123574166D01*
X160832473Y-123574166D02*
X160794378Y-123650357D01*
X160794378Y-123650357D02*
X160756283Y-123688452D01*
X160756283Y-123688452D02*
X160680092Y-123726547D01*
X160680092Y-123726547D02*
X160413426Y-123726547D01*
X161213426Y-123345595D02*
X161213426Y-123993214D01*
X161213426Y-123993214D02*
X161251521Y-124069404D01*
X161251521Y-124069404D02*
X161289616Y-124107500D01*
X161289616Y-124107500D02*
X161365807Y-124145595D01*
X161365807Y-124145595D02*
X161518188Y-124145595D01*
X161518188Y-124145595D02*
X161594378Y-124107500D01*
X161594378Y-124107500D02*
X161632473Y-124069404D01*
X161632473Y-124069404D02*
X161670569Y-123993214D01*
X161670569Y-123993214D02*
X161670569Y-123345595D01*
X162013425Y-124107500D02*
X162127711Y-124145595D01*
X162127711Y-124145595D02*
X162318187Y-124145595D01*
X162318187Y-124145595D02*
X162394378Y-124107500D01*
X162394378Y-124107500D02*
X162432473Y-124069404D01*
X162432473Y-124069404D02*
X162470568Y-123993214D01*
X162470568Y-123993214D02*
X162470568Y-123917023D01*
X162470568Y-123917023D02*
X162432473Y-123840833D01*
X162432473Y-123840833D02*
X162394378Y-123802738D01*
X162394378Y-123802738D02*
X162318187Y-123764642D01*
X162318187Y-123764642D02*
X162165806Y-123726547D01*
X162165806Y-123726547D02*
X162089616Y-123688452D01*
X162089616Y-123688452D02*
X162051521Y-123650357D01*
X162051521Y-123650357D02*
X162013425Y-123574166D01*
X162013425Y-123574166D02*
X162013425Y-123497976D01*
X162013425Y-123497976D02*
X162051521Y-123421785D01*
X162051521Y-123421785D02*
X162089616Y-123383690D01*
X162089616Y-123383690D02*
X162165806Y-123345595D01*
X162165806Y-123345595D02*
X162356283Y-123345595D01*
X162356283Y-123345595D02*
X162470568Y-123383690D01*
D11*
X145363408Y-119233609D02*
X145649122Y-119233609D01*
X145506265Y-119733609D02*
X145506265Y-119233609D01*
X145911026Y-119233609D02*
X146006264Y-119233609D01*
X146006264Y-119233609D02*
X146053883Y-119257419D01*
X146053883Y-119257419D02*
X146101502Y-119305038D01*
X146101502Y-119305038D02*
X146125312Y-119400276D01*
X146125312Y-119400276D02*
X146125312Y-119566942D01*
X146125312Y-119566942D02*
X146101502Y-119662180D01*
X146101502Y-119662180D02*
X146053883Y-119709800D01*
X146053883Y-119709800D02*
X146006264Y-119733609D01*
X146006264Y-119733609D02*
X145911026Y-119733609D01*
X145911026Y-119733609D02*
X145863407Y-119709800D01*
X145863407Y-119709800D02*
X145815788Y-119662180D01*
X145815788Y-119662180D02*
X145791979Y-119566942D01*
X145791979Y-119566942D02*
X145791979Y-119400276D01*
X145791979Y-119400276D02*
X145815788Y-119305038D01*
X145815788Y-119305038D02*
X145863407Y-119257419D01*
X145863407Y-119257419D02*
X145911026Y-119233609D01*
X146720550Y-119733609D02*
X146720550Y-119233609D01*
X146720550Y-119233609D02*
X146887217Y-119590752D01*
X146887217Y-119590752D02*
X147053883Y-119233609D01*
X147053883Y-119233609D02*
X147053883Y-119733609D01*
X147387217Y-119233609D02*
X147482455Y-119233609D01*
X147482455Y-119233609D02*
X147530074Y-119257419D01*
X147530074Y-119257419D02*
X147577693Y-119305038D01*
X147577693Y-119305038D02*
X147601503Y-119400276D01*
X147601503Y-119400276D02*
X147601503Y-119566942D01*
X147601503Y-119566942D02*
X147577693Y-119662180D01*
X147577693Y-119662180D02*
X147530074Y-119709800D01*
X147530074Y-119709800D02*
X147482455Y-119733609D01*
X147482455Y-119733609D02*
X147387217Y-119733609D01*
X147387217Y-119733609D02*
X147339598Y-119709800D01*
X147339598Y-119709800D02*
X147291979Y-119662180D01*
X147291979Y-119662180D02*
X147268170Y-119566942D01*
X147268170Y-119566942D02*
X147268170Y-119400276D01*
X147268170Y-119400276D02*
X147291979Y-119305038D01*
X147291979Y-119305038D02*
X147339598Y-119257419D01*
X147339598Y-119257419D02*
X147387217Y-119233609D01*
X147744361Y-119233609D02*
X148030075Y-119233609D01*
X147887218Y-119733609D02*
X147887218Y-119233609D01*
X148291979Y-119233609D02*
X148387217Y-119233609D01*
X148387217Y-119233609D02*
X148434836Y-119257419D01*
X148434836Y-119257419D02*
X148482455Y-119305038D01*
X148482455Y-119305038D02*
X148506265Y-119400276D01*
X148506265Y-119400276D02*
X148506265Y-119566942D01*
X148506265Y-119566942D02*
X148482455Y-119662180D01*
X148482455Y-119662180D02*
X148434836Y-119709800D01*
X148434836Y-119709800D02*
X148387217Y-119733609D01*
X148387217Y-119733609D02*
X148291979Y-119733609D01*
X148291979Y-119733609D02*
X148244360Y-119709800D01*
X148244360Y-119709800D02*
X148196741Y-119662180D01*
X148196741Y-119662180D02*
X148172932Y-119566942D01*
X148172932Y-119566942D02*
X148172932Y-119400276D01*
X148172932Y-119400276D02*
X148196741Y-119305038D01*
X148196741Y-119305038D02*
X148244360Y-119257419D01*
X148244360Y-119257419D02*
X148291979Y-119233609D01*
X149006265Y-119733609D02*
X148839599Y-119495514D01*
X148720551Y-119733609D02*
X148720551Y-119233609D01*
X148720551Y-119233609D02*
X148911027Y-119233609D01*
X148911027Y-119233609D02*
X148958646Y-119257419D01*
X148958646Y-119257419D02*
X148982456Y-119281228D01*
X148982456Y-119281228D02*
X149006265Y-119328847D01*
X149006265Y-119328847D02*
X149006265Y-119400276D01*
X149006265Y-119400276D02*
X148982456Y-119447895D01*
X148982456Y-119447895D02*
X148958646Y-119471704D01*
X148958646Y-119471704D02*
X148911027Y-119495514D01*
X148911027Y-119495514D02*
X148720551Y-119495514D01*
X149577694Y-119209800D02*
X149149123Y-119852657D01*
X149744361Y-119733609D02*
X149744361Y-119233609D01*
X149744361Y-119233609D02*
X149934837Y-119233609D01*
X149934837Y-119233609D02*
X149982456Y-119257419D01*
X149982456Y-119257419D02*
X150006266Y-119281228D01*
X150006266Y-119281228D02*
X150030075Y-119328847D01*
X150030075Y-119328847D02*
X150030075Y-119400276D01*
X150030075Y-119400276D02*
X150006266Y-119447895D01*
X150006266Y-119447895D02*
X149982456Y-119471704D01*
X149982456Y-119471704D02*
X149934837Y-119495514D01*
X149934837Y-119495514D02*
X149744361Y-119495514D01*
X150339599Y-119233609D02*
X150434837Y-119233609D01*
X150434837Y-119233609D02*
X150482456Y-119257419D01*
X150482456Y-119257419D02*
X150530075Y-119305038D01*
X150530075Y-119305038D02*
X150553885Y-119400276D01*
X150553885Y-119400276D02*
X150553885Y-119566942D01*
X150553885Y-119566942D02*
X150530075Y-119662180D01*
X150530075Y-119662180D02*
X150482456Y-119709800D01*
X150482456Y-119709800D02*
X150434837Y-119733609D01*
X150434837Y-119733609D02*
X150339599Y-119733609D01*
X150339599Y-119733609D02*
X150291980Y-119709800D01*
X150291980Y-119709800D02*
X150244361Y-119662180D01*
X150244361Y-119662180D02*
X150220552Y-119566942D01*
X150220552Y-119566942D02*
X150220552Y-119400276D01*
X150220552Y-119400276D02*
X150244361Y-119305038D01*
X150244361Y-119305038D02*
X150291980Y-119257419D01*
X150291980Y-119257419D02*
X150339599Y-119233609D01*
X150720552Y-119233609D02*
X150839600Y-119733609D01*
X150839600Y-119733609D02*
X150934838Y-119376466D01*
X150934838Y-119376466D02*
X151030076Y-119733609D01*
X151030076Y-119733609D02*
X151149124Y-119233609D01*
X151339600Y-119471704D02*
X151506267Y-119471704D01*
X151577695Y-119733609D02*
X151339600Y-119733609D01*
X151339600Y-119733609D02*
X151339600Y-119233609D01*
X151339600Y-119233609D02*
X151577695Y-119233609D01*
X152077695Y-119733609D02*
X151911029Y-119495514D01*
X151791981Y-119733609D02*
X151791981Y-119233609D01*
X151791981Y-119233609D02*
X151982457Y-119233609D01*
X151982457Y-119233609D02*
X152030076Y-119257419D01*
X152030076Y-119257419D02*
X152053886Y-119281228D01*
X152053886Y-119281228D02*
X152077695Y-119328847D01*
X152077695Y-119328847D02*
X152077695Y-119400276D01*
X152077695Y-119400276D02*
X152053886Y-119447895D01*
X152053886Y-119447895D02*
X152030076Y-119471704D01*
X152030076Y-119471704D02*
X151982457Y-119495514D01*
X151982457Y-119495514D02*
X151791981Y-119495514D01*
X152839600Y-119471704D02*
X152911028Y-119495514D01*
X152911028Y-119495514D02*
X152934838Y-119519323D01*
X152934838Y-119519323D02*
X152958647Y-119566942D01*
X152958647Y-119566942D02*
X152958647Y-119638371D01*
X152958647Y-119638371D02*
X152934838Y-119685990D01*
X152934838Y-119685990D02*
X152911028Y-119709800D01*
X152911028Y-119709800D02*
X152863409Y-119733609D01*
X152863409Y-119733609D02*
X152672933Y-119733609D01*
X152672933Y-119733609D02*
X152672933Y-119233609D01*
X152672933Y-119233609D02*
X152839600Y-119233609D01*
X152839600Y-119233609D02*
X152887219Y-119257419D01*
X152887219Y-119257419D02*
X152911028Y-119281228D01*
X152911028Y-119281228D02*
X152934838Y-119328847D01*
X152934838Y-119328847D02*
X152934838Y-119376466D01*
X152934838Y-119376466D02*
X152911028Y-119424085D01*
X152911028Y-119424085D02*
X152887219Y-119447895D01*
X152887219Y-119447895D02*
X152839600Y-119471704D01*
X152839600Y-119471704D02*
X152672933Y-119471704D01*
X153268171Y-119233609D02*
X153363409Y-119233609D01*
X153363409Y-119233609D02*
X153411028Y-119257419D01*
X153411028Y-119257419D02*
X153458647Y-119305038D01*
X153458647Y-119305038D02*
X153482457Y-119400276D01*
X153482457Y-119400276D02*
X153482457Y-119566942D01*
X153482457Y-119566942D02*
X153458647Y-119662180D01*
X153458647Y-119662180D02*
X153411028Y-119709800D01*
X153411028Y-119709800D02*
X153363409Y-119733609D01*
X153363409Y-119733609D02*
X153268171Y-119733609D01*
X153268171Y-119733609D02*
X153220552Y-119709800D01*
X153220552Y-119709800D02*
X153172933Y-119662180D01*
X153172933Y-119662180D02*
X153149124Y-119566942D01*
X153149124Y-119566942D02*
X153149124Y-119400276D01*
X153149124Y-119400276D02*
X153172933Y-119305038D01*
X153172933Y-119305038D02*
X153220552Y-119257419D01*
X153220552Y-119257419D02*
X153268171Y-119233609D01*
X153672934Y-119590752D02*
X153911029Y-119590752D01*
X153625315Y-119733609D02*
X153791981Y-119233609D01*
X153791981Y-119233609D02*
X153958648Y-119733609D01*
X154411028Y-119733609D02*
X154244362Y-119495514D01*
X154125314Y-119733609D02*
X154125314Y-119233609D01*
X154125314Y-119233609D02*
X154315790Y-119233609D01*
X154315790Y-119233609D02*
X154363409Y-119257419D01*
X154363409Y-119257419D02*
X154387219Y-119281228D01*
X154387219Y-119281228D02*
X154411028Y-119328847D01*
X154411028Y-119328847D02*
X154411028Y-119400276D01*
X154411028Y-119400276D02*
X154387219Y-119447895D01*
X154387219Y-119447895D02*
X154363409Y-119471704D01*
X154363409Y-119471704D02*
X154315790Y-119495514D01*
X154315790Y-119495514D02*
X154125314Y-119495514D01*
X154625314Y-119733609D02*
X154625314Y-119233609D01*
X154625314Y-119233609D02*
X154744362Y-119233609D01*
X154744362Y-119233609D02*
X154815790Y-119257419D01*
X154815790Y-119257419D02*
X154863409Y-119305038D01*
X154863409Y-119305038D02*
X154887219Y-119352657D01*
X154887219Y-119352657D02*
X154911028Y-119447895D01*
X154911028Y-119447895D02*
X154911028Y-119519323D01*
X154911028Y-119519323D02*
X154887219Y-119614561D01*
X154887219Y-119614561D02*
X154863409Y-119662180D01*
X154863409Y-119662180D02*
X154815790Y-119709800D01*
X154815790Y-119709800D02*
X154744362Y-119733609D01*
X154744362Y-119733609D02*
X154625314Y-119733609D01*
D10*
X126025301Y-101651100D02*
X126139587Y-101689195D01*
X126139587Y-101689195D02*
X126330063Y-101689195D01*
X126330063Y-101689195D02*
X126406254Y-101651100D01*
X126406254Y-101651100D02*
X126444349Y-101613004D01*
X126444349Y-101613004D02*
X126482444Y-101536814D01*
X126482444Y-101536814D02*
X126482444Y-101460623D01*
X126482444Y-101460623D02*
X126444349Y-101384433D01*
X126444349Y-101384433D02*
X126406254Y-101346338D01*
X126406254Y-101346338D02*
X126330063Y-101308242D01*
X126330063Y-101308242D02*
X126177682Y-101270147D01*
X126177682Y-101270147D02*
X126101492Y-101232052D01*
X126101492Y-101232052D02*
X126063397Y-101193957D01*
X126063397Y-101193957D02*
X126025301Y-101117766D01*
X126025301Y-101117766D02*
X126025301Y-101041576D01*
X126025301Y-101041576D02*
X126063397Y-100965385D01*
X126063397Y-100965385D02*
X126101492Y-100927290D01*
X126101492Y-100927290D02*
X126177682Y-100889195D01*
X126177682Y-100889195D02*
X126368159Y-100889195D01*
X126368159Y-100889195D02*
X126482444Y-100927290D01*
X126749111Y-100889195D02*
X126939587Y-101689195D01*
X126939587Y-101689195D02*
X127091968Y-101117766D01*
X127091968Y-101117766D02*
X127244349Y-101689195D01*
X127244349Y-101689195D02*
X127434826Y-100889195D01*
X127739588Y-101689195D02*
X127739588Y-100889195D01*
X127739588Y-100889195D02*
X127930064Y-100889195D01*
X127930064Y-100889195D02*
X128044350Y-100927290D01*
X128044350Y-100927290D02*
X128120540Y-101003480D01*
X128120540Y-101003480D02*
X128158635Y-101079671D01*
X128158635Y-101079671D02*
X128196731Y-101232052D01*
X128196731Y-101232052D02*
X128196731Y-101346338D01*
X128196731Y-101346338D02*
X128158635Y-101498719D01*
X128158635Y-101498719D02*
X128120540Y-101574909D01*
X128120540Y-101574909D02*
X128044350Y-101651100D01*
X128044350Y-101651100D02*
X127930064Y-101689195D01*
X127930064Y-101689195D02*
X127739588Y-101689195D01*
X128539588Y-101689195D02*
X128539588Y-100889195D01*
X129072921Y-100889195D02*
X129225302Y-100889195D01*
X129225302Y-100889195D02*
X129301492Y-100927290D01*
X129301492Y-100927290D02*
X129377683Y-101003480D01*
X129377683Y-101003480D02*
X129415778Y-101155861D01*
X129415778Y-101155861D02*
X129415778Y-101422528D01*
X129415778Y-101422528D02*
X129377683Y-101574909D01*
X129377683Y-101574909D02*
X129301492Y-101651100D01*
X129301492Y-101651100D02*
X129225302Y-101689195D01*
X129225302Y-101689195D02*
X129072921Y-101689195D01*
X129072921Y-101689195D02*
X128996730Y-101651100D01*
X128996730Y-101651100D02*
X128920540Y-101574909D01*
X128920540Y-101574909D02*
X128882444Y-101422528D01*
X128882444Y-101422528D02*
X128882444Y-101155861D01*
X128882444Y-101155861D02*
X128920540Y-101003480D01*
X128920540Y-101003480D02*
X128996730Y-100927290D01*
X128996730Y-100927290D02*
X129072921Y-100889195D01*
D12*
X144607142Y-96459580D02*
X144559523Y-96507200D01*
X144559523Y-96507200D02*
X144416666Y-96554819D01*
X144416666Y-96554819D02*
X144321428Y-96554819D01*
X144321428Y-96554819D02*
X144178571Y-96507200D01*
X144178571Y-96507200D02*
X144083333Y-96411961D01*
X144083333Y-96411961D02*
X144035714Y-96316723D01*
X144035714Y-96316723D02*
X143988095Y-96126247D01*
X143988095Y-96126247D02*
X143988095Y-95983390D01*
X143988095Y-95983390D02*
X144035714Y-95792914D01*
X144035714Y-95792914D02*
X144083333Y-95697676D01*
X144083333Y-95697676D02*
X144178571Y-95602438D01*
X144178571Y-95602438D02*
X144321428Y-95554819D01*
X144321428Y-95554819D02*
X144416666Y-95554819D01*
X144416666Y-95554819D02*
X144559523Y-95602438D01*
X144559523Y-95602438D02*
X144607142Y-95650057D01*
X145559523Y-96554819D02*
X144988095Y-96554819D01*
X145273809Y-96554819D02*
X145273809Y-95554819D01*
X145273809Y-95554819D02*
X145178571Y-95697676D01*
X145178571Y-95697676D02*
X145083333Y-95792914D01*
X145083333Y-95792914D02*
X144988095Y-95840533D01*
X146178571Y-95554819D02*
X146273809Y-95554819D01*
X146273809Y-95554819D02*
X146369047Y-95602438D01*
X146369047Y-95602438D02*
X146416666Y-95650057D01*
X146416666Y-95650057D02*
X146464285Y-95745295D01*
X146464285Y-95745295D02*
X146511904Y-95935771D01*
X146511904Y-95935771D02*
X146511904Y-96173866D01*
X146511904Y-96173866D02*
X146464285Y-96364342D01*
X146464285Y-96364342D02*
X146416666Y-96459580D01*
X146416666Y-96459580D02*
X146369047Y-96507200D01*
X146369047Y-96507200D02*
X146273809Y-96554819D01*
X146273809Y-96554819D02*
X146178571Y-96554819D01*
X146178571Y-96554819D02*
X146083333Y-96507200D01*
X146083333Y-96507200D02*
X146035714Y-96459580D01*
X146035714Y-96459580D02*
X145988095Y-96364342D01*
X145988095Y-96364342D02*
X145940476Y-96173866D01*
X145940476Y-96173866D02*
X145940476Y-95935771D01*
X145940476Y-95935771D02*
X145988095Y-95745295D01*
X145988095Y-95745295D02*
X146035714Y-95650057D01*
X146035714Y-95650057D02*
X146083333Y-95602438D01*
X146083333Y-95602438D02*
X146178571Y-95554819D01*
X142233333Y-93509580D02*
X142185714Y-93557200D01*
X142185714Y-93557200D02*
X142042857Y-93604819D01*
X142042857Y-93604819D02*
X141947619Y-93604819D01*
X141947619Y-93604819D02*
X141804762Y-93557200D01*
X141804762Y-93557200D02*
X141709524Y-93461961D01*
X141709524Y-93461961D02*
X141661905Y-93366723D01*
X141661905Y-93366723D02*
X141614286Y-93176247D01*
X141614286Y-93176247D02*
X141614286Y-93033390D01*
X141614286Y-93033390D02*
X141661905Y-92842914D01*
X141661905Y-92842914D02*
X141709524Y-92747676D01*
X141709524Y-92747676D02*
X141804762Y-92652438D01*
X141804762Y-92652438D02*
X141947619Y-92604819D01*
X141947619Y-92604819D02*
X142042857Y-92604819D01*
X142042857Y-92604819D02*
X142185714Y-92652438D01*
X142185714Y-92652438D02*
X142233333Y-92700057D01*
X142566667Y-92604819D02*
X143185714Y-92604819D01*
X143185714Y-92604819D02*
X142852381Y-92985771D01*
X142852381Y-92985771D02*
X142995238Y-92985771D01*
X142995238Y-92985771D02*
X143090476Y-93033390D01*
X143090476Y-93033390D02*
X143138095Y-93081009D01*
X143138095Y-93081009D02*
X143185714Y-93176247D01*
X143185714Y-93176247D02*
X143185714Y-93414342D01*
X143185714Y-93414342D02*
X143138095Y-93509580D01*
X143138095Y-93509580D02*
X143090476Y-93557200D01*
X143090476Y-93557200D02*
X142995238Y-93604819D01*
X142995238Y-93604819D02*
X142709524Y-93604819D01*
X142709524Y-93604819D02*
X142614286Y-93557200D01*
X142614286Y-93557200D02*
X142566667Y-93509580D01*
X126307142Y-92809580D02*
X126259523Y-92857200D01*
X126259523Y-92857200D02*
X126116666Y-92904819D01*
X126116666Y-92904819D02*
X126021428Y-92904819D01*
X126021428Y-92904819D02*
X125878571Y-92857200D01*
X125878571Y-92857200D02*
X125783333Y-92761961D01*
X125783333Y-92761961D02*
X125735714Y-92666723D01*
X125735714Y-92666723D02*
X125688095Y-92476247D01*
X125688095Y-92476247D02*
X125688095Y-92333390D01*
X125688095Y-92333390D02*
X125735714Y-92142914D01*
X125735714Y-92142914D02*
X125783333Y-92047676D01*
X125783333Y-92047676D02*
X125878571Y-91952438D01*
X125878571Y-91952438D02*
X126021428Y-91904819D01*
X126021428Y-91904819D02*
X126116666Y-91904819D01*
X126116666Y-91904819D02*
X126259523Y-91952438D01*
X126259523Y-91952438D02*
X126307142Y-92000057D01*
X127259523Y-92904819D02*
X126688095Y-92904819D01*
X126973809Y-92904819D02*
X126973809Y-91904819D01*
X126973809Y-91904819D02*
X126878571Y-92047676D01*
X126878571Y-92047676D02*
X126783333Y-92142914D01*
X126783333Y-92142914D02*
X126688095Y-92190533D01*
X128116666Y-91904819D02*
X127926190Y-91904819D01*
X127926190Y-91904819D02*
X127830952Y-91952438D01*
X127830952Y-91952438D02*
X127783333Y-92000057D01*
X127783333Y-92000057D02*
X127688095Y-92142914D01*
X127688095Y-92142914D02*
X127640476Y-92333390D01*
X127640476Y-92333390D02*
X127640476Y-92714342D01*
X127640476Y-92714342D02*
X127688095Y-92809580D01*
X127688095Y-92809580D02*
X127735714Y-92857200D01*
X127735714Y-92857200D02*
X127830952Y-92904819D01*
X127830952Y-92904819D02*
X128021428Y-92904819D01*
X128021428Y-92904819D02*
X128116666Y-92857200D01*
X128116666Y-92857200D02*
X128164285Y-92809580D01*
X128164285Y-92809580D02*
X128211904Y-92714342D01*
X128211904Y-92714342D02*
X128211904Y-92476247D01*
X128211904Y-92476247D02*
X128164285Y-92381009D01*
X128164285Y-92381009D02*
X128116666Y-92333390D01*
X128116666Y-92333390D02*
X128021428Y-92285771D01*
X128021428Y-92285771D02*
X127830952Y-92285771D01*
X127830952Y-92285771D02*
X127735714Y-92333390D01*
X127735714Y-92333390D02*
X127688095Y-92381009D01*
X127688095Y-92381009D02*
X127640476Y-92476247D01*
X138407142Y-95704819D02*
X138073809Y-95228628D01*
X137835714Y-95704819D02*
X137835714Y-94704819D01*
X137835714Y-94704819D02*
X138216666Y-94704819D01*
X138216666Y-94704819D02*
X138311904Y-94752438D01*
X138311904Y-94752438D02*
X138359523Y-94800057D01*
X138359523Y-94800057D02*
X138407142Y-94895295D01*
X138407142Y-94895295D02*
X138407142Y-95038152D01*
X138407142Y-95038152D02*
X138359523Y-95133390D01*
X138359523Y-95133390D02*
X138311904Y-95181009D01*
X138311904Y-95181009D02*
X138216666Y-95228628D01*
X138216666Y-95228628D02*
X137835714Y-95228628D01*
X139359523Y-95704819D02*
X138788095Y-95704819D01*
X139073809Y-95704819D02*
X139073809Y-94704819D01*
X139073809Y-94704819D02*
X138978571Y-94847676D01*
X138978571Y-94847676D02*
X138883333Y-94942914D01*
X138883333Y-94942914D02*
X138788095Y-94990533D01*
X140216666Y-95038152D02*
X140216666Y-95704819D01*
X139978571Y-94657200D02*
X139740476Y-95371485D01*
X139740476Y-95371485D02*
X140359523Y-95371485D01*
X137438095Y-82204819D02*
X137438095Y-83014342D01*
X137438095Y-83014342D02*
X137485714Y-83109580D01*
X137485714Y-83109580D02*
X137533333Y-83157200D01*
X137533333Y-83157200D02*
X137628571Y-83204819D01*
X137628571Y-83204819D02*
X137819047Y-83204819D01*
X137819047Y-83204819D02*
X137914285Y-83157200D01*
X137914285Y-83157200D02*
X137961904Y-83109580D01*
X137961904Y-83109580D02*
X138009523Y-83014342D01*
X138009523Y-83014342D02*
X138009523Y-82204819D01*
X138390476Y-82204819D02*
X139009523Y-82204819D01*
X139009523Y-82204819D02*
X138676190Y-82585771D01*
X138676190Y-82585771D02*
X138819047Y-82585771D01*
X138819047Y-82585771D02*
X138914285Y-82633390D01*
X138914285Y-82633390D02*
X138961904Y-82681009D01*
X138961904Y-82681009D02*
X139009523Y-82776247D01*
X139009523Y-82776247D02*
X139009523Y-83014342D01*
X139009523Y-83014342D02*
X138961904Y-83109580D01*
X138961904Y-83109580D02*
X138914285Y-83157200D01*
X138914285Y-83157200D02*
X138819047Y-83204819D01*
X138819047Y-83204819D02*
X138533333Y-83204819D01*
X138533333Y-83204819D02*
X138438095Y-83157200D01*
X138438095Y-83157200D02*
X138390476Y-83109580D01*
X170033333Y-117461104D02*
X170509523Y-117461104D01*
X169938095Y-117746819D02*
X170271428Y-116746819D01*
X170271428Y-116746819D02*
X170604761Y-117746819D01*
X170938095Y-117223009D02*
X171271428Y-117223009D01*
X171414285Y-117746819D02*
X170938095Y-117746819D01*
X170938095Y-117746819D02*
X170938095Y-116746819D01*
X170938095Y-116746819D02*
X171414285Y-116746819D01*
X172366666Y-117746819D02*
X171795238Y-117746819D01*
X172080952Y-117746819D02*
X172080952Y-116746819D01*
X172080952Y-116746819D02*
X171985714Y-116889676D01*
X171985714Y-116889676D02*
X171890476Y-116984914D01*
X171890476Y-116984914D02*
X171795238Y-117032533D01*
X169361905Y-80654819D02*
X169361905Y-79654819D01*
X169361905Y-79654819D02*
X169600000Y-79654819D01*
X169600000Y-79654819D02*
X169742857Y-79702438D01*
X169742857Y-79702438D02*
X169838095Y-79797676D01*
X169838095Y-79797676D02*
X169885714Y-79892914D01*
X169885714Y-79892914D02*
X169933333Y-80083390D01*
X169933333Y-80083390D02*
X169933333Y-80226247D01*
X169933333Y-80226247D02*
X169885714Y-80416723D01*
X169885714Y-80416723D02*
X169838095Y-80511961D01*
X169838095Y-80511961D02*
X169742857Y-80607200D01*
X169742857Y-80607200D02*
X169600000Y-80654819D01*
X169600000Y-80654819D02*
X169361905Y-80654819D01*
X170266667Y-79654819D02*
X170885714Y-79654819D01*
X170885714Y-79654819D02*
X170552381Y-80035771D01*
X170552381Y-80035771D02*
X170695238Y-80035771D01*
X170695238Y-80035771D02*
X170790476Y-80083390D01*
X170790476Y-80083390D02*
X170838095Y-80131009D01*
X170838095Y-80131009D02*
X170885714Y-80226247D01*
X170885714Y-80226247D02*
X170885714Y-80464342D01*
X170885714Y-80464342D02*
X170838095Y-80559580D01*
X170838095Y-80559580D02*
X170790476Y-80607200D01*
X170790476Y-80607200D02*
X170695238Y-80654819D01*
X170695238Y-80654819D02*
X170409524Y-80654819D01*
X170409524Y-80654819D02*
X170314286Y-80607200D01*
X170314286Y-80607200D02*
X170266667Y-80559580D01*
X125219642Y-89397080D02*
X125172023Y-89444700D01*
X125172023Y-89444700D02*
X125029166Y-89492319D01*
X125029166Y-89492319D02*
X124933928Y-89492319D01*
X124933928Y-89492319D02*
X124791071Y-89444700D01*
X124791071Y-89444700D02*
X124695833Y-89349461D01*
X124695833Y-89349461D02*
X124648214Y-89254223D01*
X124648214Y-89254223D02*
X124600595Y-89063747D01*
X124600595Y-89063747D02*
X124600595Y-88920890D01*
X124600595Y-88920890D02*
X124648214Y-88730414D01*
X124648214Y-88730414D02*
X124695833Y-88635176D01*
X124695833Y-88635176D02*
X124791071Y-88539938D01*
X124791071Y-88539938D02*
X124933928Y-88492319D01*
X124933928Y-88492319D02*
X125029166Y-88492319D01*
X125029166Y-88492319D02*
X125172023Y-88539938D01*
X125172023Y-88539938D02*
X125219642Y-88587557D01*
X126172023Y-89492319D02*
X125600595Y-89492319D01*
X125886309Y-89492319D02*
X125886309Y-88492319D01*
X125886309Y-88492319D02*
X125791071Y-88635176D01*
X125791071Y-88635176D02*
X125695833Y-88730414D01*
X125695833Y-88730414D02*
X125600595Y-88778033D01*
X127076785Y-88492319D02*
X126600595Y-88492319D01*
X126600595Y-88492319D02*
X126552976Y-88968509D01*
X126552976Y-88968509D02*
X126600595Y-88920890D01*
X126600595Y-88920890D02*
X126695833Y-88873271D01*
X126695833Y-88873271D02*
X126933928Y-88873271D01*
X126933928Y-88873271D02*
X127029166Y-88920890D01*
X127029166Y-88920890D02*
X127076785Y-88968509D01*
X127076785Y-88968509D02*
X127124404Y-89063747D01*
X127124404Y-89063747D02*
X127124404Y-89301842D01*
X127124404Y-89301842D02*
X127076785Y-89397080D01*
X127076785Y-89397080D02*
X127029166Y-89444700D01*
X127029166Y-89444700D02*
X126933928Y-89492319D01*
X126933928Y-89492319D02*
X126695833Y-89492319D01*
X126695833Y-89492319D02*
X126600595Y-89444700D01*
X126600595Y-89444700D02*
X126552976Y-89397080D01*
X156611333Y-89409580D02*
X156563714Y-89457200D01*
X156563714Y-89457200D02*
X156420857Y-89504819D01*
X156420857Y-89504819D02*
X156325619Y-89504819D01*
X156325619Y-89504819D02*
X156182762Y-89457200D01*
X156182762Y-89457200D02*
X156087524Y-89361961D01*
X156087524Y-89361961D02*
X156039905Y-89266723D01*
X156039905Y-89266723D02*
X155992286Y-89076247D01*
X155992286Y-89076247D02*
X155992286Y-88933390D01*
X155992286Y-88933390D02*
X156039905Y-88742914D01*
X156039905Y-88742914D02*
X156087524Y-88647676D01*
X156087524Y-88647676D02*
X156182762Y-88552438D01*
X156182762Y-88552438D02*
X156325619Y-88504819D01*
X156325619Y-88504819D02*
X156420857Y-88504819D01*
X156420857Y-88504819D02*
X156563714Y-88552438D01*
X156563714Y-88552438D02*
X156611333Y-88600057D01*
X156944667Y-88504819D02*
X157611333Y-88504819D01*
X157611333Y-88504819D02*
X157182762Y-89504819D01*
X135701809Y-91785968D02*
X135701809Y-92262159D01*
X135368476Y-91262159D02*
X135701809Y-91785968D01*
X135701809Y-91785968D02*
X136035142Y-91262159D01*
X136892285Y-92262159D02*
X136320857Y-92262159D01*
X136606571Y-92262159D02*
X136606571Y-91262159D01*
X136606571Y-91262159D02*
X136511333Y-91405016D01*
X136511333Y-91405016D02*
X136416095Y-91500254D01*
X136416095Y-91500254D02*
X136320857Y-91547873D01*
X128357142Y-87009580D02*
X128309523Y-87057200D01*
X128309523Y-87057200D02*
X128166666Y-87104819D01*
X128166666Y-87104819D02*
X128071428Y-87104819D01*
X128071428Y-87104819D02*
X127928571Y-87057200D01*
X127928571Y-87057200D02*
X127833333Y-86961961D01*
X127833333Y-86961961D02*
X127785714Y-86866723D01*
X127785714Y-86866723D02*
X127738095Y-86676247D01*
X127738095Y-86676247D02*
X127738095Y-86533390D01*
X127738095Y-86533390D02*
X127785714Y-86342914D01*
X127785714Y-86342914D02*
X127833333Y-86247676D01*
X127833333Y-86247676D02*
X127928571Y-86152438D01*
X127928571Y-86152438D02*
X128071428Y-86104819D01*
X128071428Y-86104819D02*
X128166666Y-86104819D01*
X128166666Y-86104819D02*
X128309523Y-86152438D01*
X128309523Y-86152438D02*
X128357142Y-86200057D01*
X129309523Y-87104819D02*
X128738095Y-87104819D01*
X129023809Y-87104819D02*
X129023809Y-86104819D01*
X129023809Y-86104819D02*
X128928571Y-86247676D01*
X128928571Y-86247676D02*
X128833333Y-86342914D01*
X128833333Y-86342914D02*
X128738095Y-86390533D01*
X129880952Y-86533390D02*
X129785714Y-86485771D01*
X129785714Y-86485771D02*
X129738095Y-86438152D01*
X129738095Y-86438152D02*
X129690476Y-86342914D01*
X129690476Y-86342914D02*
X129690476Y-86295295D01*
X129690476Y-86295295D02*
X129738095Y-86200057D01*
X129738095Y-86200057D02*
X129785714Y-86152438D01*
X129785714Y-86152438D02*
X129880952Y-86104819D01*
X129880952Y-86104819D02*
X130071428Y-86104819D01*
X130071428Y-86104819D02*
X130166666Y-86152438D01*
X130166666Y-86152438D02*
X130214285Y-86200057D01*
X130214285Y-86200057D02*
X130261904Y-86295295D01*
X130261904Y-86295295D02*
X130261904Y-86342914D01*
X130261904Y-86342914D02*
X130214285Y-86438152D01*
X130214285Y-86438152D02*
X130166666Y-86485771D01*
X130166666Y-86485771D02*
X130071428Y-86533390D01*
X130071428Y-86533390D02*
X129880952Y-86533390D01*
X129880952Y-86533390D02*
X129785714Y-86581009D01*
X129785714Y-86581009D02*
X129738095Y-86628628D01*
X129738095Y-86628628D02*
X129690476Y-86723866D01*
X129690476Y-86723866D02*
X129690476Y-86914342D01*
X129690476Y-86914342D02*
X129738095Y-87009580D01*
X129738095Y-87009580D02*
X129785714Y-87057200D01*
X129785714Y-87057200D02*
X129880952Y-87104819D01*
X129880952Y-87104819D02*
X130071428Y-87104819D01*
X130071428Y-87104819D02*
X130166666Y-87057200D01*
X130166666Y-87057200D02*
X130214285Y-87009580D01*
X130214285Y-87009580D02*
X130261904Y-86914342D01*
X130261904Y-86914342D02*
X130261904Y-86723866D01*
X130261904Y-86723866D02*
X130214285Y-86628628D01*
X130214285Y-86628628D02*
X130166666Y-86581009D01*
X130166666Y-86581009D02*
X130071428Y-86533390D01*
X130957142Y-79809580D02*
X130909523Y-79857200D01*
X130909523Y-79857200D02*
X130766666Y-79904819D01*
X130766666Y-79904819D02*
X130671428Y-79904819D01*
X130671428Y-79904819D02*
X130528571Y-79857200D01*
X130528571Y-79857200D02*
X130433333Y-79761961D01*
X130433333Y-79761961D02*
X130385714Y-79666723D01*
X130385714Y-79666723D02*
X130338095Y-79476247D01*
X130338095Y-79476247D02*
X130338095Y-79333390D01*
X130338095Y-79333390D02*
X130385714Y-79142914D01*
X130385714Y-79142914D02*
X130433333Y-79047676D01*
X130433333Y-79047676D02*
X130528571Y-78952438D01*
X130528571Y-78952438D02*
X130671428Y-78904819D01*
X130671428Y-78904819D02*
X130766666Y-78904819D01*
X130766666Y-78904819D02*
X130909523Y-78952438D01*
X130909523Y-78952438D02*
X130957142Y-79000057D01*
X131338095Y-79000057D02*
X131385714Y-78952438D01*
X131385714Y-78952438D02*
X131480952Y-78904819D01*
X131480952Y-78904819D02*
X131719047Y-78904819D01*
X131719047Y-78904819D02*
X131814285Y-78952438D01*
X131814285Y-78952438D02*
X131861904Y-79000057D01*
X131861904Y-79000057D02*
X131909523Y-79095295D01*
X131909523Y-79095295D02*
X131909523Y-79190533D01*
X131909523Y-79190533D02*
X131861904Y-79333390D01*
X131861904Y-79333390D02*
X131290476Y-79904819D01*
X131290476Y-79904819D02*
X131909523Y-79904819D01*
X132242857Y-78904819D02*
X132861904Y-78904819D01*
X132861904Y-78904819D02*
X132528571Y-79285771D01*
X132528571Y-79285771D02*
X132671428Y-79285771D01*
X132671428Y-79285771D02*
X132766666Y-79333390D01*
X132766666Y-79333390D02*
X132814285Y-79381009D01*
X132814285Y-79381009D02*
X132861904Y-79476247D01*
X132861904Y-79476247D02*
X132861904Y-79714342D01*
X132861904Y-79714342D02*
X132814285Y-79809580D01*
X132814285Y-79809580D02*
X132766666Y-79857200D01*
X132766666Y-79857200D02*
X132671428Y-79904819D01*
X132671428Y-79904819D02*
X132385714Y-79904819D01*
X132385714Y-79904819D02*
X132290476Y-79857200D01*
X132290476Y-79857200D02*
X132242857Y-79809580D01*
X170433333Y-96254819D02*
X170100000Y-95778628D01*
X169861905Y-96254819D02*
X169861905Y-95254819D01*
X169861905Y-95254819D02*
X170242857Y-95254819D01*
X170242857Y-95254819D02*
X170338095Y-95302438D01*
X170338095Y-95302438D02*
X170385714Y-95350057D01*
X170385714Y-95350057D02*
X170433333Y-95445295D01*
X170433333Y-95445295D02*
X170433333Y-95588152D01*
X170433333Y-95588152D02*
X170385714Y-95683390D01*
X170385714Y-95683390D02*
X170338095Y-95731009D01*
X170338095Y-95731009D02*
X170242857Y-95778628D01*
X170242857Y-95778628D02*
X169861905Y-95778628D01*
X170814286Y-95350057D02*
X170861905Y-95302438D01*
X170861905Y-95302438D02*
X170957143Y-95254819D01*
X170957143Y-95254819D02*
X171195238Y-95254819D01*
X171195238Y-95254819D02*
X171290476Y-95302438D01*
X171290476Y-95302438D02*
X171338095Y-95350057D01*
X171338095Y-95350057D02*
X171385714Y-95445295D01*
X171385714Y-95445295D02*
X171385714Y-95540533D01*
X171385714Y-95540533D02*
X171338095Y-95683390D01*
X171338095Y-95683390D02*
X170766667Y-96254819D01*
X170766667Y-96254819D02*
X171385714Y-96254819D01*
X160688095Y-91954819D02*
X160688095Y-92764342D01*
X160688095Y-92764342D02*
X160735714Y-92859580D01*
X160735714Y-92859580D02*
X160783333Y-92907200D01*
X160783333Y-92907200D02*
X160878571Y-92954819D01*
X160878571Y-92954819D02*
X161069047Y-92954819D01*
X161069047Y-92954819D02*
X161164285Y-92907200D01*
X161164285Y-92907200D02*
X161211904Y-92859580D01*
X161211904Y-92859580D02*
X161259523Y-92764342D01*
X161259523Y-92764342D02*
X161259523Y-91954819D01*
X162211904Y-91954819D02*
X161735714Y-91954819D01*
X161735714Y-91954819D02*
X161688095Y-92431009D01*
X161688095Y-92431009D02*
X161735714Y-92383390D01*
X161735714Y-92383390D02*
X161830952Y-92335771D01*
X161830952Y-92335771D02*
X162069047Y-92335771D01*
X162069047Y-92335771D02*
X162164285Y-92383390D01*
X162164285Y-92383390D02*
X162211904Y-92431009D01*
X162211904Y-92431009D02*
X162259523Y-92526247D01*
X162259523Y-92526247D02*
X162259523Y-92764342D01*
X162259523Y-92764342D02*
X162211904Y-92859580D01*
X162211904Y-92859580D02*
X162164285Y-92907200D01*
X162164285Y-92907200D02*
X162069047Y-92954819D01*
X162069047Y-92954819D02*
X161830952Y-92954819D01*
X161830952Y-92954819D02*
X161735714Y-92907200D01*
X161735714Y-92907200D02*
X161688095Y-92859580D01*
X162607142Y-102754819D02*
X162273809Y-102278628D01*
X162035714Y-102754819D02*
X162035714Y-101754819D01*
X162035714Y-101754819D02*
X162416666Y-101754819D01*
X162416666Y-101754819D02*
X162511904Y-101802438D01*
X162511904Y-101802438D02*
X162559523Y-101850057D01*
X162559523Y-101850057D02*
X162607142Y-101945295D01*
X162607142Y-101945295D02*
X162607142Y-102088152D01*
X162607142Y-102088152D02*
X162559523Y-102183390D01*
X162559523Y-102183390D02*
X162511904Y-102231009D01*
X162511904Y-102231009D02*
X162416666Y-102278628D01*
X162416666Y-102278628D02*
X162035714Y-102278628D01*
X163559523Y-102754819D02*
X162988095Y-102754819D01*
X163273809Y-102754819D02*
X163273809Y-101754819D01*
X163273809Y-101754819D02*
X163178571Y-101897676D01*
X163178571Y-101897676D02*
X163083333Y-101992914D01*
X163083333Y-101992914D02*
X162988095Y-102040533D01*
X164464285Y-101754819D02*
X163988095Y-101754819D01*
X163988095Y-101754819D02*
X163940476Y-102231009D01*
X163940476Y-102231009D02*
X163988095Y-102183390D01*
X163988095Y-102183390D02*
X164083333Y-102135771D01*
X164083333Y-102135771D02*
X164321428Y-102135771D01*
X164321428Y-102135771D02*
X164416666Y-102183390D01*
X164416666Y-102183390D02*
X164464285Y-102231009D01*
X164464285Y-102231009D02*
X164511904Y-102326247D01*
X164511904Y-102326247D02*
X164511904Y-102564342D01*
X164511904Y-102564342D02*
X164464285Y-102659580D01*
X164464285Y-102659580D02*
X164416666Y-102707200D01*
X164416666Y-102707200D02*
X164321428Y-102754819D01*
X164321428Y-102754819D02*
X164083333Y-102754819D01*
X164083333Y-102754819D02*
X163988095Y-102707200D01*
X163988095Y-102707200D02*
X163940476Y-102659580D01*
X149811333Y-87608120D02*
X149763714Y-87655740D01*
X149763714Y-87655740D02*
X149620857Y-87703359D01*
X149620857Y-87703359D02*
X149525619Y-87703359D01*
X149525619Y-87703359D02*
X149382762Y-87655740D01*
X149382762Y-87655740D02*
X149287524Y-87560501D01*
X149287524Y-87560501D02*
X149239905Y-87465263D01*
X149239905Y-87465263D02*
X149192286Y-87274787D01*
X149192286Y-87274787D02*
X149192286Y-87131930D01*
X149192286Y-87131930D02*
X149239905Y-86941454D01*
X149239905Y-86941454D02*
X149287524Y-86846216D01*
X149287524Y-86846216D02*
X149382762Y-86750978D01*
X149382762Y-86750978D02*
X149525619Y-86703359D01*
X149525619Y-86703359D02*
X149620857Y-86703359D01*
X149620857Y-86703359D02*
X149763714Y-86750978D01*
X149763714Y-86750978D02*
X149811333Y-86798597D01*
X150382762Y-87131930D02*
X150287524Y-87084311D01*
X150287524Y-87084311D02*
X150239905Y-87036692D01*
X150239905Y-87036692D02*
X150192286Y-86941454D01*
X150192286Y-86941454D02*
X150192286Y-86893835D01*
X150192286Y-86893835D02*
X150239905Y-86798597D01*
X150239905Y-86798597D02*
X150287524Y-86750978D01*
X150287524Y-86750978D02*
X150382762Y-86703359D01*
X150382762Y-86703359D02*
X150573238Y-86703359D01*
X150573238Y-86703359D02*
X150668476Y-86750978D01*
X150668476Y-86750978D02*
X150716095Y-86798597D01*
X150716095Y-86798597D02*
X150763714Y-86893835D01*
X150763714Y-86893835D02*
X150763714Y-86941454D01*
X150763714Y-86941454D02*
X150716095Y-87036692D01*
X150716095Y-87036692D02*
X150668476Y-87084311D01*
X150668476Y-87084311D02*
X150573238Y-87131930D01*
X150573238Y-87131930D02*
X150382762Y-87131930D01*
X150382762Y-87131930D02*
X150287524Y-87179549D01*
X150287524Y-87179549D02*
X150239905Y-87227168D01*
X150239905Y-87227168D02*
X150192286Y-87322406D01*
X150192286Y-87322406D02*
X150192286Y-87512882D01*
X150192286Y-87512882D02*
X150239905Y-87608120D01*
X150239905Y-87608120D02*
X150287524Y-87655740D01*
X150287524Y-87655740D02*
X150382762Y-87703359D01*
X150382762Y-87703359D02*
X150573238Y-87703359D01*
X150573238Y-87703359D02*
X150668476Y-87655740D01*
X150668476Y-87655740D02*
X150716095Y-87608120D01*
X150716095Y-87608120D02*
X150763714Y-87512882D01*
X150763714Y-87512882D02*
X150763714Y-87322406D01*
X150763714Y-87322406D02*
X150716095Y-87227168D01*
X150716095Y-87227168D02*
X150668476Y-87179549D01*
X150668476Y-87179549D02*
X150573238Y-87131930D01*
X169033333Y-100554819D02*
X168700000Y-100078628D01*
X168461905Y-100554819D02*
X168461905Y-99554819D01*
X168461905Y-99554819D02*
X168842857Y-99554819D01*
X168842857Y-99554819D02*
X168938095Y-99602438D01*
X168938095Y-99602438D02*
X168985714Y-99650057D01*
X168985714Y-99650057D02*
X169033333Y-99745295D01*
X169033333Y-99745295D02*
X169033333Y-99888152D01*
X169033333Y-99888152D02*
X168985714Y-99983390D01*
X168985714Y-99983390D02*
X168938095Y-100031009D01*
X168938095Y-100031009D02*
X168842857Y-100078628D01*
X168842857Y-100078628D02*
X168461905Y-100078628D01*
X169985714Y-100554819D02*
X169414286Y-100554819D01*
X169700000Y-100554819D02*
X169700000Y-99554819D01*
X169700000Y-99554819D02*
X169604762Y-99697676D01*
X169604762Y-99697676D02*
X169509524Y-99792914D01*
X169509524Y-99792914D02*
X169414286Y-99840533D01*
X144957142Y-81704819D02*
X144623809Y-81228628D01*
X144385714Y-81704819D02*
X144385714Y-80704819D01*
X144385714Y-80704819D02*
X144766666Y-80704819D01*
X144766666Y-80704819D02*
X144861904Y-80752438D01*
X144861904Y-80752438D02*
X144909523Y-80800057D01*
X144909523Y-80800057D02*
X144957142Y-80895295D01*
X144957142Y-80895295D02*
X144957142Y-81038152D01*
X144957142Y-81038152D02*
X144909523Y-81133390D01*
X144909523Y-81133390D02*
X144861904Y-81181009D01*
X144861904Y-81181009D02*
X144766666Y-81228628D01*
X144766666Y-81228628D02*
X144385714Y-81228628D01*
X145909523Y-81704819D02*
X145338095Y-81704819D01*
X145623809Y-81704819D02*
X145623809Y-80704819D01*
X145623809Y-80704819D02*
X145528571Y-80847676D01*
X145528571Y-80847676D02*
X145433333Y-80942914D01*
X145433333Y-80942914D02*
X145338095Y-80990533D01*
X146290476Y-80800057D02*
X146338095Y-80752438D01*
X146338095Y-80752438D02*
X146433333Y-80704819D01*
X146433333Y-80704819D02*
X146671428Y-80704819D01*
X146671428Y-80704819D02*
X146766666Y-80752438D01*
X146766666Y-80752438D02*
X146814285Y-80800057D01*
X146814285Y-80800057D02*
X146861904Y-80895295D01*
X146861904Y-80895295D02*
X146861904Y-80990533D01*
X146861904Y-80990533D02*
X146814285Y-81133390D01*
X146814285Y-81133390D02*
X146242857Y-81704819D01*
X146242857Y-81704819D02*
X146861904Y-81704819D01*
X138307142Y-100709580D02*
X138259523Y-100757200D01*
X138259523Y-100757200D02*
X138116666Y-100804819D01*
X138116666Y-100804819D02*
X138021428Y-100804819D01*
X138021428Y-100804819D02*
X137878571Y-100757200D01*
X137878571Y-100757200D02*
X137783333Y-100661961D01*
X137783333Y-100661961D02*
X137735714Y-100566723D01*
X137735714Y-100566723D02*
X137688095Y-100376247D01*
X137688095Y-100376247D02*
X137688095Y-100233390D01*
X137688095Y-100233390D02*
X137735714Y-100042914D01*
X137735714Y-100042914D02*
X137783333Y-99947676D01*
X137783333Y-99947676D02*
X137878571Y-99852438D01*
X137878571Y-99852438D02*
X138021428Y-99804819D01*
X138021428Y-99804819D02*
X138116666Y-99804819D01*
X138116666Y-99804819D02*
X138259523Y-99852438D01*
X138259523Y-99852438D02*
X138307142Y-99900057D01*
X138688095Y-99900057D02*
X138735714Y-99852438D01*
X138735714Y-99852438D02*
X138830952Y-99804819D01*
X138830952Y-99804819D02*
X139069047Y-99804819D01*
X139069047Y-99804819D02*
X139164285Y-99852438D01*
X139164285Y-99852438D02*
X139211904Y-99900057D01*
X139211904Y-99900057D02*
X139259523Y-99995295D01*
X139259523Y-99995295D02*
X139259523Y-100090533D01*
X139259523Y-100090533D02*
X139211904Y-100233390D01*
X139211904Y-100233390D02*
X138640476Y-100804819D01*
X138640476Y-100804819D02*
X139259523Y-100804819D01*
X140211904Y-100804819D02*
X139640476Y-100804819D01*
X139926190Y-100804819D02*
X139926190Y-99804819D01*
X139926190Y-99804819D02*
X139830952Y-99947676D01*
X139830952Y-99947676D02*
X139735714Y-100042914D01*
X139735714Y-100042914D02*
X139640476Y-100090533D01*
X134516666Y-101431009D02*
X134183333Y-101431009D01*
X134183333Y-101954819D02*
X134183333Y-100954819D01*
X134183333Y-100954819D02*
X134659523Y-100954819D01*
X135373809Y-101431009D02*
X135516666Y-101478628D01*
X135516666Y-101478628D02*
X135564285Y-101526247D01*
X135564285Y-101526247D02*
X135611904Y-101621485D01*
X135611904Y-101621485D02*
X135611904Y-101764342D01*
X135611904Y-101764342D02*
X135564285Y-101859580D01*
X135564285Y-101859580D02*
X135516666Y-101907200D01*
X135516666Y-101907200D02*
X135421428Y-101954819D01*
X135421428Y-101954819D02*
X135040476Y-101954819D01*
X135040476Y-101954819D02*
X135040476Y-100954819D01*
X135040476Y-100954819D02*
X135373809Y-100954819D01*
X135373809Y-100954819D02*
X135469047Y-101002438D01*
X135469047Y-101002438D02*
X135516666Y-101050057D01*
X135516666Y-101050057D02*
X135564285Y-101145295D01*
X135564285Y-101145295D02*
X135564285Y-101240533D01*
X135564285Y-101240533D02*
X135516666Y-101335771D01*
X135516666Y-101335771D02*
X135469047Y-101383390D01*
X135469047Y-101383390D02*
X135373809Y-101431009D01*
X135373809Y-101431009D02*
X135040476Y-101431009D01*
X135992857Y-101050057D02*
X136040476Y-101002438D01*
X136040476Y-101002438D02*
X136135714Y-100954819D01*
X136135714Y-100954819D02*
X136373809Y-100954819D01*
X136373809Y-100954819D02*
X136469047Y-101002438D01*
X136469047Y-101002438D02*
X136516666Y-101050057D01*
X136516666Y-101050057D02*
X136564285Y-101145295D01*
X136564285Y-101145295D02*
X136564285Y-101240533D01*
X136564285Y-101240533D02*
X136516666Y-101383390D01*
X136516666Y-101383390D02*
X135945238Y-101954819D01*
X135945238Y-101954819D02*
X136564285Y-101954819D01*
X130157142Y-112209580D02*
X130109523Y-112257200D01*
X130109523Y-112257200D02*
X129966666Y-112304819D01*
X129966666Y-112304819D02*
X129871428Y-112304819D01*
X129871428Y-112304819D02*
X129728571Y-112257200D01*
X129728571Y-112257200D02*
X129633333Y-112161961D01*
X129633333Y-112161961D02*
X129585714Y-112066723D01*
X129585714Y-112066723D02*
X129538095Y-111876247D01*
X129538095Y-111876247D02*
X129538095Y-111733390D01*
X129538095Y-111733390D02*
X129585714Y-111542914D01*
X129585714Y-111542914D02*
X129633333Y-111447676D01*
X129633333Y-111447676D02*
X129728571Y-111352438D01*
X129728571Y-111352438D02*
X129871428Y-111304819D01*
X129871428Y-111304819D02*
X129966666Y-111304819D01*
X129966666Y-111304819D02*
X130109523Y-111352438D01*
X130109523Y-111352438D02*
X130157142Y-111400057D01*
X131109523Y-112304819D02*
X130538095Y-112304819D01*
X130823809Y-112304819D02*
X130823809Y-111304819D01*
X130823809Y-111304819D02*
X130728571Y-111447676D01*
X130728571Y-111447676D02*
X130633333Y-111542914D01*
X130633333Y-111542914D02*
X130538095Y-111590533D01*
X131442857Y-111304819D02*
X132061904Y-111304819D01*
X132061904Y-111304819D02*
X131728571Y-111685771D01*
X131728571Y-111685771D02*
X131871428Y-111685771D01*
X131871428Y-111685771D02*
X131966666Y-111733390D01*
X131966666Y-111733390D02*
X132014285Y-111781009D01*
X132014285Y-111781009D02*
X132061904Y-111876247D01*
X132061904Y-111876247D02*
X132061904Y-112114342D01*
X132061904Y-112114342D02*
X132014285Y-112209580D01*
X132014285Y-112209580D02*
X131966666Y-112257200D01*
X131966666Y-112257200D02*
X131871428Y-112304819D01*
X131871428Y-112304819D02*
X131585714Y-112304819D01*
X131585714Y-112304819D02*
X131490476Y-112257200D01*
X131490476Y-112257200D02*
X131442857Y-112209580D01*
X169983333Y-87254819D02*
X169650000Y-86778628D01*
X169411905Y-87254819D02*
X169411905Y-86254819D01*
X169411905Y-86254819D02*
X169792857Y-86254819D01*
X169792857Y-86254819D02*
X169888095Y-86302438D01*
X169888095Y-86302438D02*
X169935714Y-86350057D01*
X169935714Y-86350057D02*
X169983333Y-86445295D01*
X169983333Y-86445295D02*
X169983333Y-86588152D01*
X169983333Y-86588152D02*
X169935714Y-86683390D01*
X169935714Y-86683390D02*
X169888095Y-86731009D01*
X169888095Y-86731009D02*
X169792857Y-86778628D01*
X169792857Y-86778628D02*
X169411905Y-86778628D01*
X170459524Y-87254819D02*
X170650000Y-87254819D01*
X170650000Y-87254819D02*
X170745238Y-87207200D01*
X170745238Y-87207200D02*
X170792857Y-87159580D01*
X170792857Y-87159580D02*
X170888095Y-87016723D01*
X170888095Y-87016723D02*
X170935714Y-86826247D01*
X170935714Y-86826247D02*
X170935714Y-86445295D01*
X170935714Y-86445295D02*
X170888095Y-86350057D01*
X170888095Y-86350057D02*
X170840476Y-86302438D01*
X170840476Y-86302438D02*
X170745238Y-86254819D01*
X170745238Y-86254819D02*
X170554762Y-86254819D01*
X170554762Y-86254819D02*
X170459524Y-86302438D01*
X170459524Y-86302438D02*
X170411905Y-86350057D01*
X170411905Y-86350057D02*
X170364286Y-86445295D01*
X170364286Y-86445295D02*
X170364286Y-86683390D01*
X170364286Y-86683390D02*
X170411905Y-86778628D01*
X170411905Y-86778628D02*
X170459524Y-86826247D01*
X170459524Y-86826247D02*
X170554762Y-86873866D01*
X170554762Y-86873866D02*
X170745238Y-86873866D01*
X170745238Y-86873866D02*
X170840476Y-86826247D01*
X170840476Y-86826247D02*
X170888095Y-86778628D01*
X170888095Y-86778628D02*
X170935714Y-86683390D01*
X127233333Y-94354819D02*
X126900000Y-93878628D01*
X126661905Y-94354819D02*
X126661905Y-93354819D01*
X126661905Y-93354819D02*
X127042857Y-93354819D01*
X127042857Y-93354819D02*
X127138095Y-93402438D01*
X127138095Y-93402438D02*
X127185714Y-93450057D01*
X127185714Y-93450057D02*
X127233333Y-93545295D01*
X127233333Y-93545295D02*
X127233333Y-93688152D01*
X127233333Y-93688152D02*
X127185714Y-93783390D01*
X127185714Y-93783390D02*
X127138095Y-93831009D01*
X127138095Y-93831009D02*
X127042857Y-93878628D01*
X127042857Y-93878628D02*
X126661905Y-93878628D01*
X128090476Y-93688152D02*
X128090476Y-94354819D01*
X127852381Y-93307200D02*
X127614286Y-94021485D01*
X127614286Y-94021485D02*
X128233333Y-94021485D01*
X156438095Y-99904819D02*
X156438095Y-100714342D01*
X156438095Y-100714342D02*
X156485714Y-100809580D01*
X156485714Y-100809580D02*
X156533333Y-100857200D01*
X156533333Y-100857200D02*
X156628571Y-100904819D01*
X156628571Y-100904819D02*
X156819047Y-100904819D01*
X156819047Y-100904819D02*
X156914285Y-100857200D01*
X156914285Y-100857200D02*
X156961904Y-100809580D01*
X156961904Y-100809580D02*
X157009523Y-100714342D01*
X157009523Y-100714342D02*
X157009523Y-99904819D01*
X157914285Y-99904819D02*
X157723809Y-99904819D01*
X157723809Y-99904819D02*
X157628571Y-99952438D01*
X157628571Y-99952438D02*
X157580952Y-100000057D01*
X157580952Y-100000057D02*
X157485714Y-100142914D01*
X157485714Y-100142914D02*
X157438095Y-100333390D01*
X157438095Y-100333390D02*
X157438095Y-100714342D01*
X157438095Y-100714342D02*
X157485714Y-100809580D01*
X157485714Y-100809580D02*
X157533333Y-100857200D01*
X157533333Y-100857200D02*
X157628571Y-100904819D01*
X157628571Y-100904819D02*
X157819047Y-100904819D01*
X157819047Y-100904819D02*
X157914285Y-100857200D01*
X157914285Y-100857200D02*
X157961904Y-100809580D01*
X157961904Y-100809580D02*
X158009523Y-100714342D01*
X158009523Y-100714342D02*
X158009523Y-100476247D01*
X158009523Y-100476247D02*
X157961904Y-100381009D01*
X157961904Y-100381009D02*
X157914285Y-100333390D01*
X157914285Y-100333390D02*
X157819047Y-100285771D01*
X157819047Y-100285771D02*
X157628571Y-100285771D01*
X157628571Y-100285771D02*
X157533333Y-100333390D01*
X157533333Y-100333390D02*
X157485714Y-100381009D01*
X157485714Y-100381009D02*
X157438095Y-100476247D01*
X160266665Y-72254818D02*
X160266665Y-72969103D01*
X160266665Y-72969103D02*
X160219046Y-73111960D01*
X160219046Y-73111960D02*
X160123808Y-73207199D01*
X160123808Y-73207199D02*
X159980951Y-73254818D01*
X159980951Y-73254818D02*
X159885713Y-73254818D01*
X160647618Y-72254818D02*
X161314284Y-72254818D01*
X161314284Y-72254818D02*
X160885713Y-73254818D01*
X166057142Y-99309580D02*
X166009523Y-99357200D01*
X166009523Y-99357200D02*
X165866666Y-99404819D01*
X165866666Y-99404819D02*
X165771428Y-99404819D01*
X165771428Y-99404819D02*
X165628571Y-99357200D01*
X165628571Y-99357200D02*
X165533333Y-99261961D01*
X165533333Y-99261961D02*
X165485714Y-99166723D01*
X165485714Y-99166723D02*
X165438095Y-98976247D01*
X165438095Y-98976247D02*
X165438095Y-98833390D01*
X165438095Y-98833390D02*
X165485714Y-98642914D01*
X165485714Y-98642914D02*
X165533333Y-98547676D01*
X165533333Y-98547676D02*
X165628571Y-98452438D01*
X165628571Y-98452438D02*
X165771428Y-98404819D01*
X165771428Y-98404819D02*
X165866666Y-98404819D01*
X165866666Y-98404819D02*
X166009523Y-98452438D01*
X166009523Y-98452438D02*
X166057142Y-98500057D01*
X166438095Y-98500057D02*
X166485714Y-98452438D01*
X166485714Y-98452438D02*
X166580952Y-98404819D01*
X166580952Y-98404819D02*
X166819047Y-98404819D01*
X166819047Y-98404819D02*
X166914285Y-98452438D01*
X166914285Y-98452438D02*
X166961904Y-98500057D01*
X166961904Y-98500057D02*
X167009523Y-98595295D01*
X167009523Y-98595295D02*
X167009523Y-98690533D01*
X167009523Y-98690533D02*
X166961904Y-98833390D01*
X166961904Y-98833390D02*
X166390476Y-99404819D01*
X166390476Y-99404819D02*
X167009523Y-99404819D01*
X167628571Y-98404819D02*
X167723809Y-98404819D01*
X167723809Y-98404819D02*
X167819047Y-98452438D01*
X167819047Y-98452438D02*
X167866666Y-98500057D01*
X167866666Y-98500057D02*
X167914285Y-98595295D01*
X167914285Y-98595295D02*
X167961904Y-98785771D01*
X167961904Y-98785771D02*
X167961904Y-99023866D01*
X167961904Y-99023866D02*
X167914285Y-99214342D01*
X167914285Y-99214342D02*
X167866666Y-99309580D01*
X167866666Y-99309580D02*
X167819047Y-99357200D01*
X167819047Y-99357200D02*
X167723809Y-99404819D01*
X167723809Y-99404819D02*
X167628571Y-99404819D01*
X167628571Y-99404819D02*
X167533333Y-99357200D01*
X167533333Y-99357200D02*
X167485714Y-99309580D01*
X167485714Y-99309580D02*
X167438095Y-99214342D01*
X167438095Y-99214342D02*
X167390476Y-99023866D01*
X167390476Y-99023866D02*
X167390476Y-98785771D01*
X167390476Y-98785771D02*
X167438095Y-98595295D01*
X167438095Y-98595295D02*
X167485714Y-98500057D01*
X167485714Y-98500057D02*
X167533333Y-98452438D01*
X167533333Y-98452438D02*
X167628571Y-98404819D01*
X148557142Y-81704819D02*
X148223809Y-81228628D01*
X147985714Y-81704819D02*
X147985714Y-80704819D01*
X147985714Y-80704819D02*
X148366666Y-80704819D01*
X148366666Y-80704819D02*
X148461904Y-80752438D01*
X148461904Y-80752438D02*
X148509523Y-80800057D01*
X148509523Y-80800057D02*
X148557142Y-80895295D01*
X148557142Y-80895295D02*
X148557142Y-81038152D01*
X148557142Y-81038152D02*
X148509523Y-81133390D01*
X148509523Y-81133390D02*
X148461904Y-81181009D01*
X148461904Y-81181009D02*
X148366666Y-81228628D01*
X148366666Y-81228628D02*
X147985714Y-81228628D01*
X149509523Y-81704819D02*
X148938095Y-81704819D01*
X149223809Y-81704819D02*
X149223809Y-80704819D01*
X149223809Y-80704819D02*
X149128571Y-80847676D01*
X149128571Y-80847676D02*
X149033333Y-80942914D01*
X149033333Y-80942914D02*
X148938095Y-80990533D01*
X149842857Y-80704819D02*
X150461904Y-80704819D01*
X150461904Y-80704819D02*
X150128571Y-81085771D01*
X150128571Y-81085771D02*
X150271428Y-81085771D01*
X150271428Y-81085771D02*
X150366666Y-81133390D01*
X150366666Y-81133390D02*
X150414285Y-81181009D01*
X150414285Y-81181009D02*
X150461904Y-81276247D01*
X150461904Y-81276247D02*
X150461904Y-81514342D01*
X150461904Y-81514342D02*
X150414285Y-81609580D01*
X150414285Y-81609580D02*
X150366666Y-81657200D01*
X150366666Y-81657200D02*
X150271428Y-81704819D01*
X150271428Y-81704819D02*
X149985714Y-81704819D01*
X149985714Y-81704819D02*
X149890476Y-81657200D01*
X149890476Y-81657200D02*
X149842857Y-81609580D01*
X152788095Y-96354819D02*
X152788095Y-97164342D01*
X152788095Y-97164342D02*
X152835714Y-97259580D01*
X152835714Y-97259580D02*
X152883333Y-97307200D01*
X152883333Y-97307200D02*
X152978571Y-97354819D01*
X152978571Y-97354819D02*
X153169047Y-97354819D01*
X153169047Y-97354819D02*
X153264285Y-97307200D01*
X153264285Y-97307200D02*
X153311904Y-97259580D01*
X153311904Y-97259580D02*
X153359523Y-97164342D01*
X153359523Y-97164342D02*
X153359523Y-96354819D01*
X154359523Y-97354819D02*
X153788095Y-97354819D01*
X154073809Y-97354819D02*
X154073809Y-96354819D01*
X154073809Y-96354819D02*
X153978571Y-96497676D01*
X153978571Y-96497676D02*
X153883333Y-96592914D01*
X153883333Y-96592914D02*
X153788095Y-96640533D01*
X128273809Y-81828628D02*
X128273809Y-82304819D01*
X127940476Y-81304819D02*
X128273809Y-81828628D01*
X128273809Y-81828628D02*
X128607142Y-81304819D01*
X128892857Y-81400057D02*
X128940476Y-81352438D01*
X128940476Y-81352438D02*
X129035714Y-81304819D01*
X129035714Y-81304819D02*
X129273809Y-81304819D01*
X129273809Y-81304819D02*
X129369047Y-81352438D01*
X129369047Y-81352438D02*
X129416666Y-81400057D01*
X129416666Y-81400057D02*
X129464285Y-81495295D01*
X129464285Y-81495295D02*
X129464285Y-81590533D01*
X129464285Y-81590533D02*
X129416666Y-81733390D01*
X129416666Y-81733390D02*
X128845238Y-82304819D01*
X128845238Y-82304819D02*
X129464285Y-82304819D01*
X144057142Y-100454819D02*
X143723809Y-99978628D01*
X143485714Y-100454819D02*
X143485714Y-99454819D01*
X143485714Y-99454819D02*
X143866666Y-99454819D01*
X143866666Y-99454819D02*
X143961904Y-99502438D01*
X143961904Y-99502438D02*
X144009523Y-99550057D01*
X144009523Y-99550057D02*
X144057142Y-99645295D01*
X144057142Y-99645295D02*
X144057142Y-99788152D01*
X144057142Y-99788152D02*
X144009523Y-99883390D01*
X144009523Y-99883390D02*
X143961904Y-99931009D01*
X143961904Y-99931009D02*
X143866666Y-99978628D01*
X143866666Y-99978628D02*
X143485714Y-99978628D01*
X145009523Y-100454819D02*
X144438095Y-100454819D01*
X144723809Y-100454819D02*
X144723809Y-99454819D01*
X144723809Y-99454819D02*
X144628571Y-99597676D01*
X144628571Y-99597676D02*
X144533333Y-99692914D01*
X144533333Y-99692914D02*
X144438095Y-99740533D01*
X145628571Y-99454819D02*
X145723809Y-99454819D01*
X145723809Y-99454819D02*
X145819047Y-99502438D01*
X145819047Y-99502438D02*
X145866666Y-99550057D01*
X145866666Y-99550057D02*
X145914285Y-99645295D01*
X145914285Y-99645295D02*
X145961904Y-99835771D01*
X145961904Y-99835771D02*
X145961904Y-100073866D01*
X145961904Y-100073866D02*
X145914285Y-100264342D01*
X145914285Y-100264342D02*
X145866666Y-100359580D01*
X145866666Y-100359580D02*
X145819047Y-100407200D01*
X145819047Y-100407200D02*
X145723809Y-100454819D01*
X145723809Y-100454819D02*
X145628571Y-100454819D01*
X145628571Y-100454819D02*
X145533333Y-100407200D01*
X145533333Y-100407200D02*
X145485714Y-100359580D01*
X145485714Y-100359580D02*
X145438095Y-100264342D01*
X145438095Y-100264342D02*
X145390476Y-100073866D01*
X145390476Y-100073866D02*
X145390476Y-99835771D01*
X145390476Y-99835771D02*
X145438095Y-99645295D01*
X145438095Y-99645295D02*
X145485714Y-99550057D01*
X145485714Y-99550057D02*
X145533333Y-99502438D01*
X145533333Y-99502438D02*
X145628571Y-99454819D01*
X134388095Y-102754819D02*
X134388095Y-103564342D01*
X134388095Y-103564342D02*
X134435714Y-103659580D01*
X134435714Y-103659580D02*
X134483333Y-103707200D01*
X134483333Y-103707200D02*
X134578571Y-103754819D01*
X134578571Y-103754819D02*
X134769047Y-103754819D01*
X134769047Y-103754819D02*
X134864285Y-103707200D01*
X134864285Y-103707200D02*
X134911904Y-103659580D01*
X134911904Y-103659580D02*
X134959523Y-103564342D01*
X134959523Y-103564342D02*
X134959523Y-102754819D01*
X135388095Y-102850057D02*
X135435714Y-102802438D01*
X135435714Y-102802438D02*
X135530952Y-102754819D01*
X135530952Y-102754819D02*
X135769047Y-102754819D01*
X135769047Y-102754819D02*
X135864285Y-102802438D01*
X135864285Y-102802438D02*
X135911904Y-102850057D01*
X135911904Y-102850057D02*
X135959523Y-102945295D01*
X135959523Y-102945295D02*
X135959523Y-103040533D01*
X135959523Y-103040533D02*
X135911904Y-103183390D01*
X135911904Y-103183390D02*
X135340476Y-103754819D01*
X135340476Y-103754819D02*
X135959523Y-103754819D01*
X127357142Y-105909580D02*
X127309523Y-105957200D01*
X127309523Y-105957200D02*
X127166666Y-106004819D01*
X127166666Y-106004819D02*
X127071428Y-106004819D01*
X127071428Y-106004819D02*
X126928571Y-105957200D01*
X126928571Y-105957200D02*
X126833333Y-105861961D01*
X126833333Y-105861961D02*
X126785714Y-105766723D01*
X126785714Y-105766723D02*
X126738095Y-105576247D01*
X126738095Y-105576247D02*
X126738095Y-105433390D01*
X126738095Y-105433390D02*
X126785714Y-105242914D01*
X126785714Y-105242914D02*
X126833333Y-105147676D01*
X126833333Y-105147676D02*
X126928571Y-105052438D01*
X126928571Y-105052438D02*
X127071428Y-105004819D01*
X127071428Y-105004819D02*
X127166666Y-105004819D01*
X127166666Y-105004819D02*
X127309523Y-105052438D01*
X127309523Y-105052438D02*
X127357142Y-105100057D01*
X128309523Y-106004819D02*
X127738095Y-106004819D01*
X128023809Y-106004819D02*
X128023809Y-105004819D01*
X128023809Y-105004819D02*
X127928571Y-105147676D01*
X127928571Y-105147676D02*
X127833333Y-105242914D01*
X127833333Y-105242914D02*
X127738095Y-105290533D01*
X129166666Y-105338152D02*
X129166666Y-106004819D01*
X128928571Y-104957200D02*
X128690476Y-105671485D01*
X128690476Y-105671485D02*
X129309523Y-105671485D01*
X143883333Y-87659580D02*
X143835714Y-87707200D01*
X143835714Y-87707200D02*
X143692857Y-87754819D01*
X143692857Y-87754819D02*
X143597619Y-87754819D01*
X143597619Y-87754819D02*
X143454762Y-87707200D01*
X143454762Y-87707200D02*
X143359524Y-87611961D01*
X143359524Y-87611961D02*
X143311905Y-87516723D01*
X143311905Y-87516723D02*
X143264286Y-87326247D01*
X143264286Y-87326247D02*
X143264286Y-87183390D01*
X143264286Y-87183390D02*
X143311905Y-86992914D01*
X143311905Y-86992914D02*
X143359524Y-86897676D01*
X143359524Y-86897676D02*
X143454762Y-86802438D01*
X143454762Y-86802438D02*
X143597619Y-86754819D01*
X143597619Y-86754819D02*
X143692857Y-86754819D01*
X143692857Y-86754819D02*
X143835714Y-86802438D01*
X143835714Y-86802438D02*
X143883333Y-86850057D01*
X144788095Y-86754819D02*
X144311905Y-86754819D01*
X144311905Y-86754819D02*
X144264286Y-87231009D01*
X144264286Y-87231009D02*
X144311905Y-87183390D01*
X144311905Y-87183390D02*
X144407143Y-87135771D01*
X144407143Y-87135771D02*
X144645238Y-87135771D01*
X144645238Y-87135771D02*
X144740476Y-87183390D01*
X144740476Y-87183390D02*
X144788095Y-87231009D01*
X144788095Y-87231009D02*
X144835714Y-87326247D01*
X144835714Y-87326247D02*
X144835714Y-87564342D01*
X144835714Y-87564342D02*
X144788095Y-87659580D01*
X144788095Y-87659580D02*
X144740476Y-87707200D01*
X144740476Y-87707200D02*
X144645238Y-87754819D01*
X144645238Y-87754819D02*
X144407143Y-87754819D01*
X144407143Y-87754819D02*
X144311905Y-87707200D01*
X144311905Y-87707200D02*
X144264286Y-87659580D01*
X128184133Y-113677319D02*
X127850800Y-113201128D01*
X127612705Y-113677319D02*
X127612705Y-112677319D01*
X127612705Y-112677319D02*
X127993657Y-112677319D01*
X127993657Y-112677319D02*
X128088895Y-112724938D01*
X128088895Y-112724938D02*
X128136514Y-112772557D01*
X128136514Y-112772557D02*
X128184133Y-112867795D01*
X128184133Y-112867795D02*
X128184133Y-113010652D01*
X128184133Y-113010652D02*
X128136514Y-113105890D01*
X128136514Y-113105890D02*
X128088895Y-113153509D01*
X128088895Y-113153509D02*
X127993657Y-113201128D01*
X127993657Y-113201128D02*
X127612705Y-113201128D01*
X128517467Y-112677319D02*
X129136514Y-112677319D01*
X129136514Y-112677319D02*
X128803181Y-113058271D01*
X128803181Y-113058271D02*
X128946038Y-113058271D01*
X128946038Y-113058271D02*
X129041276Y-113105890D01*
X129041276Y-113105890D02*
X129088895Y-113153509D01*
X129088895Y-113153509D02*
X129136514Y-113248747D01*
X129136514Y-113248747D02*
X129136514Y-113486842D01*
X129136514Y-113486842D02*
X129088895Y-113582080D01*
X129088895Y-113582080D02*
X129041276Y-113629700D01*
X129041276Y-113629700D02*
X128946038Y-113677319D01*
X128946038Y-113677319D02*
X128660324Y-113677319D01*
X128660324Y-113677319D02*
X128565086Y-113629700D01*
X128565086Y-113629700D02*
X128517467Y-113582080D01*
X167883333Y-87204819D02*
X167550000Y-86728628D01*
X167311905Y-87204819D02*
X167311905Y-86204819D01*
X167311905Y-86204819D02*
X167692857Y-86204819D01*
X167692857Y-86204819D02*
X167788095Y-86252438D01*
X167788095Y-86252438D02*
X167835714Y-86300057D01*
X167835714Y-86300057D02*
X167883333Y-86395295D01*
X167883333Y-86395295D02*
X167883333Y-86538152D01*
X167883333Y-86538152D02*
X167835714Y-86633390D01*
X167835714Y-86633390D02*
X167788095Y-86681009D01*
X167788095Y-86681009D02*
X167692857Y-86728628D01*
X167692857Y-86728628D02*
X167311905Y-86728628D01*
X168454762Y-86633390D02*
X168359524Y-86585771D01*
X168359524Y-86585771D02*
X168311905Y-86538152D01*
X168311905Y-86538152D02*
X168264286Y-86442914D01*
X168264286Y-86442914D02*
X168264286Y-86395295D01*
X168264286Y-86395295D02*
X168311905Y-86300057D01*
X168311905Y-86300057D02*
X168359524Y-86252438D01*
X168359524Y-86252438D02*
X168454762Y-86204819D01*
X168454762Y-86204819D02*
X168645238Y-86204819D01*
X168645238Y-86204819D02*
X168740476Y-86252438D01*
X168740476Y-86252438D02*
X168788095Y-86300057D01*
X168788095Y-86300057D02*
X168835714Y-86395295D01*
X168835714Y-86395295D02*
X168835714Y-86442914D01*
X168835714Y-86442914D02*
X168788095Y-86538152D01*
X168788095Y-86538152D02*
X168740476Y-86585771D01*
X168740476Y-86585771D02*
X168645238Y-86633390D01*
X168645238Y-86633390D02*
X168454762Y-86633390D01*
X168454762Y-86633390D02*
X168359524Y-86681009D01*
X168359524Y-86681009D02*
X168311905Y-86728628D01*
X168311905Y-86728628D02*
X168264286Y-86823866D01*
X168264286Y-86823866D02*
X168264286Y-87014342D01*
X168264286Y-87014342D02*
X168311905Y-87109580D01*
X168311905Y-87109580D02*
X168359524Y-87157200D01*
X168359524Y-87157200D02*
X168454762Y-87204819D01*
X168454762Y-87204819D02*
X168645238Y-87204819D01*
X168645238Y-87204819D02*
X168740476Y-87157200D01*
X168740476Y-87157200D02*
X168788095Y-87109580D01*
X168788095Y-87109580D02*
X168835714Y-87014342D01*
X168835714Y-87014342D02*
X168835714Y-86823866D01*
X168835714Y-86823866D02*
X168788095Y-86728628D01*
X168788095Y-86728628D02*
X168740476Y-86681009D01*
X168740476Y-86681009D02*
X168645238Y-86633390D01*
X131707142Y-87059580D02*
X131659523Y-87107200D01*
X131659523Y-87107200D02*
X131516666Y-87154819D01*
X131516666Y-87154819D02*
X131421428Y-87154819D01*
X131421428Y-87154819D02*
X131278571Y-87107200D01*
X131278571Y-87107200D02*
X131183333Y-87011961D01*
X131183333Y-87011961D02*
X131135714Y-86916723D01*
X131135714Y-86916723D02*
X131088095Y-86726247D01*
X131088095Y-86726247D02*
X131088095Y-86583390D01*
X131088095Y-86583390D02*
X131135714Y-86392914D01*
X131135714Y-86392914D02*
X131183333Y-86297676D01*
X131183333Y-86297676D02*
X131278571Y-86202438D01*
X131278571Y-86202438D02*
X131421428Y-86154819D01*
X131421428Y-86154819D02*
X131516666Y-86154819D01*
X131516666Y-86154819D02*
X131659523Y-86202438D01*
X131659523Y-86202438D02*
X131707142Y-86250057D01*
X132659523Y-87154819D02*
X132088095Y-87154819D01*
X132373809Y-87154819D02*
X132373809Y-86154819D01*
X132373809Y-86154819D02*
X132278571Y-86297676D01*
X132278571Y-86297676D02*
X132183333Y-86392914D01*
X132183333Y-86392914D02*
X132088095Y-86440533D01*
X132992857Y-86154819D02*
X133659523Y-86154819D01*
X133659523Y-86154819D02*
X133230952Y-87154819D01*
X144233333Y-92259580D02*
X144185714Y-92307200D01*
X144185714Y-92307200D02*
X144042857Y-92354819D01*
X144042857Y-92354819D02*
X143947619Y-92354819D01*
X143947619Y-92354819D02*
X143804762Y-92307200D01*
X143804762Y-92307200D02*
X143709524Y-92211961D01*
X143709524Y-92211961D02*
X143661905Y-92116723D01*
X143661905Y-92116723D02*
X143614286Y-91926247D01*
X143614286Y-91926247D02*
X143614286Y-91783390D01*
X143614286Y-91783390D02*
X143661905Y-91592914D01*
X143661905Y-91592914D02*
X143709524Y-91497676D01*
X143709524Y-91497676D02*
X143804762Y-91402438D01*
X143804762Y-91402438D02*
X143947619Y-91354819D01*
X143947619Y-91354819D02*
X144042857Y-91354819D01*
X144042857Y-91354819D02*
X144185714Y-91402438D01*
X144185714Y-91402438D02*
X144233333Y-91450057D01*
X145185714Y-92354819D02*
X144614286Y-92354819D01*
X144900000Y-92354819D02*
X144900000Y-91354819D01*
X144900000Y-91354819D02*
X144804762Y-91497676D01*
X144804762Y-91497676D02*
X144709524Y-91592914D01*
X144709524Y-91592914D02*
X144614286Y-91640533D01*
X149711333Y-86308120D02*
X149663714Y-86355740D01*
X149663714Y-86355740D02*
X149520857Y-86403359D01*
X149520857Y-86403359D02*
X149425619Y-86403359D01*
X149425619Y-86403359D02*
X149282762Y-86355740D01*
X149282762Y-86355740D02*
X149187524Y-86260501D01*
X149187524Y-86260501D02*
X149139905Y-86165263D01*
X149139905Y-86165263D02*
X149092286Y-85974787D01*
X149092286Y-85974787D02*
X149092286Y-85831930D01*
X149092286Y-85831930D02*
X149139905Y-85641454D01*
X149139905Y-85641454D02*
X149187524Y-85546216D01*
X149187524Y-85546216D02*
X149282762Y-85450978D01*
X149282762Y-85450978D02*
X149425619Y-85403359D01*
X149425619Y-85403359D02*
X149520857Y-85403359D01*
X149520857Y-85403359D02*
X149663714Y-85450978D01*
X149663714Y-85450978D02*
X149711333Y-85498597D01*
X150568476Y-85736692D02*
X150568476Y-86403359D01*
X150330381Y-85355740D02*
X150092286Y-86070025D01*
X150092286Y-86070025D02*
X150711333Y-86070025D01*
X141483333Y-109164819D02*
X141150000Y-108688628D01*
X140911905Y-109164819D02*
X140911905Y-108164819D01*
X140911905Y-108164819D02*
X141292857Y-108164819D01*
X141292857Y-108164819D02*
X141388095Y-108212438D01*
X141388095Y-108212438D02*
X141435714Y-108260057D01*
X141435714Y-108260057D02*
X141483333Y-108355295D01*
X141483333Y-108355295D02*
X141483333Y-108498152D01*
X141483333Y-108498152D02*
X141435714Y-108593390D01*
X141435714Y-108593390D02*
X141388095Y-108641009D01*
X141388095Y-108641009D02*
X141292857Y-108688628D01*
X141292857Y-108688628D02*
X140911905Y-108688628D01*
X142340476Y-108164819D02*
X142150000Y-108164819D01*
X142150000Y-108164819D02*
X142054762Y-108212438D01*
X142054762Y-108212438D02*
X142007143Y-108260057D01*
X142007143Y-108260057D02*
X141911905Y-108402914D01*
X141911905Y-108402914D02*
X141864286Y-108593390D01*
X141864286Y-108593390D02*
X141864286Y-108974342D01*
X141864286Y-108974342D02*
X141911905Y-109069580D01*
X141911905Y-109069580D02*
X141959524Y-109117200D01*
X141959524Y-109117200D02*
X142054762Y-109164819D01*
X142054762Y-109164819D02*
X142245238Y-109164819D01*
X142245238Y-109164819D02*
X142340476Y-109117200D01*
X142340476Y-109117200D02*
X142388095Y-109069580D01*
X142388095Y-109069580D02*
X142435714Y-108974342D01*
X142435714Y-108974342D02*
X142435714Y-108736247D01*
X142435714Y-108736247D02*
X142388095Y-108641009D01*
X142388095Y-108641009D02*
X142340476Y-108593390D01*
X142340476Y-108593390D02*
X142245238Y-108545771D01*
X142245238Y-108545771D02*
X142054762Y-108545771D01*
X142054762Y-108545771D02*
X141959524Y-108593390D01*
X141959524Y-108593390D02*
X141911905Y-108641009D01*
X141911905Y-108641009D02*
X141864286Y-108736247D01*
X140133333Y-103604819D02*
X139800000Y-103128628D01*
X139561905Y-103604819D02*
X139561905Y-102604819D01*
X139561905Y-102604819D02*
X139942857Y-102604819D01*
X139942857Y-102604819D02*
X140038095Y-102652438D01*
X140038095Y-102652438D02*
X140085714Y-102700057D01*
X140085714Y-102700057D02*
X140133333Y-102795295D01*
X140133333Y-102795295D02*
X140133333Y-102938152D01*
X140133333Y-102938152D02*
X140085714Y-103033390D01*
X140085714Y-103033390D02*
X140038095Y-103081009D01*
X140038095Y-103081009D02*
X139942857Y-103128628D01*
X139942857Y-103128628D02*
X139561905Y-103128628D01*
X141038095Y-102604819D02*
X140561905Y-102604819D01*
X140561905Y-102604819D02*
X140514286Y-103081009D01*
X140514286Y-103081009D02*
X140561905Y-103033390D01*
X140561905Y-103033390D02*
X140657143Y-102985771D01*
X140657143Y-102985771D02*
X140895238Y-102985771D01*
X140895238Y-102985771D02*
X140990476Y-103033390D01*
X140990476Y-103033390D02*
X141038095Y-103081009D01*
X141038095Y-103081009D02*
X141085714Y-103176247D01*
X141085714Y-103176247D02*
X141085714Y-103414342D01*
X141085714Y-103414342D02*
X141038095Y-103509580D01*
X141038095Y-103509580D02*
X140990476Y-103557200D01*
X140990476Y-103557200D02*
X140895238Y-103604819D01*
X140895238Y-103604819D02*
X140657143Y-103604819D01*
X140657143Y-103604819D02*
X140561905Y-103557200D01*
X140561905Y-103557200D02*
X140514286Y-103509580D01*
X155533333Y-94759580D02*
X155485714Y-94807200D01*
X155485714Y-94807200D02*
X155342857Y-94854819D01*
X155342857Y-94854819D02*
X155247619Y-94854819D01*
X155247619Y-94854819D02*
X155104762Y-94807200D01*
X155104762Y-94807200D02*
X155009524Y-94711961D01*
X155009524Y-94711961D02*
X154961905Y-94616723D01*
X154961905Y-94616723D02*
X154914286Y-94426247D01*
X154914286Y-94426247D02*
X154914286Y-94283390D01*
X154914286Y-94283390D02*
X154961905Y-94092914D01*
X154961905Y-94092914D02*
X155009524Y-93997676D01*
X155009524Y-93997676D02*
X155104762Y-93902438D01*
X155104762Y-93902438D02*
X155247619Y-93854819D01*
X155247619Y-93854819D02*
X155342857Y-93854819D01*
X155342857Y-93854819D02*
X155485714Y-93902438D01*
X155485714Y-93902438D02*
X155533333Y-93950057D01*
X156390476Y-93854819D02*
X156200000Y-93854819D01*
X156200000Y-93854819D02*
X156104762Y-93902438D01*
X156104762Y-93902438D02*
X156057143Y-93950057D01*
X156057143Y-93950057D02*
X155961905Y-94092914D01*
X155961905Y-94092914D02*
X155914286Y-94283390D01*
X155914286Y-94283390D02*
X155914286Y-94664342D01*
X155914286Y-94664342D02*
X155961905Y-94759580D01*
X155961905Y-94759580D02*
X156009524Y-94807200D01*
X156009524Y-94807200D02*
X156104762Y-94854819D01*
X156104762Y-94854819D02*
X156295238Y-94854819D01*
X156295238Y-94854819D02*
X156390476Y-94807200D01*
X156390476Y-94807200D02*
X156438095Y-94759580D01*
X156438095Y-94759580D02*
X156485714Y-94664342D01*
X156485714Y-94664342D02*
X156485714Y-94426247D01*
X156485714Y-94426247D02*
X156438095Y-94331009D01*
X156438095Y-94331009D02*
X156390476Y-94283390D01*
X156390476Y-94283390D02*
X156295238Y-94235771D01*
X156295238Y-94235771D02*
X156104762Y-94235771D01*
X156104762Y-94235771D02*
X156009524Y-94283390D01*
X156009524Y-94283390D02*
X155961905Y-94331009D01*
X155961905Y-94331009D02*
X155914286Y-94426247D01*
X166057142Y-102754819D02*
X165723809Y-102278628D01*
X165485714Y-102754819D02*
X165485714Y-101754819D01*
X165485714Y-101754819D02*
X165866666Y-101754819D01*
X165866666Y-101754819D02*
X165961904Y-101802438D01*
X165961904Y-101802438D02*
X166009523Y-101850057D01*
X166009523Y-101850057D02*
X166057142Y-101945295D01*
X166057142Y-101945295D02*
X166057142Y-102088152D01*
X166057142Y-102088152D02*
X166009523Y-102183390D01*
X166009523Y-102183390D02*
X165961904Y-102231009D01*
X165961904Y-102231009D02*
X165866666Y-102278628D01*
X165866666Y-102278628D02*
X165485714Y-102278628D01*
X167009523Y-102754819D02*
X166438095Y-102754819D01*
X166723809Y-102754819D02*
X166723809Y-101754819D01*
X166723809Y-101754819D02*
X166628571Y-101897676D01*
X166628571Y-101897676D02*
X166533333Y-101992914D01*
X166533333Y-101992914D02*
X166438095Y-102040533D01*
X167866666Y-101754819D02*
X167676190Y-101754819D01*
X167676190Y-101754819D02*
X167580952Y-101802438D01*
X167580952Y-101802438D02*
X167533333Y-101850057D01*
X167533333Y-101850057D02*
X167438095Y-101992914D01*
X167438095Y-101992914D02*
X167390476Y-102183390D01*
X167390476Y-102183390D02*
X167390476Y-102564342D01*
X167390476Y-102564342D02*
X167438095Y-102659580D01*
X167438095Y-102659580D02*
X167485714Y-102707200D01*
X167485714Y-102707200D02*
X167580952Y-102754819D01*
X167580952Y-102754819D02*
X167771428Y-102754819D01*
X167771428Y-102754819D02*
X167866666Y-102707200D01*
X167866666Y-102707200D02*
X167914285Y-102659580D01*
X167914285Y-102659580D02*
X167961904Y-102564342D01*
X167961904Y-102564342D02*
X167961904Y-102326247D01*
X167961904Y-102326247D02*
X167914285Y-102231009D01*
X167914285Y-102231009D02*
X167866666Y-102183390D01*
X167866666Y-102183390D02*
X167771428Y-102135771D01*
X167771428Y-102135771D02*
X167580952Y-102135771D01*
X167580952Y-102135771D02*
X167485714Y-102183390D01*
X167485714Y-102183390D02*
X167438095Y-102231009D01*
X167438095Y-102231009D02*
X167390476Y-102326247D01*
X141388133Y-89499920D02*
X141340514Y-89547540D01*
X141340514Y-89547540D02*
X141197657Y-89595159D01*
X141197657Y-89595159D02*
X141102419Y-89595159D01*
X141102419Y-89595159D02*
X140959562Y-89547540D01*
X140959562Y-89547540D02*
X140864324Y-89452301D01*
X140864324Y-89452301D02*
X140816705Y-89357063D01*
X140816705Y-89357063D02*
X140769086Y-89166587D01*
X140769086Y-89166587D02*
X140769086Y-89023730D01*
X140769086Y-89023730D02*
X140816705Y-88833254D01*
X140816705Y-88833254D02*
X140864324Y-88738016D01*
X140864324Y-88738016D02*
X140959562Y-88642778D01*
X140959562Y-88642778D02*
X141102419Y-88595159D01*
X141102419Y-88595159D02*
X141197657Y-88595159D01*
X141197657Y-88595159D02*
X141340514Y-88642778D01*
X141340514Y-88642778D02*
X141388133Y-88690397D01*
X141769086Y-88690397D02*
X141816705Y-88642778D01*
X141816705Y-88642778D02*
X141911943Y-88595159D01*
X141911943Y-88595159D02*
X142150038Y-88595159D01*
X142150038Y-88595159D02*
X142245276Y-88642778D01*
X142245276Y-88642778D02*
X142292895Y-88690397D01*
X142292895Y-88690397D02*
X142340514Y-88785635D01*
X142340514Y-88785635D02*
X142340514Y-88880873D01*
X142340514Y-88880873D02*
X142292895Y-89023730D01*
X142292895Y-89023730D02*
X141721467Y-89595159D01*
X141721467Y-89595159D02*
X142340514Y-89595159D01*
X131107142Y-81709580D02*
X131059523Y-81757200D01*
X131059523Y-81757200D02*
X130916666Y-81804819D01*
X130916666Y-81804819D02*
X130821428Y-81804819D01*
X130821428Y-81804819D02*
X130678571Y-81757200D01*
X130678571Y-81757200D02*
X130583333Y-81661961D01*
X130583333Y-81661961D02*
X130535714Y-81566723D01*
X130535714Y-81566723D02*
X130488095Y-81376247D01*
X130488095Y-81376247D02*
X130488095Y-81233390D01*
X130488095Y-81233390D02*
X130535714Y-81042914D01*
X130535714Y-81042914D02*
X130583333Y-80947676D01*
X130583333Y-80947676D02*
X130678571Y-80852438D01*
X130678571Y-80852438D02*
X130821428Y-80804819D01*
X130821428Y-80804819D02*
X130916666Y-80804819D01*
X130916666Y-80804819D02*
X131059523Y-80852438D01*
X131059523Y-80852438D02*
X131107142Y-80900057D01*
X131488095Y-80900057D02*
X131535714Y-80852438D01*
X131535714Y-80852438D02*
X131630952Y-80804819D01*
X131630952Y-80804819D02*
X131869047Y-80804819D01*
X131869047Y-80804819D02*
X131964285Y-80852438D01*
X131964285Y-80852438D02*
X132011904Y-80900057D01*
X132011904Y-80900057D02*
X132059523Y-80995295D01*
X132059523Y-80995295D02*
X132059523Y-81090533D01*
X132059523Y-81090533D02*
X132011904Y-81233390D01*
X132011904Y-81233390D02*
X131440476Y-81804819D01*
X131440476Y-81804819D02*
X132059523Y-81804819D01*
X132916666Y-81138152D02*
X132916666Y-81804819D01*
X132678571Y-80757200D02*
X132440476Y-81471485D01*
X132440476Y-81471485D02*
X133059523Y-81471485D01*
X127311905Y-107804819D02*
X127311905Y-106804819D01*
X127311905Y-106804819D02*
X127550000Y-106804819D01*
X127550000Y-106804819D02*
X127692857Y-106852438D01*
X127692857Y-106852438D02*
X127788095Y-106947676D01*
X127788095Y-106947676D02*
X127835714Y-107042914D01*
X127835714Y-107042914D02*
X127883333Y-107233390D01*
X127883333Y-107233390D02*
X127883333Y-107376247D01*
X127883333Y-107376247D02*
X127835714Y-107566723D01*
X127835714Y-107566723D02*
X127788095Y-107661961D01*
X127788095Y-107661961D02*
X127692857Y-107757200D01*
X127692857Y-107757200D02*
X127550000Y-107804819D01*
X127550000Y-107804819D02*
X127311905Y-107804819D01*
X128835714Y-107804819D02*
X128264286Y-107804819D01*
X128550000Y-107804819D02*
X128550000Y-106804819D01*
X128550000Y-106804819D02*
X128454762Y-106947676D01*
X128454762Y-106947676D02*
X128359524Y-107042914D01*
X128359524Y-107042914D02*
X128264286Y-107090533D01*
X148957142Y-100454819D02*
X148623809Y-99978628D01*
X148385714Y-100454819D02*
X148385714Y-99454819D01*
X148385714Y-99454819D02*
X148766666Y-99454819D01*
X148766666Y-99454819D02*
X148861904Y-99502438D01*
X148861904Y-99502438D02*
X148909523Y-99550057D01*
X148909523Y-99550057D02*
X148957142Y-99645295D01*
X148957142Y-99645295D02*
X148957142Y-99788152D01*
X148957142Y-99788152D02*
X148909523Y-99883390D01*
X148909523Y-99883390D02*
X148861904Y-99931009D01*
X148861904Y-99931009D02*
X148766666Y-99978628D01*
X148766666Y-99978628D02*
X148385714Y-99978628D01*
X149909523Y-100454819D02*
X149338095Y-100454819D01*
X149623809Y-100454819D02*
X149623809Y-99454819D01*
X149623809Y-99454819D02*
X149528571Y-99597676D01*
X149528571Y-99597676D02*
X149433333Y-99692914D01*
X149433333Y-99692914D02*
X149338095Y-99740533D01*
X150861904Y-100454819D02*
X150290476Y-100454819D01*
X150576190Y-100454819D02*
X150576190Y-99454819D01*
X150576190Y-99454819D02*
X150480952Y-99597676D01*
X150480952Y-99597676D02*
X150385714Y-99692914D01*
X150385714Y-99692914D02*
X150290476Y-99740533D01*
X133900595Y-87592319D02*
X133900595Y-88401842D01*
X133900595Y-88401842D02*
X133948214Y-88497080D01*
X133948214Y-88497080D02*
X133995833Y-88544700D01*
X133995833Y-88544700D02*
X134091071Y-88592319D01*
X134091071Y-88592319D02*
X134281547Y-88592319D01*
X134281547Y-88592319D02*
X134376785Y-88544700D01*
X134376785Y-88544700D02*
X134424404Y-88497080D01*
X134424404Y-88497080D02*
X134472023Y-88401842D01*
X134472023Y-88401842D02*
X134472023Y-87592319D01*
X135376785Y-87925652D02*
X135376785Y-88592319D01*
X135138690Y-87544700D02*
X134900595Y-88258985D01*
X134900595Y-88258985D02*
X135519642Y-88258985D01*
X157607142Y-96459580D02*
X157559523Y-96507200D01*
X157559523Y-96507200D02*
X157416666Y-96554819D01*
X157416666Y-96554819D02*
X157321428Y-96554819D01*
X157321428Y-96554819D02*
X157178571Y-96507200D01*
X157178571Y-96507200D02*
X157083333Y-96411961D01*
X157083333Y-96411961D02*
X157035714Y-96316723D01*
X157035714Y-96316723D02*
X156988095Y-96126247D01*
X156988095Y-96126247D02*
X156988095Y-95983390D01*
X156988095Y-95983390D02*
X157035714Y-95792914D01*
X157035714Y-95792914D02*
X157083333Y-95697676D01*
X157083333Y-95697676D02*
X157178571Y-95602438D01*
X157178571Y-95602438D02*
X157321428Y-95554819D01*
X157321428Y-95554819D02*
X157416666Y-95554819D01*
X157416666Y-95554819D02*
X157559523Y-95602438D01*
X157559523Y-95602438D02*
X157607142Y-95650057D01*
X158559523Y-96554819D02*
X157988095Y-96554819D01*
X158273809Y-96554819D02*
X158273809Y-95554819D01*
X158273809Y-95554819D02*
X158178571Y-95697676D01*
X158178571Y-95697676D02*
X158083333Y-95792914D01*
X158083333Y-95792914D02*
X157988095Y-95840533D01*
X158940476Y-95650057D02*
X158988095Y-95602438D01*
X158988095Y-95602438D02*
X159083333Y-95554819D01*
X159083333Y-95554819D02*
X159321428Y-95554819D01*
X159321428Y-95554819D02*
X159416666Y-95602438D01*
X159416666Y-95602438D02*
X159464285Y-95650057D01*
X159464285Y-95650057D02*
X159511904Y-95745295D01*
X159511904Y-95745295D02*
X159511904Y-95840533D01*
X159511904Y-95840533D02*
X159464285Y-95983390D01*
X159464285Y-95983390D02*
X158892857Y-96554819D01*
X158892857Y-96554819D02*
X159511904Y-96554819D01*
X167161905Y-80642319D02*
X167161905Y-79642319D01*
X167161905Y-79642319D02*
X167400000Y-79642319D01*
X167400000Y-79642319D02*
X167542857Y-79689938D01*
X167542857Y-79689938D02*
X167638095Y-79785176D01*
X167638095Y-79785176D02*
X167685714Y-79880414D01*
X167685714Y-79880414D02*
X167733333Y-80070890D01*
X167733333Y-80070890D02*
X167733333Y-80213747D01*
X167733333Y-80213747D02*
X167685714Y-80404223D01*
X167685714Y-80404223D02*
X167638095Y-80499461D01*
X167638095Y-80499461D02*
X167542857Y-80594700D01*
X167542857Y-80594700D02*
X167400000Y-80642319D01*
X167400000Y-80642319D02*
X167161905Y-80642319D01*
X168114286Y-79737557D02*
X168161905Y-79689938D01*
X168161905Y-79689938D02*
X168257143Y-79642319D01*
X168257143Y-79642319D02*
X168495238Y-79642319D01*
X168495238Y-79642319D02*
X168590476Y-79689938D01*
X168590476Y-79689938D02*
X168638095Y-79737557D01*
X168638095Y-79737557D02*
X168685714Y-79832795D01*
X168685714Y-79832795D02*
X168685714Y-79928033D01*
X168685714Y-79928033D02*
X168638095Y-80070890D01*
X168638095Y-80070890D02*
X168066667Y-80642319D01*
X168066667Y-80642319D02*
X168685714Y-80642319D01*
X140261905Y-115804819D02*
X140261905Y-114804819D01*
X140261905Y-114804819D02*
X140500000Y-114804819D01*
X140500000Y-114804819D02*
X140642857Y-114852438D01*
X140642857Y-114852438D02*
X140738095Y-114947676D01*
X140738095Y-114947676D02*
X140785714Y-115042914D01*
X140785714Y-115042914D02*
X140833333Y-115233390D01*
X140833333Y-115233390D02*
X140833333Y-115376247D01*
X140833333Y-115376247D02*
X140785714Y-115566723D01*
X140785714Y-115566723D02*
X140738095Y-115661961D01*
X140738095Y-115661961D02*
X140642857Y-115757200D01*
X140642857Y-115757200D02*
X140500000Y-115804819D01*
X140500000Y-115804819D02*
X140261905Y-115804819D01*
X141690476Y-115138152D02*
X141690476Y-115804819D01*
X141452381Y-114757200D02*
X141214286Y-115471485D01*
X141214286Y-115471485D02*
X141833333Y-115471485D01*
X141157142Y-100709580D02*
X141109523Y-100757200D01*
X141109523Y-100757200D02*
X140966666Y-100804819D01*
X140966666Y-100804819D02*
X140871428Y-100804819D01*
X140871428Y-100804819D02*
X140728571Y-100757200D01*
X140728571Y-100757200D02*
X140633333Y-100661961D01*
X140633333Y-100661961D02*
X140585714Y-100566723D01*
X140585714Y-100566723D02*
X140538095Y-100376247D01*
X140538095Y-100376247D02*
X140538095Y-100233390D01*
X140538095Y-100233390D02*
X140585714Y-100042914D01*
X140585714Y-100042914D02*
X140633333Y-99947676D01*
X140633333Y-99947676D02*
X140728571Y-99852438D01*
X140728571Y-99852438D02*
X140871428Y-99804819D01*
X140871428Y-99804819D02*
X140966666Y-99804819D01*
X140966666Y-99804819D02*
X141109523Y-99852438D01*
X141109523Y-99852438D02*
X141157142Y-99900057D01*
X142109523Y-100804819D02*
X141538095Y-100804819D01*
X141823809Y-100804819D02*
X141823809Y-99804819D01*
X141823809Y-99804819D02*
X141728571Y-99947676D01*
X141728571Y-99947676D02*
X141633333Y-100042914D01*
X141633333Y-100042914D02*
X141538095Y-100090533D01*
X142585714Y-100804819D02*
X142776190Y-100804819D01*
X142776190Y-100804819D02*
X142871428Y-100757200D01*
X142871428Y-100757200D02*
X142919047Y-100709580D01*
X142919047Y-100709580D02*
X143014285Y-100566723D01*
X143014285Y-100566723D02*
X143061904Y-100376247D01*
X143061904Y-100376247D02*
X143061904Y-99995295D01*
X143061904Y-99995295D02*
X143014285Y-99900057D01*
X143014285Y-99900057D02*
X142966666Y-99852438D01*
X142966666Y-99852438D02*
X142871428Y-99804819D01*
X142871428Y-99804819D02*
X142680952Y-99804819D01*
X142680952Y-99804819D02*
X142585714Y-99852438D01*
X142585714Y-99852438D02*
X142538095Y-99900057D01*
X142538095Y-99900057D02*
X142490476Y-99995295D01*
X142490476Y-99995295D02*
X142490476Y-100233390D01*
X142490476Y-100233390D02*
X142538095Y-100328628D01*
X142538095Y-100328628D02*
X142585714Y-100376247D01*
X142585714Y-100376247D02*
X142680952Y-100423866D01*
X142680952Y-100423866D02*
X142871428Y-100423866D01*
X142871428Y-100423866D02*
X142966666Y-100376247D01*
X142966666Y-100376247D02*
X143014285Y-100328628D01*
X143014285Y-100328628D02*
X143061904Y-100233390D01*
X142083333Y-95009580D02*
X142035714Y-95057200D01*
X142035714Y-95057200D02*
X141892857Y-95104819D01*
X141892857Y-95104819D02*
X141797619Y-95104819D01*
X141797619Y-95104819D02*
X141654762Y-95057200D01*
X141654762Y-95057200D02*
X141559524Y-94961961D01*
X141559524Y-94961961D02*
X141511905Y-94866723D01*
X141511905Y-94866723D02*
X141464286Y-94676247D01*
X141464286Y-94676247D02*
X141464286Y-94533390D01*
X141464286Y-94533390D02*
X141511905Y-94342914D01*
X141511905Y-94342914D02*
X141559524Y-94247676D01*
X141559524Y-94247676D02*
X141654762Y-94152438D01*
X141654762Y-94152438D02*
X141797619Y-94104819D01*
X141797619Y-94104819D02*
X141892857Y-94104819D01*
X141892857Y-94104819D02*
X142035714Y-94152438D01*
X142035714Y-94152438D02*
X142083333Y-94200057D01*
X142559524Y-95104819D02*
X142750000Y-95104819D01*
X142750000Y-95104819D02*
X142845238Y-95057200D01*
X142845238Y-95057200D02*
X142892857Y-95009580D01*
X142892857Y-95009580D02*
X142988095Y-94866723D01*
X142988095Y-94866723D02*
X143035714Y-94676247D01*
X143035714Y-94676247D02*
X143035714Y-94295295D01*
X143035714Y-94295295D02*
X142988095Y-94200057D01*
X142988095Y-94200057D02*
X142940476Y-94152438D01*
X142940476Y-94152438D02*
X142845238Y-94104819D01*
X142845238Y-94104819D02*
X142654762Y-94104819D01*
X142654762Y-94104819D02*
X142559524Y-94152438D01*
X142559524Y-94152438D02*
X142511905Y-94200057D01*
X142511905Y-94200057D02*
X142464286Y-94295295D01*
X142464286Y-94295295D02*
X142464286Y-94533390D01*
X142464286Y-94533390D02*
X142511905Y-94628628D01*
X142511905Y-94628628D02*
X142559524Y-94676247D01*
X142559524Y-94676247D02*
X142654762Y-94723866D01*
X142654762Y-94723866D02*
X142845238Y-94723866D01*
X142845238Y-94723866D02*
X142940476Y-94676247D01*
X142940476Y-94676247D02*
X142988095Y-94628628D01*
X142988095Y-94628628D02*
X143035714Y-94533390D01*
X170140833Y-89254819D02*
X169807500Y-88778628D01*
X169569405Y-89254819D02*
X169569405Y-88254819D01*
X169569405Y-88254819D02*
X169950357Y-88254819D01*
X169950357Y-88254819D02*
X170045595Y-88302438D01*
X170045595Y-88302438D02*
X170093214Y-88350057D01*
X170093214Y-88350057D02*
X170140833Y-88445295D01*
X170140833Y-88445295D02*
X170140833Y-88588152D01*
X170140833Y-88588152D02*
X170093214Y-88683390D01*
X170093214Y-88683390D02*
X170045595Y-88731009D01*
X170045595Y-88731009D02*
X169950357Y-88778628D01*
X169950357Y-88778628D02*
X169569405Y-88778628D01*
X170474167Y-88254819D02*
X171140833Y-88254819D01*
X171140833Y-88254819D02*
X170712262Y-89254819D01*
X144535142Y-90908120D02*
X144487523Y-90955740D01*
X144487523Y-90955740D02*
X144344666Y-91003359D01*
X144344666Y-91003359D02*
X144249428Y-91003359D01*
X144249428Y-91003359D02*
X144106571Y-90955740D01*
X144106571Y-90955740D02*
X144011333Y-90860501D01*
X144011333Y-90860501D02*
X143963714Y-90765263D01*
X143963714Y-90765263D02*
X143916095Y-90574787D01*
X143916095Y-90574787D02*
X143916095Y-90431930D01*
X143916095Y-90431930D02*
X143963714Y-90241454D01*
X143963714Y-90241454D02*
X144011333Y-90146216D01*
X144011333Y-90146216D02*
X144106571Y-90050978D01*
X144106571Y-90050978D02*
X144249428Y-90003359D01*
X144249428Y-90003359D02*
X144344666Y-90003359D01*
X144344666Y-90003359D02*
X144487523Y-90050978D01*
X144487523Y-90050978D02*
X144535142Y-90098597D01*
X145487523Y-91003359D02*
X144916095Y-91003359D01*
X145201809Y-91003359D02*
X145201809Y-90003359D01*
X145201809Y-90003359D02*
X145106571Y-90146216D01*
X145106571Y-90146216D02*
X145011333Y-90241454D01*
X145011333Y-90241454D02*
X144916095Y-90289073D01*
X146439904Y-91003359D02*
X145868476Y-91003359D01*
X146154190Y-91003359D02*
X146154190Y-90003359D01*
X146154190Y-90003359D02*
X146058952Y-90146216D01*
X146058952Y-90146216D02*
X145963714Y-90241454D01*
X145963714Y-90241454D02*
X145868476Y-90289073D01*
X139066666Y-72254819D02*
X139066666Y-72969104D01*
X139066666Y-72969104D02*
X139019047Y-73111961D01*
X139019047Y-73111961D02*
X138923809Y-73207200D01*
X138923809Y-73207200D02*
X138780952Y-73254819D01*
X138780952Y-73254819D02*
X138685714Y-73254819D01*
X139685714Y-72683390D02*
X139590476Y-72635771D01*
X139590476Y-72635771D02*
X139542857Y-72588152D01*
X139542857Y-72588152D02*
X139495238Y-72492914D01*
X139495238Y-72492914D02*
X139495238Y-72445295D01*
X139495238Y-72445295D02*
X139542857Y-72350057D01*
X139542857Y-72350057D02*
X139590476Y-72302438D01*
X139590476Y-72302438D02*
X139685714Y-72254819D01*
X139685714Y-72254819D02*
X139876190Y-72254819D01*
X139876190Y-72254819D02*
X139971428Y-72302438D01*
X139971428Y-72302438D02*
X140019047Y-72350057D01*
X140019047Y-72350057D02*
X140066666Y-72445295D01*
X140066666Y-72445295D02*
X140066666Y-72492914D01*
X140066666Y-72492914D02*
X140019047Y-72588152D01*
X140019047Y-72588152D02*
X139971428Y-72635771D01*
X139971428Y-72635771D02*
X139876190Y-72683390D01*
X139876190Y-72683390D02*
X139685714Y-72683390D01*
X139685714Y-72683390D02*
X139590476Y-72731009D01*
X139590476Y-72731009D02*
X139542857Y-72778628D01*
X139542857Y-72778628D02*
X139495238Y-72873866D01*
X139495238Y-72873866D02*
X139495238Y-73064342D01*
X139495238Y-73064342D02*
X139542857Y-73159580D01*
X139542857Y-73159580D02*
X139590476Y-73207200D01*
X139590476Y-73207200D02*
X139685714Y-73254819D01*
X139685714Y-73254819D02*
X139876190Y-73254819D01*
X139876190Y-73254819D02*
X139971428Y-73207200D01*
X139971428Y-73207200D02*
X140019047Y-73159580D01*
X140019047Y-73159580D02*
X140066666Y-73064342D01*
X140066666Y-73064342D02*
X140066666Y-72873866D01*
X140066666Y-72873866D02*
X140019047Y-72778628D01*
X140019047Y-72778628D02*
X139971428Y-72731009D01*
X139971428Y-72731009D02*
X139876190Y-72683390D01*
X139416666Y-97431009D02*
X139083333Y-97431009D01*
X139083333Y-97954819D02*
X139083333Y-96954819D01*
X139083333Y-96954819D02*
X139559523Y-96954819D01*
X140273809Y-97431009D02*
X140416666Y-97478628D01*
X140416666Y-97478628D02*
X140464285Y-97526247D01*
X140464285Y-97526247D02*
X140511904Y-97621485D01*
X140511904Y-97621485D02*
X140511904Y-97764342D01*
X140511904Y-97764342D02*
X140464285Y-97859580D01*
X140464285Y-97859580D02*
X140416666Y-97907200D01*
X140416666Y-97907200D02*
X140321428Y-97954819D01*
X140321428Y-97954819D02*
X139940476Y-97954819D01*
X139940476Y-97954819D02*
X139940476Y-96954819D01*
X139940476Y-96954819D02*
X140273809Y-96954819D01*
X140273809Y-96954819D02*
X140369047Y-97002438D01*
X140369047Y-97002438D02*
X140416666Y-97050057D01*
X140416666Y-97050057D02*
X140464285Y-97145295D01*
X140464285Y-97145295D02*
X140464285Y-97240533D01*
X140464285Y-97240533D02*
X140416666Y-97335771D01*
X140416666Y-97335771D02*
X140369047Y-97383390D01*
X140369047Y-97383390D02*
X140273809Y-97431009D01*
X140273809Y-97431009D02*
X139940476Y-97431009D01*
X141464285Y-97954819D02*
X140892857Y-97954819D01*
X141178571Y-97954819D02*
X141178571Y-96954819D01*
X141178571Y-96954819D02*
X141083333Y-97097676D01*
X141083333Y-97097676D02*
X140988095Y-97192914D01*
X140988095Y-97192914D02*
X140892857Y-97240533D01*
D13*
%TO.C,J5*%
X163764000Y-119800000D02*
X166664000Y-119800000D01*
X163764000Y-122700000D02*
X163764000Y-119800000D01*
X166664000Y-119800000D02*
X166664000Y-122700000D01*
X166664000Y-122700000D02*
X163764000Y-122700000D01*
%TO.C,C3*%
X140640000Y-93136376D02*
X140640000Y-92920704D01*
X141360000Y-93136376D02*
X141360000Y-92920704D01*
%TO.C,C16*%
X129480336Y-91999500D02*
X129264664Y-91999500D01*
X129480336Y-92719500D02*
X129264664Y-92719500D01*
%TO.C,R14*%
X140520000Y-96103641D02*
X140520000Y-95796359D01*
X141280000Y-96103641D02*
X141280000Y-95796359D01*
%TO.C,J4*%
X159608000Y-119800000D02*
X162508000Y-119800000D01*
X159608000Y-122700000D02*
X159608000Y-119800000D01*
X162508000Y-119800000D02*
X162508000Y-122700000D01*
X162508000Y-122700000D02*
X159608000Y-122700000D01*
D14*
%TO.C,U3*%
X135487500Y-79075000D02*
X137487500Y-79075000D01*
X135487500Y-81775000D02*
X137487500Y-81775000D01*
D15*
X138282500Y-79275000D02*
G75*
G02*
X138082500Y-79275000I-100000J0D01*
G01*
X138082500Y-79275000D02*
G75*
G02*
X138282500Y-79275000I100000J0D01*
G01*
D13*
%TO.C,AE1*%
X169700000Y-112292000D02*
X170500000Y-112292000D01*
X169700000Y-112492000D02*
X169700000Y-112292000D01*
X169900000Y-115292000D02*
X169700000Y-115092000D01*
X170500000Y-115292000D02*
X169900000Y-115292000D01*
X170500000Y-115292000D02*
X170500000Y-115792000D01*
X171900000Y-112292000D02*
X172700000Y-112292000D01*
X171900000Y-115292000D02*
X171900000Y-115792000D01*
X172700000Y-112292000D02*
X172700000Y-112492000D01*
X172700000Y-115092000D02*
X172700000Y-115292000D01*
X172700000Y-115292000D02*
X171900000Y-115292000D01*
%TO.C,D3*%
X169215000Y-81700000D02*
X169215000Y-83985000D01*
X169215000Y-83985000D02*
X170685000Y-83985000D01*
X170685000Y-83985000D02*
X170685000Y-81700000D01*
%TO.C,C15*%
X126472500Y-87044664D02*
X126472500Y-87260336D01*
X127192500Y-87044664D02*
X127192500Y-87260336D01*
%TO.C,C7*%
X155018000Y-89040704D02*
X155018000Y-89256376D01*
X155738000Y-89040704D02*
X155738000Y-89256376D01*
D14*
%TO.C,J2*%
X174212500Y-95080000D02*
X175892500Y-95080000D01*
X174212500Y-104020000D02*
X175892500Y-104020000D01*
X179662500Y-95080000D02*
X178232500Y-95080000D01*
X179662500Y-104020000D02*
X178232500Y-104020000D01*
X179662500Y-104020000D02*
X179662500Y-95080000D01*
D15*
X171162500Y-102750000D02*
G75*
G02*
X170962500Y-102750000I-100000J0D01*
G01*
X170962500Y-102750000D02*
G75*
G02*
X171162500Y-102750000I100000J0D01*
G01*
D13*
%TO.C,Y1*%
X137110800Y-89807340D02*
X137110800Y-93807340D01*
X140410800Y-89807340D02*
X137110800Y-89807340D01*
%TO.C,C18*%
X129772664Y-85268500D02*
X129988336Y-85268500D01*
X129772664Y-85988500D02*
X129988336Y-85988500D01*
%TO.C,C23*%
X133929664Y-79065000D02*
X134145336Y-79065000D01*
X133929664Y-79785000D02*
X134145336Y-79785000D01*
%TO.C,R2*%
X170404760Y-97197559D02*
X170404760Y-97504841D01*
X171164760Y-97197559D02*
X171164760Y-97504841D01*
%TO.C,U5*%
X162597500Y-89725000D02*
X162857500Y-89725000D01*
X162597500Y-92450000D02*
X162597500Y-89725000D01*
X162597500Y-92450000D02*
X162597500Y-95175000D01*
X162597500Y-95175000D02*
X162857500Y-95175000D01*
X167787500Y-89725000D02*
X167787500Y-88050000D01*
X168047500Y-89725000D02*
X167787500Y-89725000D01*
X168047500Y-92450000D02*
X168047500Y-89725000D01*
X168047500Y-92450000D02*
X168047500Y-95175000D01*
X168047500Y-95175000D02*
X167787500Y-95175000D01*
%TO.C,R15*%
X163820000Y-100653641D02*
X163820000Y-100346359D01*
X164580000Y-100653641D02*
X164580000Y-100346359D01*
%TO.C,C8*%
X147989164Y-86829740D02*
X148204836Y-86829740D01*
X147989164Y-87549740D02*
X148204836Y-87549740D01*
%TO.C,J3*%
X143290000Y-120690000D02*
X143290000Y-122740000D01*
X143290000Y-124560000D02*
X143290000Y-124860000D01*
X143290000Y-124860000D02*
X144090000Y-124860000D01*
X144060000Y-120690000D02*
X143290000Y-120690000D01*
X144060000Y-121040000D02*
X144060000Y-120690000D01*
X144090000Y-124860000D02*
X144090000Y-126160000D01*
X144090000Y-126160000D02*
X155910000Y-126160000D01*
X146040000Y-120450000D02*
X146040000Y-121040000D01*
X146040000Y-121040000D02*
X144060000Y-121040000D01*
X155910000Y-124860000D02*
X156710000Y-124860000D01*
X155910000Y-126160000D02*
X155910000Y-124860000D01*
X155940000Y-120690000D02*
X155940000Y-121040000D01*
X155940000Y-121040000D02*
X153960000Y-121040000D01*
X156710000Y-120690000D02*
X155940000Y-120690000D01*
X156710000Y-122740000D02*
X156710000Y-120690000D01*
X156710000Y-124860000D02*
X156710000Y-124560000D01*
%TO.C,R1*%
X170154760Y-100654841D02*
X170154760Y-100347559D01*
X170914760Y-100654841D02*
X170914760Y-100347559D01*
%TO.C,R12*%
X146620000Y-82746359D02*
X146620000Y-83053641D01*
X147380000Y-82746359D02*
X147380000Y-83053641D01*
%TO.C,C21*%
X139192164Y-101290000D02*
X139407836Y-101290000D01*
X139192164Y-102010000D02*
X139407836Y-102010000D01*
%TO.C,FB2*%
X137040000Y-102562779D02*
X137040000Y-102237221D01*
X138060000Y-102562779D02*
X138060000Y-102237221D01*
%TO.C,C13*%
X129715000Y-109561252D02*
X129715000Y-109038748D01*
X131185000Y-109561252D02*
X131185000Y-109038748D01*
%TO.C,R9*%
X169570000Y-84883859D02*
X169570000Y-85191141D01*
X170330000Y-84883859D02*
X170330000Y-85191141D01*
%TO.C,R4*%
X129218859Y-93249500D02*
X129526141Y-93249500D01*
X129218859Y-94009500D02*
X129526141Y-94009500D01*
D14*
%TO.C,U6*%
X143550000Y-101400000D02*
X159550000Y-101400000D01*
X143550000Y-101830000D02*
X143550000Y-101400000D01*
X143550000Y-117400000D02*
X143550000Y-116970000D01*
X159550000Y-101400000D02*
X159550000Y-101830000D01*
X159550000Y-117400000D02*
X143550000Y-117400000D01*
X159550000Y-117400000D02*
X159550000Y-116970000D01*
D15*
X141650000Y-102650000D02*
G75*
G02*
X141450000Y-102650000I-100000J0D01*
G01*
X141450000Y-102650000D02*
G75*
G02*
X141650000Y-102650000I100000J0D01*
G01*
D13*
%TO.C,J7*%
X158690000Y-75510000D02*
X158690000Y-76659999D01*
X158690000Y-76659999D02*
X159740001Y-76660000D01*
X159740001Y-76660000D02*
X159740001Y-77650000D01*
X159860000Y-73540000D02*
X163739999Y-73540000D01*
X164910000Y-75510000D02*
X164910000Y-76660000D01*
X164910000Y-76660000D02*
X163860000Y-76659999D01*
%TO.C,C20*%
X166815336Y-97340000D02*
X166599664Y-97340000D01*
X166815336Y-98060000D02*
X166599664Y-98060000D01*
%TO.C,R13*%
X147670000Y-82756359D02*
X147670000Y-83063641D01*
X148430000Y-82756359D02*
X148430000Y-83063641D01*
%TO.C,U1*%
X146990000Y-95659740D02*
X146990000Y-95184740D01*
X147465000Y-88439740D02*
X146990000Y-88439740D01*
X147465000Y-95659740D02*
X146990000Y-95659740D01*
X153735000Y-88439740D02*
X154210000Y-88439740D01*
X153735000Y-95659740D02*
X154210000Y-95659740D01*
X154210000Y-88439740D02*
X154210000Y-88914740D01*
X154210000Y-95659740D02*
X154210000Y-95184740D01*
%TO.C,Y2*%
X130809500Y-82848500D02*
X129459500Y-82848500D01*
X130809500Y-84598500D02*
X129459500Y-84598500D01*
%TO.C,R10*%
X146270000Y-99896359D02*
X146270000Y-100203641D01*
X147030000Y-99896359D02*
X147030000Y-100203641D01*
%TO.C,U2*%
X132500000Y-104190000D02*
X138510000Y-104190000D01*
X134750000Y-111010000D02*
X138510000Y-111010000D01*
X138510000Y-104190000D02*
X138510000Y-105450000D01*
X138510000Y-111010000D02*
X138510000Y-109750000D01*
%TO.C,C14*%
X129715000Y-105711252D02*
X129715000Y-105188748D01*
X131185000Y-105711252D02*
X131185000Y-105188748D01*
%TO.C,C5*%
X144550000Y-88935576D02*
X144550000Y-88719904D01*
X145270000Y-88935576D02*
X145270000Y-88719904D01*
%TO.C,R3*%
X128146359Y-111349500D02*
X128453641Y-111349500D01*
X128146359Y-112109500D02*
X128453641Y-112109500D01*
%TO.C,R8*%
X167788000Y-84883859D02*
X167788000Y-85191141D01*
X168548000Y-84883859D02*
X168548000Y-85191141D01*
%TO.C,C17*%
X131804664Y-85268500D02*
X132020336Y-85268500D01*
X131804664Y-85988500D02*
X132020336Y-85988500D01*
%TO.C,C1*%
X144387836Y-92651000D02*
X144172164Y-92651000D01*
X144387836Y-93371000D02*
X144172164Y-93371000D01*
%TO.C,C4*%
X147989164Y-85546740D02*
X148204836Y-85546740D01*
X147989164Y-86266740D02*
X148204836Y-86266740D01*
%TO.C,R6*%
X141270000Y-110403641D02*
X141270000Y-110096359D01*
X142030000Y-110403641D02*
X142030000Y-110096359D01*
%TO.C,R5*%
X141370000Y-102996359D02*
X141370000Y-103303641D01*
X142130000Y-102996359D02*
X142130000Y-103303641D01*
%TO.C,J6*%
X143290000Y-74150000D02*
X143290000Y-74450000D01*
X143290000Y-76270000D02*
X143290000Y-78320000D01*
X143290000Y-78320000D02*
X144060000Y-78320000D01*
X144060000Y-77970000D02*
X146040000Y-77970000D01*
X144060000Y-78320000D02*
X144060000Y-77970000D01*
X144090000Y-72850000D02*
X144090000Y-74150000D01*
X144090000Y-74150000D02*
X143290000Y-74150000D01*
X153960000Y-77970000D02*
X155940000Y-77970000D01*
X153960000Y-78560000D02*
X153960000Y-77970000D01*
X155910000Y-72850000D02*
X144090000Y-72850000D01*
X155910000Y-74150000D02*
X155910000Y-72850000D01*
X155940000Y-77970000D02*
X155940000Y-78320000D01*
X155940000Y-78320000D02*
X156710000Y-78320000D01*
X156710000Y-74150000D02*
X155910000Y-74150000D01*
X156710000Y-74450000D02*
X156710000Y-74150000D01*
X156710000Y-78320000D02*
X156710000Y-76270000D01*
%TO.C,C6*%
X154918000Y-95890964D02*
X154918000Y-96106636D01*
X155638000Y-95890964D02*
X155638000Y-96106636D01*
%TO.C,J1*%
X122497740Y-102418800D02*
X122497740Y-94738800D01*
X125157740Y-94738800D02*
X122497740Y-94738800D01*
X125157740Y-102418800D02*
X122497740Y-102418800D01*
X125157740Y-102418800D02*
X125157740Y-94738800D01*
X125157740Y-103688800D02*
X125157740Y-105018800D01*
X125157740Y-105018800D02*
X123827740Y-105018800D01*
%TO.C,R16*%
X164970000Y-100653641D02*
X164970000Y-100346359D01*
X165730000Y-100653641D02*
X165730000Y-100346359D01*
%TO.C,C2*%
X141914800Y-90899176D02*
X141914800Y-90683504D01*
X141194800Y-90899176D02*
X141194800Y-90683504D01*
%TO.C,C24*%
X134029664Y-81015000D02*
X134245336Y-81015000D01*
X134029664Y-81735000D02*
X134245336Y-81735000D01*
%TO.C,C10*%
X144428000Y-94642836D02*
X144428000Y-94427164D01*
X145148000Y-94642836D02*
X145148000Y-94427164D01*
%TO.C,D1*%
X127415000Y-108642000D02*
X127415000Y-110927000D01*
X127415000Y-110927000D02*
X128885000Y-110927000D01*
X128885000Y-110927000D02*
X128885000Y-108642000D01*
%TO.C,R11*%
X147270000Y-99896359D02*
X147270000Y-100203641D01*
X148030000Y-99896359D02*
X148030000Y-100203641D01*
%TO.C,U4*%
X127952500Y-87440000D02*
X128212500Y-87440000D01*
X127952500Y-91460000D02*
X127952500Y-91200000D01*
X127952500Y-91460000D02*
X128212500Y-91460000D01*
X133372500Y-87440000D02*
X133112500Y-87440000D01*
X133372500Y-87440000D02*
X133372500Y-87700000D01*
X133372500Y-91460000D02*
X133112500Y-91460000D01*
X133372500Y-91460000D02*
X133372500Y-91200000D01*
%TO.C,C12*%
X155990000Y-96107836D02*
X155990000Y-95892164D01*
X156710000Y-96107836D02*
X156710000Y-95892164D01*
%TO.C,D2*%
X167433000Y-81700000D02*
X167433000Y-83985000D01*
X167433000Y-83985000D02*
X168903000Y-83985000D01*
X168903000Y-83985000D02*
X168903000Y-81700000D01*
%TO.C,D4*%
X140415000Y-112050000D02*
X140415000Y-114335000D01*
X140415000Y-114335000D02*
X141885000Y-114335000D01*
X141885000Y-114335000D02*
X141885000Y-112050000D01*
%TO.C,C19*%
X141357836Y-101290000D02*
X141142164Y-101290000D01*
X141357836Y-102010000D02*
X141142164Y-102010000D01*
%TO.C,C9*%
X143285000Y-94642836D02*
X143285000Y-94427164D01*
X144005000Y-94642836D02*
X144005000Y-94427164D01*
%TO.C,R7*%
X168377500Y-88903641D02*
X168377500Y-88596359D01*
X169137500Y-88903641D02*
X169137500Y-88596359D01*
%TO.C,C11*%
X145550000Y-88935576D02*
X145550000Y-88719904D01*
X146270000Y-88935576D02*
X146270000Y-88719904D01*
%TO.C,J8*%
X135090000Y-75460000D02*
X135090000Y-76610000D01*
X135090000Y-76610000D02*
X136140000Y-76610000D01*
X136140000Y-76610000D02*
X136140000Y-77600000D01*
X136260000Y-73490000D02*
X140140000Y-73490000D01*
X141310000Y-75460000D02*
X141310000Y-76610000D01*
X141310000Y-76610000D02*
X140260000Y-76610000D01*
%TO.C,FB1*%
X143009221Y-96986540D02*
X143334779Y-96986540D01*
X143009221Y-98006540D02*
X143334779Y-98006540D01*
%TD*%
M02*
