%TF.GenerationSoftware,KiCad,Pcbnew,8.0.4*%
%TF.CreationDate,2024-11-13T00:18:53-06:00*%
%TF.ProjectId,ARES_FC,41524553-5f46-4432-9e6b-696361645f70,rev?*%
%TF.SameCoordinates,Original*%
%TF.FileFunction,Soldermask,Bot*%
%TF.FilePolarity,Negative*%
%FSLAX46Y46*%
G04 Gerber Fmt 4.6, Leading zero omitted, Abs format (unit mm)*
G04 Created by KiCad (PCBNEW 8.0.4) date 2024-11-13 00:18:53*
%MOMM*%
%LPD*%
G01*
G04 APERTURE LIST*
%ADD10C,0.010000*%
%ADD11R,2.500000X2.500000*%
%ADD12C,2.200000*%
%ADD13C,0.600000*%
%ADD14C,1.210000*%
%ADD15R,1.700000X1.700000*%
%ADD16O,1.700000X1.700000*%
G04 APERTURE END LIST*
D10*
%TO.C,J2*%
X173468500Y-94726000D02*
X173494500Y-94728000D01*
X173520500Y-94731000D01*
X173546500Y-94736000D01*
X173571500Y-94742000D01*
X173597500Y-94749000D01*
X173621500Y-94758000D01*
X173645500Y-94768000D01*
X173669500Y-94779000D01*
X173692500Y-94792000D01*
X173714500Y-94806000D01*
X173736500Y-94820000D01*
X173757500Y-94836000D01*
X173777500Y-94853000D01*
X173796500Y-94871000D01*
X173814500Y-94890000D01*
X173831500Y-94910000D01*
X173847500Y-94931000D01*
X173861500Y-94953000D01*
X173875500Y-94975000D01*
X173888500Y-94998000D01*
X173899500Y-95022000D01*
X173909500Y-95046000D01*
X173918500Y-95070000D01*
X173925500Y-95096000D01*
X173931500Y-95121000D01*
X173936500Y-95147000D01*
X173939500Y-95173000D01*
X173941500Y-95199000D01*
X173942500Y-95225000D01*
X173941500Y-95255000D01*
X173938500Y-95282000D01*
X173934500Y-95308000D01*
X173929500Y-95334000D01*
X173922500Y-95359000D01*
X173915500Y-95384000D01*
X173905500Y-95409000D01*
X173895500Y-95433000D01*
X173883500Y-95457000D01*
X173870500Y-95480000D01*
X173856500Y-95502000D01*
X173840500Y-95524000D01*
X173824500Y-95545000D01*
X173806500Y-95564000D01*
X173788500Y-95583000D01*
X173768500Y-95601000D01*
X173748500Y-95618000D01*
X173727500Y-95634000D01*
X173705500Y-95648000D01*
X173682500Y-95662000D01*
X173658500Y-95674000D01*
X173634500Y-95685000D01*
X173610500Y-95695000D01*
X173585500Y-95703000D01*
X173559500Y-95710000D01*
X173533500Y-95716000D01*
X173507500Y-95720000D01*
X173481500Y-95723000D01*
X173455500Y-95725000D01*
X173432500Y-95725000D01*
X172332500Y-95725000D01*
X172302500Y-95724000D01*
X172277500Y-95721000D01*
X172251500Y-95718000D01*
X172226500Y-95712000D01*
X172201500Y-95706000D01*
X172176500Y-95698000D01*
X172152500Y-95689000D01*
X172128500Y-95679000D01*
X172105500Y-95667000D01*
X172082500Y-95654000D01*
X172060500Y-95640000D01*
X172039500Y-95625000D01*
X172019500Y-95609000D01*
X171999500Y-95592000D01*
X171981500Y-95574000D01*
X171963500Y-95555000D01*
X171947500Y-95535000D01*
X171931500Y-95514000D01*
X171917500Y-95492000D01*
X171904500Y-95470000D01*
X171892500Y-95447000D01*
X171881500Y-95423000D01*
X171872500Y-95399000D01*
X171864500Y-95375000D01*
X171857500Y-95350000D01*
X171851500Y-95324000D01*
X171847500Y-95299000D01*
X171844500Y-95273000D01*
X171842500Y-95247000D01*
X171842500Y-95225000D01*
X171843500Y-95199000D01*
X171845500Y-95173000D01*
X171848500Y-95147000D01*
X171853500Y-95121000D01*
X171859500Y-95096000D01*
X171866500Y-95070000D01*
X171875500Y-95046000D01*
X171885500Y-95022000D01*
X171896500Y-94998000D01*
X171909500Y-94975000D01*
X171923500Y-94953000D01*
X171937500Y-94931000D01*
X171953500Y-94910000D01*
X171970500Y-94890000D01*
X171988500Y-94871000D01*
X172007500Y-94853000D01*
X172027500Y-94836000D01*
X172048500Y-94820000D01*
X172070500Y-94806000D01*
X172092500Y-94792000D01*
X172115500Y-94779000D01*
X172139500Y-94768000D01*
X172163500Y-94758000D01*
X172187500Y-94749000D01*
X172213500Y-94742000D01*
X172238500Y-94736000D01*
X172264500Y-94731000D01*
X172290500Y-94728000D01*
X172316500Y-94726000D01*
X172342500Y-94725000D01*
X173442500Y-94725000D01*
X173468500Y-94726000D01*
G36*
X173468500Y-94726000D02*
G01*
X173494500Y-94728000D01*
X173520500Y-94731000D01*
X173546500Y-94736000D01*
X173571500Y-94742000D01*
X173597500Y-94749000D01*
X173621500Y-94758000D01*
X173645500Y-94768000D01*
X173669500Y-94779000D01*
X173692500Y-94792000D01*
X173714500Y-94806000D01*
X173736500Y-94820000D01*
X173757500Y-94836000D01*
X173777500Y-94853000D01*
X173796500Y-94871000D01*
X173814500Y-94890000D01*
X173831500Y-94910000D01*
X173847500Y-94931000D01*
X173861500Y-94953000D01*
X173875500Y-94975000D01*
X173888500Y-94998000D01*
X173899500Y-95022000D01*
X173909500Y-95046000D01*
X173918500Y-95070000D01*
X173925500Y-95096000D01*
X173931500Y-95121000D01*
X173936500Y-95147000D01*
X173939500Y-95173000D01*
X173941500Y-95199000D01*
X173942500Y-95225000D01*
X173941500Y-95255000D01*
X173938500Y-95282000D01*
X173934500Y-95308000D01*
X173929500Y-95334000D01*
X173922500Y-95359000D01*
X173915500Y-95384000D01*
X173905500Y-95409000D01*
X173895500Y-95433000D01*
X173883500Y-95457000D01*
X173870500Y-95480000D01*
X173856500Y-95502000D01*
X173840500Y-95524000D01*
X173824500Y-95545000D01*
X173806500Y-95564000D01*
X173788500Y-95583000D01*
X173768500Y-95601000D01*
X173748500Y-95618000D01*
X173727500Y-95634000D01*
X173705500Y-95648000D01*
X173682500Y-95662000D01*
X173658500Y-95674000D01*
X173634500Y-95685000D01*
X173610500Y-95695000D01*
X173585500Y-95703000D01*
X173559500Y-95710000D01*
X173533500Y-95716000D01*
X173507500Y-95720000D01*
X173481500Y-95723000D01*
X173455500Y-95725000D01*
X173432500Y-95725000D01*
X172332500Y-95725000D01*
X172302500Y-95724000D01*
X172277500Y-95721000D01*
X172251500Y-95718000D01*
X172226500Y-95712000D01*
X172201500Y-95706000D01*
X172176500Y-95698000D01*
X172152500Y-95689000D01*
X172128500Y-95679000D01*
X172105500Y-95667000D01*
X172082500Y-95654000D01*
X172060500Y-95640000D01*
X172039500Y-95625000D01*
X172019500Y-95609000D01*
X171999500Y-95592000D01*
X171981500Y-95574000D01*
X171963500Y-95555000D01*
X171947500Y-95535000D01*
X171931500Y-95514000D01*
X171917500Y-95492000D01*
X171904500Y-95470000D01*
X171892500Y-95447000D01*
X171881500Y-95423000D01*
X171872500Y-95399000D01*
X171864500Y-95375000D01*
X171857500Y-95350000D01*
X171851500Y-95324000D01*
X171847500Y-95299000D01*
X171844500Y-95273000D01*
X171842500Y-95247000D01*
X171842500Y-95225000D01*
X171843500Y-95199000D01*
X171845500Y-95173000D01*
X171848500Y-95147000D01*
X171853500Y-95121000D01*
X171859500Y-95096000D01*
X171866500Y-95070000D01*
X171875500Y-95046000D01*
X171885500Y-95022000D01*
X171896500Y-94998000D01*
X171909500Y-94975000D01*
X171923500Y-94953000D01*
X171937500Y-94931000D01*
X171953500Y-94910000D01*
X171970500Y-94890000D01*
X171988500Y-94871000D01*
X172007500Y-94853000D01*
X172027500Y-94836000D01*
X172048500Y-94820000D01*
X172070500Y-94806000D01*
X172092500Y-94792000D01*
X172115500Y-94779000D01*
X172139500Y-94768000D01*
X172163500Y-94758000D01*
X172187500Y-94749000D01*
X172213500Y-94742000D01*
X172238500Y-94736000D01*
X172264500Y-94731000D01*
X172290500Y-94728000D01*
X172316500Y-94726000D01*
X172342500Y-94725000D01*
X173442500Y-94725000D01*
X173468500Y-94726000D01*
G37*
X173468500Y-103376000D02*
X173494500Y-103378000D01*
X173520500Y-103381000D01*
X173546500Y-103386000D01*
X173571500Y-103392000D01*
X173597500Y-103399000D01*
X173621500Y-103408000D01*
X173645500Y-103418000D01*
X173669500Y-103429000D01*
X173692500Y-103442000D01*
X173714500Y-103456000D01*
X173736500Y-103470000D01*
X173757500Y-103486000D01*
X173777500Y-103503000D01*
X173796500Y-103521000D01*
X173814500Y-103540000D01*
X173831500Y-103560000D01*
X173847500Y-103581000D01*
X173861500Y-103603000D01*
X173875500Y-103625000D01*
X173888500Y-103648000D01*
X173899500Y-103672000D01*
X173909500Y-103696000D01*
X173918500Y-103720000D01*
X173925500Y-103746000D01*
X173931500Y-103771000D01*
X173936500Y-103797000D01*
X173939500Y-103823000D01*
X173941500Y-103849000D01*
X173942500Y-103875000D01*
X173941500Y-103901000D01*
X173939500Y-103927000D01*
X173936500Y-103953000D01*
X173931500Y-103979000D01*
X173925500Y-104004000D01*
X173918500Y-104030000D01*
X173909500Y-104054000D01*
X173899500Y-104078000D01*
X173888500Y-104102000D01*
X173875500Y-104125000D01*
X173861500Y-104147000D01*
X173847500Y-104169000D01*
X173831500Y-104190000D01*
X173814500Y-104210000D01*
X173796500Y-104229000D01*
X173777500Y-104247000D01*
X173757500Y-104264000D01*
X173736500Y-104280000D01*
X173714500Y-104294000D01*
X173692500Y-104308000D01*
X173669500Y-104321000D01*
X173645500Y-104332000D01*
X173621500Y-104342000D01*
X173597500Y-104351000D01*
X173571500Y-104358000D01*
X173546500Y-104364000D01*
X173520500Y-104369000D01*
X173494500Y-104372000D01*
X173468500Y-104374000D01*
X173442500Y-104375000D01*
X172342500Y-104375000D01*
X172316500Y-104374000D01*
X172290500Y-104372000D01*
X172264500Y-104369000D01*
X172238500Y-104364000D01*
X172213500Y-104358000D01*
X172187500Y-104351000D01*
X172163500Y-104342000D01*
X172139500Y-104332000D01*
X172115500Y-104321000D01*
X172092500Y-104308000D01*
X172070500Y-104294000D01*
X172048500Y-104280000D01*
X172027500Y-104264000D01*
X172007500Y-104247000D01*
X171988500Y-104229000D01*
X171970500Y-104210000D01*
X171953500Y-104190000D01*
X171937500Y-104169000D01*
X171923500Y-104147000D01*
X171909500Y-104125000D01*
X171896500Y-104102000D01*
X171885500Y-104078000D01*
X171875500Y-104054000D01*
X171866500Y-104030000D01*
X171859500Y-104004000D01*
X171853500Y-103979000D01*
X171848500Y-103953000D01*
X171845500Y-103927000D01*
X171843500Y-103901000D01*
X171842500Y-103875000D01*
X171843500Y-103849000D01*
X171845500Y-103823000D01*
X171848500Y-103797000D01*
X171853500Y-103771000D01*
X171859500Y-103746000D01*
X171866500Y-103720000D01*
X171875500Y-103696000D01*
X171885500Y-103672000D01*
X171896500Y-103648000D01*
X171909500Y-103625000D01*
X171923500Y-103603000D01*
X171937500Y-103581000D01*
X171953500Y-103560000D01*
X171970500Y-103540000D01*
X171988500Y-103521000D01*
X172007500Y-103503000D01*
X172027500Y-103486000D01*
X172048500Y-103470000D01*
X172070500Y-103456000D01*
X172092500Y-103442000D01*
X172115500Y-103429000D01*
X172139500Y-103418000D01*
X172163500Y-103408000D01*
X172187500Y-103399000D01*
X172213500Y-103392000D01*
X172238500Y-103386000D01*
X172264500Y-103381000D01*
X172290500Y-103378000D01*
X172316500Y-103376000D01*
X172342500Y-103375000D01*
X173442500Y-103375000D01*
X173468500Y-103376000D01*
G36*
X173468500Y-103376000D02*
G01*
X173494500Y-103378000D01*
X173520500Y-103381000D01*
X173546500Y-103386000D01*
X173571500Y-103392000D01*
X173597500Y-103399000D01*
X173621500Y-103408000D01*
X173645500Y-103418000D01*
X173669500Y-103429000D01*
X173692500Y-103442000D01*
X173714500Y-103456000D01*
X173736500Y-103470000D01*
X173757500Y-103486000D01*
X173777500Y-103503000D01*
X173796500Y-103521000D01*
X173814500Y-103540000D01*
X173831500Y-103560000D01*
X173847500Y-103581000D01*
X173861500Y-103603000D01*
X173875500Y-103625000D01*
X173888500Y-103648000D01*
X173899500Y-103672000D01*
X173909500Y-103696000D01*
X173918500Y-103720000D01*
X173925500Y-103746000D01*
X173931500Y-103771000D01*
X173936500Y-103797000D01*
X173939500Y-103823000D01*
X173941500Y-103849000D01*
X173942500Y-103875000D01*
X173941500Y-103901000D01*
X173939500Y-103927000D01*
X173936500Y-103953000D01*
X173931500Y-103979000D01*
X173925500Y-104004000D01*
X173918500Y-104030000D01*
X173909500Y-104054000D01*
X173899500Y-104078000D01*
X173888500Y-104102000D01*
X173875500Y-104125000D01*
X173861500Y-104147000D01*
X173847500Y-104169000D01*
X173831500Y-104190000D01*
X173814500Y-104210000D01*
X173796500Y-104229000D01*
X173777500Y-104247000D01*
X173757500Y-104264000D01*
X173736500Y-104280000D01*
X173714500Y-104294000D01*
X173692500Y-104308000D01*
X173669500Y-104321000D01*
X173645500Y-104332000D01*
X173621500Y-104342000D01*
X173597500Y-104351000D01*
X173571500Y-104358000D01*
X173546500Y-104364000D01*
X173520500Y-104369000D01*
X173494500Y-104372000D01*
X173468500Y-104374000D01*
X173442500Y-104375000D01*
X172342500Y-104375000D01*
X172316500Y-104374000D01*
X172290500Y-104372000D01*
X172264500Y-104369000D01*
X172238500Y-104364000D01*
X172213500Y-104358000D01*
X172187500Y-104351000D01*
X172163500Y-104342000D01*
X172139500Y-104332000D01*
X172115500Y-104321000D01*
X172092500Y-104308000D01*
X172070500Y-104294000D01*
X172048500Y-104280000D01*
X172027500Y-104264000D01*
X172007500Y-104247000D01*
X171988500Y-104229000D01*
X171970500Y-104210000D01*
X171953500Y-104190000D01*
X171937500Y-104169000D01*
X171923500Y-104147000D01*
X171909500Y-104125000D01*
X171896500Y-104102000D01*
X171885500Y-104078000D01*
X171875500Y-104054000D01*
X171866500Y-104030000D01*
X171859500Y-104004000D01*
X171853500Y-103979000D01*
X171848500Y-103953000D01*
X171845500Y-103927000D01*
X171843500Y-103901000D01*
X171842500Y-103875000D01*
X171843500Y-103849000D01*
X171845500Y-103823000D01*
X171848500Y-103797000D01*
X171853500Y-103771000D01*
X171859500Y-103746000D01*
X171866500Y-103720000D01*
X171875500Y-103696000D01*
X171885500Y-103672000D01*
X171896500Y-103648000D01*
X171909500Y-103625000D01*
X171923500Y-103603000D01*
X171937500Y-103581000D01*
X171953500Y-103560000D01*
X171970500Y-103540000D01*
X171988500Y-103521000D01*
X172007500Y-103503000D01*
X172027500Y-103486000D01*
X172048500Y-103470000D01*
X172070500Y-103456000D01*
X172092500Y-103442000D01*
X172115500Y-103429000D01*
X172139500Y-103418000D01*
X172163500Y-103408000D01*
X172187500Y-103399000D01*
X172213500Y-103392000D01*
X172238500Y-103386000D01*
X172264500Y-103381000D01*
X172290500Y-103378000D01*
X172316500Y-103376000D01*
X172342500Y-103375000D01*
X173442500Y-103375000D01*
X173468500Y-103376000D01*
G37*
X177488500Y-94726000D02*
X177514500Y-94728000D01*
X177540500Y-94731000D01*
X177566500Y-94736000D01*
X177591500Y-94742000D01*
X177617500Y-94749000D01*
X177641500Y-94758000D01*
X177665500Y-94768000D01*
X177689500Y-94779000D01*
X177712500Y-94792000D01*
X177734500Y-94806000D01*
X177756500Y-94820000D01*
X177777500Y-94836000D01*
X177797500Y-94853000D01*
X177816500Y-94871000D01*
X177834500Y-94890000D01*
X177851500Y-94910000D01*
X177867500Y-94931000D01*
X177881500Y-94953000D01*
X177895500Y-94975000D01*
X177908500Y-94998000D01*
X177919500Y-95022000D01*
X177929500Y-95046000D01*
X177938500Y-95070000D01*
X177945500Y-95096000D01*
X177951500Y-95121000D01*
X177956500Y-95147000D01*
X177959500Y-95173000D01*
X177961500Y-95199000D01*
X177962500Y-95225000D01*
X177961500Y-95251000D01*
X177959500Y-95277000D01*
X177956500Y-95303000D01*
X177951500Y-95329000D01*
X177945500Y-95354000D01*
X177938500Y-95380000D01*
X177929500Y-95404000D01*
X177919500Y-95428000D01*
X177908500Y-95452000D01*
X177895500Y-95475000D01*
X177881500Y-95497000D01*
X177867500Y-95519000D01*
X177851500Y-95540000D01*
X177834500Y-95560000D01*
X177816500Y-95579000D01*
X177797500Y-95597000D01*
X177777500Y-95614000D01*
X177756500Y-95630000D01*
X177734500Y-95644000D01*
X177712500Y-95658000D01*
X177689500Y-95671000D01*
X177665500Y-95682000D01*
X177641500Y-95692000D01*
X177617500Y-95701000D01*
X177591500Y-95708000D01*
X177566500Y-95714000D01*
X177540500Y-95719000D01*
X177514500Y-95722000D01*
X177488500Y-95724000D01*
X177462500Y-95725000D01*
X176662500Y-95725000D01*
X176636500Y-95724000D01*
X176610500Y-95722000D01*
X176584500Y-95719000D01*
X176558500Y-95714000D01*
X176533500Y-95708000D01*
X176507500Y-95701000D01*
X176483500Y-95692000D01*
X176459500Y-95682000D01*
X176435500Y-95671000D01*
X176412500Y-95658000D01*
X176390500Y-95644000D01*
X176368500Y-95630000D01*
X176347500Y-95614000D01*
X176327500Y-95597000D01*
X176308500Y-95579000D01*
X176290500Y-95560000D01*
X176273500Y-95540000D01*
X176257500Y-95519000D01*
X176243500Y-95497000D01*
X176229500Y-95475000D01*
X176216500Y-95452000D01*
X176205500Y-95428000D01*
X176195500Y-95404000D01*
X176186500Y-95380000D01*
X176179500Y-95354000D01*
X176173500Y-95329000D01*
X176168500Y-95303000D01*
X176165500Y-95277000D01*
X176163500Y-95251000D01*
X176162500Y-95225000D01*
X176163500Y-95199000D01*
X176165500Y-95173000D01*
X176168500Y-95147000D01*
X176173500Y-95121000D01*
X176179500Y-95096000D01*
X176186500Y-95070000D01*
X176195500Y-95046000D01*
X176205500Y-95022000D01*
X176216500Y-94998000D01*
X176229500Y-94975000D01*
X176243500Y-94953000D01*
X176257500Y-94931000D01*
X176273500Y-94910000D01*
X176290500Y-94890000D01*
X176308500Y-94871000D01*
X176327500Y-94853000D01*
X176347500Y-94836000D01*
X176368500Y-94820000D01*
X176390500Y-94806000D01*
X176412500Y-94792000D01*
X176435500Y-94779000D01*
X176459500Y-94768000D01*
X176483500Y-94758000D01*
X176507500Y-94749000D01*
X176533500Y-94742000D01*
X176558500Y-94736000D01*
X176584500Y-94731000D01*
X176610500Y-94728000D01*
X176636500Y-94726000D01*
X176662500Y-94725000D01*
X177462500Y-94725000D01*
X177488500Y-94726000D01*
G36*
X177488500Y-94726000D02*
G01*
X177514500Y-94728000D01*
X177540500Y-94731000D01*
X177566500Y-94736000D01*
X177591500Y-94742000D01*
X177617500Y-94749000D01*
X177641500Y-94758000D01*
X177665500Y-94768000D01*
X177689500Y-94779000D01*
X177712500Y-94792000D01*
X177734500Y-94806000D01*
X177756500Y-94820000D01*
X177777500Y-94836000D01*
X177797500Y-94853000D01*
X177816500Y-94871000D01*
X177834500Y-94890000D01*
X177851500Y-94910000D01*
X177867500Y-94931000D01*
X177881500Y-94953000D01*
X177895500Y-94975000D01*
X177908500Y-94998000D01*
X177919500Y-95022000D01*
X177929500Y-95046000D01*
X177938500Y-95070000D01*
X177945500Y-95096000D01*
X177951500Y-95121000D01*
X177956500Y-95147000D01*
X177959500Y-95173000D01*
X177961500Y-95199000D01*
X177962500Y-95225000D01*
X177961500Y-95251000D01*
X177959500Y-95277000D01*
X177956500Y-95303000D01*
X177951500Y-95329000D01*
X177945500Y-95354000D01*
X177938500Y-95380000D01*
X177929500Y-95404000D01*
X177919500Y-95428000D01*
X177908500Y-95452000D01*
X177895500Y-95475000D01*
X177881500Y-95497000D01*
X177867500Y-95519000D01*
X177851500Y-95540000D01*
X177834500Y-95560000D01*
X177816500Y-95579000D01*
X177797500Y-95597000D01*
X177777500Y-95614000D01*
X177756500Y-95630000D01*
X177734500Y-95644000D01*
X177712500Y-95658000D01*
X177689500Y-95671000D01*
X177665500Y-95682000D01*
X177641500Y-95692000D01*
X177617500Y-95701000D01*
X177591500Y-95708000D01*
X177566500Y-95714000D01*
X177540500Y-95719000D01*
X177514500Y-95722000D01*
X177488500Y-95724000D01*
X177462500Y-95725000D01*
X176662500Y-95725000D01*
X176636500Y-95724000D01*
X176610500Y-95722000D01*
X176584500Y-95719000D01*
X176558500Y-95714000D01*
X176533500Y-95708000D01*
X176507500Y-95701000D01*
X176483500Y-95692000D01*
X176459500Y-95682000D01*
X176435500Y-95671000D01*
X176412500Y-95658000D01*
X176390500Y-95644000D01*
X176368500Y-95630000D01*
X176347500Y-95614000D01*
X176327500Y-95597000D01*
X176308500Y-95579000D01*
X176290500Y-95560000D01*
X176273500Y-95540000D01*
X176257500Y-95519000D01*
X176243500Y-95497000D01*
X176229500Y-95475000D01*
X176216500Y-95452000D01*
X176205500Y-95428000D01*
X176195500Y-95404000D01*
X176186500Y-95380000D01*
X176179500Y-95354000D01*
X176173500Y-95329000D01*
X176168500Y-95303000D01*
X176165500Y-95277000D01*
X176163500Y-95251000D01*
X176162500Y-95225000D01*
X176163500Y-95199000D01*
X176165500Y-95173000D01*
X176168500Y-95147000D01*
X176173500Y-95121000D01*
X176179500Y-95096000D01*
X176186500Y-95070000D01*
X176195500Y-95046000D01*
X176205500Y-95022000D01*
X176216500Y-94998000D01*
X176229500Y-94975000D01*
X176243500Y-94953000D01*
X176257500Y-94931000D01*
X176273500Y-94910000D01*
X176290500Y-94890000D01*
X176308500Y-94871000D01*
X176327500Y-94853000D01*
X176347500Y-94836000D01*
X176368500Y-94820000D01*
X176390500Y-94806000D01*
X176412500Y-94792000D01*
X176435500Y-94779000D01*
X176459500Y-94768000D01*
X176483500Y-94758000D01*
X176507500Y-94749000D01*
X176533500Y-94742000D01*
X176558500Y-94736000D01*
X176584500Y-94731000D01*
X176610500Y-94728000D01*
X176636500Y-94726000D01*
X176662500Y-94725000D01*
X177462500Y-94725000D01*
X177488500Y-94726000D01*
G37*
X177488500Y-103376000D02*
X177514500Y-103378000D01*
X177540500Y-103381000D01*
X177566500Y-103386000D01*
X177591500Y-103392000D01*
X177617500Y-103399000D01*
X177641500Y-103408000D01*
X177665500Y-103418000D01*
X177689500Y-103429000D01*
X177712500Y-103442000D01*
X177734500Y-103456000D01*
X177756500Y-103470000D01*
X177777500Y-103486000D01*
X177797500Y-103503000D01*
X177816500Y-103521000D01*
X177834500Y-103540000D01*
X177851500Y-103560000D01*
X177867500Y-103581000D01*
X177881500Y-103603000D01*
X177895500Y-103625000D01*
X177908500Y-103648000D01*
X177919500Y-103672000D01*
X177929500Y-103696000D01*
X177938500Y-103720000D01*
X177945500Y-103746000D01*
X177951500Y-103771000D01*
X177956500Y-103797000D01*
X177959500Y-103823000D01*
X177961500Y-103849000D01*
X177962500Y-103875000D01*
X177961500Y-103901000D01*
X177959500Y-103927000D01*
X177956500Y-103953000D01*
X177951500Y-103979000D01*
X177945500Y-104004000D01*
X177938500Y-104030000D01*
X177929500Y-104054000D01*
X177919500Y-104078000D01*
X177908500Y-104102000D01*
X177895500Y-104125000D01*
X177881500Y-104147000D01*
X177867500Y-104169000D01*
X177851500Y-104190000D01*
X177834500Y-104210000D01*
X177816500Y-104229000D01*
X177797500Y-104247000D01*
X177777500Y-104264000D01*
X177756500Y-104280000D01*
X177734500Y-104294000D01*
X177712500Y-104308000D01*
X177689500Y-104321000D01*
X177665500Y-104332000D01*
X177641500Y-104342000D01*
X177617500Y-104351000D01*
X177591500Y-104358000D01*
X177566500Y-104364000D01*
X177540500Y-104369000D01*
X177514500Y-104372000D01*
X177488500Y-104374000D01*
X177462500Y-104375000D01*
X176662500Y-104375000D01*
X176636500Y-104374000D01*
X176610500Y-104372000D01*
X176584500Y-104369000D01*
X176558500Y-104364000D01*
X176533500Y-104358000D01*
X176507500Y-104351000D01*
X176483500Y-104342000D01*
X176459500Y-104332000D01*
X176435500Y-104321000D01*
X176412500Y-104308000D01*
X176390500Y-104294000D01*
X176368500Y-104280000D01*
X176347500Y-104264000D01*
X176327500Y-104247000D01*
X176308500Y-104229000D01*
X176290500Y-104210000D01*
X176273500Y-104190000D01*
X176257500Y-104169000D01*
X176243500Y-104147000D01*
X176229500Y-104125000D01*
X176216500Y-104102000D01*
X176205500Y-104078000D01*
X176195500Y-104054000D01*
X176186500Y-104030000D01*
X176179500Y-104004000D01*
X176173500Y-103979000D01*
X176168500Y-103953000D01*
X176165500Y-103927000D01*
X176163500Y-103901000D01*
X176162500Y-103875000D01*
X176163500Y-103849000D01*
X176165500Y-103823000D01*
X176168500Y-103797000D01*
X176173500Y-103771000D01*
X176179500Y-103746000D01*
X176186500Y-103720000D01*
X176195500Y-103696000D01*
X176205500Y-103672000D01*
X176216500Y-103648000D01*
X176229500Y-103625000D01*
X176243500Y-103603000D01*
X176257500Y-103581000D01*
X176273500Y-103560000D01*
X176290500Y-103540000D01*
X176308500Y-103521000D01*
X176327500Y-103503000D01*
X176347500Y-103486000D01*
X176368500Y-103470000D01*
X176390500Y-103456000D01*
X176412500Y-103442000D01*
X176435500Y-103429000D01*
X176459500Y-103418000D01*
X176483500Y-103408000D01*
X176507500Y-103399000D01*
X176533500Y-103392000D01*
X176558500Y-103386000D01*
X176584500Y-103381000D01*
X176610500Y-103378000D01*
X176636500Y-103376000D01*
X176662500Y-103375000D01*
X177462500Y-103375000D01*
X177488500Y-103376000D01*
G36*
X177488500Y-103376000D02*
G01*
X177514500Y-103378000D01*
X177540500Y-103381000D01*
X177566500Y-103386000D01*
X177591500Y-103392000D01*
X177617500Y-103399000D01*
X177641500Y-103408000D01*
X177665500Y-103418000D01*
X177689500Y-103429000D01*
X177712500Y-103442000D01*
X177734500Y-103456000D01*
X177756500Y-103470000D01*
X177777500Y-103486000D01*
X177797500Y-103503000D01*
X177816500Y-103521000D01*
X177834500Y-103540000D01*
X177851500Y-103560000D01*
X177867500Y-103581000D01*
X177881500Y-103603000D01*
X177895500Y-103625000D01*
X177908500Y-103648000D01*
X177919500Y-103672000D01*
X177929500Y-103696000D01*
X177938500Y-103720000D01*
X177945500Y-103746000D01*
X177951500Y-103771000D01*
X177956500Y-103797000D01*
X177959500Y-103823000D01*
X177961500Y-103849000D01*
X177962500Y-103875000D01*
X177961500Y-103901000D01*
X177959500Y-103927000D01*
X177956500Y-103953000D01*
X177951500Y-103979000D01*
X177945500Y-104004000D01*
X177938500Y-104030000D01*
X177929500Y-104054000D01*
X177919500Y-104078000D01*
X177908500Y-104102000D01*
X177895500Y-104125000D01*
X177881500Y-104147000D01*
X177867500Y-104169000D01*
X177851500Y-104190000D01*
X177834500Y-104210000D01*
X177816500Y-104229000D01*
X177797500Y-104247000D01*
X177777500Y-104264000D01*
X177756500Y-104280000D01*
X177734500Y-104294000D01*
X177712500Y-104308000D01*
X177689500Y-104321000D01*
X177665500Y-104332000D01*
X177641500Y-104342000D01*
X177617500Y-104351000D01*
X177591500Y-104358000D01*
X177566500Y-104364000D01*
X177540500Y-104369000D01*
X177514500Y-104372000D01*
X177488500Y-104374000D01*
X177462500Y-104375000D01*
X176662500Y-104375000D01*
X176636500Y-104374000D01*
X176610500Y-104372000D01*
X176584500Y-104369000D01*
X176558500Y-104364000D01*
X176533500Y-104358000D01*
X176507500Y-104351000D01*
X176483500Y-104342000D01*
X176459500Y-104332000D01*
X176435500Y-104321000D01*
X176412500Y-104308000D01*
X176390500Y-104294000D01*
X176368500Y-104280000D01*
X176347500Y-104264000D01*
X176327500Y-104247000D01*
X176308500Y-104229000D01*
X176290500Y-104210000D01*
X176273500Y-104190000D01*
X176257500Y-104169000D01*
X176243500Y-104147000D01*
X176229500Y-104125000D01*
X176216500Y-104102000D01*
X176205500Y-104078000D01*
X176195500Y-104054000D01*
X176186500Y-104030000D01*
X176179500Y-104004000D01*
X176173500Y-103979000D01*
X176168500Y-103953000D01*
X176165500Y-103927000D01*
X176163500Y-103901000D01*
X176162500Y-103875000D01*
X176163500Y-103849000D01*
X176165500Y-103823000D01*
X176168500Y-103797000D01*
X176173500Y-103771000D01*
X176179500Y-103746000D01*
X176186500Y-103720000D01*
X176195500Y-103696000D01*
X176205500Y-103672000D01*
X176216500Y-103648000D01*
X176229500Y-103625000D01*
X176243500Y-103603000D01*
X176257500Y-103581000D01*
X176273500Y-103560000D01*
X176290500Y-103540000D01*
X176308500Y-103521000D01*
X176327500Y-103503000D01*
X176347500Y-103486000D01*
X176368500Y-103470000D01*
X176390500Y-103456000D01*
X176412500Y-103442000D01*
X176435500Y-103429000D01*
X176459500Y-103418000D01*
X176483500Y-103408000D01*
X176507500Y-103399000D01*
X176533500Y-103392000D01*
X176558500Y-103386000D01*
X176584500Y-103381000D01*
X176610500Y-103378000D01*
X176636500Y-103376000D01*
X176662500Y-103375000D01*
X177462500Y-103375000D01*
X177488500Y-103376000D01*
G37*
%TD*%
D11*
%TO.C,J5*%
X165214000Y-121250000D03*
%TD*%
D12*
%TO.C,H1*%
X135477740Y-84998800D03*
%TD*%
D11*
%TO.C,J4*%
X161058000Y-121250000D03*
%TD*%
D13*
%TO.C,J2*%
X173382500Y-102440000D03*
X173382500Y-96660000D03*
%TD*%
D12*
%TO.C,H3*%
X135477740Y-113998800D03*
%TD*%
D14*
%TO.C,U6*%
X151550000Y-108950000D03*
%TD*%
D12*
%TO.C,H4*%
X164477740Y-113998800D03*
%TD*%
%TO.C,H2*%
X164427740Y-85048800D03*
%TD*%
D15*
%TO.C,J1*%
X123827740Y-103688800D03*
D16*
X123827740Y-101148800D03*
X123827740Y-98608800D03*
X123827740Y-96068800D03*
%TD*%
M02*
