M48
; DRILL file {KiCad 8.0.4} date 2024-10-05T19:20:20-0500
; FORMAT={-:-/ absolute / inch / decimal}
; #@! TF.CreationDate,2024-10-05T19:20:20-05:00
; #@! TF.GenerationSoftware,Kicad,Pcbnew,8.0.4
; #@! TF.FileFunction,Plated,1,2,PTH
FMAT,2
INCH
; #@! TA.AperFunction,Plated,PTH,ViaDrill
T1C0.0157
; #@! TA.AperFunction,Plated,PTH,ComponentDrill
T2C0.0236
; #@! TA.AperFunction,Plated,PTH,ComponentDrill
T3C0.0394
; #@! TA.AperFunction,Plated,PTH,ComponentDrill
T4C0.0472
%
G90
G05
T1
X4.9665Y-3.8492
X5.0733Y-3.6862
X5.0745Y-3.6362
X5.1083Y-4.4086
X5.1323Y-3.3712
X5.185Y-3.6358
X5.2123Y-3.3712
X5.2269Y-3.1654
X5.2382Y-3.5217
X5.2539Y-4.0617
X5.2677Y-3.8602
X5.296Y-3.1634
X5.3701Y-3.6575
X5.4213Y-3.0226
X5.4508Y-3.1476
X5.4606Y-3.0226
X5.4862Y-3.1772
X5.5217Y-4.002
X5.5472Y-3.0413
X5.5531Y-3.1378
X5.5531Y-3.2067
X5.5571Y-4.4739
X5.5886Y-3.6319
X5.6358Y-3.2126
X5.6448Y-3.4783
X5.6516Y-4.1594
X5.6516Y-4.4547
X5.6566Y-3.5255
X5.6566Y-3.7814
X5.685Y-3.935
X5.685Y-3.311
X5.7224Y-3.437
X5.7244Y-3.935
X5.7264Y-3.3701
X5.7303Y-3.2736
X5.7677Y-3.0732
X5.7835Y-3.813
X5.813Y-3.876
X5.8465Y-4.7618
X5.8495Y-3.3822
X5.8726Y-3.2751
X5.8858Y-4.7618
X5.9528Y-3.374
X5.9646Y-4.7618
X5.9665Y-3.8287
X5.9872Y-3.4409
X5.9882Y-3.3051
X5.9941Y-3.3976
X6.0034Y-3.1373
X6.0039Y-4.7618
X6.0217Y-4.815
X6.0346Y-3.3523
X6.0433Y-4.7618
X6.0472Y-3.1693
X6.0945Y-3.2028
X6.1137Y-3.3509
X6.1172Y-3.4488
X6.1181Y-3.7087
X6.1752Y-3.3484
X6.1811Y-3.4449
X6.187Y-3.5354
X6.187Y-3.5807
X6.1949Y-3.75
X6.2087Y-3.2776
X6.2667Y-3.3858
X6.2815Y-4.1004
X6.2835Y-4.5138
X6.2844Y-3.4606
X6.2854Y-3.811
X6.2913Y-3.5118
X6.31Y-4.66
X6.35Y-4.66
X6.3504Y-3.0266
X6.36Y-4.58
X6.3602Y-3.3799
X6.3898Y-3.0266
X6.3898Y-3.1014
X6.39Y-4.66
X6.4Y-4.6
X6.4291Y-3.0276
X6.43Y-4.66
X6.4338Y-3.498
X6.44Y-4.6
X6.4646Y-3.9764
X6.47Y-4.66
X6.48Y-4.6015
X6.5098Y-3.9768
X6.51Y-4.66
X6.52Y-4.6
X6.5325Y-3.2431
X6.5444Y-3.8465
X6.55Y-4.66
X6.56Y-4.6
X6.59Y-4.66
X6.5968Y-4.7717
X6.6Y-4.6
X6.6102Y-4.4
X6.6102Y-4.44
X6.6102Y-4.48
X6.6102Y-4.52
X6.6102Y-4.56
X6.6208Y-3.368
X6.63Y-4.66
X6.6302Y-4.36
X6.64Y-4.6
X6.6506Y-3.8612
X6.6532Y-3.8192
X6.67Y-4.66
X6.6702Y-4.35
X6.6713Y-3.9724
X6.6772Y-4.6004
X6.7008Y-3.368
X6.71Y-4.66
X6.7102Y-4.35
X6.7238Y-3.8126
X6.7283Y-4.0748
X6.748Y-4.6358
X6.7502Y-4.35
X6.7717Y-4.6004
X6.7902Y-4.35
X6.815Y-4.6004
X6.8302Y-4.35
X6.8642Y-4.5709
X6.8661Y-4.37
X6.8701Y-4.5295
X6.8702Y-4.41
X6.8702Y-4.45
X6.8702Y-4.49
T2
X6.8068Y-3.749
X6.8068Y-4.0896
X6.971Y-3.749
X6.971Y-4.0896
T3
X4.8751Y-3.7822
X4.8751Y-3.8822
X4.8751Y-3.9822
X4.8751Y-4.0822
T4
X6.3409Y-4.7736
X6.5045Y-4.7736
M30
