%TF.GenerationSoftware,KiCad,Pcbnew,8.0.4*%
%TF.CreationDate,2024-11-10T21:25:59-06:00*%
%TF.ProjectId,ARES_FC,41524553-5f46-4432-9e6b-696361645f70,rev?*%
%TF.SameCoordinates,Original*%
%TF.FileFunction,Paste,Top*%
%TF.FilePolarity,Positive*%
%FSLAX46Y46*%
G04 Gerber Fmt 4.6, Leading zero omitted, Abs format (unit mm)*
G04 Created by KiCad (PCBNEW 8.0.4) date 2024-11-10 21:25:59*
%MOMM*%
%LPD*%
G01*
G04 APERTURE LIST*
G04 Aperture macros list*
%AMRoundRect*
0 Rectangle with rounded corners*
0 $1 Rounding radius*
0 $2 $3 $4 $5 $6 $7 $8 $9 X,Y pos of 4 corners*
0 Add a 4 corners polygon primitive as box body*
4,1,4,$2,$3,$4,$5,$6,$7,$8,$9,$2,$3,0*
0 Add four circle primitives for the rounded corners*
1,1,$1+$1,$2,$3*
1,1,$1+$1,$4,$5*
1,1,$1+$1,$6,$7*
1,1,$1+$1,$8,$9*
0 Add four rect primitives between the rounded corners*
20,1,$1+$1,$2,$3,$4,$5,0*
20,1,$1+$1,$4,$5,$6,$7,0*
20,1,$1+$1,$6,$7,$8,$9,0*
20,1,$1+$1,$8,$9,$2,$3,0*%
G04 Aperture macros list end*
%ADD10RoundRect,0.140000X0.170000X-0.140000X0.170000X0.140000X-0.170000X0.140000X-0.170000X-0.140000X0*%
%ADD11RoundRect,0.140000X0.140000X0.170000X-0.140000X0.170000X-0.140000X-0.170000X0.140000X-0.170000X0*%
%ADD12RoundRect,0.135000X0.185000X-0.135000X0.185000X0.135000X-0.185000X0.135000X-0.185000X-0.135000X0*%
%ADD13R,0.500000X0.350000*%
%ADD14R,1.000000X1.000000*%
%ADD15R,1.050000X2.200000*%
%ADD16RoundRect,0.218750X0.256250X-0.218750X0.256250X0.218750X-0.256250X0.218750X-0.256250X-0.218750X0*%
%ADD17RoundRect,0.140000X-0.170000X0.140000X-0.170000X-0.140000X0.170000X-0.140000X0.170000X0.140000X0*%
%ADD18R,1.140000X0.600000*%
%ADD19R,1.140000X0.300000*%
%ADD20R,1.200000X1.400000*%
%ADD21RoundRect,0.140000X-0.140000X-0.170000X0.140000X-0.170000X0.140000X0.170000X-0.140000X0.170000X0*%
%ADD22RoundRect,0.135000X-0.185000X0.135000X-0.185000X-0.135000X0.185000X-0.135000X0.185000X0.135000X0*%
%ADD23RoundRect,0.150000X-0.150000X0.650000X-0.150000X-0.650000X0.150000X-0.650000X0.150000X0.650000X0*%
%ADD24R,0.400000X1.000000*%
%ADD25R,2.000000X1.300000*%
%ADD26RoundRect,0.250000X0.475000X-0.250000X0.475000X0.250000X-0.475000X0.250000X-0.475000X-0.250000X0*%
%ADD27RoundRect,0.135000X-0.135000X-0.185000X0.135000X-0.185000X0.135000X0.185000X-0.135000X0.185000X0*%
%ADD28RoundRect,0.125000X-0.875000X-0.375000X0.875000X-0.375000X0.875000X0.375000X-0.875000X0.375000X0*%
%ADD29RoundRect,0.150000X-0.150000X-0.625000X0.150000X-0.625000X0.150000X0.625000X-0.150000X0.625000X0*%
%ADD30RoundRect,0.250000X-0.350000X-0.650000X0.350000X-0.650000X0.350000X0.650000X-0.350000X0.650000X0*%
%ADD31RoundRect,0.250000X-0.315000X-0.315000X0.315000X-0.315000X0.315000X0.315000X-0.315000X0.315000X0*%
%ADD32RoundRect,0.062500X-0.375000X-0.062500X0.375000X-0.062500X0.375000X0.062500X-0.375000X0.062500X0*%
%ADD33RoundRect,0.062500X-0.062500X-0.375000X0.062500X-0.375000X0.062500X0.375000X-0.062500X0.375000X0*%
%ADD34R,1.000000X1.800000*%
%ADD35R,2.000000X1.500000*%
%ADD36R,2.000000X3.800000*%
%ADD37R,0.254000X0.675000*%
%ADD38R,0.675000X0.254000*%
%ADD39RoundRect,0.218750X-0.218750X-0.256250X0.218750X-0.256250X0.218750X0.256250X-0.218750X0.256250X0*%
G04 APERTURE END LIST*
D10*
%TO.C,C3*%
X141000000Y-93508540D03*
X141000000Y-92548540D03*
%TD*%
D11*
%TO.C,C16*%
X129852500Y-92359500D03*
X128892500Y-92359500D03*
%TD*%
D12*
%TO.C,R14*%
X140900000Y-96460000D03*
X140900000Y-95440000D03*
%TD*%
D13*
%TO.C,U3*%
X137287500Y-79450000D03*
X137287500Y-80100000D03*
X137287500Y-80750000D03*
X137287500Y-81400000D03*
X135687500Y-81400000D03*
X135687500Y-80750000D03*
X135687500Y-80100000D03*
X135687500Y-79450000D03*
%TD*%
D14*
%TO.C,AE1*%
X171200000Y-115292000D03*
D15*
X169725000Y-113792000D03*
D14*
X171200000Y-112292000D03*
D15*
X172675000Y-113792000D03*
%TD*%
D16*
%TO.C,D3*%
X169950000Y-83287500D03*
X169950000Y-81712500D03*
%TD*%
D17*
%TO.C,C15*%
X126832500Y-86672500D03*
X126832500Y-87632500D03*
%TD*%
%TO.C,C7*%
X155378000Y-88668540D03*
X155378000Y-89628540D03*
%TD*%
D18*
%TO.C,J2*%
X172312500Y-102750000D03*
X172312500Y-101950000D03*
D19*
X172312500Y-100800000D03*
X172312500Y-99800000D03*
X172312500Y-99300000D03*
X172312500Y-98300000D03*
D18*
X172312500Y-96350000D03*
X172312500Y-97150000D03*
D19*
X172312500Y-97800000D03*
X172312500Y-98800000D03*
X172312500Y-100300000D03*
X172312500Y-101300000D03*
%TD*%
D20*
%TO.C,Y1*%
X137910800Y-90707340D03*
X137910800Y-92907340D03*
X139610800Y-92907340D03*
X139610800Y-90707340D03*
%TD*%
D21*
%TO.C,C18*%
X129400500Y-85628500D03*
X130360500Y-85628500D03*
%TD*%
%TO.C,C23*%
X133557500Y-79425000D03*
X134517500Y-79425000D03*
%TD*%
D22*
%TO.C,R2*%
X170784760Y-96841200D03*
X170784760Y-97861200D03*
%TD*%
D23*
%TO.C,U5*%
X167227500Y-88850000D03*
X165957500Y-88850000D03*
X164687500Y-88850000D03*
X163417500Y-88850000D03*
X163417500Y-96050000D03*
X164687500Y-96050000D03*
X165957500Y-96050000D03*
X167227500Y-96050000D03*
%TD*%
D12*
%TO.C,R15*%
X164200000Y-101010000D03*
X164200000Y-99990000D03*
%TD*%
D21*
%TO.C,C8*%
X147617000Y-87189740D03*
X148577000Y-87189740D03*
%TD*%
D24*
%TO.C,J3*%
X146500000Y-120950000D03*
X147500000Y-120950000D03*
X148500000Y-120950000D03*
X149500000Y-120950000D03*
X150500000Y-120950000D03*
X151500000Y-120950000D03*
X152500000Y-120950000D03*
X153500000Y-120950000D03*
D25*
X143700000Y-123650000D03*
X156300000Y-123650000D03*
%TD*%
D12*
%TO.C,R1*%
X170534760Y-101011200D03*
X170534760Y-99991200D03*
%TD*%
D22*
%TO.C,R12*%
X147000000Y-82390000D03*
X147000000Y-83410000D03*
%TD*%
D21*
%TO.C,C21*%
X138820000Y-101650000D03*
X139780000Y-101650000D03*
%TD*%
D16*
%TO.C,FB2*%
X137550000Y-103187500D03*
X137550000Y-101612500D03*
%TD*%
D26*
%TO.C,C13*%
X130450000Y-110250000D03*
X130450000Y-108350000D03*
%TD*%
D22*
%TO.C,R9*%
X169950000Y-84527500D03*
X169950000Y-85547500D03*
%TD*%
D27*
%TO.C,R4*%
X128862500Y-93629500D03*
X129882500Y-93629500D03*
%TD*%
D28*
%TO.C,U6*%
X143550000Y-102650000D03*
X143550000Y-104150000D03*
X143550000Y-105650000D03*
X143550000Y-107150000D03*
X143550000Y-108650000D03*
X143550000Y-110150000D03*
X143550000Y-111650000D03*
X143550000Y-113150000D03*
X143550000Y-114650000D03*
X143550000Y-116150000D03*
X159550000Y-116150000D03*
X159550000Y-114650000D03*
X159550000Y-113150000D03*
X159550000Y-111650000D03*
X159550000Y-110150000D03*
X159550000Y-108650000D03*
X159550000Y-107150000D03*
X159550000Y-105650000D03*
X159550000Y-104150000D03*
X159550000Y-102650000D03*
%TD*%
D29*
%TO.C,J7*%
X160300000Y-76875000D03*
X161300000Y-76875001D03*
X162300000Y-76875000D03*
X163300000Y-76875001D03*
D30*
X158999999Y-74349999D03*
X164600000Y-74349999D03*
%TD*%
D11*
%TO.C,C20*%
X167187500Y-97700000D03*
X166227500Y-97700000D03*
%TD*%
D22*
%TO.C,R13*%
X148050000Y-82400000D03*
X148050000Y-83420000D03*
%TD*%
D31*
%TO.C,U1*%
X148500000Y-89949740D03*
X148500000Y-91349740D03*
X148500000Y-92749740D03*
X148500000Y-94149740D03*
X149900000Y-89949740D03*
X149900000Y-91349740D03*
X149900000Y-92749740D03*
X149900000Y-94149740D03*
X151300000Y-89949740D03*
X151300000Y-91349740D03*
X151300000Y-92749740D03*
X151300000Y-94149740D03*
X152700000Y-89949740D03*
X152700000Y-91349740D03*
X152700000Y-92749740D03*
X152700000Y-94149740D03*
D32*
X147162500Y-89299740D03*
X147162500Y-89799740D03*
X147162500Y-90299740D03*
X147162500Y-90799740D03*
X147162500Y-91299740D03*
X147162500Y-91799740D03*
X147162500Y-92299740D03*
X147162500Y-92799740D03*
X147162500Y-93299740D03*
X147162500Y-93799740D03*
X147162500Y-94299740D03*
X147162500Y-94799740D03*
D33*
X147850000Y-95487240D03*
X148350000Y-95487240D03*
X148850000Y-95487240D03*
X149350000Y-95487240D03*
X149850000Y-95487240D03*
X150350000Y-95487240D03*
X150850000Y-95487240D03*
X151350000Y-95487240D03*
X151850000Y-95487240D03*
X152350000Y-95487240D03*
X152850000Y-95487240D03*
X153350000Y-95487240D03*
D32*
X154037500Y-94799740D03*
X154037500Y-94299740D03*
X154037500Y-93799740D03*
X154037500Y-93299740D03*
X154037500Y-92799740D03*
X154037500Y-92299740D03*
X154037500Y-91799740D03*
X154037500Y-91299740D03*
X154037500Y-90799740D03*
X154037500Y-90299740D03*
X154037500Y-89799740D03*
X154037500Y-89299740D03*
D33*
X153350000Y-88612240D03*
X152850000Y-88612240D03*
X152350000Y-88612240D03*
X151850000Y-88612240D03*
X151350000Y-88612240D03*
X150850000Y-88612240D03*
X150350000Y-88612240D03*
X149850000Y-88612240D03*
X149350000Y-88612240D03*
X148850000Y-88612240D03*
X148350000Y-88612240D03*
X147850000Y-88612240D03*
%TD*%
D34*
%TO.C,Y2*%
X128884500Y-83723500D03*
X131384500Y-83723500D03*
%TD*%
D22*
%TO.C,R10*%
X146650000Y-99540000D03*
X146650000Y-100560000D03*
%TD*%
D35*
%TO.C,U2*%
X133450000Y-105300000D03*
X133450000Y-107600000D03*
D36*
X139750000Y-107600000D03*
D35*
X133450000Y-109900000D03*
%TD*%
D26*
%TO.C,C14*%
X130450000Y-106400000D03*
X130450000Y-104500000D03*
%TD*%
D10*
%TO.C,C5*%
X144910000Y-89307740D03*
X144910000Y-88347740D03*
%TD*%
D27*
%TO.C,R3*%
X127790000Y-111729500D03*
X128810000Y-111729500D03*
%TD*%
D22*
%TO.C,R8*%
X168168000Y-84527500D03*
X168168000Y-85547500D03*
%TD*%
D21*
%TO.C,C17*%
X131432500Y-85628500D03*
X132392500Y-85628500D03*
%TD*%
D11*
%TO.C,C1*%
X144760000Y-93011000D03*
X143800000Y-93011000D03*
%TD*%
D21*
%TO.C,C4*%
X147617000Y-85906740D03*
X148577000Y-85906740D03*
%TD*%
D12*
%TO.C,R6*%
X141650000Y-110760000D03*
X141650000Y-109740000D03*
%TD*%
D22*
%TO.C,R5*%
X141750000Y-102640000D03*
X141750000Y-103660000D03*
%TD*%
D24*
%TO.C,J6*%
X153500000Y-78060000D03*
X152500000Y-78060000D03*
X151500000Y-78060000D03*
X150500000Y-78060000D03*
X149500000Y-78060000D03*
X148500000Y-78060000D03*
X147500000Y-78060000D03*
X146500000Y-78060000D03*
D25*
X156300000Y-75360000D03*
X143700000Y-75360000D03*
%TD*%
D17*
%TO.C,C6*%
X155278000Y-95518800D03*
X155278000Y-96478800D03*
%TD*%
D12*
%TO.C,R16*%
X165350000Y-101010000D03*
X165350000Y-99990000D03*
%TD*%
D10*
%TO.C,C2*%
X141554800Y-90311340D03*
X141554800Y-91271340D03*
%TD*%
D21*
%TO.C,C24*%
X133657500Y-81375000D03*
X134617500Y-81375000D03*
%TD*%
D10*
%TO.C,C10*%
X144788000Y-95015000D03*
X144788000Y-94055000D03*
%TD*%
D16*
%TO.C,D1*%
X128150000Y-110229500D03*
X128150000Y-108654500D03*
%TD*%
D22*
%TO.C,R11*%
X147650000Y-99540000D03*
X147650000Y-100560000D03*
%TD*%
D37*
%TO.C,U4*%
X128412500Y-87787500D03*
D38*
X128275000Y-88700000D03*
X128275000Y-89200000D03*
X128275000Y-89700000D03*
X128275000Y-90200000D03*
D37*
X128412500Y-91112500D03*
X128912500Y-91112500D03*
X129412500Y-91112500D03*
X129912500Y-91112500D03*
X130412500Y-91112500D03*
X130912500Y-91112500D03*
X131412500Y-91112500D03*
X131912500Y-91112500D03*
X132412500Y-91112500D03*
X132912500Y-91112500D03*
D38*
X133050000Y-90200000D03*
X133050000Y-89700000D03*
X133050000Y-89200000D03*
X133050000Y-88700000D03*
D37*
X132912500Y-87787500D03*
X132412500Y-87787500D03*
X131912500Y-87787500D03*
X131412500Y-87787500D03*
X130912500Y-87787500D03*
X130412500Y-87787500D03*
X129912500Y-87787500D03*
X129412500Y-87787500D03*
X128912500Y-87787500D03*
%TD*%
D10*
%TO.C,C12*%
X156350000Y-96480000D03*
X156350000Y-95520000D03*
%TD*%
D16*
%TO.C,D2*%
X168168000Y-83287500D03*
X168168000Y-81712500D03*
%TD*%
%TO.C,D4*%
X141150000Y-113637500D03*
X141150000Y-112062500D03*
%TD*%
D11*
%TO.C,C19*%
X141730000Y-101650000D03*
X140770000Y-101650000D03*
%TD*%
D10*
%TO.C,C9*%
X143645000Y-95015000D03*
X143645000Y-94055000D03*
%TD*%
D12*
%TO.C,R7*%
X168757500Y-89260000D03*
X168757500Y-88240000D03*
%TD*%
D10*
%TO.C,C11*%
X145910000Y-89307740D03*
X145910000Y-88347740D03*
%TD*%
D29*
%TO.C,J8*%
X136700000Y-76825000D03*
X137700000Y-76825000D03*
X138700000Y-76825000D03*
X139700000Y-76825000D03*
D30*
X135400000Y-74300000D03*
X141000000Y-74300000D03*
%TD*%
D39*
%TO.C,FB1*%
X142384500Y-97496540D03*
X143959500Y-97496540D03*
%TD*%
M02*
