%TF.GenerationSoftware,KiCad,Pcbnew,8.0.1*%
%TF.CreationDate,2024-11-14T00:10:28-08:00*%
%TF.ProjectId,motor_control_design,6d6f746f-725f-4636-9f6e-74726f6c5f64,rev?*%
%TF.SameCoordinates,Original*%
%TF.FileFunction,Paste,Bot*%
%TF.FilePolarity,Positive*%
%FSLAX46Y46*%
G04 Gerber Fmt 4.6, Leading zero omitted, Abs format (unit mm)*
G04 Created by KiCad (PCBNEW 8.0.1) date 2024-11-14 00:10:28*
%MOMM*%
%LPD*%
G01*
G04 APERTURE LIST*
G04 Aperture macros list*
%AMRoundRect*
0 Rectangle with rounded corners*
0 $1 Rounding radius*
0 $2 $3 $4 $5 $6 $7 $8 $9 X,Y pos of 4 corners*
0 Add a 4 corners polygon primitive as box body*
4,1,4,$2,$3,$4,$5,$6,$7,$8,$9,$2,$3,0*
0 Add four circle primitives for the rounded corners*
1,1,$1+$1,$2,$3*
1,1,$1+$1,$4,$5*
1,1,$1+$1,$6,$7*
1,1,$1+$1,$8,$9*
0 Add four rect primitives between the rounded corners*
20,1,$1+$1,$2,$3,$4,$5,0*
20,1,$1+$1,$4,$5,$6,$7,0*
20,1,$1+$1,$6,$7,$8,$9,0*
20,1,$1+$1,$8,$9,$2,$3,0*%
G04 Aperture macros list end*
%ADD10RoundRect,0.135000X-0.185000X0.135000X-0.185000X-0.135000X0.185000X-0.135000X0.185000X0.135000X0*%
%ADD11RoundRect,0.250000X0.300000X-2.050000X0.300000X2.050000X-0.300000X2.050000X-0.300000X-2.050000X0*%
%ADD12RoundRect,0.250000X2.375000X-2.025000X2.375000X2.025000X-2.375000X2.025000X-2.375000X-2.025000X0*%
%ADD13RoundRect,0.250000X1.000000X0.650000X-1.000000X0.650000X-1.000000X-0.650000X1.000000X-0.650000X0*%
%ADD14RoundRect,0.250000X-1.000000X-0.650000X1.000000X-0.650000X1.000000X0.650000X-1.000000X0.650000X0*%
%ADD15RoundRect,0.250000X0.650000X-1.000000X0.650000X1.000000X-0.650000X1.000000X-0.650000X-1.000000X0*%
%ADD16RoundRect,0.135000X-0.135000X-0.185000X0.135000X-0.185000X0.135000X0.185000X-0.135000X0.185000X0*%
%ADD17RoundRect,0.250000X-2.050000X-0.300000X2.050000X-0.300000X2.050000X0.300000X-2.050000X0.300000X0*%
%ADD18RoundRect,0.250000X-2.025000X-2.375000X2.025000X-2.375000X2.025000X2.375000X-2.025000X2.375000X0*%
%ADD19RoundRect,0.135000X0.185000X-0.135000X0.185000X0.135000X-0.185000X0.135000X-0.185000X-0.135000X0*%
%ADD20RoundRect,0.250000X2.050000X0.300000X-2.050000X0.300000X-2.050000X-0.300000X2.050000X-0.300000X0*%
%ADD21RoundRect,0.250000X2.025000X2.375000X-2.025000X2.375000X-2.025000X-2.375000X2.025000X-2.375000X0*%
%ADD22RoundRect,0.250000X-0.650000X1.000000X-0.650000X-1.000000X0.650000X-1.000000X0.650000X1.000000X0*%
%ADD23RoundRect,0.135000X0.135000X0.185000X-0.135000X0.185000X-0.135000X-0.185000X0.135000X-0.185000X0*%
%ADD24RoundRect,0.250000X1.166726X-0.247487X-0.247487X1.166726X-1.166726X0.247487X0.247487X-1.166726X0*%
G04 APERTURE END LIST*
D10*
%TO.C,R20*%
X149352000Y-72640002D03*
X149352000Y-73660000D03*
%TD*%
D11*
%TO.C,Q14*%
X158115000Y-74803000D03*
D12*
X152800000Y-68078000D03*
X158350000Y-68078000D03*
X152800000Y-63228000D03*
X158350000Y-63228000D03*
D11*
X153035000Y-74803000D03*
%TD*%
D13*
%TO.C,D4*%
X128492000Y-75692000D03*
X124492000Y-75692000D03*
%TD*%
D14*
%TO.C,D5*%
X125144999Y-102362000D03*
X129145001Y-102362000D03*
%TD*%
%TO.C,D8*%
X169354998Y-75565000D03*
X173355000Y-75565000D03*
%TD*%
D10*
%TO.C,R18*%
X159512000Y-85977001D03*
X159512000Y-86996999D03*
%TD*%
D15*
%TO.C,D7*%
X135636000Y-68548001D03*
X135636000Y-64547999D03*
%TD*%
D16*
%TO.C,R13*%
X135890000Y-76962000D03*
X136909998Y-76962000D03*
%TD*%
D17*
%TO.C,Q6*%
X162657000Y-85579000D03*
D18*
X169382000Y-80264000D03*
X169382000Y-85814000D03*
X174232000Y-80264000D03*
X174232000Y-85814000D03*
D17*
X162657000Y-80499000D03*
%TD*%
D14*
%TO.C,D12*%
X150812998Y-102362000D03*
X154813000Y-102362000D03*
%TD*%
D19*
%TO.C,R14*%
X149352000Y-76963999D03*
X149352000Y-75944001D03*
%TD*%
D20*
%TO.C,Q2*%
X135781000Y-80772000D03*
D21*
X129056000Y-86087000D03*
X129056000Y-80537000D03*
X124206000Y-86087000D03*
X124206000Y-80537000D03*
D20*
X135781000Y-85852000D03*
%TD*%
D13*
%TO.C,D9*%
X173355000Y-102362000D03*
X169355000Y-102362000D03*
%TD*%
D20*
%TO.C,Q9*%
X135786999Y-92201998D03*
D21*
X129062001Y-91966997D03*
X129061999Y-97516997D03*
X124212001Y-97516999D03*
X124211999Y-91966997D03*
D20*
X135787002Y-97281998D03*
%TD*%
D10*
%TO.C,R16*%
X139065000Y-94488000D03*
X139065000Y-95507998D03*
%TD*%
D22*
%TO.C,D6*%
X157117000Y-79279999D03*
X157117000Y-83280001D03*
%TD*%
D16*
%TO.C,R19*%
X165987001Y-101092000D03*
X167006999Y-101092000D03*
%TD*%
D17*
%TO.C,Q7*%
X162657000Y-97263000D03*
D18*
X169382000Y-91948000D03*
X169382000Y-97498000D03*
X174232000Y-91948000D03*
X174232000Y-97498000D03*
D17*
X162657000Y-92183000D03*
%TD*%
%TO.C,Q3*%
X141115000Y-85852000D03*
D18*
X147840000Y-80537000D03*
X147840000Y-86087000D03*
X152690000Y-80537000D03*
X152690000Y-86087000D03*
D17*
X141115000Y-80772000D03*
%TD*%
D20*
%TO.C,Q15*%
X156778000Y-92202000D03*
D21*
X150053000Y-97517000D03*
X150053000Y-91967000D03*
X145203000Y-97517000D03*
X145203000Y-91967000D03*
D20*
X156778000Y-97282000D03*
%TD*%
D23*
%TO.C,R23*%
X161037999Y-101346000D03*
X160018001Y-101346000D03*
%TD*%
D24*
%TO.C,D10*%
X166514214Y-67962214D03*
X163685786Y-65133786D03*
%TD*%
D11*
%TO.C,Q1*%
X145688000Y-74821000D03*
D12*
X140373000Y-68096000D03*
X145923000Y-68096000D03*
X140373000Y-63246000D03*
X145923000Y-63246000D03*
D11*
X140608000Y-74821000D03*
%TD*%
D23*
%TO.C,R15*%
X141099000Y-89662000D03*
X140079000Y-89662000D03*
%TD*%
M02*
