%TF.GenerationSoftware,KiCad,Pcbnew,8.0.1*%
%TF.CreationDate,2024-11-14T00:10:28-08:00*%
%TF.ProjectId,motor_control_design,6d6f746f-725f-4636-9f6e-74726f6c5f64,rev?*%
%TF.SameCoordinates,Original*%
%TF.FileFunction,Soldermask,Top*%
%TF.FilePolarity,Negative*%
%FSLAX46Y46*%
G04 Gerber Fmt 4.6, Leading zero omitted, Abs format (unit mm)*
G04 Created by KiCad (PCBNEW 8.0.1) date 2024-11-14 00:10:28*
%MOMM*%
%LPD*%
G01*
G04 APERTURE LIST*
G04 Aperture macros list*
%AMRoundRect*
0 Rectangle with rounded corners*
0 $1 Rounding radius*
0 $2 $3 $4 $5 $6 $7 $8 $9 X,Y pos of 4 corners*
0 Add a 4 corners polygon primitive as box body*
4,1,4,$2,$3,$4,$5,$6,$7,$8,$9,$2,$3,0*
0 Add four circle primitives for the rounded corners*
1,1,$1+$1,$2,$3*
1,1,$1+$1,$4,$5*
1,1,$1+$1,$6,$7*
1,1,$1+$1,$8,$9*
0 Add four rect primitives between the rounded corners*
20,1,$1+$1,$2,$3,$4,$5,0*
20,1,$1+$1,$4,$5,$6,$7,0*
20,1,$1+$1,$6,$7,$8,$9,0*
20,1,$1+$1,$8,$9,$2,$3,0*%
%AMHorizOval*
0 Thick line with rounded ends*
0 $1 width*
0 $2 $3 position (X,Y) of the first rounded end (center of the circle)*
0 $4 $5 position (X,Y) of the second rounded end (center of the circle)*
0 Add line between two ends*
20,1,$1,$2,$3,$4,$5,0*
0 Add two circle primitives to create the rounded ends*
1,1,$1,$2,$3*
1,1,$1,$4,$5*%
%AMRotRect*
0 Rectangle, with rotation*
0 The origin of the aperture is its center*
0 $1 length*
0 $2 width*
0 $3 Rotation angle, in degrees counterclockwise*
0 Add horizontal line*
21,1,$1,$2,0,0,$3*%
G04 Aperture macros list end*
%ADD10RoundRect,0.140000X0.219203X0.021213X0.021213X0.219203X-0.219203X-0.021213X-0.021213X-0.219203X0*%
%ADD11RoundRect,0.135000X0.185000X-0.135000X0.185000X0.135000X-0.185000X0.135000X-0.185000X-0.135000X0*%
%ADD12RoundRect,0.150000X0.521491X-0.309359X-0.309359X0.521491X-0.521491X0.309359X0.309359X-0.521491X0*%
%ADD13RoundRect,0.218750X0.256250X-0.218750X0.256250X0.218750X-0.256250X0.218750X-0.256250X-0.218750X0*%
%ADD14RoundRect,0.135000X-0.185000X0.135000X-0.185000X-0.135000X0.185000X-0.135000X0.185000X0.135000X0*%
%ADD15RoundRect,0.250000X-0.475000X0.250000X-0.475000X-0.250000X0.475000X-0.250000X0.475000X0.250000X0*%
%ADD16RoundRect,0.218750X-0.218750X-0.256250X0.218750X-0.256250X0.218750X0.256250X-0.218750X0.256250X0*%
%ADD17RoundRect,0.135000X-0.035355X0.226274X-0.226274X0.035355X0.035355X-0.226274X0.226274X-0.035355X0*%
%ADD18RoundRect,0.140000X-0.140000X-0.170000X0.140000X-0.170000X0.140000X0.170000X-0.140000X0.170000X0*%
%ADD19RoundRect,0.062500X0.062500X-0.375000X0.062500X0.375000X-0.062500X0.375000X-0.062500X-0.375000X0*%
%ADD20RoundRect,0.062500X0.375000X-0.062500X0.375000X0.062500X-0.375000X0.062500X-0.375000X-0.062500X0*%
%ADD21R,5.600000X5.600000*%
%ADD22RoundRect,0.250000X-1.000000X-0.650000X1.000000X-0.650000X1.000000X0.650000X-1.000000X0.650000X0*%
%ADD23RotRect,4.000000X4.000000X227.000000*%
%ADD24R,0.400000X1.000000*%
%ADD25R,2.000000X1.300000*%
%ADD26RoundRect,0.135000X0.135000X0.185000X-0.135000X0.185000X-0.135000X-0.185000X0.135000X-0.185000X0*%
%ADD27RoundRect,0.140000X-0.170000X0.140000X-0.170000X-0.140000X0.170000X-0.140000X0.170000X0.140000X0*%
%ADD28RoundRect,0.250000X-1.950000X-1.000000X1.950000X-1.000000X1.950000X1.000000X-1.950000X1.000000X0*%
%ADD29C,2.200000*%
%ADD30RoundRect,0.150000X-0.150000X0.587500X-0.150000X-0.587500X0.150000X-0.587500X0.150000X0.587500X0*%
%ADD31RoundRect,0.150000X0.587500X0.150000X-0.587500X0.150000X-0.587500X-0.150000X0.587500X-0.150000X0*%
%ADD32RotRect,1.700000X1.700000X45.000000*%
%ADD33HorizOval,1.700000X0.000000X0.000000X0.000000X0.000000X0*%
%ADD34RotRect,4.000000X4.000000X131.000000*%
%ADD35RoundRect,0.150000X-0.587500X-0.150000X0.587500X-0.150000X0.587500X0.150000X-0.587500X0.150000X0*%
%ADD36RoundRect,0.250000X0.300000X-2.050000X0.300000X2.050000X-0.300000X2.050000X-0.300000X-2.050000X0*%
%ADD37RoundRect,0.250002X5.149998X-4.449998X5.149998X4.449998X-5.149998X4.449998X-5.149998X-4.449998X0*%
%ADD38RotRect,4.000000X4.000000X138.000000*%
%ADD39RotRect,1.400000X1.200000X135.000000*%
%ADD40RoundRect,0.140000X0.021213X-0.219203X0.219203X-0.021213X-0.021213X0.219203X-0.219203X0.021213X0*%
%ADD41RoundRect,0.135000X-0.135000X-0.185000X0.135000X-0.185000X0.135000X0.185000X-0.135000X0.185000X0*%
%ADD42RoundRect,0.140000X0.140000X0.170000X-0.140000X0.170000X-0.140000X-0.170000X0.140000X-0.170000X0*%
%ADD43R,4.495800X1.295400*%
%ADD44R,3.911600X1.803400*%
%ADD45RoundRect,0.135000X0.035355X-0.226274X0.226274X-0.035355X-0.035355X0.226274X-0.226274X0.035355X0*%
%ADD46RotRect,4.000000X4.000000X36.000000*%
%ADD47R,5.000000X3.100000*%
G04 APERTURE END LIST*
D10*
%TO.C,C4*%
X144484411Y-104733411D03*
X143805589Y-104054589D03*
%TD*%
D11*
%TO.C,R21*%
X157861000Y-106681999D03*
X157861000Y-105662001D03*
%TD*%
D12*
%TO.C,Q13*%
X131337074Y-77816577D03*
X132680577Y-76473074D03*
X130683000Y-75819000D03*
%TD*%
D13*
%TO.C,D2*%
X158879000Y-114937000D03*
X158879000Y-113361998D03*
%TD*%
D14*
%TO.C,R3*%
X157480000Y-110996001D03*
X157480000Y-112015999D03*
%TD*%
D15*
%TO.C,C14*%
X136017000Y-86045001D03*
X136017000Y-87944999D03*
%TD*%
D16*
%TO.C,FB1*%
X154279500Y-108458000D03*
X155854500Y-108458000D03*
%TD*%
D17*
%TO.C,R1*%
X138028624Y-107843376D03*
X137307376Y-108564624D03*
%TD*%
D18*
%TO.C,C7*%
X153952000Y-100711000D03*
X154912000Y-100711000D03*
%TD*%
D19*
%TO.C,U1*%
X146583570Y-105864500D03*
X147083570Y-105864500D03*
X147583571Y-105864500D03*
X148083570Y-105864500D03*
X148583569Y-105864500D03*
X149083570Y-105864500D03*
X149583570Y-105864500D03*
X150083571Y-105864500D03*
X150583570Y-105864500D03*
X151083569Y-105864500D03*
X151583570Y-105864500D03*
X152083570Y-105864500D03*
D20*
X152771070Y-105177000D03*
X152771070Y-104677000D03*
X152771070Y-104176999D03*
X152771070Y-103677000D03*
X152771070Y-103177001D03*
X152771070Y-102677000D03*
X152771070Y-102177000D03*
X152771070Y-101676999D03*
X152771070Y-101177000D03*
X152771070Y-100677001D03*
X152771070Y-100177000D03*
X152771070Y-99677000D03*
D19*
X152083570Y-98989500D03*
X151583570Y-98989500D03*
X151083569Y-98989500D03*
X150583570Y-98989500D03*
X150083571Y-98989500D03*
X149583570Y-98989500D03*
X149083570Y-98989500D03*
X148583569Y-98989500D03*
X148083570Y-98989500D03*
X147583571Y-98989500D03*
X147083570Y-98989500D03*
X146583570Y-98989500D03*
D20*
X145896070Y-99677000D03*
X145896070Y-100177000D03*
X145896070Y-100677001D03*
X145896070Y-101177000D03*
X145896070Y-101676999D03*
X145896070Y-102177000D03*
X145896070Y-102677000D03*
X145896070Y-103177001D03*
X145896070Y-103677000D03*
X145896070Y-104176999D03*
X145896070Y-104677000D03*
X145896070Y-105177000D03*
D21*
X149333570Y-102427000D03*
%TD*%
D22*
%TO.C,D11*%
X141922998Y-93345000D03*
X145923000Y-93345000D03*
%TD*%
D23*
%TO.C,J4*%
X127000000Y-71120000D03*
%TD*%
D13*
%TO.C,D3*%
X160657000Y-114937000D03*
X160657000Y-113361998D03*
%TD*%
D24*
%TO.C,J5*%
X145548000Y-110838000D03*
X146548000Y-110838000D03*
X147548000Y-110838000D03*
X148548000Y-110838000D03*
X149548000Y-110838000D03*
X150548000Y-110838000D03*
X151548000Y-110838000D03*
X152548000Y-110838000D03*
D25*
X142748000Y-113538000D03*
X155348000Y-113538000D03*
%TD*%
D26*
%TO.C,R24*%
X156084999Y-64135000D03*
X155065001Y-64135000D03*
%TD*%
D27*
%TO.C,C11*%
X157099000Y-108105000D03*
X157099000Y-109065000D03*
%TD*%
D28*
%TO.C,C15*%
X150241000Y-91694000D03*
X158641000Y-91694000D03*
%TD*%
D10*
%TO.C,C2*%
X144230411Y-106003411D03*
X143551589Y-105324589D03*
%TD*%
D11*
%TO.C,R8*%
X162054000Y-115395997D03*
X162054000Y-114375999D03*
%TD*%
D29*
%TO.C,*%
X134886970Y-74653262D03*
%TD*%
D30*
%TO.C,Q4*%
X143571000Y-64594500D03*
X141671000Y-64594500D03*
X142621000Y-66469501D03*
%TD*%
D31*
%TO.C,Q5*%
X169418000Y-78105000D03*
X169418000Y-76205000D03*
X167542999Y-77155000D03*
%TD*%
D29*
%TO.C,*%
X134836970Y-103603262D03*
%TD*%
%TO.C,*%
X163836970Y-74603262D03*
%TD*%
D14*
%TO.C,R10*%
X136525000Y-96012000D03*
X136525000Y-97031998D03*
%TD*%
D11*
%TO.C,R9*%
X136525000Y-94997999D03*
X136525000Y-93978001D03*
%TD*%
D32*
%TO.C,J2*%
X128251949Y-107296949D03*
D33*
X130048000Y-109093000D03*
X131844051Y-110889051D03*
X133640103Y-112685103D03*
%TD*%
D34*
%TO.C,J3*%
X130810000Y-67437000D03*
%TD*%
D11*
%TO.C,R2*%
X158496000Y-112015999D03*
X158496000Y-110996001D03*
%TD*%
%TO.C,R17*%
X170942000Y-77597000D03*
X170942000Y-76577002D03*
%TD*%
D18*
%TO.C,C1*%
X146078000Y-96774000D03*
X147038000Y-96774000D03*
%TD*%
D35*
%TO.C,Q10*%
X133126000Y-96332000D03*
X133126000Y-98232000D03*
X135001000Y-97282000D03*
%TD*%
D14*
%TO.C,R22*%
X157861000Y-100836001D03*
X157861000Y-101855999D03*
%TD*%
D11*
%TO.C,R5*%
X138303000Y-114809999D03*
X138303000Y-113790001D03*
%TD*%
D29*
%TO.C,*%
X163836970Y-103603262D03*
%TD*%
D36*
%TO.C,U3*%
X139367000Y-86124000D03*
X141067000Y-86123999D03*
X142767000Y-86124000D03*
D37*
X142767000Y-76974000D03*
D36*
X144467000Y-86123999D03*
X146167000Y-86124000D03*
%TD*%
D31*
%TO.C,Q11*%
X161290000Y-106040000D03*
X161290000Y-104140000D03*
X159414999Y-105090000D03*
%TD*%
D14*
%TO.C,R11*%
X156337000Y-101598001D03*
X156337000Y-102617999D03*
%TD*%
D38*
%TO.C,J10*%
X170307000Y-107569000D03*
%TD*%
D31*
%TO.C,Q12*%
X161260001Y-102423000D03*
X161260001Y-100523000D03*
X159385000Y-101473000D03*
%TD*%
D18*
%TO.C,C3*%
X152047000Y-107188000D03*
X153007000Y-107188000D03*
%TD*%
D39*
%TO.C,Y1*%
X142965716Y-106934000D03*
X141410081Y-105378365D03*
X140208000Y-106580446D03*
X141763635Y-108136081D03*
%TD*%
D26*
%TO.C,R6*%
X143003999Y-63070499D03*
X141984001Y-63070499D03*
%TD*%
D18*
%TO.C,C8*%
X146078000Y-97790000D03*
X147038000Y-97790000D03*
%TD*%
D35*
%TO.C,Q8*%
X133126000Y-92776000D03*
X133126000Y-94676000D03*
X135001000Y-93726000D03*
%TD*%
D40*
%TO.C,C5*%
X138852589Y-105749411D03*
X139531411Y-105070589D03*
%TD*%
D41*
%TO.C,R7*%
X159004000Y-116155998D03*
X160024000Y-116155998D03*
%TD*%
D42*
%TO.C,C9*%
X151102000Y-107188000D03*
X150142000Y-107188000D03*
%TD*%
%TO.C,C10*%
X151229000Y-108204000D03*
X150269000Y-108204000D03*
%TD*%
D43*
%TO.C,J6*%
X129110946Y-83830497D03*
X129110946Y-86330501D03*
X129110948Y-88830496D03*
X129110945Y-91330496D03*
X129110944Y-93830497D03*
X129110949Y-96330498D03*
D44*
X122310944Y-80630497D03*
X122310953Y-99530498D03*
%TD*%
D13*
%TO.C,D1*%
X139573000Y-115087501D03*
X139573000Y-113512499D03*
%TD*%
D43*
%TO.C,J8*%
X168912200Y-95911999D03*
X168912200Y-93411995D03*
X168912198Y-90912000D03*
X168912201Y-88412000D03*
X168912202Y-85911999D03*
X168912197Y-83411998D03*
D44*
X175712202Y-99111999D03*
X175712194Y-80211998D03*
%TD*%
D45*
%TO.C,R4*%
X129306376Y-75036624D03*
X130027624Y-74315376D03*
%TD*%
D27*
%TO.C,C6*%
X154051000Y-98707000D03*
X154051000Y-99667000D03*
%TD*%
D46*
%TO.C,J9*%
X166243000Y-111379000D03*
%TD*%
D41*
%TO.C,R12*%
X156208000Y-103632000D03*
X157228000Y-103632000D03*
%TD*%
D47*
%TO.C,L1*%
X155575000Y-72973998D03*
X155575000Y-84074000D03*
%TD*%
D30*
%TO.C,Q16*%
X156586000Y-65659000D03*
X154686000Y-65659000D03*
X155636000Y-67534001D03*
%TD*%
M02*
