<?xml version="1.0" ?>
<svg xmlns="http://www.w3.org/2000/svg" xmlns:xlink="http://www.w3.org/1999/xlink" version="1.1" width="22.148024812506264mm" height="21.386024812506257mm" viewBox="121.74258759374686 -102.53863721875939 22.148024812506264 21.386024812506257">
	<g transform="scale(1,-1)">
		<path fill-rule="evenodd" fill="#66cc99" stroke="#555555" stroke-width="0.02" opacity="0.6" d="M 121.74258759374686,-59.791600002454906 L 121.74270803542751,-59.7891483557234 L 121.7430682002017,-59.786720321876075 L 121.74366461961844,-59.78433928199648 L 121.74449154983257,-59.782028166800664 L 121.74554102705423,-59.779809233590896 L 121.74680294424402,-59.77770385190713 L 121.74826514844959,-59.77573229772588 L 121.749913557845,-59.773913558191815 L 121.75173229734686,-59.77226514876064 L 121.75370385149934,-59.77080294451649 L 121.75580923315847,-59.769541027285364 L 121.75802816634753,-59.76849155002027 L 121.76033928152735,-59.76766461976076 L 121.76272032139505,-59.767068200297395 L 121.7651483552354,-59.76670803547559 L 121.76760000233232,-59.76658759375289 L 143.86559999742258,-59.76658759374687 L 143.86805164427673,-59.766708035427534 L 143.87047967812396,-59.76706820020173 L 143.87286071800347,-59.767664619618415 L 143.87517183319954,-59.76849154983265 L 143.87739076640926,-59.769541027054295 L 143.87949614809273,-59.770802944243925 L 143.88146770227408,-59.77226514844959 L 143.8832864418084,-59.773913557845184 L 143.8849348512392,-59.775732297346714 L 143.8863970554835,-59.777703851499346 L 143.88765897271452,-59.77980923315828 L 143.88870844997967,-59.782028166347395 L 143.88953538023912,-59.784339281526975 L 143.89013179970266,-59.78672032139529 L 143.8904919645244,-59.789148355235334 L 143.8906124062471,-59.79160000233211 L 143.89061240625313,-81.12759999742222 L 143.89049196457245,-81.13005164427679 L 143.89013179979833,-81.1324796781237 L 143.88953538038174,-81.13486071800283 L 143.88870845016748,-81.13717183319913 L 143.88765897294567,-81.13939076640929 L 143.88639705575605,-81.14149614809281 L 143.88493485155053,-81.14346770227397 L 143.88328644215488,-81.14528644180832 L 143.88146770265314,-81.14693485123935 L 143.87949614850055,-81.14839705548358 L 143.87739076684164,-81.14965897271456 L 143.87517183365242,-81.15070844997973 L 143.87286071847288,-81.15153538023917 L 143.87047967860497,-81.1521317997026 L 143.86805164476473,-81.15249196452439 L 143.86559999766772,-81.1526124062471 L 121.76760000257792,-81.15261240625313 L 121.7651483557234,-81.15249196457248 L 121.762720321876,-81.15213179979827 L 121.7603392819965,-81.15153538038156 L 121.7580281668006,-81.1507084501674 L 121.7558092335908,-81.14965897294572 L 121.75370385190695,-81.14839705575588 L 121.75173229772591,-81.14693485155043 L 121.74991355819166,-81.14528644215487 L 121.74826514876058,-81.14346770265308 L 121.7468029445164,-81.14149614850055 L 121.74554102728533,-81.13939076684146 L 121.74449155002026,-81.1371718336524 L 121.74366461976074,-81.1348607184726 L 121.74306820029739,-81.13247967860494 L 121.7427080354756,-81.13005164476473 L 121.74258759375289,-81.12759999766776 L 121.74258759374686,-59.791600002454906 z M 143.84058748374687,-81.10258759374688 L 143.84058748865294,-81.10258759362647 L 143.84058748963312,-81.10258759357832 L 143.84058749940075,-81.10258759261629 L 143.84058750037147,-81.10258759247229 L 143.84058750999495,-81.10258759055807 L 143.8405875109469,-81.10258759031963 L 143.8405875203393,-81.10258758747048 L 143.8405875212633,-81.10258758713987 L 143.84058753032886,-81.10258758338477 L 143.840587531216,-81.1025875829652 L 143.8405875398708,-81.10258757833915 L 143.84058754071253,-81.10258757783464 L 143.8405875488731,-81.10258757238192 L 143.8405875496613,-81.10258757179733 L 143.84058755724672,-81.1025875655721 L 143.84058755797386,-81.10258756491305 L 143.84058756491237,-81.10258755797459 L 143.8405875655714,-81.10258755724746 L 143.84058757179852,-81.1025875496597 L 143.8405875723831,-81.10258754887147 L 143.8405875778346,-81.10258754071255 L 143.84058757833913,-81.10258753987081 L 143.84058758296462,-81.1025875312172 L 143.8405875833842,-81.10258753033007 L 143.8405875871403,-81.10258752126204 L 143.8405875874709,-81.10258752033805 L 143.84058759031916,-81.10258751094861 L 143.84058759055762,-81.10258750999667 L 143.84058759247256,-81.10258750036967 L 143.84058759261654,-81.10258749939892 L 143.84058759357814,-81.1025874896361 L 143.8405875936263,-81.10258748865593 L 143.84058759374687,-81.10258748374689 L 143.84058759374687,-59.81661251625312 L 143.8405875936263,-59.81661251134412 L 143.84058759357814,-59.816612510363946 L 143.8405875926165,-59.81661250060087 L 143.8405875924725,-59.81661249963014 L 143.84058759055762,-59.816612490003344 L 143.84058759031916,-59.8166124890514 L 143.8405875874709,-59.81661247966197 L 143.8405875871403,-59.81661247873798 L 143.84058758338432,-59.81661246967023 L 143.84058758296473,-59.8166124687831 L 143.84058757833913,-59.81661246012919 L 143.8405875778346,-59.816612459287455 L 143.84058757238284,-59.8166124511282 L 143.84058757179827,-59.816612450339974 L 143.84058756557175,-59.81661244275291 L 143.8405875649127,-59.81661244202578 L 143.84058755797346,-59.816612435086604 L 143.84058755724632,-59.81661243442757 L 143.8405875496613,-59.816612428202696 L 143.8405875488731,-59.816612427618104 L 143.84058754071307,-59.8166124221657 L 143.84058753987134,-59.816612421661176 L 143.84058753121658,-59.816612417035095 L 143.84058753032946,-59.81661241661551 L 143.84058752126268,-59.816612412859904 L 143.8405875203387,-59.816612412529295 L 143.84058751094759,-59.81661240968055 L 143.84058750999563,-59.8166124094421 L 143.84058750037076,-59.81661240752761 L 143.84058749940004,-59.816612407383616 L 143.84058748963386,-59.81661240642173 L 143.84058748865368,-59.81661240637358 L 143.84058748374687,-59.81661240625312 L 121.7926125162531,-59.81661240625312 L 121.79261251134622,-59.81661240637358 L 121.79261251036606,-59.81661240642173 L 121.79261250060036,-59.81661240738355 L 121.79261249962961,-59.81661240752754 L 121.792612490004,-59.816612409442186 L 121.79261248905206,-59.81661240968064 L 121.7926124796613,-59.816612412529295 L 121.79261247873731,-59.816612412859904 L 121.79261246967052,-59.81661241661551 L 121.79261246878339,-59.816612417035095 L 121.79261246012864,-59.816612421661176 L 121.7926124592869,-59.8166124221657 L 121.79261245112758,-59.816612427617585 L 121.79261245033935,-59.81661242820218 L 121.79261244275293,-59.81661243442822 L 121.7926124420258,-59.81661243508726 L 121.79261243508726,-59.81661244202578 L 121.79261243442822,-59.81661244275291 L 121.7926124282024,-59.816612450339036 L 121.79261242761781,-59.81661245112726 L 121.79261242216535,-59.816612459287455 L 121.79261242166083,-59.81661246012919 L 121.79261241703466,-59.81661246878428 L 121.79261241661509,-59.81661246967141 L 121.79261241286012,-59.8166124787367 L 121.79261241252951,-59.81661247966069 L 121.79261240968044,-59.816612489052766 L 121.792612409442,-59.81661249000471 L 121.79261240752767,-59.816612499628725 L 121.79261240738367,-59.816612500599454 L 121.79261240642168,-59.81661251036684 L 121.79261240637354,-59.81661251134701 L 121.79261240625311,-59.81661251625312 L 121.79261240625311,-81.10258748374689 L 121.79261240637354,-81.10258748865304 L 121.79261240642168,-81.10258748963321 L 121.79261240738364,-81.10258749940034 L 121.79261240752764,-81.10258750037109 L 121.792612409442,-81.10258750999532 L 121.79261240968044,-81.10258751094726 L 121.79261241252951,-81.10258752033933 L 121.79261241286012,-81.10258752126332 L 121.79261241661521,-81.10258753032889 L 121.79261241703479,-81.10258753121602 L 121.79261242166083,-81.10258753987081 L 121.79261242216535,-81.10258754071255 L 121.79261242761756,-81.1025875488724 L 121.79261242820215,-81.10258754966064 L 121.79261243442855,-81.10258755724746 L 121.79261243508759,-81.10258755797459 L 121.7926124420254,-81.1025875649124 L 121.79261244275253,-81.10258756557144 L 121.79261245033935,-81.10258757179784 L 121.79261245112758,-81.10258757238243 L 121.79261245928744,-81.10258757783464 L 121.79261246012918,-81.10258757833915 L 121.79261246878397,-81.1025875829652 L 121.7926124696711,-81.10258758338477 L 121.79261247873667,-81.10258758713987 L 121.79261247966066,-81.10258758747048 L 121.79261248905273,-81.10258759031954 L 121.79261249000467,-81.10258759055799 L 121.7926124996289,-81.10258759247235 L 121.79261250059965,-81.10258759261635 L 121.79261251036678,-81.1025875935783 L 121.79261251134695,-81.10258759362645 L 121.7926125162531,-81.10258759374688 L 143.84058748374687,-81.10258759374688 z"/>
	</g>
	 
</svg>
