<?xml version="1.0" ?>
<svg xmlns="http://www.w3.org/2000/svg" xmlns:xlink="http://www.w3.org/1999/xlink" version="1.1" width="20.611599800000022mm" height="19.810799799999998mm" viewBox="122.51080009999998 -100.2967997 20.611599800000022 19.810799799999998">
	<g transform="scale(1,-1)">
		<g>
			<path fill-rule="evenodd" fill="#66cc99" stroke="#555555" stroke-width="0.02" opacity="0.6" d="M 139.1224001,-80.4859999 L 139.1224001,-76.4860001002457 L 143.12239989975444,-76.48600009999998 L 143.1223999,-80.48599989975428 L 139.1224001,-80.4859999 z"/>
			<path fill-rule="evenodd" fill="#66cc99" stroke="#555555" stroke-width="0.02" opacity="0.6" d="M 133.73760009999998,-80.4859999 L 133.73760009999998,-76.4860001002457 L 137.73759989975443,-76.48600009999998 L 137.7375999,-80.48599989975428 L 133.73760009999998,-80.4859999 z"/>
			<path fill-rule="evenodd" fill="#66cc99" stroke="#555555" stroke-width="0.02" opacity="0.6" d="M 127.8956001,-80.4859999 L 127.8956001,-76.48600010024556 L 131.89559989975444,-76.48600009999998 L 131.8955999,-80.48599989975428 L 127.8956001,-80.4859999 z"/>
			<path fill-rule="evenodd" fill="#66cc99" stroke="#555555" stroke-width="0.02" opacity="0.6" d="M 122.51080009999998,-80.4859999 L 122.51080009999998,-76.48600010024556 L 126.51079989975442,-76.48600009999998 L 126.5107999,-80.48599989975442 L 122.51080009999998,-80.4859999 z"/>
			<path fill-rule="evenodd" fill="#66cc99" stroke="#555555" stroke-width="0.02" opacity="0.6" d="M 141.62239406898692,-70.3235951622177 L 141.5378946555916,-70.28362991609825 L 141.45771940888343,-70.23557472259716 L 141.38264046054707,-70.17989237957991 L 141.31338086189754,-70.117119138449 L 141.25060762073116,-70.04785953983199 L 141.1949252776752,-69.97278059152423 L 141.14687008413304,-69.89260534484107 L 141.10690483788738,-69.80810593123529 L 141.07541442610733,-69.72009612625286 L 141.05270211867244,-69.62942351242621 L 141.03898664751924,-69.53696131659318 L 141.03440010013264,-69.4436000002453 L 141.03898664747118,-69.35023868389472 L 141.05270211857666,-69.2577764880553 L 141.0754144259647,-69.16710387421732 L 141.1069048376996,-69.07909406921812 L 141.1468700839018,-68.99459465559151 L 141.19492527740277,-68.91441940888349 L 141.2506076204199,-68.83934046054725 L 141.313380861551,-68.77008086189755 L 141.38264046016798,-68.7073076207312 L 141.45771940847573,-68.65162527767527 L 141.53789465515925,-68.60357008413285 L 141.62239406876483,-68.56360483788734 L 141.71040387374725,-68.53211442610728 L 141.80107648757402,-68.5094021186724 L 141.89353868340672,-68.49568664751926 L 141.98690000233228,-68.49110010000602 L 142.08189999742208,-68.4911001 L 142.17526131610512,-68.49568664747117 L 142.2677235119449,-68.50940211857669 L 142.3583961257834,-68.5321144259649 L 142.44640593078213,-68.56360483769967 L 142.53090534440838,-68.60357008390176 L 142.61108059111658,-68.65162527740283 L 142.68615953945294,-68.7073076204201 L 142.75541913810247,-68.77008086155101 L 142.81819237926885,-68.83934046016802 L 142.8738747223248,-68.91441940847578 L 142.92192991586697,-68.99459465515892 L 142.96189516211263,-69.07909406876472 L 142.99338557389268,-69.16710387374714 L 143.01609788132757,-69.25777648757378 L 143.02981335248077,-69.35023868340681 L 143.0343998998734,-69.44359999987718 L 143.02981335252883,-69.53696131610529 L 143.01609788142335,-69.62942351194471 L 142.9933855740353,-69.72009612578269 L 142.9618951623004,-69.80810593078189 L 142.9219299160982,-69.8926053444085 L 142.87387472259724,-69.97278059111652 L 142.8181923795801,-70.04785953945276 L 142.755419138449,-70.11711913810245 L 142.68615953983203,-70.17989237926881 L 142.61108059152428,-70.23557472232474 L 142.53090534484076,-70.28362991586715 L 142.44640593123518,-70.32359516211267 L 142.35839612625276,-70.35508557389272 L 142.267723512426,-70.37779788132761 L 142.1752613165933,-70.39151335248074 L 142.08189999766773,-70.39609989999398 L 141.98690000257793,-70.39609990000001 L 141.8935386838949,-70.39151335252883 L 141.80107648805512,-70.37779788142332 L 141.7104038742166,-70.3550855740351 L 141.62239406898692,-70.3235951622177 z"/>
			<path fill-rule="evenodd" fill="#66cc99" stroke="#555555" stroke-width="0.02" opacity="0.6" d="M 141.0344001,-72.9360999 L 141.0344001,-71.03110010024571 L 143.03439989975445,-71.03110009999999 L 143.0343999,-72.93609989975428 L 141.0344001,-72.9360999 z"/>
			<path fill-rule="evenodd" fill="#66cc99" stroke="#555555" stroke-width="0.02" opacity="0.6" d="M 142.2223998998794,-62.5348 L 142.21710309971297,-62.64261884430391 L 142.20126371028272,-62.749399334442614 L 142.17503427355578,-62.85411311567774 L 142.13866739334588,-62.95575173705562 L 142.09251330258948,-63.05333636309046 L 142.03701649041193,-63.14592720048674 L 141.9727114214511,-63.23263254886685 L 141.90021738867398,-63.31261738832748 L 141.8202325492461,-63.38511142113984 L 141.73352720089477,-63.44941649013929 L 141.64093636352263,-63.5049133023585 L 141.54335173750886,-63.55106739315815 L 141.44171311614744,-63.58743427341332 L 141.33699933492335,-63.613663710187076 L 141.23021884479172,-63.629503099664916 L 141.12240000024516,-63.63479989986736 L 141.01458115569616,-63.62950309971297 L 140.90780066555774,-63.613663710282765 L 140.8030868843216,-63.587434273555616 L 140.70144826294387,-63.55106739334568 L 140.60386363690972,-63.50491330258961 L 140.51127279951316,-63.44941649041187 L 140.424567451133,-63.38511142145095 L 140.34458261167248,-63.31261738867396 L 140.27208857886023,-63.23263254924617 L 140.20778350986072,-63.145927200894796 L 140.15228669764159,-63.053336363522746 L 140.10613260684198,-62.955751737509196 L 140.06976572658684,-62.854113116147914 L 140.04353628981286,-62.74939933492308 L 140.0276969003351,-62.64261884479177 L 140.02240010013264,-62.5348000002453 L 140.02769690028703,-62.42698115569608 L 140.04353628971728,-62.32020066555738 L 140.06976572644422,-62.21548688432225 L 140.1061326066541,-62.11384826294437 L 140.15228669741052,-62.016263636909535 L 140.20778350958807,-61.923672799513255 L 140.2720885785489,-61.83696745113314 L 140.34458261132602,-61.75698261167251 L 140.4245674507539,-61.684488578860154 L 140.51127279910523,-61.6201835098607 L 140.60386363647737,-61.56468669764149 L 140.70144826249114,-61.518532606841845 L 140.80308688385256,-61.48216572658667 L 140.90780066507665,-61.45593628981292 L 141.01458115520828,-61.44009690033508 L 141.12239999975483,-61.434800100132634 L 141.23021884430383,-61.440096900287024 L 141.33699933444225,-61.45593628971722 L 141.4417131156784,-61.48216572644438 L 141.54335173705613,-61.51853260665431 L 141.64093636309028,-61.56468669741039 L 141.73352720048683,-61.620183509588124 L 141.820232548867,-61.68448857854904 L 141.90021738832752,-61.75698261132604 L 141.97271142113976,-61.83696745075382 L 142.03701649013925,-61.9236727991052 L 142.0925133023584,-62.01626363647725 L 142.13866739315802,-62.11384826249079 L 142.17503427341316,-62.21548688385207 L 142.20126371018713,-62.320200665076904 L 142.2171030996649,-62.42698115520822 L 142.2223998998794,-62.5348 z"/>
			<path fill-rule="evenodd" fill="#66cc99" stroke="#555555" stroke-width="0.02" opacity="0.6" d="M 137.159999,-62.82839989987941 L 137.09138701182798,-62.8250292090441 L 137.0234357943642,-62.81494959812148 L 136.9567997552234,-62.798258139262735 L 136.8921206358899,-62.775115580341165 L 136.83002133164013,-62.74574479685027 L 136.771099892721,-62.71042864549085 L 136.71592376479845,-62.66950724010586 L 136.66502432414708,-62.62337467619934 L 136.61889176020532,-62.57247523558072 L 136.57797035478174,-62.51729910768695 L 136.54265420338092,-62.458377668792345 L 136.51328341984652,-62.39627836456316 L 136.4901408608797,-62.33159924524613 L 136.47344940197414,-62.26496320611664 L 136.46336979100397,-62.197011988659945 L 136.45999910013265,-62.1284000002453 L 136.4633697909559,-62.059788011827905 L 136.47344940187855,-61.991836794363834 L 136.49014086073709,-61.92520075522404 L 136.51328341965865,-61.860521635890414 L 136.54265420314985,-61.798422331639934 L 136.5779703545091,-61.7395008927211 L 136.61889175989398,-61.684324764798596 L 136.66502432380062,-61.63342532414713 L 136.71592376441936,-61.58729276020525 L 136.77109989231306,-61.54637135478172 L 136.83002133120777,-61.511055203380835 L 136.89212063543718,-61.48168441984636 L 136.95679975475434,-61.458541860879556 L 137.0234357938831,-61.44185040197421 L 137.0913870113401,-61.431770791003956 L 137.15999899975483,-61.428400100132635 L 137.22861098817202,-61.4317707909559 L 137.2965622056358,-61.44185040187852 L 137.3631982447766,-61.45854186073726 L 137.4278773641101,-61.48168441965883 L 137.48997666835987,-61.51105520314973 L 137.54889810727897,-61.54637135450915 L 137.60407423520155,-61.58729275989414 L 137.65497367585291,-61.63342532380066 L 137.70110623979468,-61.68432476441928 L 137.74202764521826,-61.73950089231304 L 137.77734379661908,-61.798422331207654 L 137.80671458015348,-61.86052163543683 L 137.8298571391203,-61.92520075475386 L 137.84654859802586,-61.99183679388336 L 137.85662820899603,-62.059788011340046 L 137.85999889987337,-62.12839999987718 L 137.8566282090441,-62.19701198817209 L 137.84654859812144,-62.264963205636164 L 137.8298571392629,-62.33159924477596 L 137.80671458034135,-62.396278364109584 L 137.77734379685015,-62.458377668360065 L 137.7420276454909,-62.5172991072789 L 137.70110624010601,-62.572475235201395 L 137.65497367619938,-62.623374675852865 L 137.60407423558064,-62.66950723979475 L 137.54889810768694,-62.71042864521828 L 137.48997666879222,-62.745744796619164 L 137.42787736456282,-62.77511558015364 L 137.36319824524566,-62.79825813912044 L 137.2965622061169,-62.81494959802579 L 137.2286109886599,-62.82502920899604 L 137.159999,-62.82839989987941 z"/>
			<path fill-rule="evenodd" fill="#66cc99" stroke="#555555" stroke-width="0.02" opacity="0.6" d="M 132.77999989987939,-62.1284 L 132.77662920904407,-62.19701198817209 L 132.76654959812143,-62.264963205636164 L 132.7498581392629,-62.33159924477596 L 132.72671558034133,-62.396278364109584 L 132.69734479685013,-62.458377668360065 L 132.6620286454909,-62.5172991072789 L 132.621107240106,-62.572475235201395 L 132.57497467619936,-62.623374675852865 L 132.52407523558063,-62.66950723979475 L 132.46889910768692,-62.71042864521828 L 132.4099776687922,-62.745744796619164 L 132.3478783645628,-62.77511558015364 L 132.28319924524564,-62.79825813912044 L 132.2165632061169,-62.81494959802579 L 132.1486119886599,-62.82502920899604 L 132.08000000024515,-62.828399899867364 L 132.01138801182796,-62.8250292090441 L 131.94343679436417,-62.81494959812148 L 131.87680075522337,-62.798258139262735 L 131.8121216358899,-62.775115580341165 L 131.7500223316401,-62.74574479685027 L 131.69110089272098,-62.71042864549085 L 131.63592476479843,-62.66950724010586 L 131.58502532414707,-62.62337467619934 L 131.5388927602053,-62.57247523558072 L 131.49797135478173,-62.51729910768695 L 131.4626552033809,-62.458377668792345 L 131.4332844198465,-62.39627836456316 L 131.4101418608797,-62.33159924524613 L 131.39345040197412,-62.26496320611664 L 131.38337079100395,-62.197011988659945 L 131.38000010013263,-62.1284000002453 L 131.3833707909559,-62.059788011827905 L 131.39345040187854,-61.991836794363834 L 131.41014186073707,-61.92520075522404 L 131.43328441965863,-61.860521635890414 L 131.46265520314984,-61.798422331639934 L 131.49797135450908,-61.7395008927211 L 131.53889275989397,-61.684324764798596 L 131.5850253238006,-61.63342532414713 L 131.63592476441934,-61.58729276020525 L 131.69110089231305,-61.54637135478172 L 131.75002233120776,-61.511055203380835 L 131.81212163543717,-61.48168441984636 L 131.87680075475433,-61.458541860879556 L 131.94343679388308,-61.44185040197421 L 132.01138801134007,-61.431770791003956 L 132.07999999975482,-61.428400100132635 L 132.148611988172,-61.4317707909559 L 132.2165632056358,-61.44185040187852 L 132.2831992447766,-61.45854186073726 L 132.34787836411007,-61.48168441965883 L 132.40997766835986,-61.51105520314973 L 132.46889910727896,-61.54637135450915 L 132.52407523520154,-61.58729275989414 L 132.5749746758529,-61.63342532380066 L 132.62110723979467,-61.68432476441928 L 132.66202864521824,-61.73950089231304 L 132.69734479661906,-61.798422331207654 L 132.72671558015347,-61.86052163543683 L 132.74985813912028,-61.92520075475386 L 132.76654959802585,-61.99183679388336 L 132.776629208996,-62.059788011340046 L 132.77999989987939,-62.1284 z"/>
			<path fill-rule="evenodd" fill="#66cc99" stroke="#555555" stroke-width="0.02" opacity="0.6" d="M 127.52800009999999,-63.175199899999996 L 127.52800009999999,-60.67520010024556 L 130.0279998997545,-60.6752001 L 130.0279999,-63.17519989975428 L 127.52800009999999,-63.175199899999996 z"/>
			<path fill-rule="evenodd" fill="#66cc99" stroke="#555555" stroke-width="0.02" opacity="0.6" d="M 123.56560009999998,-63.175199899999996 L 123.56560009999998,-60.67520010024556 L 126.06559989975446,-60.6752001 L 126.0655999,-63.17519989975443 L 123.56560009999998,-63.175199899999996 z"/>
			<path fill-rule="evenodd" fill="#66cc99" stroke="#555555" stroke-width="0.02" opacity="0.6" d="M 125.3744,-71.1935998998794 L 125.20287001448207,-71.18517317204991 L 125.03299195624714,-71.15997414254485 L 124.86640184410622,-71.11824549178156 L 124.7047040319067,-71.0603890894781 L 124.54945575797286,-70.98696212441607 L 124.40215214805012,-70.89867173840834 L 124.26421181642662,-70.79636821613676 L 124.13696320390127,-70.68103679644527 L 124.02163178417436,-70.55378818395248 L 123.91932826186392,-70.41584785235733 L 123.83103787581496,-70.26854424245936 L 123.75761091070959,-70.11329596854632 L 123.69975450836075,-69.95159815636289 L 123.65802585755081,-69.7850080442338 L 123.63282682799817,-69.61512998600608 L 123.62440010013263,-69.44360000024501 L 123.63282682795008,-69.27207001448208 L 123.65802585745514,-69.10219195624715 L 123.69975450821843,-68.93560184410623 L 123.75761091052192,-68.77390403190671 L 123.83103787558393,-68.61865575797287 L 123.91932826159166,-68.47135214805013 L 124.02163178386326,-68.33341181642663 L 124.13696320355473,-68.20616320390128 L 124.26421181604753,-68.09083178417437 L 124.40215214764267,-67.98852826186393 L 124.54945575754064,-67.90023787581497 L 124.70470403145367,-67.8268109107096 L 124.86640184363709,-67.76895450836076 L 125.03299195576618,-67.72722585755082 L 125.20287001399392,-67.70202682799818 L 125.37439999975498,-67.69360010013264 L 125.5459299855179,-67.70202682795009 L 125.71580804375284,-67.72722585745515 L 125.88239815589377,-67.76895450821844 L 126.04409596809329,-67.82681091052191 L 126.19934424202711,-67.90023787558394 L 126.34664785194985,-67.98852826159167 L 126.48458818357336,-68.09083178386325 L 126.61183679609871,-68.20616320355472 L 126.72716821582563,-68.33341181604753 L 126.82947173813605,-68.47135214764268 L 126.91776212418503,-68.61865575754064 L 126.9911890892904,-68.77390403145368 L 127.04904549163923,-68.9356018436371 L 127.09077414244918,-69.10219195576619 L 127.11597317200182,-69.27207001399391 L 127.12439989987337,-69.4435999998773 L 127.1159731720499,-69.61512998551792 L 127.09077414254484,-69.78500804375285 L 127.04904549178156,-69.95159815589378 L 126.99118908947807,-70.1132959680933 L 126.91776212441606,-70.26854424202713 L 126.82947173840833,-70.41584785194988 L 126.72716821613673,-70.55378818357337 L 126.61183679644526,-70.68103679609872 L 126.48458818395247,-70.79636821582564 L 126.34664785235732,-70.89867173813607 L 126.19934424245935,-70.98696212418504 L 126.04409596854632,-71.06038908929041 L 125.88239815636288,-71.11824549163924 L 125.7158080442338,-71.15997414244919 L 125.54592998600607,-71.18517317200183 L 125.3744,-71.1935998998794 z"/>
			<path fill-rule="evenodd" fill="#66cc99" stroke="#555555" stroke-width="0.02" opacity="0.6" d="M 141.62239406898692,-67.78359616221769 L 141.5378946555916,-67.74363091609824 L 141.45771940888343,-67.69557572259716 L 141.38264046054707,-67.6398933795799 L 141.31338086189754,-67.57712013844899 L 141.25060762073116,-67.50786053983198 L 141.1949252776752,-67.43278159152422 L 141.14687008413304,-67.35260634484106 L 141.10690483788738,-67.26810693123528 L 141.07541442610733,-67.18009712625285 L 141.05270211867244,-67.0894245124262 L 141.03898664751924,-66.99696231659317 L 141.03440010013264,-66.90360100024529 L 141.03898664747118,-66.81023968389471 L 141.05270211857666,-66.71777748805529 L 141.0754144259647,-66.62710487421731 L 141.1069048376996,-66.5390950692181 L 141.1468700839018,-66.4545956555915 L 141.19492527740277,-66.37442040888348 L 141.2506076204199,-66.29934146054724 L 141.313380861551,-66.23008186189755 L 141.38264046016798,-66.16730862073119 L 141.45771940847573,-66.11162627767526 L 141.53789465515925,-66.06357108413285 L 141.62239406876483,-66.02360583788733 L 141.71040387374725,-65.99211542610728 L 141.80107648757402,-65.96940311867239 L 141.89353868340672,-65.95568764751926 L 141.98690000233228,-65.95110110000601 L 142.08189999742208,-65.95110109999999 L 142.17526131610512,-65.95568764747117 L 142.2677235119449,-65.96940311857668 L 142.3583961257834,-65.9921154259649 L 142.44640593078213,-66.02360583769966 L 142.53090534440838,-66.06357108390175 L 142.61108059111658,-66.11162627740282 L 142.68615953945294,-66.16730862042009 L 142.75541913810247,-66.23008186155099 L 142.81819237926885,-66.29934146016801 L 142.8738747223248,-66.37442040847577 L 142.92192991586697,-66.45459565515891 L 142.96189516211263,-66.53909506876471 L 142.99338557389268,-66.62710487374713 L 143.01609788132757,-66.71777748757377 L 143.02981335248077,-66.8102396834068 L 143.0343998998734,-66.90360099987717 L 143.02981335252883,-66.99696231610528 L 143.01609788142335,-67.0894245119447 L 142.9933855740353,-67.18009712578268 L 142.9618951623004,-67.26810693078188 L 142.9219299160982,-67.35260634440849 L 142.87387472259724,-67.43278159111651 L 142.8181923795801,-67.50786053945275 L 142.755419138449,-67.57712013810244 L 142.68615953983203,-67.6398933792688 L 142.61108059152428,-67.69557572232473 L 142.53090534484076,-67.74363091586714 L 142.44640593123518,-67.78359616211266 L 142.35839612625276,-67.81508657389271 L 142.267723512426,-67.8377988813276 L 142.1752613165933,-67.85151435248073 L 142.08189999766773,-67.85610089999398 L 141.98690000257793,-67.8561009 L 141.8935386838949,-67.85151435252882 L 141.80107648805512,-67.83779888142331 L 141.7104038742166,-67.81508657403509 L 141.62239406898692,-67.78359616221769 z"/>
		</g>
	</g>
	 
</svg>
