<?xml version="1.0" ?>
<svg xmlns="http://www.w3.org/2000/svg" xmlns:xlink="http://www.w3.org/1999/xlink" version="1.1" width="11.854399799867366mm" height="11.707699799867363mm" viewBox="131.28000010013264 -84.74379969986737 11.854399799867366 11.707699799867363">
	<g transform="scale(1,-1)">
		<path fill-rule="evenodd" fill="#66cc99" stroke="#555555" stroke-width="0.02" opacity="0.6" d="M 143.1343999,-73.0360999 L 131.28000010013264,-73.0360999 L 131.28000010013264,-61.32840010013263 L 143.1343999,-61.32840010013263 L 143.1343999,-73.0360999 z M 141.0344001,-72.9360999 L 143.0343999,-72.93609989975428 L 143.03439989975445,-71.03110009999999 L 141.0344001,-71.03110010024571 L 141.0344001,-72.9360999 z M 131.90896154040396,-62.80631401271334 L 138.97072376220046,-69.86807623450133 L 139.0143736800229,-69.90763821391512 L 139.0616911615757,-69.94273124992705 L 139.11222051555683,-69.97301737914913 L 139.16547511666562,-69.99820492960112 L 139.22094209398117,-70.01805133140309 L 139.278087270191,-70.03236545285668 L 139.33636030600903,-70.04100944114728 L 139.39520000257792,-70.04390005007505 L 141.24767100759064,-70.04390005007505 L 141.24767101225171,-70.04390005018374 L 141.24767101318304,-70.0439000502272 L 141.24767102246602,-70.04390005109546 L 141.24767102338922,-70.04390005122546 L 141.2476710325508,-70.04390005295447 L 141.24767103345792,-70.04390005316989 L 141.24767104241917,-70.0439000557448 L 141.24767104330226,-70.04390005604377 L 141.24767105198336,-70.04390005944148 L 141.24767105283476,-70.04390005982138 L 141.24767106116425,-70.04390006401415 L 141.24767106197658,-70.04390006447171 L 141.24767106987522,-70.04390006941935 L 141.24767107064142,-70.04390006995055 L 141.2476710780488,-70.04390007561514 L 141.24767107876218,-70.04390007621541 L 141.24767108560795,-70.04390008254359 L 141.24767108626233,-70.04390008320767 L 141.24767109248904,-70.04390009014587 L 141.24767109307874,-70.04390009086801 L 141.24767109594347,-70.04390009454812 L 141.25060762073116,-70.04785953983199 L 141.31338086189754,-70.117119138449 L 141.38264046054707,-70.17989237957991 L 141.45771940888343,-70.23557472259716 L 141.5378946555916,-70.28362991609825 L 141.62239406921788,-70.32359516230034 L 141.7104038742166,-70.3550855740351 L 141.80107648805512,-70.37779788142332 L 141.8935386838949,-70.39151335252883 L 141.98690000257793,-70.39609990000001 L 142.08189999766773,-70.39609989999398 L 142.1752613165933,-70.39151335248074 L 142.267723512426,-70.37779788132761 L 142.35839612625276,-70.35508557389272 L 142.44640593123518,-70.32359516211267 L 142.53090534484076,-70.28362991586715 L 142.61108059152428,-70.23557472232474 L 142.68615953983203,-70.17989237926881 L 142.755419138449,-70.11711913810245 L 142.8181923795801,-70.04785953945276 L 142.87387472259724,-69.97278059111652 L 142.9219299160982,-69.8926053444085 L 142.9618951623004,-69.80810593078189 L 142.9933855740353,-69.72009612578269 L 143.01609788142335,-69.62942351194471 L 143.02981335252883,-69.53696131610529 L 143.0343998998734,-69.44359999987718 L 143.02981335248077,-69.35023868340681 L 143.01609788132757,-69.25777648757378 L 142.99338557389268,-69.16710387374714 L 142.96189516211263,-69.07909406876472 L 142.92192991586697,-68.99459465515892 L 142.8738747223248,-68.91441940847578 L 142.81819237926885,-68.83934046016802 L 142.75541913810247,-68.77008086155101 L 142.68615953945294,-68.7073076204201 L 142.61108059111658,-68.65162527740283 L 142.53090534440838,-68.60357008390176 L 142.44640593078213,-68.56360483769967 L 142.3583961257834,-68.5321144259649 L 142.2677235119449,-68.50940211857669 L 142.17526131610512,-68.49568664747117 L 142.08189999742208,-68.4911001 L 141.98690000233228,-68.49110010000602 L 141.89353868340672,-68.49568664751926 L 141.80107648757402,-68.5094021186724 L 141.71040387374725,-68.53211442610728 L 141.62239406876483,-68.56360483788734 L 141.53789465515925,-68.60357008413285 L 141.45771940847573,-68.65162527767527 L 141.38264046016798,-68.7073076207312 L 141.313380861551,-68.77008086189755 L 141.2506076204199,-68.83934046054725 L 141.24767109594347,-68.84329990545189 L 141.24767109307874,-68.843299909132 L 141.24767109248904,-68.84329990985414 L 141.24767108626233,-68.84329991679233 L 141.24767108560795,-68.84329991745642 L 141.24767107876218,-68.8432999237846 L 141.2476710780488,-68.84329992438487 L 141.24767107064142,-68.84329993004945 L 141.24767106987522,-68.84329993058066 L 141.24767106197658,-68.8432999355283 L 141.24767106116425,-68.84329993598585 L 141.24767105283476,-68.84329994017862 L 141.24767105198336,-68.84329994055852 L 141.24767104330226,-68.84329994395624 L 141.24767104241917,-68.84329994425521 L 141.24767103345792,-68.84329994683011 L 141.2476710325508,-68.84329994704554 L 141.24767102338922,-68.84329994877454 L 141.24767102246602,-68.84329994890454 L 141.24767101318304,-68.84329994977281 L 141.24767101225171,-68.84329994981627 L 141.24767100759064,-68.84329994992495 L 139.6438524677978,-68.84329994992495 L 139.64385246289174,-68.84329994980455 L 139.64385246191156,-68.8432999497564 L 139.64385245214393,-68.84329994879437 L 139.64385245117322,-68.84329994865037 L 139.64385244154974,-68.84329994673615 L 139.64385244059778,-68.84329994649771 L 139.64385243120537,-68.84329994364856 L 139.64385243028138,-68.84329994331794 L 139.64385242121583,-68.84329993956285 L 139.6438524203287,-68.84329993914328 L 139.6438524116739,-68.84329993451723 L 139.64385241083215,-68.84329993401272 L 139.6438524026716,-68.84329992856 L 139.64385240188338,-68.84329992797541 L 139.64385239429797,-68.84329992175017 L 139.64385239357082,-68.84329992109113 L 139.64385239001606,-68.84329991770672 L 132.75791401271331,-61.95736154040396 L 132.75791400900033,-61.957361536484875 L 132.75791400827939,-61.95736153568155 L 132.75791400151408,-61.95736152727103 L 132.75791400088391,-61.95736152639468 L 132.7579139950638,-61.95736151730275 L 132.75791399453178,-61.95736151636358 L 132.7579139897269,-61.957361506700124 L 132.75791398929917,-61.95736150570909 L 132.7579139855622,-61.957361495579484 L 132.75791398524382,-61.95736149454811 L 132.75791398379164,-61.957361489350035 L 132.74985813912028,-61.92520075475386 L 132.72671558015347,-61.86052163543683 L 132.69734479661906,-61.798422331207654 L 132.66202864521824,-61.73950089231304 L 132.62110723979467,-61.68432476441928 L 132.5749746758529,-61.63342532380066 L 132.52407523520154,-61.58729275989414 L 132.46889910727896,-61.54637135450915 L 132.40997766835986,-61.51105520314973 L 132.34787836411007,-61.48168441965883 L 132.2831992447766,-61.45854186073726 L 132.2165632056358,-61.44185040187852 L 132.148611988172,-61.4317707909559 L 132.07999999975482,-61.428400100132635 L 132.01138801134007,-61.431770791003956 L 131.94343679388308,-61.44185040197421 L 131.87680075475433,-61.458541860879556 L 131.81212163543717,-61.48168441984636 L 131.75002233120776,-61.511055203380835 L 131.69110089231305,-61.54637135478172 L 131.63592476441934,-61.58729276020525 L 131.5850253238006,-61.63342532414713 L 131.53889275989397,-61.684324764798596 L 131.49797135450908,-61.7395008927211 L 131.46265520314984,-61.798422331639934 L 131.43328441965863,-61.860521635890414 L 131.41014186073707,-61.92520075522404 L 131.39345040187854,-61.991836794363834 L 131.3833707909559,-62.059788011827905 L 131.38000010013263,-62.1284000002453 L 131.38337079100395,-62.197011988659945 L 131.39345040197412,-62.26496320611664 L 131.4101418608797,-62.33159924524613 L 131.4332844198465,-62.39627836456316 L 131.4626552033809,-62.458377668792345 L 131.49797135478173,-62.51729910768695 L 131.5388927602053,-62.57247523558072 L 131.58502532414707,-62.62337467619934 L 131.63592476479843,-62.66950724010586 L 131.69110089272098,-62.71042864549085 L 131.7500223316401,-62.74574479685027 L 131.8121216358899,-62.775115580341165 L 131.87680075522337,-62.798258139262735 L 131.90896148935005,-62.80631398379164 L 131.9089614936894,-62.80631398498297 L 131.90896149455133,-62.8063139852406 L 131.90896150304553,-62.80631398820173 L 131.90896150388085,-62.80631398853578 L 131.9089615120749,-62.80631399224843 L 131.90896151287683,-62.80631399265619 L 131.9089615207052,-62.80631399709089 L 131.9089615214672,-62.80631399756908 L 131.90896152886376,-62.80631400268828 L 131.90896152957973,-62.80631400323302 L 131.9089615364881,-62.80631400899781 L 131.9089615371522,-62.80631400960469 L 131.90896154040396,-62.80631401271334 z M 141.62239406898692,-67.78359616221769 L 141.7104038742166,-67.81508657403509 L 141.80107648805512,-67.83779888142331 L 141.8935386838949,-67.85151435252882 L 141.98690000257793,-67.8561009 L 142.08189999766773,-67.85610089999398 L 142.1752613165933,-67.85151435248073 L 142.267723512426,-67.8377988813276 L 142.35839612625276,-67.81508657389271 L 142.44640593123518,-67.78359616211266 L 142.53090534484076,-67.74363091586714 L 142.61108059152428,-67.69557572232473 L 142.68615953983203,-67.6398933792688 L 142.755419138449,-67.57712013810244 L 142.8181923795801,-67.50786053945275 L 142.87387472259724,-67.43278159111651 L 142.9219299160982,-67.35260634440849 L 142.9618951623004,-67.26810693078188 L 142.9933855740353,-67.18009712578268 L 143.01609788142335,-67.0894245119447 L 143.02981335252883,-66.99696231610528 L 143.0343998998734,-66.90360099987717 L 143.02981335248077,-66.8102396834068 L 143.01609788132757,-66.71777748757377 L 142.99338557389268,-66.62710487374713 L 142.96189516211263,-66.53909506876471 L 142.92192991586697,-66.45459565515891 L 142.8738747223248,-66.37442040847577 L 142.81819237926885,-66.29934146016801 L 142.75541913810247,-66.23008186155099 L 142.68615953945294,-66.16730862042009 L 142.61108059111658,-66.11162627740282 L 142.53090534440838,-66.06357108390175 L 142.44640593078213,-66.02360583769966 L 142.3583961257834,-65.9921154259649 L 142.2677235119449,-65.96940311857668 L 142.17526131610512,-65.95568764747117 L 142.08189999742208,-65.95110109999999 L 141.98690000233228,-65.95110110000601 L 141.89353868340672,-65.95568764751926 L 141.80107648757402,-65.96940311867239 L 141.71040387374725,-65.99211542610728 L 141.62239406876483,-66.02360583788733 L 141.53789465515925,-66.06357108413285 L 141.45771940847573,-66.11162627767526 L 141.38264046016798,-66.16730862073119 L 141.313380861551,-66.23008186189755 L 141.2506076204199,-66.29934146054724 L 141.19492527740277,-66.37442040888348 L 141.1468700839018,-66.4545956555915 L 141.1069048376996,-66.5390950692181 L 141.0754144259647,-66.62710487421731 L 141.05270211857666,-66.71777748805529 L 141.03898664747118,-66.81023968389471 L 141.03440010013264,-66.90360100024529 L 141.03898664751924,-66.99696231659317 L 141.05270211867244,-67.0894245124262 L 141.07541442610733,-67.18009712625285 L 141.10690483788738,-67.26810693123528 L 141.14687008413304,-67.35260634484106 L 141.1949252776752,-67.43278159152422 L 141.25060762073116,-67.50786053983198 L 141.31338086189754,-67.57712013844899 L 141.38264046054707,-67.6398933795799 L 141.45771940888343,-67.69557572259716 L 141.5378946555916,-67.74363091609824 L 141.62239406898692,-67.78359616221769 z M 137.159999,-62.82839989987941 L 137.2286109886599,-62.82502920899604 L 137.2965622061169,-62.81494959802579 L 137.36319824524566,-62.79825813912044 L 137.42787736456282,-62.77511558015364 L 137.48997666879222,-62.745744796619164 L 137.54889810768694,-62.71042864521828 L 137.60407423558064,-62.66950723979475 L 137.65497367619938,-62.623374675852865 L 137.70110624010601,-62.572475235201395 L 137.7420276454909,-62.5172991072789 L 137.77734379685015,-62.458377668360065 L 137.80671458034135,-62.396278364109584 L 137.8298571392629,-62.33159924477596 L 137.84654859812144,-62.264963205636164 L 137.8566282090441,-62.19701198817209 L 137.85999889987337,-62.12839999987718 L 137.85662820899603,-62.059788011340046 L 137.84654859802586,-61.99183679388336 L 137.8298571391203,-61.92520075475386 L 137.80671458015348,-61.86052163543683 L 137.77734379661908,-61.798422331207654 L 137.74202764521826,-61.73950089231304 L 137.70110623979468,-61.68432476441928 L 137.65497367585291,-61.63342532380066 L 137.60407423520155,-61.58729275989414 L 137.54889810727897,-61.54637135450915 L 137.48997666835987,-61.51105520314973 L 137.4278773641101,-61.48168441965883 L 137.3631982447766,-61.45854186073726 L 137.2965622056358,-61.44185040187852 L 137.22861098817202,-61.4317707909559 L 137.15999899975483,-61.428400100132635 L 137.0913870113401,-61.431770791003956 L 137.0234357938831,-61.44185040197421 L 136.95679975475434,-61.458541860879556 L 136.89212063543718,-61.48168441984636 L 136.83002133120777,-61.511055203380835 L 136.77109989231306,-61.54637135478172 L 136.71592376441936,-61.58729276020525 L 136.66502432380062,-61.63342532414713 L 136.61889175989398,-61.684324764798596 L 136.5779703545091,-61.7395008927211 L 136.54265420314985,-61.798422331639934 L 136.51328341965865,-61.860521635890414 L 136.49014086073709,-61.92520075522404 L 136.47344940187855,-61.991836794363834 L 136.4633697909559,-62.059788011827905 L 136.45999910013265,-62.1284000002453 L 136.46336979100397,-62.197011988659945 L 136.47344940197414,-62.26496320611664 L 136.4901408608797,-62.33159924524613 L 136.51328341984652,-62.39627836456316 L 136.54265420338092,-62.458377668792345 L 136.57797035478174,-62.51729910768695 L 136.61889176020532,-62.57247523558072 L 136.66502432414708,-62.62337467619934 L 136.71592376479845,-62.66950724010586 L 136.771099892721,-62.71042864549085 L 136.83002133164013,-62.74574479685027 L 136.8921206358899,-62.775115580341165 L 136.9567997552234,-62.798258139262735 L 137.0234357943642,-62.81494959812148 L 137.09138701182798,-62.8250292090441 L 137.159999,-62.82839989987941 z"/>
	</g>
	 
</svg>
