<?xml version="1.0" ?>
<svg xmlns="http://www.w3.org/2000/svg" xmlns:xlink="http://www.w3.org/1999/xlink" version="1.1" width="10.853999999999985mm" height="10.755999999999993mm" viewBox="131.73000000000002 -83.28999999999999 10.853999999999985 10.755999999999993">
	<g transform="scale(1,-1)">
		<g>
			<path fill-rule="evenodd" fill="#66cc99" stroke="#555555" stroke-width="0.02" opacity="0.6" d="M 142.584,-71.984 L 142.5813515996697,-72.03790942718125 L 142.57343190422176,-72.09129967710886 L 142.56031718465272,-72.14365657248995 L 142.5421337428812,-72.19447588780079 L 142.51905669539158,-72.2432682052543 L 142.49130828676638,-72.28956362816078 L 142.4591557493495,-72.33291630629 L 142.4229087296526,-72.3729087296526 L 142.38291630628999,-72.4091557493495 L 142.33956362816076,-72.4413082867664 L 142.2932682052543,-72.46905669539159 L 142.2444758878008,-72.49213374288121 L 142.19365657248994,-72.5103171846527 L 142.14129967710886,-72.52343190422177 L 142.08790942718124,-72.5313515996697 L 142.034,-72.53399999999999 L 141.98009057281874,-72.5313515996697 L 141.92670032289112,-72.52343190422177 L 141.87434342751004,-72.5103171846527 L 141.82352411219918,-72.49213374288121 L 141.7747317947457,-72.46905669539159 L 141.72843637183922,-72.4413082867664 L 141.68508369371,-72.4091557493495 L 141.6450912703474,-72.3729087296526 L 141.6088442506505,-72.33291630629 L 141.5766917132336,-72.28956362816078 L 141.5489433046084,-72.2432682052543 L 141.5258662571188,-72.19447588780079 L 141.50768281534727,-72.14365657248995 L 141.49456809577822,-72.09129967710886 L 141.4866484003303,-72.03790942718125 L 141.48399999999998,-71.984 L 141.4866484003303,-71.93009057281874 L 141.49456809577822,-71.87670032289112 L 141.50768281534727,-71.82434342751004 L 141.5258662571188,-71.7735241121992 L 141.5489433046084,-71.7247317947457 L 141.5766917132336,-71.67843637183921 L 141.6088442506505,-71.63508369370999 L 141.6450912703474,-71.5950912703474 L 141.68508369371,-71.5588442506505 L 141.72843637183922,-71.52669171323359 L 141.7747317947457,-71.4989433046084 L 141.82352411219918,-71.47586625711878 L 141.87434342751004,-71.45768281534728 L 141.92670032289112,-71.44456809577822 L 141.98009057281874,-71.43664840033028 L 142.034,-71.434 L 142.08790942718124,-71.43664840033028 L 142.14129967710886,-71.44456809577822 L 142.19365657248994,-71.45768281534728 L 142.2444758878008,-71.47586625711878 L 142.2932682052543,-71.4989433046084 L 142.33956362816076,-71.52669171323359 L 142.38291630628999,-71.55884425065048 L 142.4229087296526,-71.5950912703474 L 142.4591557493495,-71.63508369370999 L 142.49130828676638,-71.67843637183921 L 142.51905669539158,-71.7247317947457 L 142.5421337428812,-71.7735241121992 L 142.56031718465272,-71.82434342751003 L 142.57343190422176,-71.87670032289112 L 142.5813515996697,-71.93009057281873 L 142.584,-71.984 z"/>
			<path fill-rule="evenodd" fill="#66cc99" stroke="#555555" stroke-width="0.02" opacity="0.6" d="M 142.584,-69.444 L 142.5813515996697,-69.49790942718126 L 142.57343190422176,-69.55129967710887 L 142.56031718465272,-69.60365657248995 L 142.5421337428812,-69.6544758878008 L 142.51905669539158,-69.7032682052543 L 142.49130828676638,-69.74956362816079 L 142.4591557493495,-69.79291630629001 L 142.4229087296526,-69.8329087296526 L 142.38291630628999,-69.8691557493495 L 142.33956362816076,-69.90130828676641 L 142.2932682052543,-69.9290566953916 L 142.2444758878008,-69.95213374288122 L 142.19365657248994,-69.97031718465271 L 142.14129967710886,-69.98343190422177 L 142.08790942718124,-69.99135159966971 L 142.034,-69.994 L 141.98009057281874,-69.99135159966971 L 141.92670032289112,-69.98343190422177 L 141.87434342751004,-69.97031718465271 L 141.82352411219918,-69.95213374288122 L 141.7747317947457,-69.9290566953916 L 141.72843637183922,-69.90130828676641 L 141.68508369371,-69.8691557493495 L 141.6450912703474,-69.8329087296526 L 141.6088442506505,-69.79291630629001 L 141.5766917132336,-69.74956362816079 L 141.5489433046084,-69.7032682052543 L 141.5258662571188,-69.6544758878008 L 141.50768281534727,-69.60365657248995 L 141.49456809577822,-69.55129967710887 L 141.4866484003303,-69.49790942718126 L 141.48399999999998,-69.444 L 141.4866484003303,-69.39009057281875 L 141.49456809577822,-69.33670032289113 L 141.50768281534727,-69.28434342751005 L 141.5258662571188,-69.2335241121992 L 141.5489433046084,-69.1847317947457 L 141.5766917132336,-69.13843637183922 L 141.6088442506505,-69.09508369371 L 141.6450912703474,-69.0550912703474 L 141.68508369371,-69.0188442506505 L 141.72843637183922,-68.9866917132336 L 141.7747317947457,-68.95894330460841 L 141.82352411219918,-68.93586625711879 L 141.87434342751004,-68.91768281534729 L 141.92670032289112,-68.90456809577823 L 141.98009057281874,-68.89664840033029 L 142.034,-68.894 L 142.08790942718124,-68.89664840033029 L 142.14129967710886,-68.90456809577823 L 142.19365657248994,-68.91768281534729 L 142.2444758878008,-68.93586625711879 L 142.2932682052543,-68.95894330460841 L 142.33956362816076,-68.9866917132336 L 142.38291630628999,-69.01884425065049 L 142.4229087296526,-69.0550912703474 L 142.4591557493495,-69.09508369371 L 142.49130828676638,-69.13843637183922 L 142.51905669539158,-69.1847317947457 L 142.5421337428812,-69.2335241121992 L 142.56031718465272,-69.28434342751004 L 142.57343190422176,-69.33670032289113 L 142.5813515996697,-69.39009057281874 L 142.584,-69.444 z"/>
			<path fill-rule="evenodd" fill="#66cc99" stroke="#555555" stroke-width="0.02" opacity="0.6" d="M 142.584,-66.904 L 142.5813515996697,-66.95790942718125 L 142.57343190422176,-67.01129967710887 L 142.56031718465272,-67.06365657248995 L 142.5421337428812,-67.1144758878008 L 142.51905669539158,-67.1632682052543 L 142.49130828676638,-67.20956362816078 L 142.4591557493495,-67.25291630629 L 142.4229087296526,-67.2929087296526 L 142.38291630628999,-67.3291557493495 L 142.33956362816076,-67.3613082867664 L 142.2932682052543,-67.38905669539159 L 142.2444758878008,-67.41213374288121 L 142.19365657248994,-67.43031718465271 L 142.14129967710886,-67.44343190422177 L 142.08790942718124,-67.4513515996697 L 142.034,-67.454 L 141.98009057281874,-67.4513515996697 L 141.92670032289112,-67.44343190422177 L 141.87434342751004,-67.43031718465271 L 141.82352411219918,-67.41213374288121 L 141.7747317947457,-67.38905669539159 L 141.72843637183922,-67.3613082867664 L 141.68508369371,-67.3291557493495 L 141.6450912703474,-67.2929087296526 L 141.6088442506505,-67.25291630629 L 141.5766917132336,-67.20956362816078 L 141.5489433046084,-67.1632682052543 L 141.5258662571188,-67.1144758878008 L 141.50768281534727,-67.06365657248995 L 141.49456809577822,-67.01129967710887 L 141.4866484003303,-66.95790942718125 L 141.48399999999998,-66.904 L 141.4866484003303,-66.85009057281874 L 141.49456809577822,-66.79670032289113 L 141.50768281534727,-66.74434342751005 L 141.5258662571188,-66.6935241121992 L 141.5489433046084,-66.6447317947457 L 141.5766917132336,-66.59843637183921 L 141.6088442506505,-66.55508369370999 L 141.6450912703474,-66.5150912703474 L 141.68508369371,-66.4788442506505 L 141.72843637183922,-66.44669171323359 L 141.7747317947457,-66.4189433046084 L 141.82352411219918,-66.39586625711878 L 141.87434342751004,-66.37768281534728 L 141.92670032289112,-66.36456809577822 L 141.98009057281874,-66.35664840033029 L 142.034,-66.354 L 142.08790942718124,-66.35664840033029 L 142.14129967710886,-66.36456809577822 L 142.19365657248994,-66.37768281534728 L 142.2444758878008,-66.39586625711878 L 142.2932682052543,-66.4189433046084 L 142.33956362816076,-66.44669171323359 L 142.38291630628999,-66.47884425065048 L 142.4229087296526,-66.5150912703474 L 142.4591557493495,-66.55508369370999 L 142.49130828676638,-66.59843637183921 L 142.51905669539158,-66.6447317947457 L 142.5421337428812,-66.6935241121992 L 142.56031718465272,-66.74434342751003 L 142.57343190422176,-66.79670032289113 L 142.5813515996697,-66.85009057281873 L 142.584,-66.904 z"/>
			<path fill-rule="evenodd" fill="#66cc99" stroke="#555555" stroke-width="0.02" opacity="0.6" d="M 132.43,-62.128 L 132.42831465433528,-62.16230599911535 L 132.42327484814115,-62.19628161270565 L 132.4149291175063,-62.229599637039065 L 132.40335783637897,-62.261939201327785 L 132.38867244252194,-62.2929888578891 L 132.3710143643059,-62.32244958155686 L 132.35055365867697,-62.35003764945728 L 132.3274873734153,-62.37548737341529 L 132.30203764945728,-62.39855365867696 L 132.27444958155687,-62.41901436430589 L 132.24498885788913,-62.436672442521925 L 132.2139392013278,-62.45135783637895 L 132.18159963703908,-62.46292911750627 L 132.14828161270566,-62.47127484814113 L 132.11430599911537,-62.47631465433527 L 132.08,-62.478 L 132.04569400088468,-62.47631465433527 L 132.01171838729437,-62.47127484814113 L 131.97840036296094,-62.46292911750627 L 131.94606079867222,-62.45135783637895 L 131.91501114211093,-62.436672442521925 L 131.88555041844316,-62.419014364305895 L 131.85796235054275,-62.39855365867696 L 131.83251262658473,-62.37548737341529 L 131.80944634132305,-62.35003764945728 L 131.78898563569413,-62.32244958155686 L 131.7713275574781,-62.2929888578891 L 131.75664216362105,-62.261939201327785 L 131.74507088249374,-62.229599637039065 L 131.73672515185888,-62.19628161270565 L 131.73168534566474,-62.16230599911535 L 131.73000000000002,-62.128 L 131.73168534566474,-62.09369400088465 L 131.73672515185888,-62.05971838729435 L 131.74507088249374,-62.02640036296094 L 131.75664216362105,-61.994060798672216 L 131.7713275574781,-61.9630111421109 L 131.78898563569413,-61.93355041844314 L 131.80944634132305,-61.90596235054272 L 131.83251262658473,-61.88051262658471 L 131.85796235054275,-61.85744634132304 L 131.88555041844316,-61.83698563569411 L 131.9150111421109,-61.819327557478076 L 131.94606079867222,-61.80464216362105 L 131.97840036296094,-61.79307088249373 L 132.01171838729437,-61.78472515185887 L 132.04569400088465,-61.77968534566473 L 132.08,-61.778 L 132.11430599911535,-61.77968534566473 L 132.14828161270566,-61.78472515185887 L 132.18159963703908,-61.79307088249373 L 132.2139392013278,-61.80464216362105 L 132.2449888578891,-61.819327557478076 L 132.27444958155687,-61.836985635694106 L 132.30203764945728,-61.85744634132304 L 132.3274873734153,-61.880512626584704 L 132.35055365867697,-61.90596235054272 L 132.3710143643059,-61.93355041844314 L 132.38867244252194,-61.9630111421109 L 132.40335783637897,-61.994060798672216 L 132.4149291175063,-62.026400362960935 L 132.42327484814115,-62.05971838729435 L 132.42831465433528,-62.09369400088465 L 132.43,-62.128 z"/>
			<path fill-rule="evenodd" fill="#66cc99" stroke="#555555" stroke-width="0.02" opacity="0.6" d="M 137.51,-62.128 L 137.50831465433527,-62.16230599911535 L 137.50327484814113,-62.19628161270565 L 137.49492911750627,-62.229599637039065 L 137.48335783637896,-62.261939201327785 L 137.46867244252192,-62.2929888578891 L 137.45101436430588,-62.32244958155686 L 137.43055365867696,-62.35003764945728 L 137.40748737341528,-62.37548737341529 L 137.38203764945726,-62.39855365867696 L 137.35444958155685,-62.41901436430589 L 137.3249888578891,-62.436672442521925 L 137.2939392013278,-62.45135783637895 L 137.26159963703907,-62.46292911750627 L 137.22828161270564,-62.47127484814113 L 137.19430599911536,-62.47631465433527 L 137.16,-62.478 L 137.12569400088466,-62.47631465433527 L 137.09171838729435,-62.47127484814113 L 137.05840036296092,-62.46292911750627 L 137.0260607986722,-62.45135783637895 L 136.9950111421109,-62.436672442521925 L 136.96555041844314,-62.419014364305895 L 136.93796235054273,-62.39855365867696 L 136.91251262658471,-62.37548737341529 L 136.88944634132304,-62.35003764945728 L 136.86898563569412,-62.32244958155686 L 136.85132755747807,-62.2929888578891 L 136.83664216362104,-62.261939201327785 L 136.82507088249372,-62.229599637039065 L 136.81672515185886,-62.19628161270565 L 136.81168534566473,-62.16230599911535 L 136.81,-62.128 L 136.81168534566473,-62.09369400088465 L 136.81672515185886,-62.05971838729435 L 136.82507088249372,-62.02640036296094 L 136.83664216362104,-61.994060798672216 L 136.85132755747807,-61.9630111421109 L 136.86898563569412,-61.93355041844314 L 136.88944634132304,-61.90596235054272 L 136.91251262658471,-61.88051262658471 L 136.93796235054273,-61.85744634132304 L 136.96555041844314,-61.83698563569411 L 136.99501114211088,-61.819327557478076 L 137.0260607986722,-61.80464216362105 L 137.05840036296092,-61.79307088249373 L 137.09171838729435,-61.78472515185887 L 137.12569400088464,-61.77968534566473 L 137.16,-61.778 L 137.19430599911533,-61.77968534566473 L 137.22828161270564,-61.78472515185887 L 137.26159963703907,-61.79307088249373 L 137.2939392013278,-61.80464216362105 L 137.32498885788908,-61.819327557478076 L 137.35444958155685,-61.836985635694106 L 137.38203764945726,-61.85744634132304 L 137.40748737341528,-61.880512626584704 L 137.43055365867696,-61.90596235054272 L 137.45101436430588,-61.93355041844314 L 137.46867244252192,-61.9630111421109 L 137.48335783637896,-61.994060798672216 L 137.49492911750627,-62.026400362960935 L 137.50327484814113,-62.05971838729435 L 137.50831465433527,-62.09369400088465 L 137.51,-62.128 z"/>
		</g>
	</g>
	 
</svg>
