<?xml version="1.0" ?>
<svg xmlns="http://www.w3.org/2000/svg" xmlns:xlink="http://www.w3.org/1999/xlink" version="1.1" width="18.598000000000013mm" height="9.759000000000007mm" viewBox="123.624 -80.953 18.598000000000013 9.759000000000007">
	<g transform="scale(1,-1)">
		<g>
			<path fill-rule="evenodd" fill="#66cc99" stroke="#555555" stroke-width="0.02" opacity="0.6" d="M 127.124,-69.444 L 127.11557327167634,-69.61552999557674 L 127.09037424070564,-69.78540806352822 L 127.04864558753135,-69.95199818519531 L 126.99078918189474,-70.1136960066389 L 126.91736221260962,-70.2689442894455 L 126.82907182152945,-70.41624790778431 L 126.72676829338478,-70.55418824728638 L 126.61143686707645,-70.68143686707646 L 126.48418824728637,-70.79676829338479 L 126.3462479077843,-70.89907182152946 L 126.19894428944549,-70.98736221260963 L 126.04369600663891,-71.06078918189475 L 125.8819981851953,-71.11864558753136 L 125.71540806352822,-71.16037424070565 L 125.54552999557673,-71.18557327167635 L 125.374,-71.194 L 125.20247000442326,-71.18557327167635 L 125.03259193647177,-71.16037424070565 L 124.86600181480469,-71.11864558753138 L 124.7043039933611,-71.06078918189476 L 124.5490557105545,-70.98736221260963 L 124.40175209221569,-70.89907182152946 L 124.26381175271362,-70.7967682933848 L 124.13656313292354,-70.68143686707646 L 124.02123170661521,-70.55418824728639 L 123.91892817847054,-70.41624790778431 L 123.83063778739037,-70.2689442894455 L 123.75721081810525,-70.11369600663892 L 123.69935441246864,-69.95199818519531 L 123.65762575929435,-69.78540806352822 L 123.63242672832365,-69.61552999557674 L 123.624,-69.444 L 123.63242672832365,-69.27247000442327 L 123.65762575929435,-69.10259193647178 L 123.69935441246864,-68.9360018148047 L 123.75721081810525,-68.7743039933611 L 123.83063778739037,-68.6190557105545 L 123.91892817847054,-68.4717520922157 L 124.02123170661521,-68.33381175271363 L 124.13656313292354,-68.20656313292355 L 124.26381175271362,-68.09123170661522 L 124.40175209221569,-67.98892817847054 L 124.5490557105545,-67.90063778739038 L 124.70430399336108,-67.82721081810526 L 124.86600181480469,-67.76935441246864 L 125.03259193647176,-67.72762575929436 L 125.20247000442326,-67.70242672832366 L 125.374,-67.694 L 125.54552999557671,-67.70242672832366 L 125.71540806352822,-67.72762575929436 L 125.8819981851953,-67.76935441246863 L 126.0436960066389,-67.82721081810524 L 126.19894428944548,-67.90063778739038 L 126.34624790778429,-67.98892817847054 L 126.48418824728637,-68.0912317066152 L 126.61143686707645,-68.20656313292353 L 126.72676829338478,-68.33381175271361 L 126.82907182152944,-68.4717520922157 L 126.91736221260962,-68.61905571055449 L 126.99078918189474,-68.77430399336109 L 127.04864558753135,-68.93600181480468 L 127.09037424070564,-69.10259193647177 L 127.11557327167634,-69.27247000442325 L 127.124,-69.44399999999999 L 127.124,-69.444 z"/>
			<path fill-rule="evenodd" fill="#66cc99" stroke="#555555" stroke-width="0.02" opacity="0.6" d="M 142.222,-62.535 L 142.21670319933943,-62.64281885436251 L 142.20086380844356,-62.749599354217736 L 142.17463436930544,-62.854313144979905 L 142.13826748576244,-62.9559517756016 L 142.0921133907832,-63.05353641050859 L 142.03661657353283,-63.146127256321556 L 141.972311498699,-63.232832612580005 L 141.8998174593052,-63.3128174593052 L 141.81983261258003,-63.385311498699004 L 141.73312725632158,-63.44961657353279 L 141.64053641050862,-63.50511339078319 L 141.5429517756016,-63.55126748576241 L 141.44131314497992,-63.58763436930543 L 141.33659935421775,-63.61386380844355 L 141.22981885436252,-63.62970319933941 L 141.122,-63.635 L 141.0141811456375,-63.62970319933941 L 140.90740064578227,-63.613863808443554 L 140.8026868550201,-63.58763436930543 L 140.70104822439842,-63.551267485762416 L 140.6034635894914,-63.50511339078319 L 140.51087274367845,-63.4496165735328 L 140.42416738742,-63.38531149869901 L 140.34418254069482,-63.3128174593052 L 140.271688501301,-63.23283261258001 L 140.2073834264672,-63.14612725632156 L 140.15188660921683,-63.0535364105086 L 140.1057325142376,-62.9559517756016 L 140.0693656306946,-62.854313144979905 L 140.04313619155647,-62.749599354217736 L 140.0272968006606,-62.64281885436252 L 140.02200000000002,-62.535 L 140.0272968006606,-62.42718114563748 L 140.04313619155647,-62.32040064578226 L 140.0693656306946,-62.21568685502009 L 140.1057325142376,-62.114048224398395 L 140.15188660921683,-62.0164635894914 L 140.2073834264672,-61.92387274367844 L 140.271688501301,-61.83716738741999 L 140.34418254069482,-61.75718254069479 L 140.42416738742,-61.68468850130099 L 140.51087274367845,-61.6203834264672 L 140.6034635894914,-61.564886609216806 L 140.70104822439842,-61.518732514237584 L 140.8026868550201,-61.48236563069457 L 140.90740064578227,-61.456136191556446 L 141.0141811456375,-61.44029680066058 L 141.122,-61.434999999999995 L 141.22981885436252,-61.440296800660576 L 141.33659935421775,-61.45613619155644 L 141.44131314497992,-61.48236563069457 L 141.5429517756016,-61.51873251423758 L 141.64053641050862,-61.564886609216806 L 141.73312725632158,-61.62038342646719 L 141.81983261258003,-61.68468850130098 L 141.8998174593052,-61.75718254069479 L 141.972311498699,-61.83716738741998 L 142.0366165735328,-61.92387274367843 L 142.0921133907832,-62.016463589491394 L 142.1382674857624,-62.11404822439839 L 142.17463436930544,-62.21568685502008 L 142.20086380844356,-62.32040064578225 L 142.21670319933943,-62.42718114563747 L 142.222,-62.53499999999999 L 142.222,-62.535 z"/>
		</g>
	</g>
	 
</svg>
