%TF.GenerationSoftware,KiCad,Pcbnew,8.0.1*%
%TF.CreationDate,2025-01-10T19:22:40-08:00*%
%TF.ProjectId,pulltab,70756c6c-7461-4622-9e6b-696361645f70,rev?*%
%TF.SameCoordinates,Original*%
%TF.FileFunction,Legend,Top*%
%TF.FilePolarity,Positive*%
%FSLAX46Y46*%
G04 Gerber Fmt 4.6, Leading zero omitted, Abs format (unit mm)*
G04 Created by KiCad (PCBNEW 8.0.1) date 2025-01-10 19:22:40*
%MOMM*%
%LPD*%
G01*
G04 APERTURE LIST*
%ADD10C,0.125000*%
%ADD11C,0.150000*%
%ADD12C,0.120000*%
G04 APERTURE END LIST*
D10*
X128486742Y-64041909D02*
X128486742Y-63541909D01*
X128486742Y-63541909D02*
X128772456Y-64041909D01*
X128772456Y-64041909D02*
X128772456Y-63541909D01*
X129296266Y-63994290D02*
X129272457Y-64018100D01*
X129272457Y-64018100D02*
X129201028Y-64041909D01*
X129201028Y-64041909D02*
X129153409Y-64041909D01*
X129153409Y-64041909D02*
X129081981Y-64018100D01*
X129081981Y-64018100D02*
X129034362Y-63970480D01*
X129034362Y-63970480D02*
X129010552Y-63922861D01*
X129010552Y-63922861D02*
X128986743Y-63827623D01*
X128986743Y-63827623D02*
X128986743Y-63756195D01*
X128986743Y-63756195D02*
X129010552Y-63660957D01*
X129010552Y-63660957D02*
X129034362Y-63613338D01*
X129034362Y-63613338D02*
X129081981Y-63565719D01*
X129081981Y-63565719D02*
X129153409Y-63541909D01*
X129153409Y-63541909D02*
X129201028Y-63541909D01*
X129201028Y-63541909D02*
X129272457Y-63565719D01*
X129272457Y-63565719D02*
X129296266Y-63589528D01*
X124324323Y-63592709D02*
X124324323Y-63949852D01*
X124324323Y-63949852D02*
X124300514Y-64021280D01*
X124300514Y-64021280D02*
X124252895Y-64068900D01*
X124252895Y-64068900D02*
X124181466Y-64092709D01*
X124181466Y-64092709D02*
X124133847Y-64092709D01*
X124562418Y-64092709D02*
X124562418Y-63592709D01*
X124562418Y-63592709D02*
X124848132Y-64092709D01*
X124848132Y-64092709D02*
X124848132Y-63592709D01*
X125371942Y-64045090D02*
X125348133Y-64068900D01*
X125348133Y-64068900D02*
X125276704Y-64092709D01*
X125276704Y-64092709D02*
X125229085Y-64092709D01*
X125229085Y-64092709D02*
X125157657Y-64068900D01*
X125157657Y-64068900D02*
X125110038Y-64021280D01*
X125110038Y-64021280D02*
X125086228Y-63973661D01*
X125086228Y-63973661D02*
X125062419Y-63878423D01*
X125062419Y-63878423D02*
X125062419Y-63806995D01*
X125062419Y-63806995D02*
X125086228Y-63711757D01*
X125086228Y-63711757D02*
X125110038Y-63664138D01*
X125110038Y-63664138D02*
X125157657Y-63616519D01*
X125157657Y-63616519D02*
X125229085Y-63592709D01*
X125229085Y-63592709D02*
X125276704Y-63592709D01*
X125276704Y-63592709D02*
X125348133Y-63616519D01*
X125348133Y-63616519D02*
X125371942Y-63640328D01*
X139836685Y-75198919D02*
X139789066Y-75175109D01*
X139789066Y-75175109D02*
X139717637Y-75175109D01*
X139717637Y-75175109D02*
X139646209Y-75198919D01*
X139646209Y-75198919D02*
X139598590Y-75246538D01*
X139598590Y-75246538D02*
X139574780Y-75294157D01*
X139574780Y-75294157D02*
X139550971Y-75389395D01*
X139550971Y-75389395D02*
X139550971Y-75460823D01*
X139550971Y-75460823D02*
X139574780Y-75556061D01*
X139574780Y-75556061D02*
X139598590Y-75603680D01*
X139598590Y-75603680D02*
X139646209Y-75651300D01*
X139646209Y-75651300D02*
X139717637Y-75675109D01*
X139717637Y-75675109D02*
X139765256Y-75675109D01*
X139765256Y-75675109D02*
X139836685Y-75651300D01*
X139836685Y-75651300D02*
X139860494Y-75627490D01*
X139860494Y-75627490D02*
X139860494Y-75460823D01*
X139860494Y-75460823D02*
X139765256Y-75460823D01*
X140074780Y-75675109D02*
X140074780Y-75175109D01*
X140074780Y-75175109D02*
X140360494Y-75675109D01*
X140360494Y-75675109D02*
X140360494Y-75175109D01*
X140598590Y-75675109D02*
X140598590Y-75175109D01*
X140598590Y-75175109D02*
X140717638Y-75175109D01*
X140717638Y-75175109D02*
X140789066Y-75198919D01*
X140789066Y-75198919D02*
X140836685Y-75246538D01*
X140836685Y-75246538D02*
X140860495Y-75294157D01*
X140860495Y-75294157D02*
X140884304Y-75389395D01*
X140884304Y-75389395D02*
X140884304Y-75460823D01*
X140884304Y-75460823D02*
X140860495Y-75556061D01*
X140860495Y-75556061D02*
X140836685Y-75603680D01*
X140836685Y-75603680D02*
X140789066Y-75651300D01*
X140789066Y-75651300D02*
X140717638Y-75675109D01*
X140717638Y-75675109D02*
X140598590Y-75675109D01*
X141574780Y-75175109D02*
X141670018Y-75175109D01*
X141670018Y-75175109D02*
X141717637Y-75198919D01*
X141717637Y-75198919D02*
X141765256Y-75246538D01*
X141765256Y-75246538D02*
X141789066Y-75341776D01*
X141789066Y-75341776D02*
X141789066Y-75508442D01*
X141789066Y-75508442D02*
X141765256Y-75603680D01*
X141765256Y-75603680D02*
X141717637Y-75651300D01*
X141717637Y-75651300D02*
X141670018Y-75675109D01*
X141670018Y-75675109D02*
X141574780Y-75675109D01*
X141574780Y-75675109D02*
X141527161Y-75651300D01*
X141527161Y-75651300D02*
X141479542Y-75603680D01*
X141479542Y-75603680D02*
X141455733Y-75508442D01*
X141455733Y-75508442D02*
X141455733Y-75341776D01*
X141455733Y-75341776D02*
X141479542Y-75246538D01*
X141479542Y-75246538D02*
X141527161Y-75198919D01*
X141527161Y-75198919D02*
X141574780Y-75175109D01*
X142003352Y-75175109D02*
X142003352Y-75579871D01*
X142003352Y-75579871D02*
X142027162Y-75627490D01*
X142027162Y-75627490D02*
X142050971Y-75651300D01*
X142050971Y-75651300D02*
X142098590Y-75675109D01*
X142098590Y-75675109D02*
X142193828Y-75675109D01*
X142193828Y-75675109D02*
X142241447Y-75651300D01*
X142241447Y-75651300D02*
X142265257Y-75627490D01*
X142265257Y-75627490D02*
X142289066Y-75579871D01*
X142289066Y-75579871D02*
X142289066Y-75175109D01*
X142455734Y-75175109D02*
X142741448Y-75175109D01*
X142598591Y-75675109D02*
X142598591Y-75175109D01*
X128883696Y-75175109D02*
X129050362Y-75675109D01*
X129050362Y-75675109D02*
X129217029Y-75175109D01*
X129550362Y-75413204D02*
X129621790Y-75437014D01*
X129621790Y-75437014D02*
X129645600Y-75460823D01*
X129645600Y-75460823D02*
X129669409Y-75508442D01*
X129669409Y-75508442D02*
X129669409Y-75579871D01*
X129669409Y-75579871D02*
X129645600Y-75627490D01*
X129645600Y-75627490D02*
X129621790Y-75651300D01*
X129621790Y-75651300D02*
X129574171Y-75675109D01*
X129574171Y-75675109D02*
X129383695Y-75675109D01*
X129383695Y-75675109D02*
X129383695Y-75175109D01*
X129383695Y-75175109D02*
X129550362Y-75175109D01*
X129550362Y-75175109D02*
X129597981Y-75198919D01*
X129597981Y-75198919D02*
X129621790Y-75222728D01*
X129621790Y-75222728D02*
X129645600Y-75270347D01*
X129645600Y-75270347D02*
X129645600Y-75317966D01*
X129645600Y-75317966D02*
X129621790Y-75365585D01*
X129621790Y-75365585D02*
X129597981Y-75389395D01*
X129597981Y-75389395D02*
X129550362Y-75413204D01*
X129550362Y-75413204D02*
X129383695Y-75413204D01*
X129859886Y-75532252D02*
X130097981Y-75532252D01*
X129812267Y-75675109D02*
X129978933Y-75175109D01*
X129978933Y-75175109D02*
X130145600Y-75675109D01*
X130240838Y-75175109D02*
X130526552Y-75175109D01*
X130383695Y-75675109D02*
X130383695Y-75175109D01*
X130621790Y-75175109D02*
X130907504Y-75175109D01*
X130764647Y-75675109D02*
X130764647Y-75175109D01*
X134785219Y-75198919D02*
X134737600Y-75175109D01*
X134737600Y-75175109D02*
X134666171Y-75175109D01*
X134666171Y-75175109D02*
X134594743Y-75198919D01*
X134594743Y-75198919D02*
X134547124Y-75246538D01*
X134547124Y-75246538D02*
X134523314Y-75294157D01*
X134523314Y-75294157D02*
X134499505Y-75389395D01*
X134499505Y-75389395D02*
X134499505Y-75460823D01*
X134499505Y-75460823D02*
X134523314Y-75556061D01*
X134523314Y-75556061D02*
X134547124Y-75603680D01*
X134547124Y-75603680D02*
X134594743Y-75651300D01*
X134594743Y-75651300D02*
X134666171Y-75675109D01*
X134666171Y-75675109D02*
X134713790Y-75675109D01*
X134713790Y-75675109D02*
X134785219Y-75651300D01*
X134785219Y-75651300D02*
X134809028Y-75627490D01*
X134809028Y-75627490D02*
X134809028Y-75460823D01*
X134809028Y-75460823D02*
X134713790Y-75460823D01*
X135023314Y-75675109D02*
X135023314Y-75175109D01*
X135023314Y-75175109D02*
X135309028Y-75675109D01*
X135309028Y-75675109D02*
X135309028Y-75175109D01*
X135547124Y-75675109D02*
X135547124Y-75175109D01*
X135547124Y-75175109D02*
X135666172Y-75175109D01*
X135666172Y-75175109D02*
X135737600Y-75198919D01*
X135737600Y-75198919D02*
X135785219Y-75246538D01*
X135785219Y-75246538D02*
X135809029Y-75294157D01*
X135809029Y-75294157D02*
X135832838Y-75389395D01*
X135832838Y-75389395D02*
X135832838Y-75460823D01*
X135832838Y-75460823D02*
X135809029Y-75556061D01*
X135809029Y-75556061D02*
X135785219Y-75603680D01*
X135785219Y-75603680D02*
X135737600Y-75651300D01*
X135737600Y-75651300D02*
X135666172Y-75675109D01*
X135666172Y-75675109D02*
X135547124Y-75675109D01*
X136428076Y-75675109D02*
X136428076Y-75175109D01*
X136666171Y-75675109D02*
X136666171Y-75175109D01*
X136666171Y-75175109D02*
X136951885Y-75675109D01*
X136951885Y-75675109D02*
X136951885Y-75175109D01*
X123498896Y-75175109D02*
X123665562Y-75675109D01*
X123665562Y-75675109D02*
X123832229Y-75175109D01*
X124165562Y-75413204D02*
X124236990Y-75437014D01*
X124236990Y-75437014D02*
X124260800Y-75460823D01*
X124260800Y-75460823D02*
X124284609Y-75508442D01*
X124284609Y-75508442D02*
X124284609Y-75579871D01*
X124284609Y-75579871D02*
X124260800Y-75627490D01*
X124260800Y-75627490D02*
X124236990Y-75651300D01*
X124236990Y-75651300D02*
X124189371Y-75675109D01*
X124189371Y-75675109D02*
X123998895Y-75675109D01*
X123998895Y-75675109D02*
X123998895Y-75175109D01*
X123998895Y-75175109D02*
X124165562Y-75175109D01*
X124165562Y-75175109D02*
X124213181Y-75198919D01*
X124213181Y-75198919D02*
X124236990Y-75222728D01*
X124236990Y-75222728D02*
X124260800Y-75270347D01*
X124260800Y-75270347D02*
X124260800Y-75317966D01*
X124260800Y-75317966D02*
X124236990Y-75365585D01*
X124236990Y-75365585D02*
X124213181Y-75389395D01*
X124213181Y-75389395D02*
X124165562Y-75413204D01*
X124165562Y-75413204D02*
X123998895Y-75413204D01*
X124475086Y-75532252D02*
X124713181Y-75532252D01*
X124427467Y-75675109D02*
X124594133Y-75175109D01*
X124594133Y-75175109D02*
X124760800Y-75675109D01*
X124856038Y-75175109D02*
X125141752Y-75175109D01*
X124998895Y-75675109D02*
X124998895Y-75175109D01*
X125236990Y-75175109D02*
X125522704Y-75175109D01*
X125379847Y-75675109D02*
X125379847Y-75175109D01*
X133762388Y-62365509D02*
X133476674Y-62365509D01*
X133619531Y-62365509D02*
X133619531Y-61865509D01*
X133619531Y-61865509D02*
X133571912Y-61936938D01*
X133571912Y-61936938D02*
X133524293Y-61984557D01*
X133524293Y-61984557D02*
X133476674Y-62008366D01*
X133976673Y-62365509D02*
X133976673Y-61865509D01*
X134262387Y-62365509D02*
X134048102Y-62079795D01*
X134262387Y-61865509D02*
X133976673Y-62151223D01*
X134571911Y-61865509D02*
X134667149Y-61865509D01*
X134667149Y-61865509D02*
X134714768Y-61889319D01*
X134714768Y-61889319D02*
X134762387Y-61936938D01*
X134762387Y-61936938D02*
X134786197Y-62032176D01*
X134786197Y-62032176D02*
X134786197Y-62198842D01*
X134786197Y-62198842D02*
X134762387Y-62294080D01*
X134762387Y-62294080D02*
X134714768Y-62341700D01*
X134714768Y-62341700D02*
X134667149Y-62365509D01*
X134667149Y-62365509D02*
X134571911Y-62365509D01*
X134571911Y-62365509D02*
X134524292Y-62341700D01*
X134524292Y-62341700D02*
X134476673Y-62294080D01*
X134476673Y-62294080D02*
X134452864Y-62198842D01*
X134452864Y-62198842D02*
X134452864Y-62032176D01*
X134452864Y-62032176D02*
X134476673Y-61936938D01*
X134476673Y-61936938D02*
X134524292Y-61889319D01*
X134524292Y-61889319D02*
X134571911Y-61865509D01*
X135000483Y-62365509D02*
X135000483Y-61865509D01*
X135214769Y-62365509D02*
X135214769Y-62103604D01*
X135214769Y-62103604D02*
X135190959Y-62055985D01*
X135190959Y-62055985D02*
X135143340Y-62032176D01*
X135143340Y-62032176D02*
X135071912Y-62032176D01*
X135071912Y-62032176D02*
X135024293Y-62055985D01*
X135024293Y-62055985D02*
X135000483Y-62079795D01*
X135452864Y-62365509D02*
X135452864Y-62032176D01*
X135452864Y-62079795D02*
X135476674Y-62055985D01*
X135476674Y-62055985D02*
X135524293Y-62032176D01*
X135524293Y-62032176D02*
X135595721Y-62032176D01*
X135595721Y-62032176D02*
X135643340Y-62055985D01*
X135643340Y-62055985D02*
X135667150Y-62103604D01*
X135667150Y-62103604D02*
X135667150Y-62365509D01*
X135667150Y-62103604D02*
X135690959Y-62055985D01*
X135690959Y-62055985D02*
X135738578Y-62032176D01*
X135738578Y-62032176D02*
X135810007Y-62032176D01*
X135810007Y-62032176D02*
X135857626Y-62055985D01*
X135857626Y-62055985D02*
X135881436Y-62103604D01*
X135881436Y-62103604D02*
X135881436Y-62365509D01*
D11*
X122004457Y-69538838D02*
X121956838Y-69634076D01*
X121956838Y-69634076D02*
X121861600Y-69729314D01*
X121861600Y-69729314D02*
X121718742Y-69872171D01*
X121718742Y-69872171D02*
X121671123Y-69967409D01*
X121671123Y-69967409D02*
X121671123Y-70062647D01*
X121909219Y-70015028D02*
X121861600Y-70110266D01*
X121861600Y-70110266D02*
X121766361Y-70205504D01*
X121766361Y-70205504D02*
X121575885Y-70253123D01*
X121575885Y-70253123D02*
X121242552Y-70253123D01*
X121242552Y-70253123D02*
X121052076Y-70205504D01*
X121052076Y-70205504D02*
X120956838Y-70110266D01*
X120956838Y-70110266D02*
X120909219Y-70015028D01*
X120909219Y-70015028D02*
X120909219Y-69824552D01*
X120909219Y-69824552D02*
X120956838Y-69729314D01*
X120956838Y-69729314D02*
X121052076Y-69634076D01*
X121052076Y-69634076D02*
X121242552Y-69586457D01*
X121242552Y-69586457D02*
X121575885Y-69586457D01*
X121575885Y-69586457D02*
X121766361Y-69634076D01*
X121766361Y-69634076D02*
X121861600Y-69729314D01*
X121861600Y-69729314D02*
X121909219Y-69824552D01*
X121909219Y-69824552D02*
X121909219Y-70015028D01*
X121909219Y-68634076D02*
X121909219Y-69205504D01*
X121909219Y-68919790D02*
X120909219Y-68919790D01*
X120909219Y-68919790D02*
X121052076Y-69015028D01*
X121052076Y-69015028D02*
X121147314Y-69110266D01*
X121147314Y-69110266D02*
X121194933Y-69205504D01*
D12*
%TO.C,Q1*%
X122454400Y-64323600D02*
X138344400Y-64323600D01*
X122454400Y-74563600D02*
X122454400Y-64323600D01*
X122454400Y-74563600D02*
X138344399Y-74563600D01*
X138344399Y-74563600D02*
X138344400Y-64323600D01*
X138344400Y-66903601D02*
X140884400Y-66903600D01*
X138344400Y-69443600D02*
X140884400Y-69443600D01*
X138344400Y-71983600D02*
X140884400Y-71983600D01*
%TO.C,J1*%
X127328000Y-60475200D02*
X130228000Y-60475200D01*
X127328000Y-63375200D02*
X127328000Y-60475200D01*
X130228000Y-60475200D02*
X130228000Y-63375200D01*
X130228000Y-63375200D02*
X127328000Y-63375200D01*
%TO.C,J4*%
X122310800Y-76286000D02*
X126710800Y-76286000D01*
X122310800Y-80686000D02*
X122310800Y-76286000D01*
X126710800Y-76286000D02*
X126710800Y-80686000D01*
X126710800Y-80686000D02*
X122310800Y-80686000D01*
%TO.C,J6*%
X127695600Y-76286000D02*
X132095600Y-76286000D01*
X127695600Y-80686000D02*
X127695600Y-76286000D01*
X132095600Y-76286000D02*
X132095600Y-80686000D01*
X132095600Y-80686000D02*
X127695600Y-80686000D01*
%TO.C,J2*%
X133537600Y-76286000D02*
X137937600Y-76286000D01*
X133537600Y-80686000D02*
X133537600Y-76286000D01*
X137937600Y-76286000D02*
X137937600Y-80686000D01*
X137937600Y-80686000D02*
X133537600Y-80686000D01*
%TO.C,R1*%
X132700000Y-63048400D02*
X136540000Y-63048400D01*
X132700000Y-61208400D02*
X136540000Y-61208400D01*
%TO.C,J5*%
X123365600Y-60475200D02*
X126265600Y-60475200D01*
X123365600Y-63375200D02*
X123365600Y-60475200D01*
X126265600Y-60475200D02*
X126265600Y-63375200D01*
X126265600Y-63375200D02*
X123365600Y-63375200D01*
%TO.C,J7*%
X138922400Y-76286000D02*
X143322400Y-76286000D01*
X138922400Y-80686000D02*
X138922400Y-76286000D01*
X143322400Y-76286000D02*
X143322400Y-80686000D01*
X143322400Y-80686000D02*
X138922400Y-80686000D01*
%TD*%
M02*
